<svg xmlns="http://www.w3.org/2000/svg" width="398.108" height="90.513"><path fill="#FFD900" d="M72.929 74.988L65.653.01h-.011l-7.386 76.223c4.784-.525 9.676-.948 14.673-1.245"/><path fill="#59B337" d="M90.732 74.434L90.754.01 65.649 0l.004.01 7.275 74.978a312.72 312.72 0 0117.804-.554"/><path fill="#004FB6" d="M58.257 76.233L65.643.01l.003-.01L0 .01l.031 90.503c15.424-6.743 35.502-11.762 58.226-14.28m187.107-54.198c1.186.216 5.443 1.457 5.443 4.476v48.446h14.402V20.311h-19.846v1.724m-109.6 31.142l9.649-21.502 8.424 21.502h-18.073m-3.637-32.866v1.725c1.746.36 5.53 1.422 3.996 4.829l-21.477 48.092h11.344l6.726-14.989h23.788l5.879 14.989h14.922l-21.316-54.646h-23.862zm224.431 32.866l9.646-21.502 8.428 21.502h-18.074m-3.637-32.866v1.725c1.738.36 5.523 1.422 3.986 4.829l-21.473 48.092h11.35l6.715-14.989h23.793l5.883 14.989h14.934L376.78 20.311h-23.86zm-38.312 54.646l22.773-54.646h-10.768L309.91 60.384l-15.889-40.073H273.78v1.725c2.34.445 4.963 1.457 6.162 4.476l19.211 48.446h15.455m-99.822-.001l22.781-54.646h-10.775L210.09 60.383 194.201 20.31h-20.237v1.725c2.339.445 4.956 1.457 6.158 4.476l19.2 48.446h15.464"/></svg>