<svg width="32" height="32" viewBox="0 0 32 32" fill="none" xmlns="http://www.w3.org/2000/svg">
<path fill-rule="evenodd" clip-rule="evenodd" d="M2 0C1.44772 0 1 0.447716 1 1V25C1 25.5523 1.44772 26 2 26H5.20511C5.21992 25.4557 5.23727 24.9081 5.25866 24.3563L5.25877 24.3533C5.33377 22.5551 5.43138 20.7675 5.59097 19.0164L5.12517 18.7907H3V13.36H6.15906C6.29314 12.308 6.43956 11.2745 6.59616 10.2619L6.60869 10.1809L6.63424 10.103C6.58792 10.2442 6.71154 9.50824 7.2495 9.01807L7.2912 8.98008L7.3369 8.94702C7.62192 8.74084 8.05223 8.5 8.62859 8.5H23.3709C23.9473 8.5 24.3776 8.74084 24.6626 8.94702L24.7085 8.98021L24.7503 9.01837C25.2877 9.5084 25.4113 10.2434 25.3653 10.103L25.3908 10.1809L25.4033 10.2619C25.5599 11.2745 25.7064 12.3079 25.8405 13.36H29V18.7907H26.8748L26.409 19.0164C26.5686 20.7674 26.6662 22.5549 26.7412 24.3533L26.7414 24.3564C26.7626 24.9082 26.78 25.4557 26.7948 26H30C30.5523 26 31 25.5523 31 25V1C31 0.447715 30.5523 0 30 0H2Z" fill="#004FB6"/>
<path fill-rule="evenodd" clip-rule="evenodd" d="M25.9958 17.505L26.1651 14.36H28V17.7907H26.6454L25.347 18.4197C25.5444 20.3637 25.6574 22.365 25.7421 24.395C25.7984 25.853 25.8267 27.2825 25.8549 28.712C25.883 28.9407 25.7984 29.141 25.6856 29.341V31.714C25.6856 31.857 25.5725 32 25.4032 32H22.2823C22.1412 32 22 31.8855 22 31.714V29.75H10V31.714C10 31.8857 9.85883 32 9.71767 32H6.59675C6.4272 32 6.31442 31.857 6.31442 31.714V29.341C6.20164 29.1407 6.11699 28.9407 6.14512 28.712C6.17326 27.2825 6.20139 25.853 6.25791 24.395C6.34256 22.3652 6.45559 20.3637 6.65302 18.4197L5.35464 17.7907H4V14.36H5.83441L6.00371 17.505L6.68115 17.848C6.90697 15.275 7.21743 12.7877 7.58441 10.4147C7.58901 10.4007 7.59361 10.3806 7.59932 10.3556L7.59933 10.3556L7.59933 10.3556L7.59933 10.3556C7.62855 10.2277 7.68685 9.97243 7.92301 9.75725C8.1207 9.61425 8.34626 9.5 8.62859 9.5H9.00537H22.9941H23.3709C23.6532 9.5 23.8788 9.61425 24.0765 9.75725C24.3125 9.97247 24.3709 10.2278 24.4002 10.3557L24.4002 10.3557L24.4002 10.3557C24.4059 10.3807 24.4105 10.4007 24.4151 10.4147C24.7821 12.7875 25.0925 15.275 25.3183 17.848L25.9958 17.505ZM8.52162 10.625L7.75 18.125H24.25L23.4784 10.625H8.52162ZM19.75 25.25H12.25L11.5 22.25H20.5L19.75 25.25ZM7.75 24.5H10L9.70006 22.6501C9.57501 21.975 9.07504 21.5 8.47493 21.5H7.75V24.5ZM22 24.5H24.25V21.5H23.5251C22.925 21.5 22.425 21.975 22.2999 22.6501L22 24.5ZM13 26.75H19V28.25H13V26.75Z" fill="#004FB6"/>
</svg>
