<svg xmlns="http://www.w3.org/2000/svg" width="19" height="20" viewBox="0 0 19 20"><g fill="#5c596d"><path d="M14.22 4.1c.73 0 1.32-.6 1.32-1.35v-1.4c0-.75-.6-1.35-1.32-1.35-.73 0-1.32.6-1.32 1.35v1.4c0 .75.6 1.35 1.32 1.35zm4.7-1.77h-2.66V3c0 1.14-.9 2.06-2.02 2.06-1.1 0-2-.92-2-2.05v-.67h-5.4V3c0 1.14-.9 2.06-2 2.06S2.82 4.14 2.82 3v-.67L.14 2.3v17.1h18.8l-.02-17.07zM17.6 18.05H1.48V7.1H17.6v10.95zM4.82 4.1c.73 0 1.32-.6 1.32-1.35v-1.4C6.14.6 5.54 0 4.82 0 4.1 0 3.5.6 3.5 1.35v1.4c0 .75.6 1.35 1.32 1.35z"/><path d="M6.86 8.58h2.1v1.9h-2.1zm3.42 0h2.12v1.9h-2.12zm3.18 0h2.1v1.9h-2.1zm-6.6 3.16h2.1v1.9h-2.1zm3.42 0h2.12v1.9h-2.12zm3.18 0h2.1v1.9h-2.1zm-6.6 3.22h2.1v1.9h-2.1zM3.5 11.74h2.1v1.9H3.5zm0 3.22h2.1v1.9H3.5zm6.78 0h2.12v1.9h-2.12zm3.18 0h2.1v1.9h-2.1z"/></g></svg>
