<svg width="24" height="24" viewBox="0 0 24 24" fill="none" xmlns="http://www.w3.org/2000/svg">
<path d="M8.10439 2.445C9.79528 -0.814999 14.2047 -0.814999 15.8956 2.445L23.4412 16.9928C25.075 20.1426 22.9305 24 19.5456 24H4.45438C1.06953 24 -1.07498 20.1426 0.558766 16.9928L8.10439 2.445Z" fill="#B10101"/>
<path fill-rule="evenodd" clip-rule="evenodd" d="M11.2424 9C10.5937 9 10.1026 9.59243 10.2164 10.2378L10.8614 13.8964C10.95 14.3989 11.3823 14.7648 11.8874 14.7648H12.1125C12.6176 14.7648 13.0499 14.3989 13.1385 13.8964L13.7835 10.2378C13.8973 9.59243 13.4062 9 12.7575 9H11.2424ZM10.9159 19.3947C11.2239 19.6652 11.6209 19.8095 12.0288 19.7995C12.4367 19.8095 12.8336 19.6652 13.1416 19.3947C13.4384 19.1269 13.6016 18.7394 13.5868 18.3376C13.6156 17.9139 13.4518 17.4999 13.1416 17.2131C12.4911 16.6869 11.5664 16.6869 10.9159 17.2131C10.6058 17.4999 10.4419 17.9139 10.4708 18.3376C10.4559 18.7394 10.6191 19.1269 10.9159 19.3947Z" fill="white"/>
</svg>
