<svg xmlns="http://www.w3.org/2000/svg" width="180.01" height="20" viewBox="0 0 180 20"><path fill="#004fb6" d="M18.9 0H1.1C.5 0 0 .5 0 1.1v17.8c0 .6.5 1.1 1.1 1.1h9.58v-7.74h-2.6V9.24h2.6V7c-.1-1.06.26-2.12 1-2.9.76-.76 1.8-1.16 2.88-1.08.78 0 1.56.04 2.33.12v2.7h-1.6c-.4-.1-.87.03-1.17.33-.3.3-.43.72-.35 1.14v1.96h3l-.4 3.02h-2.6V20h5.1c.6 0 1.1-.5 1.1-1.1V1.1c0-.6-.5-1.1-1.1-1.1h.02z"/><path fill="#002185" d="M178.92 0h-17.8c-.6 0-1.1.5-1.1 1.1v17.8c0 .6.5 1.1 1.1 1.1h9.58v-7.74h-2.6V9.24h2.6V7c-.1-1.06.26-2.12 1-2.9.76-.76 1.8-1.16 2.88-1.08.78 0 1.56.04 2.33.12v2.7h-1.6c-.4-.1-.84.03-1.13.33-.3.3-.43.72-.35 1.14v1.96h3l-.4 3.02h-2.6V20h5.1c.6 0 1.1-.5 1.1-1.1V1.1c0-.6-.5-1.1-1.1-1.1h.02-.02z"/><path fill="#fff" d="M98.9 0H81.1c-.6 0-1.1.5-1.1 1.1v17.8c0 .6.5 1.1 1.1 1.1h9.6v-7.74h-2.6V9.24h2.6V7c-.1-1.06.25-2.12 1-2.9.75-.76 1.8-1.16 2.87-1.08.78 0 1.56.04 2.33.12v2.7h-1.6c-.4-.1-.86.03-1.15.33-.3.3-.43.72-.35 1.14v1.96h3l-.4 3.02h-2.6V20h5.1c.6 0 1.1-.5 1.1-1.1V1.1c0-.6-.5-1.1-1.1-1.1zm62.22 20h9.58v-7.74h-2.6V9.24h2.6V7c-.1-1.06.26-2.12 1-2.9.76-.76 1.8-1.16 2.88-1.08.78 0 1.56.04 2.33.12v2.7h-1.6c-.4-.1-.84.03-1.13.33-.3.3-.43.72-.35 1.14v1.96h3l-.4 3.02h-2.6V20h5.1M1.1 20h9.57v-7.74h-2.6V9.24h2.6V7c-.1-1.06.26-2.12 1-2.9.76-.76 1.8-1.16 2.88-1.08.78 0 1.56.04 2.33.12v2.7h-1.6c-.4-.1-.85.03-1.14.33-.3.3-.43.72-.35 1.14v1.96h3l-.4 3.02h-2.6V20h5.1"/></svg>
