<svg xmlns="http://www.w3.org/2000/svg" width="361" height="600" viewBox="0 0 361 600" fill="none">
  <path d="M1566.44 0.00695801C1563.85 0.00695801 781.379 0.0887451 781.379 0.0887451C701.244 0.0887451 632.926 33.9359 585.593 90.0206C560.754 119.457 543.399 154.477 533.283 191.658L436.368 547.704L339.411 191.644C329.288 154.47 311.934 119.45 287.102 90.0206C239.775 33.9291 171.465 0.0887451 91.3566 0.0887451C91.3566 0.0887451 -352.06 0.00720215 -354.651 0.00720215C-562.72 0.00720215 -611.734 139.916 -604.291 242.05C-603.683 250.483 -602.671 258.671 -601.338 266.49C-589.151 338.431 -569.965 377.173 -526.288 488.109L310.016 1693.18C351.307 1792.15 451.088 1857 562.043 1857H988.782C1099.74 1857 1199.52 1792.16 1240.81 1693.18L1738.02 488.102C1781.69 377.173 1800.92 338.424 1813.11 266.483C1814.45 258.622 1815.42 250.394 1816.02 241.921C1823.43 139.786 1774.37 0 1566.42 0" fill="#E6F3FE"/>
</svg>
