<svg xmlns="http://www.w3.org/2000/svg" width="32" height="32" viewBox="0 0 32 32"><path d="M19 13c0 .275.225.5.5.5h7c.275 0 .5-.225.5-.5s-.225-.5-.5-.5h-7c-.275 0-.5.225-.5.5zm0 3c0 .275.225.5.5.5h7c.275 0 .5-.225.5-.5s-.225-.5-.5-.5h-7c-.275 0-.5.225-.5.5zm0 3c0 .275.225.5.5.5h7c.275 0 .5-.225.5-.5s-.225-.5-.5-.5h-7c-.275 0-.5.225-.5.5zM16 0C7.163 0 0 7.163 0 16s7.163 16 16 16 16-7.163 16-16S24.837 0 16 0zm-1 15.5H7.51c.038-2.328.338-4.528.851-6.5H15zm0 1V23H8.362c-.513-1.972-.813-4.172-.851-6.5zm0-14.454V8H8.647c.631-2.041 1.495-3.791 2.524-5.129A13.98 13.98 0 0 1 15 2.046zM9.424 3.642C8.686 4.897 8.064 6.366 7.586 8H4.527a14.054 14.054 0 0 1 4.897-4.358zM3.89 9h3.427c-.49 1.982-.771 4.175-.807 6.5H2.025A13.962 13.962 0 0 1 3.89 9zm-1.873 7.5H6.51c.036 2.325.318 4.518.807 6.5H3.888a13.929 13.929 0 0 1-1.871-6.5zM4.52 24h3.066c.478 1.634 1.1 3.104 1.838 4.358A14.093 14.093 0 0 1 4.52 24zm4.127 0H15v5.954a13.98 13.98 0 0 1-3.829-.825C10.142 27.79 9.277 26.041 8.647 24zM16 30V2c7.732 0 14 6.268 14 14s-6.268 14-14 14z" fill="#106cb2"/></svg>
