<svg xmlns="http://www.w3.org/2000/svg" viewBox="0 0 176 176"><circle fill="#D7D7D7" cx="88" cy="88" r="88"/><path fill="#F1F1F1" d="M88 176c-48.601 0-88-39.399-88-88S39.399 0 88 0v176z"/><circle fill="#106CB2" cx="87.999" cy="88" r="64"/><path fill="#0296C8" d="M87.999 24C52.653 24 24 52.653 24 88s28.653 64 63.999 64V24z"/><path fill="#106CB2" d="M87 45c-1.781 6.793-5.62 19.94-10.833 29.397C68.852 87.663 57 103 57 103h30V45z"/><path fill="#0296C8" d="M89 48.125c2.056 5.394 6.312 17.446 7.722 28.158 1.885 14.32-1.696 29.89-1.696 29.89s5.089-1.634 13.852-1.922C117.642 103.963 126.5 108 126.5 108s-.66-7.401-14.041-31.909C101.6 56.203 92.17 48.281 89 46v2.125zm21.25-8.475L87.75 45v-9z"/><path fill="#FFD900" d="M86.865 105.75H52.811c-.627 0-1.135.504-1.135 1.125S52.184 108 52.811 108h34.054v7.007L46 117.382 50.541 126h74.919l4.54-13.5-40.865 2.375v-77.75c0-.621-.508-1.125-1.135-1.125s-1.135.504-1.135 1.125v68.625z"/></svg>