<svg width="150" height="150" xmlns="http://www.w3.org/2000/svg"><g fill="none" fill-rule="evenodd"><g fill-rule="nonzero"><path d="M129.305 22.664V0H20.214v22.664L7.489 34.348v84.86C7.489 136.186 21.405 150 38.51 150h72.667c8.37 0 16.21-3.257 22.08-9.17 5.779-5.823 8.934-13.522 8.889-21.69V34.352l-12.842-11.689z" fill="#D7D7D7"/><path d="M74.818 0H20.214v22.664L7.489 34.348v84.86C7.489 136.186 21.405 150 38.51 150h36.307V0z" fill="#F1F1F1"/></g><g fill-rule="nonzero"><path d="M121.143 43.303l-13.295-12.285h-66.06L28.493 43.303v75.905c-.053 5.71 4.654 10.337 10.462 10.337h71.727c5.806 0 10.514-4.627 10.461-10.337V43.303z" fill="#106CB2"/><path d="M74.818 31.018h-33.03L28.493 43.304v75.905c-.053 5.709 4.654 10.336 10.462 10.336h35.863V31.018zM40.727 20.455h68.182v6.366H40.727z" fill="#0296C8"/><path fill="#106CB2" d="M74.818 20.455h34.091v6.366H74.82z"/></g><path d="M74.385 52.84c2.674 0 5.266.352 7.733 1.014l1.74-4.191a34.4 34.4 0 00-9.474-1.322c-18.982 0-34.37 15.388-34.37 34.371 0 18.984 15.388 34.372 34.37 34.372 18.983 0 34.372-15.388 34.372-34.372l-.001-.258-4.502.695c-.234 16.27-13.543 29.435-29.87 29.435-16.47 0-29.87-13.4-29.87-29.873 0-16.47 13.401-29.872 29.872-29.872" fill="#FFD900" fill-rule="nonzero"/><path d="M90.796 44.295a41.887 41.887 0 0115.67 11.34 41.608 41.608 0 019.64 20.851l-41.288 5.851 15.978-38.042z" fill="#FFD900" fill-rule="nonzero"/><text font-size="24" font-weight="700" fill="#106CB2" transform="translate(39.875 43.466)"><tspan x="49" y="31">$</tspan></text></g></svg>