<svg xmlns="http://www.w3.org/2000/svg" viewBox="0 0 176 176"><path fill="#F1F1F1" d="M0 0h88v176H0z"/><path fill="#D7D7D7" d="M88 0h88v176H88z"/><path fill="#106CB2" d="M24 24h128v128H24z"/><path fill="#0296C8" d="M24 24h64v128H24z"/><path fill="#106CB2" d="M62.565 156.175h51.775v8.938H62.565z"/><path fill="#0296C8" d="M88 50h51.212v76H88z"/><path fill="#FFD900" d="M110.155 116.04l-.075-.001a2.655 2.655 0 01-2.468-1.886L94.444 70.608 81.41 102.972a2.66 2.66 0 01-2.144 1.644 2.647 2.647 0 01-2.474-1.084L64.557 86.551l-9.508 16.954a2.657 2.657 0 01-3.615 1.018 2.657 2.657 0 01-1.018-3.615L61.96 80.322a2.658 2.658 0 014.471-.254l11.853 16.449 14.054-34.895a2.677 2.677 0 012.582-1.661 2.655 2.655 0 012.423 1.884l13.046 45.218 10.384-28.5c.502-3.456 2.029-4.164 3.403-3.664a2.655 2.655 0 011.586 3.404l-13.113 35.99a2.655 2.655 0 01-2.494 1.747z"/></svg>