<svg xmlns="http://www.w3.org/2000/svg" viewBox="0 0 176 176"><circle fill="#D7D7D7" cx="88" cy="88" r="88"/><path fill="#F1F1F1" d="M88 176c-48.601 0-88-39.399-88-88S39.399 0 88 0v176z"/><circle fill="#106CB2" cx="87.999" cy="88" r="64"/><path fill="#0296C8" d="M87.999 24C52.653 24 24 52.653 24 88s28.653 64 63.999 64V24z"/><path fill="#FFD900" d="M127.901 81.578h-5.707l-.101 5.802-.708 40.62H52.898l.708-40.62.101-5.802H48l.099-5.652L88.536 48 128 75.926z"/><path fill="#0296C8" d="M84.5 88.458L78.373 94.5l-3.688-3.698c-1.053-1.055-2.512-1.638-3.997-1.508-2.669.234-5.411-.65-7.456-2.696-2.108-2.109-2.984-4.961-2.671-7.71a.991.991 0 011.685-.588l3.649 3.653 4.767-1.271 1.282-4.768-3.661-3.666a.992.992 0 01.588-1.686c2.751-.315 5.606.562 7.715 2.673 2.05 2.051 2.935 4.804 2.695 7.481-.128 1.428.337 2.846 1.349 3.861l3.87 3.881zm26.698 25.501L98.682 101.5l-6.182 6.356 12.4 12.343a4.47 4.47 0 006.294.011 4.398 4.398 0 00.004-6.251zm-2.073 4.132a2.269 2.269 0 01-3.198 0 2.241 2.241 0 010-3.182 2.27 2.27 0 013.198 0 2.242 2.242 0 010 3.182z"/><path fill="#106CB2" d="M112.608 70.5l-6.484 3.258c.182.511.287 1.045.287 1.601 0 1.289-.5 2.505-1.405 3.415l-17.05 17.135L85.063 93l-1.91 1.919a3.768 3.768 0 01-.729 4.268c-1.105 1.11-2.881 1.393-4.252.733l-11.584 11.641a3.774 3.774 0 00.005 5.308l3.518 3.535a3.724 3.724 0 005.277 0l11.584-11.641a3.717 3.717 0 01-.364-1.616c0-1 .389-1.941 1.093-2.652a3.726 3.726 0 014.247-.732l1.91-1.919-3.64-3.66 17.049-17.13v-.006c.019-.023.05-.031.069-.05.147-.132.302-.237.475-.308a4.873 4.873 0 014.423-.716l3.267-6.567-2.893-2.907z"/><path fill="#0296C8" d="M80.113 103.382a1.312 1.312 0 00-.935-.382c-.339 0-.677.125-.935.382l-9.356 9.359a1.324 1.324 0 00.935 2.259c.339 0 .676-.128.935-.388l9.356-9.359a1.324 1.324 0 000-1.871zM82.178 106c-.338 0-.677.125-.935.382l-9.356 9.359a1.324 1.324 0 00.935 2.259c.338 0 .676-.128.935-.388l9.356-9.359a1.324 1.324 0 000-1.871 1.312 1.312 0 00-.935-.382z"/></svg>