<?xml version="1.0" encoding="UTF-8"?>
<svg xmlns="http://www.w3.org/2000/svg" version="1.1" viewBox="0 0 120 90">
  <defs>
    <style>
      .cls-1 {
        fill: none;
      }

      .cls-2 {
        fill: #dddfdd;
      }

      .cls-3 {
        fill: #d0ebb9;
      }

      .cls-4 {
        fill: #fff;
      }

      .cls-5 {
        fill: #191919;
      }

      .cls-6 {
        fill: #535353;
      }
    </style>
  </defs>
  <!-- Generator: Adobe Illustrator 28.7.1, SVG Export Plug-In . SVG Version: 1.2.0 Build 142)  -->
  <g>
    <g id="Layer_1">
      <g id="Layer_1-2" data-name="Layer_1">
        <rect class="cls-1" y="0" width="120" height="90"/>
        <g>
          <path class="cls-5" d="M108.8,42.9s3.1,7.2,2.5,13.1c0,0,.5,14.7-3.6,18.5h-7.8s-2.3,0-2.6-2.8c0,0-1.2-5.7-.6-9.9,0,0,.2-24.5,12.2-19.1h0v.2Z"/>
          <path class="cls-5" d="M8.3,60.4s0,10.5,2.8,13.5c.4.4.8.6,1.3.6h8.1s3.6,0,4.2-8.3h19.3s.4,6.3,1.7,7.7c1,1.1,1.4.8,2.8.9h5.3s2.1,0,2.9-1.9c0,0,1-1.4,1.7-6.6h7.8s0,5.2,2.3,7.7c0,0,.5,1,2.6.9h6.3s3,0,3.9-4.7c0,0,2.9-11.6,1.6-20.6,0,0-1.6-8.3-7.2-5.6l-9,9.8-59.1,4.3.6,2.4h0Z"/>
          <path class="cls-6" d="M102,60.7c-.4,1.7-2.9,1.4-2.9,1.4h-10.7c-1.8-.3-2.2-1.3-2.2-1.3-.3-.9-1.2-.9-1.2-.9h-1.8c-.2,2.2-.6,4.6-1,6.9l-.4,1.8s0,.8,1.2.8l17.4-.4s1.1.2,1.8-.7l.3-.4c.2-.4.4-.8.4-1.2l.7-6.5h-1c-.3,0-.6.3-.6.6h0Z"/>
          <path class="cls-3" d="M111.8,53s0-5.7-2-11.9c0,0-.3-1.7-1.3-1.9l-3.7-1.1s-1.1,0-1.7-2.5l-2.4-6.1s-.4-1.7-2.8-3.2c0,0-9.1-7.7-42.5-6.3,0,0-10.1,0-14.9,3,5.1-.4,23.2-1.7,37.5-.4,0,0,1.7.2,1.5,1.3l-1.9,10.7s0,.9-1.3.8l-42.2.2s-4.1-.2-7,.3h0s-4.4.4-6.1,2.1c0,0-5.5,0-9.5,3.9,0,0-.6.5-1,3.7,0,0-1.8,2.1-2.6,5,0,0-.2.2-.2,2.6v8.4s0,.4.3,1.1h7.4l2.4-4.3c.3-.5.7-.7,1.3-.7h31.7c.5,0,.8.3,1.1.6l3,3.6c.2.3.5.4.8.4h8.8s2.1.3,4-1.8c.3-.4.7-.6,1.2-.6h3.5c.2-2.6.9-9.5,3.8-11.7.8-.6,2-.6,2.8,0,1.1.8,2.5,2.8,3.1,7.3,0,0,.2,1.9.2,4.7h1.8s.8,0,1.2.9c0,0,.3,1.1,2.2,1.3h10.7s2.6.3,2.9-1.4c0-.3.3-.6.6-.6h1l.5-4.7s1.2-8.6,4.1-7.9c2.9.7,2.6,12.3,3.5,10.9l.3-4.7v-.9c0,0,0,0,0,0Z"/>
          <path class="cls-6" d="M68.3,60.1c-1.9,2.1-4,1.8-4,1.8h-8.8c-.3,0-.6,0-.8-.4l-3-3.6c-.3-.3-.6-.5-1.1-.5h-31.6c-.6,0-1,.2-1.3.6l-2.4,4.4h-7.3c.2.8.7,2.4,1.8,3.9,0,0,1.4,1.6,2.8,1.7h54.9s4.9.3,5.5-3.5c0,0,.2-1,0-4.2v-1h-3.5c-.5,0-.9.2-1.2.6h0v.2Z"/>
          <path class="cls-5" d="M83.8,23s5.1,0,11.6,3.8c1.1.6,2,1.5,2.8,2.4.4.5.6.9.9,1.4.2.4.2.7.2,1.1l-.7,4.9s0,.6-.7.8h-16.8c-.2,0-.4,0-.6-.3s-.4-.6-.5-1.5c0,0-1-12.3,3.4-12.5h.4Z"/>
          <path class="cls-2" d="M28.3,32.4l.3,3.6-6,1.1s-1.9,0-1.8-2.1c0,0,0-2.9,6.3-3.4h.4c.5,0,.8.4.8.8h0Z"/>
          <path class="cls-5" d="M34.1,35.7l42.2-.2c1.3,0,1.3-.8,1.3-.8l1.9-10.7c.2-1.1-1.5-1.3-1.5-1.3-14.3-1.3-32.4,0-37.5.4,0,0-.2,0-.3.2,0,0-6.5,4.4-12,11.3l-1.2,1.5c2.8-.4,6.7-.3,6.7-.3h.5-.1Z"/>
          <path class="cls-5" d="M19.8,42.4h29.5s2.5,0,2.7,1.5v2.6s0,1.8-1.5,3l-1.7,1.2s-1.2,1-2.6,1h-24.4c-1.7,0-3.6-1.9-3.6-3.7v-4.1c0-1.5,1.5-1.5,1.5-1.5h0Z"/>
          <path class="cls-4" d="M11.3,42l4.5,1.2s1.3.3,1.3,1.1l-1,3.1s-.5.8-2,1c0,0-1,.2-2.1,0,0,0-.8,0-1.2-1.4l-.3-2s.3-2.4.9-3.1h0Z"/>
          <path class="cls-4" d="M54.1,42.7l17.1-1.5s1.7-.2.3,1.6l-2.3,3.5s-.8,1-2.6,1.2l-7.5.6s-1.8.3-3.7-1.7c0,0-2.7-3.2-1.4-3.6h.1Z"/>
          <path class="cls-2" d="M83.6,33.2v3.1l-1.2,1.5c-.2.2-.2.4,0,.6l.9.8c.2.2.4.2.6,0l2.6-2.4c.2-.2.6-.3.8-.3h4.1s.6.2.6-1.2c0,0,.4-3-3.1-3.8,0,0-1.3-.6-3.6-.5,0,0-1.3,0-1.7,1.4v.7h0Z"/>
          <path class="cls-6" d="M9.9,56.1c.9-.2,2.9-.3,5.2.7.4.2.5.6.3.9l-1.4,2.4c-.2.3-.6.6-.8.6h-2.9c-.2,0-1.5,0-1.5-1.3,0,0,0-1.6.3-2.6,0-.4.2-.6.6-.6h.1s.1,0,0-.1Z"/>
          <path class="cls-6" d="M56.1,57.4c.8-.6,3.6-2.2,9.9-1.5.3,0,.6.2.7.6.2.5.6,1.2.5,2,0,0,.3,1.1-1.5,1.9,0,0-1.1.9-6,.4s-.6,0-.7-.3l-2.9-2.5c-.2,0-.2-.4,0-.5h0v-.2h0Z"/>
        </g>
      </g>
    </g>
  </g>
</svg>