<svg xmlns="http://www.w3.org/2000/svg" viewBox="0 0 176 176"><path fill="#D7D7D7" d="M162 14.848L88 0 14 14.848v96.564C14.672 156.951 88 176 88 176s73.328-19.049 74-64.588V14.848z"/><path fill="#F1F1F1" d="M88 0L14 14.848v96.564C14.672 156.951 88 176 88 176V0z"/><path fill="#106CB2" d="M87.938 157.232C69.655 151.411 32.466 134.78 32 111.259V29.594l56-11.236 56 11.236v81.664c-.166 8.287-5.206 20.852-28.139 33.871-10.883 6.179-21.961 10.18-27.923 12.103z"/><path fill="#0296C8" d="M87.938 157.232C69.655 151.411 32.466 134.78 32 111.259V29.594l56-11.236-.062 138.874z"/><path fill="#FFD900" d="M115.721 73.042H99.1V56.421H77.248v16.621H60.62v21.855h16.628v16.621H99.1V94.897h16.621z"/></svg>