<svg xmlns="http://www.w3.org/2000/svg" viewBox="0 0 176 176"><circle fill="#D7D7D7" cx="88" cy="88" r="88"/><path fill="#F1F1F1" d="M88 176c-48.601 0-88-39.399-88-88S39.399 0 88 0v176z"/><circle fill="#106CB2" cx="87.999" cy="88" r="64"/><path fill="#0296C8" d="M87.999 24C52.653 24 24 52.653 24 88s28.653 64 63.999 64V24z"/><path fill="#FFD900" d="M136.551 84.922c-5.668-4.188-14.58-8.597-17.797-10.431-.307-.175-.441-.479-.494-.828-.28-1.852-1.96-3.305-4.825-6.296-3.149-3.288-7.014-14.58-7.014-14.58l-3.006.286s-.113 2.95.286 6.933c.429 4.288 1.575 6.933 1.575 6.933s.573.429-6.727 1.572c-6.465 1.013-12.145 4.717-14.354 6.246-.411.285-.944.217-1.338-.092-2.934-2.3-4.343-.444-13.822-.977-10.163-.572-11.638-6.963-17.936-5.748-2.847.549-3.936 5.146-3.936 5.146l16.031 6.861-1.575 3.86L37 81.089l.143 3.002 8.043 4.087a.92.92 0 00.215.083c.573.14 3.647.891 8.919 2.21l-6.859 3.431c-2.852 1.427-4.695 4.445-4.696 7.69-.001 4.437 3.533 8.061 7.878 8.08l27.044.114h.047c1.834 0 3.658-.468 5.277-1.353l16.739-9.159c9.094.457 16.823.059 21.559-.174 7.373-.362 13.725-9.796 15.524-12.722a1.08 1.08 0 00-.282-1.456z"/><path fill="#0296C8" d="M100.708 72c-.84 0-1.65-.463-2.052-1.264-1.066-2.122-2.401-4.595-3.199-5.888-.885.316-2.175.854-3.201 1.327a2.294 2.294 0 01-3.044-1.119 2.288 2.288 0 011.121-3.039c5.108-2.356 6.045-2.084 6.666-1.904.913.264 1.701.492 5.757 8.569a2.288 2.288 0 01-1.022 3.074c-.33.166-.68.244-1.026.244zm-4.359-7.419z"/><path fill="#FFD900" d="M119.444 108.295l-7.943-12.668 4.057-2.332 7.943 12.667z"/><path fill="#0296C8" d="M120.143 109.5c-10.975 0-18.96-1.553-19.295-1.62a2.281 2.281 0 01-1.804-2.68 2.295 2.295 0 012.7-1.793c.078.015 7.905 1.533 18.399 1.533 13.502 0 17.363-6.925 17.521-7.22a2.316 2.316 0 013.089-.967 2.262 2.262 0 011.003 3.039c-.201.396-5.11 9.708-21.613 9.708z"/><path fill="none" d="M60.022 90.956l-2.656 1.337c3.864.984 8.366 2.138 13.504 3.468 5.567 1.441 11.131 2.367 16.438 2.95l1.582-.871-28.868-6.884z"/><path fill="#106CB2" d="M60.887 92.526l-11.773 5.927c-1.284.646-2.114 2.021-2.114 3.502 0 1.869 1.465 3.397 3.265 3.405l27.044.115h.027a6.391 6.391 0 003.076-.794l10.417-5.736c-5.307-.583-10.871-1.509-16.438-2.95-5.138-1.332-9.64-2.486-13.504-3.469z"/></svg>