<svg width="150" height="150" xmlns="http://www.w3.org/2000/svg"><g fill="none"><path d="M116.795 2.894S109.064.01 99.043.01c0 0-12.756-.608-24.007 8.2C63.785-.6 51.027.01 51.027.01c-10.022 0-17.753 2.885-17.753 2.885C13.318 9.983.091 28.647.091 51.034c0 13.56 3.405 26.88 16.812 41.718L75 149.969l.036.031.033-.03 58.1-57.218c13.404-14.838 16.809-28.158 16.809-41.717 0-22.388-13.227-41.052-33.183-48.14z" fill="#F1F1F1"/><path d="M75 149.97l.036.03.033-.03 58.1-57.218c13.404-14.838 16.809-28.158 16.809-41.717 0-22.388-13.227-41.052-33.183-48.14 0 0-7.731-2.886-17.752-2.886 0 0-12.756-.608-24.007 8.2L75 149.97z" fill="#D7D7D7"/><path d="M122.316 28.736c-7.13-6.9-14.75-10.59-27.16-10.59-13.497.209-19.55 7.594-20.12 8.146-.57-.553-6.625-7.937-20.12-8.145-12.412 0-20.032 3.69-27.162 10.59-15.038 14.55-12.416 40.716 1.193 53.882l46.09 44.596 46.086-44.596c13.61-13.166 16.23-39.331 1.193-53.883z" fill="#0296C8"/><path d="M75.036 127.215l46.086-44.596c13.611-13.166 16.231-39.331 1.193-53.883-7.13-6.9-14.75-10.59-27.16-10.59-13.497.209-19.55 7.594-20.12 8.146v100.923z" fill="#106CB2"/><path fill="#FFD900" d="M105.234 73.244l4.39-30.012L79.43 46.12l9.574 10.064L43.04 96.258l7.121 6.89 45.652-39.805z"/><path fill="#106CB2" d="M68.576 66.916l2.201-15.103-15.136 1.453 3.978 4.198-29.754 26.044 5.08 4.915 29.523-25.842z"/></g></svg>