<svg xmlns="http://www.w3.org/2000/svg" viewBox="0 0 176 176"><path fill="#F1F1F1" d="M87.998 0C39.399 0 0 39.397 0 88.001 0 136.602 39.399 176 87.998 176 136.601 176 176 136.603 176 88.001 176 39.397 136.601 0 87.998 0"/><path fill="#D7D7D7" d="M87.998 175.999C136.601 175.999 176 136.602 176 88c0-48.603-39.399-88-88.002-88v175.999z"/><path fill="#0296C8" d="M87.999 24C52.653 24 24 52.652 24 88.001 24 123.347 52.654 152 87.999 152 123.346 152 152 123.347 152 88.001 152 52.652 123.346 24 87.999 24"/><path fill="#106CB2" d="M87.999 151.999C123.346 151.999 152 123.346 152 88c0-35.348-28.654-64-64.001-64v127.999z"/><path fill="#FFD900" d="M37.528 124.154c8.105-.057 17.329-.178 17.336-.177 3.688 1.05 31.641 7.378 31.641 7.378 5.738 1.442 11.525 1.612 16.98-1.391 11.557-6.364 23.126-11.005 34.673-17.386.576-.319 1.098-.842 1.481-1.384 1.302-1.851.32-4.477-1.916-4.767-1.217-.159-2.589.107-3.763.533l-21.46 9.549s-3.032 1.609-7.304 2.26c-4.378.053-8.757.198-13.135.303-2.969.072-5.94.147-8.91.201-1.696 0-1.696-.823-1.745-1.699-.049-.878.55-1.178 1.312-1.253.303-.031.607-.051.912-.06 3.693-.094 7.385-.186 11.078-.278 3.882-.097 7.77-.124 11.649-.314 2.712-.133 4.556-1.154 4.6-3.751.048-2.79-2.115-3.901-5.057-3.847H30.182c0 .003 4.255 8.137 7.346 16.083zm50.564-39.55c-.238-.008-.474-.021-.715-.021-9.77 0-16.825 6.278-21.768 15.718h44.603c-5.234-9.203-12.69-15.397-22.12-15.697z"/><circle fill="#FFD900" cx="87.81" cy="64.393" r="13.359"/><path fill="#106CB2" d="M37.432 127.119l9.816.117-4.895-21.499-15.89-.056c0 .001 3.375 12.438 10.969 21.438z"/></svg>