<svg xmlns="http://www.w3.org/2000/svg" viewBox="0 0 176 176"><circle fill="#D7D7D7" cx="88" cy="88" r="88"/><path fill="#F1F1F1" d="M88 176c-48.601 0-88-39.399-88-88S39.399 0 88 0v176z"/><circle fill="#106CB2" cx="87.999" cy="88" r="64"/><path fill="#0296C8" d="M87.999 24C52.653 24 24 52.653 24 88s28.653 64 63.999 64V24z"/><path fill="#FFD900" d="M127.901 81.578h-5.707l-.101 5.802-.708 40.62H52.898l.708-40.62.101-5.802H48l.099-5.652L88.536 48 128 75.926z"/><path fill="#0296C8" d="M87.776 91.499l-.003.001h-.019v-.001A11.258 11.258 0 0176.502 79.98c.122-6.329 5.335-11.458 11.66-11.479V68.5h.021v.001a11.286 11.286 0 0111.314 11.516c-.135 6.347-5.376 11.479-11.721 11.482zm24.176 26.001L64 117.457c.228-13.09 11.154-22.967 24.396-22.957.143 0 .285.008.427.01v-.01c13.03.011 23.4 9.91 23.172 23h-.043z"/></svg>