<svg xmlns="http://www.w3.org/2000/svg" xmlns:xlink="http://www.w3.org/1999/xlink" width="15" height="15"><defs><path id="a" d="M0 15h15V0H0z"/></defs><g fill="none" fill-rule="evenodd"><mask id="b" fill="#fff"><use xlink:href="#a"/></mask><path fill="#FFF" d="M8.052 6.765a.26.26 0 01.014-.021v.021h-.014zm4.665 5.791h-2.265V8.932c0-.91-.33-1.531-1.148-1.531-.627 0-1 .419-1.163.823-.06.145-.075.347-.075.549v3.783H5.801s.03-6.137 0-6.772h2.265v.96c.302-.461.839-1.12 2.042-1.12 1.491 0 2.61.968 2.61 3.049v3.883zM3.415 4.858h-.016c-.76 0-1.252-.52-1.252-1.17 0-.664.507-1.17 1.282-1.17s1.252.506 1.267 1.17c0 .651-.492 1.17-1.281 1.17zM2.28 12.556h2.267V5.784H2.28v6.772zM13.892 0H1.108C.496 0 0 .481 0 1.075v12.85C0 14.518.496 15 1.108 15h12.784c.612 0 1.108-.482 1.108-1.075V1.075C15 .481 14.504 0 13.892 0z" mask="url(#b)"/></g></svg>