<svg width="150" height="150" xmlns="http://www.w3.org/2000/svg"><g fill="none" fill-rule="evenodd"><g fill-rule="nonzero"><path d="M74.998 0C33.578 0 0 33.577 0 75c0 41.422 33.579 75 74.998 75C116.421 150 150 116.423 150 75S116.421 0 74.998 0" fill="#F1F1F1"/><path d="M74.998 150C116.421 150 150 116.421 150 75c0-41.423-33.579-75-75.002-75v150z" fill="#D7D7D7"/></g><g fill-rule="nonzero"><path d="M75 20.455c-30.125 0-54.545 24.419-54.545 54.546 0 30.124 24.42 54.544 54.544 54.544 30.125 0 54.546-24.42 54.546-54.544 0-30.127-24.42-54.546-54.546-54.546" fill="#0296C8"/><path d="M75 129.545c30.124 0 54.545-24.42 54.545-54.545 0-30.126-24.42-54.545-54.546-54.545v109.09z" fill="#106CB2"/></g><path d="M75.37 40.697c3.021 0 5.951.399 8.74 1.146l1.966-4.737a38.876 38.876 0 00-10.706-1.494c-21.452 0-38.843 17.39-38.843 38.844 0 21.453 17.39 38.844 38.843 38.844 21.453 0 38.845-17.39 38.845-38.844v-.292l-5.088.785c-.264 18.388-15.306 33.266-33.756 33.266-18.614 0-33.758-15.144-33.758-33.76-.001-18.613 15.143-33.758 33.757-33.758" fill="#FFD900" fill-rule="nonzero"/><path d="M93.916 31.04a47.352 47.352 0 0117.71 12.816A47.028 47.028 0 01122.52 67.42l-46.66 6.612L93.916 31.04z" fill="#FFD900" fill-rule="nonzero"/><path d="M97.94 65h2.723v-2.92c2.891-.617 4.38-2.694 4.38-5.389 0-5.361-7.411-5.137-7.411-7.803 0-1.263.73-1.797 2.077-1.797 1.179 0 2.049.477 3.06 1.404l2.077-2.358c-1.095-1.151-2.386-2.05-4.183-2.302V41H97.94v2.891c-2.638.534-4.266 2.442-4.266 5.193 0 5.053 7.41 4.997 7.41 7.888 0 1.291-.702 1.937-2.273 1.937-1.348 0-2.583-.562-4.015-1.628L93 60.06c1.32 1.207 3.284 1.936 4.94 2.133V65z" fill="#106CB2"/></g></svg>