<svg xmlns="http://www.w3.org/2000/svg" width="76" height="75"><g fill="none" fill-rule="evenodd"><path d="M0 0h76v75H0z"/><g fill-rule="nonzero" transform="translate(.41)"><circle cx="37.5" cy="37.5" r="37.5" fill="#D7D7D7"/><path fill="#F1F1F1" d="M37.5 75C16.79 75 0 58.21 0 37.5S16.79 0 37.5 0v75z"/></g><g fill-rule="nonzero"><path fill="#106CB2" d="M51.204 51.869l-.642-.64a19.96 19.96 0 01-12.96 4.765c-11.127 0-20.147-9.1-20.147-20.326 0-11.227 9.02-20.327 20.147-20.327 11.127 0 20.147 9.1 20.147 20.327 0 4.829-1.67 9.264-4.459 12.751l.652.648a1.292 1.292 0 011.838-.013l4.318 4.295A27.145 27.145 0 0065.182 37.5c0-15.062-12.21-27.273-27.273-27.273-15.062 0-27.273 12.21-27.273 27.273 0 15.062 12.21 27.273 27.273 27.273 6.795 0 13.004-2.49 17.779-6.601l-4.472-4.449a1.32 1.32 0 01-.012-1.854z"/><path fill="#0296C8" d="M37.91 64.773c-15.063 0-27.274-12.21-27.274-27.273 0-15.062 12.21-27.273 27.273-27.273v54.546z"/></g><g fill-rule="nonzero" transform="translate(17.455 15.34)"><path fill="#FFD900" d="M42.642 38.008l-4.317-4.295a1.292 1.292 0 00-1.838.014l-.652-.649a20.352 20.352 0 004.459-12.751C40.294 9.1 31.274 0 20.146 0 9.02 0 0 9.1 0 20.327c0 11.226 9.02 20.326 20.147 20.326a19.96 19.96 0 0012.96-4.764l.642.639a1.32 1.32 0 00.013 1.855l4.471 4.448a27.429 27.429 0 004.41-4.823z"/><circle cx="20.455" cy="20.455" r="16.406" fill="#106CB2"/><path fill="#FFD900" d="M31.96 27.699H8.95a1.278 1.278 0 01-1.28-1.279V14.49a1.28 1.28 0 011.279-1.279H31.96a1.28 1.28 0 011.279 1.279v11.93c0 .707-.573 1.279-1.279 1.279z"/><path fill="#0296C8" d="M30.867 23.41c.405 0 .781.123 1.093.334v-6.492a1.953 1.953 0 01-3.046-1.619c0-.43.143-.822.377-1.144H11.634c.234.322.377.715.377 1.144a1.953 1.953 0 01-3.062 1.605v6.52a1.953 1.953 0 013.062 1.606c0 .39-.118.751-.315 1.056h17.533a1.94 1.94 0 01-.315-1.057c0-1.079.875-1.953 1.953-1.953z"/><circle cx="20.455" cy="20.455" r="4.688" fill="#106CB2"/><circle cx="26.847" cy="23.864" r="1.278" fill="#106CB2"/><circle cx="13.636" cy="18.324" r="1.278" fill="#106CB2"/><path fill="#FFD900" d="M18.75 22.451c.513-.253.85-.734.85-1.31 0-.11-.016-.213-.032-.323h-.802v-.545l.538-.04h.096c-.088-.275-.168-.544-.168-.804 0-.947.657-1.53 1.604-1.53.585 0 .995.236 1.315.615l-.513.497c-.2-.229-.417-.37-.722-.37-.497 0-.794.307-.794.836 0 .26.065.505.137.758h1.235v.583h-1.1c.017.103.025.214.025.332 0 .465-.137.758-.425 1.057v.032h2.165v.772H18.75v-.56z"/></g></g></svg>