<svg xmlns="http://www.w3.org/2000/svg" viewBox="0 0 176 176"><circle fill="#D7D7D7" cx="88" cy="88" r="88"/><path fill="#F1F1F1" d="M88 176c-48.601 0-88-39.399-88-88S39.399 0 88 0v176z"/><circle fill="#106CB2" cx="87.999" cy="88" r="64"/><path fill="#0296C8" d="M87.999 24C52.653 24 24 52.653 24 88s28.653 64 63.999 64V24z"/><path fill="#FFD900" d="M118.67 84.071c-1.961 0-3.817.399-5.55 1.046l-.896-1.458a3.035 3.035 0 00-.32-2.34l-3.017-5.105h3.579c1.001 0 1.812-.897 1.812-2.004v-7.777c0-1.107-.811-2.004-1.812-2.004h-2.961c-2.077 0-4.014.82-5.628 2.15l-1.928-1.003a1.985 1.985 0 00-.988-1.19l-7.023-3.654c-.985-.513-2.21-.147-2.736.823a1.967 1.967 0 00.839 2.683l7.023 3.654c.302.157.626.231.946.231.185 0 .348-.092.524-.14l1.409.733c-.192.285-.428.524-.595.833l-.107.197c-3.619-.196-8.462.173-12.882 2.621-8.426 4.665-10.428 8.103-10.428 8.103s-.584-2.128-2.085-2.537c-1.502-.409-4.338.819-8.092.328-3.754-.491-10.699-1.696-11.846-.277-1.142 1.412-1.051 3.028-1.051 3.028s-1.973-.152-5.789 2.242c-2.829 1.774-4.254 5.218-7.445 6.752-.863.415 2.985.872 4.536 1.037a15.553 15.553 0 00-2.681 8.745c0 8.679 7.087 15.714 15.83 15.714 8.127 0 14.746-6.103 15.649-13.931 1.983.357 4.49.7 7.481.835 7.258.327 15.438.399 16.544-7.366.591-4.147 2.657-10.53 4.518-15.746l3.033 5.132c.51.865 1.399 1.321 2.333 1.432l.687 1.119c-4.05 2.846-6.712 7.511-6.712 12.812 0 8.679 7.087 15.714 15.83 15.714s15.83-7.035 15.83-15.714c-.001-8.682-7.088-15.718-15.831-15.718z"/><path fill="#106CB2" d="M118.67 109.634c-5.455 0-9.893-4.406-9.893-9.821 0-3.168 1.544-5.96 3.897-7.757l5.061 8.239c.377.614 1.058.957 1.756.957.347 0 .7-.085 1.024-.264.968-.538 1.294-1.722.728-2.645l-4.936-8.036c.761-.187 1.544-.315 2.363-.315 5.455 0 9.893 4.406 9.893 9.821.001 5.415-4.437 9.821-9.893 9.821zM64.022 93.495l3.617 3.146H62.01z"/><path fill="#106CB2" d="M59.309 109.634c-5.455 0-9.893-4.406-9.893-9.821 0-5.03 3.843-9.14 8.758-9.708.798.337 1.7.762 2.696 1.324l-3.876 6.059c-.4.627-.46 1.459-.152 2.152.309.691.929 1.128 1.61 1.128h10.653c-.491 4.962-4.67 8.866-9.796 8.866z"/></svg>