<svg width="48" height="48" viewBox="0 0 48 48" fill="none" xmlns="http://www.w3.org/2000/svg">
<mask id="mask0_791_519" style="mask-type:alpha" maskUnits="userSpaceOnUse" x="0" y="0" width="48" height="48">
<rect width="48" height="48" fill="#D9D9D9"/>
</mask>
<g mask="url(#mask0_791_519)">
<path d="M34.6 37.5L32.55 35.45C32.35 35.25 32.1 35.15 31.8 35.15C31.5 35.15 31.25 35.25 31.05 35.45C30.85 35.65 30.75 35.9 30.75 36.2C30.75 36.5 30.85 36.75 31.05 36.95L33.2 39.1C33.6 39.5 34.0667 39.7 34.6 39.7C35.1333 39.7 35.6 39.5 36 39.1L40.95 34.15C41.15 33.95 41.25 33.7 41.25 33.4C41.25 33.1 41.15 32.85 40.95 32.65C40.75 32.45 40.5 32.35 40.2 32.35C39.9 32.35 39.65 32.45 39.45 32.65L34.6 37.5ZM15.3 19L16.7 15H31.3L32.7 19H15.3ZM18 28C18.5667 28 19.0417 27.8083 19.425 27.425C19.8083 27.0417 20 26.5667 20 26C20 25.4333 19.8083 24.9583 19.425 24.575C19.0417 24.1917 18.5667 24 18 24C17.4333 24 16.9583 24.1917 16.575 24.575C16.1917 24.9583 16 25.4333 16 26C16 26.5667 16.1917 27.0417 16.575 27.425C16.9583 27.8083 17.4333 28 18 28ZM36 26C38.7667 26 41.125 26.975 43.075 28.925C45.025 30.875 46 33.2333 46 36C46 38.7667 45.025 41.125 43.075 43.075C41.125 45.025 38.7667 46 36 46C33.2333 46 30.875 45.025 28.925 43.075C26.975 41.125 26 38.7667 26 36C26 33.2333 26.975 30.875 28.925 28.925C30.875 26.975 33.2333 26 36 26ZM8 44C6.9 44 5.95833 43.6083 5.175 42.825C4.39167 42.0417 4 41.1 4 40V8C4 6.9 4.39167 5.95833 5.175 5.175C5.95833 4.39167 6.9 4 8 4H40C41.1 4 42.0417 4.39167 42.825 5.175C43.6083 5.95833 44 6.9 44 8V21.6C44 22.2667 43.7167 22.7583 43.15 23.075C42.5833 23.3917 42 23.4 41.4 23.1C40.8333 22.8667 40.275 22.6667 39.725 22.5C39.175 22.3333 38.6 22.2167 38 22.15L34.7 12.6C34.5333 12.1333 34.2583 11.75 33.875 11.45C33.4917 11.15 33.0667 11 32.6 11H15.4C14.9333 11 14.5083 11.15 14.125 11.45C13.7417 11.75 13.4667 12.1333 13.3 12.6L10.2 21.55C10.1333 21.75 10.0833 21.9583 10.05 22.175C10.0167 22.3917 10 22.6167 10 22.85V35.4C10 35.8667 10.15 36.25 10.45 36.55C10.75 36.85 11.1333 37 11.6 37H12.4C12.8667 37 13.25 36.85 13.55 36.55C13.85 36.25 14 35.8667 14 35.4V33H22.35C22.25 33.4667 22.1667 33.95 22.1 34.45C22.0333 34.95 22 35.4667 22 36C22 37 22.1083 37.9667 22.325 38.9C22.5417 39.8333 22.8333 40.7333 23.2 41.6C23.4667 42.1667 23.4417 42.7083 23.125 43.225C22.8083 43.7417 22.3667 44 21.8 44H8Z" fill="#004FB6"/>
</g>
</svg>
