<svg xmlns="http://www.w3.org/2000/svg" width="64" height="75"><g fill="none" fill-rule="evenodd"><path d="M-6 1h75v75H-6z"/><g fill-rule="nonzero"><path fill="#D7D7D7" d="M63.443 6.327L31.91 0 .375 6.327v41.15C.661 66.883 31.909 75 31.909 75s31.248-8.117 31.534-27.523V6.327z"/><path fill="#F1F1F1" d="M31.91 0L.374 6.327v41.15C.661 66.883 31.909 75 31.909 75V0z"/></g><g fill-rule="nonzero"><path fill="#106CB2" d="M31.91 66.903C24.117 64.44 8.243 57.396 8.044 47.436V12.854L31.91 8.097l23.864 4.757v34.581c-.071 3.51-2.219 8.83-11.991 14.343-4.638 2.617-9.332 4.311-11.873 5.125z"/><path fill="#0296C8" d="M31.91 66.903C24.117 64.44 8.243 57.396 8.044 47.436V12.854L31.91 8.097v58.806z"/></g><g fill-rule="nonzero"><path d="M19.498 28.339c-1.546.673-2.106 2.747-1.25 4.63.852 1.882 2.796 2.863 4.34 2.186 1.546-.673 2.106-2.747 1.25-4.63-.852-1.881-2.796-2.862-4.34-2.186zm9.262 1.001c1.694-.374 2.664-2.27 2.167-4.236-.496-1.964-2.27-3.254-3.965-2.88-1.692.373-2.664 2.268-2.167 4.235.497 1.964 2.271 3.254 3.965 2.88zm6.744.002c1.696.364 3.464-.932 3.95-2.899.488-1.968-.495-3.857-2.193-4.222-1.696-.366-3.464.934-3.948 2.899-.489 1.967.494 3.856 2.191 4.222zm10.403 3.73c.351-1.986-.77-3.805-2.5-4.064-1.73-.259-3.415 1.139-3.763 3.121-.35 1.984.77 3.802 2.5 4.061 1.73.26 3.415-1.137 3.763-3.118zm-14.669-.585s-6.306 1.612-7.146 9.819c-.84 8.207 6.496 6.351 10.391 5.394 3.896-.956 9.793-3.838 6.454-8.258 0 0-4.514-8.04-9.7-6.955z" fill="#FFD900"/><path fill="#106CB2" d="M37.875 38.285h-3.342v-3.342h-4.394v3.342h-3.344v4.396h3.344v3.342h4.394V42.68h3.342z"/></g></g></svg>