<svg width="150" height="150" xmlns="http://www.w3.org/2000/svg" xmlns:xlink="http://www.w3.org/1999/xlink"><defs><path d="M54.545 0C24.42 0 0 24.42 0 54.546c0 30.125 24.421 54.545 54.545 54.545 30.125 0 54.546-24.42 54.546-54.545C109.09 24.42 84.67 0 54.545 0" id="a"/></defs><g fill="none" fill-rule="evenodd"><g fill-rule="nonzero"><path d="M74.998 0C33.578 0 0 33.577 0 75c0 41.422 33.579 75 74.998 75C116.421 150 150 116.423 150 75S116.421 0 74.998 0" fill="#F1F1F1"/><path d="M74.998 150C116.421 150 150 116.421 150 75c0-41.423-33.579-75-75.002-75v150z" fill="#D7D7D7"/></g><g fill-rule="nonzero"><path d="M75 20.455c-30.125 0-54.545 24.419-54.545 54.546 0 30.124 24.42 54.544 54.544 54.544 30.125 0 54.546-24.42 54.546-54.544 0-30.127-24.42-54.546-54.546-54.546" fill="#0296C8"/><path d="M75 129.545c30.124 0 54.545-24.42 54.545-54.545 0-30.126-24.42-54.545-54.546-54.545v109.09z" fill="#106CB2"/></g><g transform="translate(20.455 20.455)"><mask id="b" fill="#fff"><use xlink:href="#a"/></mask><g mask="url(#b)" fill-rule="nonzero"><g transform="translate(0 2.557)"><path d="M66.085 43.399c-1.74-1.685-3.601-2.585-6.63-2.585-3.295.05-4.773 1.853-4.912 1.988-.14-.135-1.618-1.938-4.913-1.988-3.03 0-4.89.9-6.63 2.585-3.671 3.552-3.031 9.94.29 13.154l6.18 5.98c.262-1.655.982-3.186 2.647-4.468 2.426-1.87 5.68-1.613 7.935.45.742.68 1.189 1.237 1.53 2.112l4.212-4.074c3.322-3.214 3.962-9.602.29-13.154z" fill="#FFD900"/><circle fill="#0296C8" cx="87.051" cy="52.519" r="5.254"/><circle fill="#106CB2" cx="23.433" cy="51.674" r="5.254"/></g><path d="M94.424 85.686l-.012.003c-.241-1.302-1.025-2.48-2.365-3.009-1.182-.467-2.551-.205-3.526.692-1.118 1.028-1.537 2.502-1.346 3.863h-.005l.137 1.482 1.187 8.725-.507.071c-.058-.39-4.297-14.694-4.297-14.694l-.016.003c-.2-1.18-.82-2.28-1.918-2.925-1.312-.77-2.976-.593-4.137.462-1.112 1.009-1.55 2.468-1.394 3.84l-.006.003.326 2.349s.94 9.4.965 9.523l.097 1.126c-.006-.017-1.158-.003-1.164-.022L73.16 81.762c-.176-.953-.62-1.848-1.355-2.5-1.481-1.315-4.35-.895-5.512.715-.802 1.112-1.029 2.518-.745 3.792l-.018.006.067.485 1.054 12.826-.002 2.119-6.297-31.24c-.881-4.369-2.064-5.098-2.064-5.098-1.148-1.051-2.718-1.322-4.069-.725-.269.12-.533.26-.78.45-1.708 1.316-1.796 3.06-1.643 4.876l.012.143 2.41 17.939 1.954 14.536.375 2.828.905 7.782c15.458-.911 29.173-8.304 38.458-19.507-.83-3.086-1.486-5.503-1.486-5.503zM54.22 103.068c-.268-1.48-.452-2.445-.487-2.51-1.09-2.005-3.07-4.922-5.036-5.608-1.965-.686-3.632.747-4.276 1.273-.645.527-1.242 1.52-.789 2.735.037.1.835 5.497 1.688 11.104 2.896.48 5.866.74 8.899.74.462 0 .918-.023 1.376-.034-.517-2.909-1.02-5.753-1.374-7.7z" fill="#FFD900"/></g></g></g></svg>