<svg xmlns="http://www.w3.org/2000/svg" width="49" height="33" fill="none" xmlns:v="https://vecta.io/nano"><style><![CDATA[.B{fill:#ff0}.C{stroke:#000}.D{stroke-width:.04}.E{fill-rule:evenodd}.F{stroke-linejoin:round}.G{stroke-width:.05}.H{fill:#fff}.I{fill:#000}]]></style><mask id="A" width="49" height="33" x="0" y="0" maskUnits="userSpaceOnUse"><path d="M0 0h49v33H0V0Z" class="H"/></mask><g mask="url(#A)"><path d="M0 0h49v33H0V0Z" class="H"/><mask id="B" width="49" height="33" x="0" y="0" maskUnits="userSpaceOnUse"><path d="M0 0h49v33H0V0Z" class="H"/></mask><g mask="url(#B)"><path fill="red" d="M49 0H0v33h49V0Z"/><path fill="#060" d="M19.6 0H0v33h19.6V0Z"/><use href="#D" class="B E"/><use href="#D" class="C F G"/><path d="M12.62 12.08c-.22.6 2.96 2.58 6.78 4.93 3.81 2.34 7.1 3.8 7.35 3.59l.11-.21c-.05.07-.16.09-.33.04-1.03-.3-3.72-1.55-7.05-3.6-3.34-2.03-6.24-3.91-6.69-4.71a.49.49 0 0 1-.04-.24h-.02l-.1.17v.03h-.01Zm13.43 9.57c-.04.08-.12.08-.27.06-.92-.1-3.72-1.47-7.04-3.48-3.85-2.33-7.04-4.45-6.7-5.01l.1-.17h.02c-.3.95 6.29 4.76 6.67 5 3.82 2.39 7.04 3.78 7.32 3.42l-.1.18Z" class="B C E F G"/><path d="M19.61 13.96c2.47-.02 5.52-.34 7.27-1.05l-.37-.62c-1.04.58-4.1.97-6.92 1.02-3.32-.03-5.67-.34-6.85-1.14l-.36.66c2.17.93 4.38 1.12 7.23 1.13Z" class="B C E F G"/><path d="M26.99 12.93c-.06.1-1.2.5-2.9.79a31.55 31.55 0 0 1-8.8.05c-1.76-.28-2.67-.67-3-.8l.08-.18c.97.4 1.89.63 2.96.8 2.899.39 5.837.37 8.73-.06 1.73-.28 2.67-.65 2.8-.81l.13.2v.01Zm-.34-.63c-.18.15-1.12.49-2.76.75-1.1.16-2.49.3-4.27.3-1.69 0-3.07-.11-4.12-.26-1.67-.22-2.55-.62-2.87-.74l.1-.16c.24.12 1.1.47 2.79.72 1.04.14 2.42.26 4.1.25 1.78 0 3.15-.14 4.24-.3a7.33 7.33 0 0 0 2.67-.76l.12.2Z" class="B C E F G"/><use href="#E" class="B E"/><use href="#E" class="C F G"/><path d="M27.78 16.85v.2c-.22.25-1.55.64-3.22.91-1.28.2-2.94.35-5 .35-1.97 0-3.54-.14-4.76-.33a11.758 11.758 0 0 1-3.4-.93v-.22c.75.5 2.76.86 3.43.97 1.2.19 2.77.33 4.72.33 2.06 0 3.71-.15 4.98-.35 1.2-.17 2.91-.63 3.25-.93Zm0-.7v.2c-.22.25-1.55.64-3.22.91-1.28.2-2.94.35-5 .35-1.97 0-3.54-.14-4.76-.33a11.751 11.751 0 0 1-3.4-.93v-.23c.75.5 2.76.87 3.43.98 1.21.18 2.77.33 4.72.33 2.06 0 3.71-.15 4.98-.35 1.2-.17 2.91-.63 3.25-.93Zm-8.2 5.33c-3.49-.02-6.48-.97-7.12-1.12l.47.73c1.11.47 4.03 1.18 6.69 1.1 2.65-.08 4.97-.29 6.6-1.09l.48-.75c-1.12.53-4.9 1.12-7.12 1.13Z" class="B C E F G"/><path d="M26.4 20.93a9.529 9.529 0 0 1-.2.32 22.399 22.399 0 0 1-6.6 1.03c-3.1-.05-5.64-.66-6.83-1.19l-.1-.16.02-.03.16.07c2.12.76 4.5 1.07 6.75 1.12 1.44 0 2.87-.16 4.03-.37a11.704 11.704 0 0 0 2.72-.76l.05-.03Zm.41-.68c-.04.1-.1.18-.15.27-.41.15-1.53.48-3.16.71-1.07.15-1.74.3-3.88.34-4-.1-6.6-.9-7.2-1.1l-.1-.17c2.32.61 4.7 1.04 7.3 1.08 1.96-.04 2.79-.18 3.85-.33 1.9-.3 2.86-.62 3.15-.7l-.01-.02.2-.08Z" class="B C E F G"/><path d="M26.85 16.32a7.92 7.92 0 0 1-2.1 5.32 7.56 7.56 0 0 1-5.2 2.17 7.66 7.66 0 0 1-5.09-2.15 7.86 7.86 0 0 1-2.1-5.22 7.41 7.41 0 0 1 2.55-5.5 7.58 7.58 0 0 1 4.9-1.76 7.5 7.5 0 0 1 5.44 2.75c.97 1.17 1.39 2.45 1.6 4.39Zm-7.28-7.95a8.15 8.15 0 0 1 0 16.28 8.13 8.13 0 0 1-8.08-8.14 8.13 8.13 0 0 1 8.08-8.14Z" class="B C E F G"/><path d="M19.6 8.34a8.14 8.14 0 0 1 8.08 8.17c0 4.5-3.63 8.17-8.09 8.17a8.14 8.14 0 0 1-8.08-8.17c0-4.5 3.63-8.17 8.08-8.17h.01Zm-7.92 8.17c0 4.4 3.58 7.99 7.91 7.99 4.34 0 7.91-3.6 7.91-8 0-4.39-3.57-7.98-7.9-7.98-4.34 0-7.92 3.6-7.92 7.99Z" class="B C E F G"/><path d="M19.6 9.02a7.485 7.485 0 0 1 0 14.97 7.48 7.48 0 0 1-7.4-7.49 7.48 7.48 0 0 1 7.4-7.48Zm-7.23 7.48a7.3 7.3 0 0 0 7.23 7.3 7.3 7.3 0 0 0 0-14.6 7.3 7.3 0 0 0-7.23 7.3Z" class="B C E F G"/><path d="M19.93 8.3h-.7v16.42h.7V8.3Z" class="B C E F G"/><path d="M19.86 8.21h.17v16.6h-.17V8.21Zm-.7 0h.19v16.6h-.18V8.22l-.01-.01Z" class="B C E F G"/><path d="M27.68 16.82v-.6l-.48-.46-2.78-.74-4-.42-4.82.25-3.43.83-.7.51v.61l1.76-.8 4.16-.65h4l2.95.33 2.04.49 1.3.65Z" class="B C E F G"/><path d="M19.6 15.24c1.9 0 3.76.19 5.23.48 1.51.3 2.58.68 2.95 1.12v.2c-.44-.53-1.88-.92-2.99-1.14a27.603 27.603 0 0 0-5.2-.47c-2 0-3.86.2-5.3.48-1.15.23-2.7.69-2.88 1.14v-.22c.1-.32 1.25-.78 2.85-1.1 1.45-.3 3.32-.48 5.34-.49Zm0-.7c1.9 0 3.76.19 5.23.47 1.52.31 2.58.7 2.95 1.12v.22c-.44-.54-1.88-.93-2.99-1.15-1.45-.3-3.3-.48-5.2-.47-2 0-3.85.2-5.3.48-1.1.2-2.7.69-2.88 1.14v-.22c.1-.31 1.27-.8 2.85-1.11 1.45-.28 3.32-.47 5.34-.48Z" class="B C E F G"/><use href="#F" class="B E"/><use href="#F" class="C F G"/><path d="M19.6 11.6c1.71 0 3.37.1 4.7.33 1.22.24 2.4.58 2.56.77l.13.23a9.34 9.34 0 0 0-2.72-.82c-1.31-.24-2.97-.33-4.68-.32-1.93 0-3.44.1-4.73.32a8.3 8.3 0 0 0-2.55.8l.13-.24a8.428 8.428 0 0 1 2.39-.74c1.33-.24 2.85-.32 4.77-.33Zm0-.7c1.64 0 3.26.09 4.53.32 1 .2 1.98.5 2.34.77l.19.3c-.32-.35-1.54-.7-2.61-.89-1.26-.22-2.81-.3-4.45-.32-1.73 0-3.32.11-4.56.34-1.18.23-1.94.5-2.26.7l.17-.25a8.027 8.027 0 0 1 2.06-.63c1.25-.23 2.85-.33 4.59-.34Z" class="B C E F G"/><use href="#G" class="B E"/><use href="#G" class="C F G"/><path d="M19.57 19.5c1.4.03 2.76.09 4.08.34l-.1.17a21.123 21.123 0 0 0-3.98-.31c-1.85-.02-3.72.16-5.35.63-.52.14-1.37.48-1.45.75l-.1-.15c.03-.17.54-.5 1.5-.78 1.87-.54 3.62-.63 5.4-.64v-.01Zm.06-.7c1.44.03 2.94.1 4.39.38l-.1.18a22.663 22.663 0 0 0-4.28-.38c-1.86 0-3.83.14-5.62.67-.58.17-1.58.54-1.6.83l-.1-.17c.02-.27.88-.61 1.66-.84 1.8-.53 3.78-.67 5.65-.67Z" class="B C E F G"/><path d="m26.75 20.4-.6.95-1.73-1.55-4.5-3.05-5.06-2.8-2.63-.92.56-1.05.2-.1 1.63.41L20 15.1l3.1 1.99 2.62 1.9 1.06 1.23-.04.2.01-.02Z" class="B C E F G"/><path d="M12.14 13.06c.46-.32 3.85 1.2 7.4 3.37 3.53 2.16 6.91 4.61 6.6 5.07l-.1.16-.04.04c0-.01.06-.07 0-.24-.16-.5-2.55-2.44-6.53-4.86-3.88-2.34-7.1-3.75-7.43-3.34l.1-.2Zm14.74 7.34c.29-.59-2.86-2.98-6.75-5.3-3.99-2.29-6.86-3.63-7.39-3.23l-.11.21.03-.03c.1-.09.25-.08.32-.08.9.01 3.48 1.21 7.1 3.3 1.6.94 6.7 4.26 6.69 5.19 0 .08 0 .1-.02.14l.13-.2Z" class="B E"/><path d="M26.88 20.4c.29-.59-2.86-2.98-6.75-5.3-3.99-2.29-6.86-3.63-7.39-3.23l-.11.21.03-.03c.1-.09.25-.08.32-.08.9.01 3.48 1.21 7.1 3.3 1.6.94 6.7 4.26 6.69 5.19 0 .08 0 .1-.02.14l.13-.2Zm-14.74-7.34c.46-.32 3.85 1.2 7.4 3.37 3.53 2.16 6.91 4.61 6.6 5.07l-.1.16-.04.04c0-.01.06-.07 0-.24-.16-.5-2.55-2.44-6.53-4.86-3.88-2.34-7.1-3.75-7.43-3.34l.1-.2Z" class="C F G"/><path stroke-width=".06" d="M14.75 17.4c0 1.35.54 2.56 1.42 3.45a4.798 4.798 0 0 0 6.85.02 4.9 4.9 0 0 0 1.43-3.46v-6.53l-9.7-.01v6.54-.01Z" class="C H"/><use href="#H" fill="red"/><use href="#H" class="C D"/><path d="M15.53 12.74c.01-.46.33-.56.34-.56 0 0 .34.11.34.56h-.68Z" class="B"/><path d="m15.26 12.18-.06.53h.34c0-.43.32-.5.33-.5 0 0 .33.1.34.5h.33l-.06-.53h-1.22Zm-.08.53h1.38c.03 0 .05.03.05.06 0 .04-.02.07-.05.07h-1.38c-.03 0-.06-.03-.06-.07 0-.03.03-.06.06-.06Z" class="B C D"/><path d="M15.68 12.7c0-.27.19-.34.19-.34s.19.08.19.35h-.38v-.01Zm-.48-.73h1.33c.03 0 .05.02.05.05 0 .04-.02.06-.05.06h-1.32c-.03 0-.05-.02-.05-.06 0-.03.02-.05.05-.05h-.01Z" class="B C D"/><path d="M15.23 12.08h1.27c.03 0 .05.03.05.06s-.02.06-.05.06h-1.27c-.02 0-.04-.03-.04-.06s.02-.06.04-.06Zm.41-.87h.1v.07h.08v-.07h.1v.07H16v-.07h.1v.16c0 .03-.01.05-.04.05h-.36c-.02 0-.04-.02-.04-.05v-.16h-.02Zm.38.22.02.53h-.35l.03-.53h.3Zm-.42.25v.29h-.33v-.3h.32l.01.01Zm.86 0 .01.29h-.34l.01-.3h.32v.01Z" class="B C D"/><path d="M15.21 11.47h.1v.07h.07v-.07h.1v.07h.08v-.07h.1v.17c0 .02-.02.04-.05.04h-.35c-.02 0-.05-.02-.05-.05v-.16Zm.87 0h.1v.07h.07v-.07h.1v.07h.07v-.07h.1v.17c0 .02-.02.04-.04.04h-.35c-.03 0-.05-.02-.05-.05v-.16Z" class="B C D"/><path d="M15.84 11.6c0-.05.07-.05.07 0v.13h-.07v-.13Zm-.44.18c0-.05.07-.05.07 0v.1h-.07v-.1Zm.87 0c0-.05.07-.05.07 0v.1h-.07v-.1Z" class="I"/><path d="M15.53 16.56c.01-.45.33-.56.34-.56 0 0 .34.11.34.57h-.68v-.01Z" class="B"/><path d="m15.26 16-.06.53h.34c0-.43.32-.5.33-.5 0 0 .33.1.34.5h.33l-.06-.53h-1.22Zm-.08.53h1.38c.03 0 .05.03.05.07 0 .03-.02.06-.05.06h-1.38c-.03 0-.06-.03-.06-.06 0-.04.03-.07.06-.07Z" class="B C D"/><path d="M15.68 16.53c0-.27.19-.35.19-.35s.19.08.19.35h-.38Zm-.48-.74h1.33c.03 0 .05.02.05.06 0 .03-.02.05-.05.05h-1.32c-.03 0-.05-.02-.05-.05 0-.04.02-.06.05-.06h-.01Zm.03.11h1.27c.03 0 .05.03.05.06 0 .04-.02.06-.05.06h-1.27c-.02 0-.04-.02-.04-.06 0-.03.02-.05.04-.05v-.01Zm.41-.87h.1v.07h.08v-.07h.1v.07H16v-.07h.1v.17c0 .02-.01.04-.04.04h-.36c-.02 0-.04-.02-.04-.04v-.17h-.02Zm.38.22.02.54h-.35l.03-.54h.3Zm-.42.25v.29h-.33v-.29h.33Zm.86 0 .01.29h-.34l.01-.29h.32Zm-1.25-.2h.1v.06h.07v-.07h.1v.07h.08v-.07h.1v.17c0 .02-.02.04-.05.04h-.35c-.02 0-.05-.02-.05-.04v-.17.01Zm.87 0h.1v.06h.07v-.07h.1v.07h.07v-.07h.1v.17c0 .02-.02.04-.04.04h-.35c-.03 0-.05-.02-.05-.04v-.17.01Z" class="B C D"/><path d="M15.84 15.42c0-.05.07-.05.07 0v.13h-.07v-.13Zm-.44.18c0-.04.07-.05.07 0v.1h-.07v-.1Zm.87 0c0-.04.07-.05.07 0v.1h-.07v-.1Z" class="I"/><path d="M17 20.54c-.3-.33-.16-.63-.15-.64 0 0 .32-.16.64.16l-.48.48H17Z" class="B"/><path d="m16.42 20.35.33.4.24-.24c-.3-.3-.13-.59-.12-.6 0 0 .3-.16.59.12l.24-.24-.42-.33-.86.89Zm.32.42.97-.99a.06.06 0 0 1 .08 0c.03.03.03.07.01.1l-.97.98c-.02.02-.06.02-.09 0-.02-.03-.02-.07 0-.09Z" class="B C D"/><path d="M17.09 20.41c-.2-.2-.12-.38-.12-.38s.2-.08.39.1l-.27.28Zm-.86-.18.94-.95c.02-.02.05-.02.08 0 .02.02.02.06 0 .08l-.93.95a.06.06 0 0 1-.08 0c-.02-.03-.03-.06 0-.08h-.01Z" class="B C D"/><path d="m16.34 20.29.89-.91c.02-.02.05-.02.08 0 .02.03.02.06 0 .08l-.9.91c-.01.02-.04.02-.07 0-.02-.03-.02-.06 0-.08Zm-.33-.91.07-.07.05.05.05-.05-.05-.05.08-.08.05.05.05-.05-.05-.05.07-.07.12.11v.06l-.26.26c-.02.02-.05.02-.06 0l-.12-.1v-.01Zm.42-.11.4.36-.26.25-.35-.4.21-.21Zm-.13.48.21.2-.23.23-.2-.2.22-.23Zm.61-.62.21.2-.23.23-.2-.2.22-.23Z" class="B C D"/><path d="m15.9 19.87.06-.07.05.05.05-.05-.05-.05.07-.07.05.05.05-.05-.05-.05.07-.08.12.12c.02.02.01.05 0 .06l-.25.26c-.02.01-.05.02-.06 0l-.12-.12h.01Zm.6-.62.07-.07.05.05.05-.05-.05-.05.07-.07.05.05.05-.05-.05-.05.07-.08.12.12c.02.02.01.05 0 .06l-.25.25c-.02.02-.05.02-.06 0l-.12-.1v-.01Z" class="B C D"/><path d="M16.42 19.52c-.04-.04.01-.09.05-.05l.09.09-.05.05-.09-.1v.01Zm-.18.44c-.03-.03.01-.08.05-.05l.07.07-.05.05-.07-.07Zm.61-.62c-.03-.04.02-.09.05-.05l.07.07-.05.05-.07-.07Z" class="I"/><path d="M19.27 12.74c0-.46.33-.56.33-.56s.34.11.34.56h-.67Z" class="B"/><path d="m18.99 12.18-.06.53h.34c0-.43.33-.5.33-.5.01 0 .33.1.34.5h.34l-.06-.53h-1.23Zm-.08.53h1.39c.02 0 .05.03.05.06 0 .04-.03.07-.05.07h-1.4c-.03 0-.05-.03-.05-.07 0-.03.02-.06.05-.06h.01Z" class="B C D"/><path d="M19.41 12.7c0-.27.19-.34.19-.34s.2.08.2.35h-.39v-.01Zm-.47-.73h1.33c.03 0 .05.02.05.05 0 .04-.02.06-.05.06h-1.33c-.03 0-.05-.02-.05-.06 0-.03.02-.05.05-.05Z" class="B C D"/><path d="M18.97 12.08h1.27c.02 0 .05.03.05.06s-.03.06-.05.06h-1.27c-.03 0-.05-.03-.05-.06s.02-.06.05-.06Zm.41-.87h.1v.07h.07v-.07h.1v.07h.08v-.07h.1v.16c0 .03-.02.05-.04.05h-.37c-.02 0-.04-.02-.04-.05v-.16Zm.38.22.02.53h-.35l.02-.53h.31Zm-.43.25v.29H19l.01-.3h.32v.01Zm.87 0v.29h-.33v-.3h.32l.01.01Z" class="B C D"/><path d="M18.95 11.47h.1v.07h.07v-.07h.1v.07h.07v-.07h.1v.17c0 .02-.02.04-.04.04h-.36c-.02 0-.04-.02-.04-.05v-.16Zm.86 0h.1v.07h.07v-.07h.1v.07h.08v-.07h.1v.17c0 .02-.02.04-.05.04h-.35c-.02 0-.05-.02-.05-.05v-.16Z" class="B C D"/><path d="M19.57 11.6c0-.05.07-.05.07 0v.13h-.07v-.13Zm-.44.18c0-.05.07-.05.07 0v.1h-.07v-.1Zm.87 0c0-.05.07-.05.07 0v.1H20v-.1Z" class="I"/><path d="M23.65 12.74c-.01-.46-.33-.56-.33-.56s-.35.11-.35.56h.68Z" class="B"/><path d="m23.93 12.18.05.53h-.34c0-.43-.32-.5-.33-.5 0 0-.32.1-.33.5h-.34l.06-.53h1.23Zm.07.53h-1.38c-.03 0-.05.03-.05.06 0 .04.02.07.05.07h1.39c.02 0 .05-.03.05-.07 0-.03-.03-.06-.05-.06H24Z" class="B C D"/><path d="M23.5 12.7c0-.27-.18-.34-.18-.34s-.2.08-.2.35h.38v-.01Zm.48-.73h-1.33c-.03 0-.05.02-.05.05 0 .04.02.06.05.06h1.33c.02 0 .05-.02.05-.06 0-.03-.03-.05-.05-.05Z" class="B C D"/><path d="M23.95 12.08h-1.27c-.03 0-.05.03-.05.06s.02.06.05.06h1.27c.02 0 .05-.03.05-.06s-.03-.06-.05-.06Zm-.41-.87h-.1v.07h-.08v-.07h-.1v.07h-.07v-.07h-.1v.16c0 .03.02.05.04.05h.36c.03 0 .05-.02.05-.05v-.16Zm-.38.22-.02.53h.35l-.02-.53h-.31Zm.43.25-.01.29h.34l-.01-.3h-.32v.01Zm-.87 0v.29h.33l-.01-.3h-.32v.01Z" class="B C D"/><path d="M23.97 11.47h-.1v.07h-.07v-.07h-.1v.07h-.07v-.07h-.1v.17c0 .02.02.04.04.04h.35c.03 0 .05-.02.05-.05v-.16Zm-.87 0H23v.07h-.07v-.07h-.1v.07h-.07v-.07h-.1v.17c0 .02.02.04.04.04h.36c.02 0 .04-.02.04-.05v-.16Z" class="B C D"/><path d="M23.35 11.6c0-.05-.07-.05-.07 0v.13h.07v-.13Zm.43.18c0-.05-.07-.05-.06 0v.1h.06v-.1Zm-.87 0c0-.05-.06-.05-.06 0v.1h.06v-.1Z" class="I"/><path d="M23.65 16.56c-.01-.45-.33-.56-.33-.56s-.35.11-.35.57h.68v-.01Z" class="B"/><path d="m23.93 16 .05.53h-.34c0-.43-.32-.5-.33-.5 0 0-.32.1-.33.5h-.34l.06-.53h1.23Zm.07.53h-1.38c-.03 0-.05.03-.05.07 0 .03.02.06.05.06h1.39c.02 0 .05-.03.05-.06 0-.04-.03-.07-.05-.07H24Z" class="B C D"/><path d="M23.5 16.53c0-.27-.18-.35-.18-.35s-.2.08-.2.35h.38Zm.48-.74h-1.33c-.03 0-.05.02-.05.06 0 .03.02.05.05.05h1.33c.02 0 .05-.02.05-.05 0-.04-.03-.06-.05-.06Zm-.03.11h-1.27c-.03 0-.05.03-.05.06 0 .04.02.06.05.06h1.27c.02 0 .05-.02.05-.06 0-.03-.03-.05-.05-.05v-.01Zm-.41-.87h-.1v.07h-.08v-.07h-.1v.07h-.07v-.07h-.1v.17c0 .02.02.04.04.04h.36c.03 0 .05-.02.05-.04v-.17Zm-.38.22-.02.54h.35l-.02-.54h-.31Zm.43.25-.01.29h.34l-.01-.29h-.32Zm-.87 0v.29h.33l-.01-.29h-.32Zm1.25-.2h-.1v.06h-.07v-.07h-.1v.07h-.07v-.07h-.1v.17c0 .02.02.04.04.04h.35c.03 0 .05-.02.05-.04v-.17.01Zm-.87 0H23v.06h-.07v-.07h-.1v.07h-.07v-.07h-.1v.17c0 .02.02.04.04.04h.36c.02 0 .04-.02.04-.04v-.17.01Z" class="B C D"/><path d="M23.35 15.42c0-.05-.07-.05-.07 0v.13h.07v-.13Zm.43.18c0-.04-.07-.05-.06 0v.1h.06v-.1Zm-.87 0c0-.04-.06-.05-.06 0v.1h.06v-.1Z" class="I"/><path d="M22.18 20.54c.3-.33.16-.63.16-.64 0 0-.33-.16-.64.16l.48.48Z" class="B"/><path d="m22.76 20.35-.33.4-.24-.24c.3-.3.13-.59.12-.6 0 0-.3-.16-.59.12l-.23-.24.4-.33.87.89Z" class="B C D"/><path d="m22.45 20.77-.98-.99a.06.06 0 0 0-.08 0c-.03.03-.03.07 0 .1l.97.98c.02.02.05.02.08 0 .02-.03.03-.07 0-.09h.01Z" class="B C D"/><path d="M22.1 20.41c.19-.2.11-.38.11-.38s-.2-.08-.38.1l.26.28h.01Zm.85-.18-.94-.95a.048.048 0 0 0-.07 0c-.03.02-.03.06 0 .08l.93.95c.02.02.05.02.07 0 .03-.03.03-.06 0-.08h.01Zm-.1.06-.9-.91a.048.048 0 0 0-.07 0c-.03.03-.03.06 0 .08l.88.91c.02.02.06.02.08 0 .02-.03.03-.06 0-.08h.01Zm.32-.91-.07-.07-.05.05-.05-.05.05-.05-.07-.08-.05.05-.06-.05.06-.05-.08-.07-.11.11c-.02.02-.02.05 0 .06l.25.26c.02.02.05.02.07 0l.11-.1v-.01Zm-.42-.11-.39.36.25.25.36-.4-.22-.21Z" class="B C D"/><path d="m22.88 19.75-.21.2.24.23.2-.2-.23-.23Zm-.61-.62-.21.2.24.23.2-.2-.23-.23Z" class="B C D"/><path d="m23.3 19.87-.08-.07-.05.05-.05-.05.05-.05-.07-.07-.05.05-.05-.05.05-.05-.07-.08-.12.12v.06l.25.26c.02.01.05.02.07 0l.11-.12h.01Zm-.62-.62-.07-.07-.05.05-.05-.05.05-.05-.07-.07-.05.05-.05-.05.05-.05-.07-.08-.12.12v.06l.25.25c.02.02.05.02.07 0l.11-.1v-.01Z" class="B C D"/><path d="M22.76 19.52c.04-.04-.01-.09-.05-.05l-.09.09.05.05.1-.1-.01.01Zm.18.44c.04-.03-.01-.08-.05-.05l-.07.07.05.05.07-.07Zm-.61-.62c.03-.04-.01-.09-.05-.05l-.07.07.05.05.07-.07Z" class="I"/><path fill="#039" d="M19 16.7c0 .18.07.35.18.47s.26.2.43.2.32-.08.44-.2a.7.7 0 0 0 .18-.47v-.89H19v.89z"/><path d="M19.28 16.27c.07 0 .12-.05.12-.12a.12.12 0 0 0-.074-.11.118.118 0 0 0-.13.025.12.12 0 0 0-.036.085c0 .07.05.12.12.12Zm.68 0c.07 0 .12-.05.12-.12a.12.12 0 0 0-.074-.11.118.118 0 0 0-.13.025.12.12 0 0 0-.036.085c0 .07.05.12.12.12Zm-.34.33c.07 0 .12-.05.12-.12a.12.12 0 1 0-.24 0c0 .07.05.12.12.12Zm-.34.35c.07 0 .12-.06.12-.13a.12.12 0 1 0-.24 0c0 .07.05.13.12.13Zm.68-.01c.06 0 .12-.05.12-.12a.12.12 0 0 0-.074-.11.118.118 0 0 0-.13.025.12.12 0 0 0-.036.085c0 .07.05.12.12.12Z" class="H"/><path fill="#039" d="M19 14.55c0 .19.07.35.18.47s.26.2.43.2.32-.08.44-.2a.7.7 0 0 0 .18-.47v-.89H19v.9-.01z"/><path d="M19.28 14.12c.07 0 .12-.05.12-.12a.12.12 0 0 0-.24 0c0 .07.05.12.12.12Zm.68.01c.07 0 .12-.06.12-.13a.12.12 0 1 0-.24 0c0 .07.05.13.12.13Zm-.34.32c.07 0 .12-.05.12-.12a.12.12 0 0 0-.24 0c0 .07.05.12.12.12Zm-.34.35c.07 0 .12-.06.12-.12a.12.12 0 0 0-.12-.13.119.119 0 0 0-.088.038.12.12 0 0 0-.032.092c0 .06.05.12.12.12Zm.68 0a.129.129 0 0 0 .114-.17.12.12 0 0 0-.162-.07.12.12 0 0 0-.072.12c0 .06.05.12.12.12Z" class="H"/><path fill="#039" d="M17.3 16.7c0 .18.07.35.18.47s.27.2.43.2c.17 0 .33-.08.44-.2a.7.7 0 0 0 .18-.47v-.89H17.3v.89z"/><path d="M17.58 16.27c.07 0 .12-.05.12-.12a.119.119 0 0 0-.074-.11.119.119 0 0 0-.13.025.12.12 0 0 0-.036.085c0 .07.05.12.12.12Zm.68 0c.07 0 .12-.05.12-.12a.119.119 0 0 0-.074-.11.119.119 0 0 0-.13.025.12.12 0 0 0-.036.085c0 .07.05.12.12.12Zm-.34.33c.07 0 .12-.05.12-.12a.12.12 0 0 0-.24 0c0 .07.05.12.12.12Zm-.34.35c.07 0 .12-.06.12-.13a.12.12 0 0 0-.24 0c0 .07.05.13.12.13Zm.68-.01c.07 0 .12-.05.12-.12a.12.12 0 0 0-.24 0c0 .07.05.12.12.12Z" class="H"/><path fill="#039" d="M20.7 16.7c0 .18.06.35.17.47s.27.2.44.2.32-.08.43-.2a.7.7 0 0 0 .18-.47v-.89h-1.23v.89h.01z"/><path d="M20.97 16.27c.07 0 .12-.05.12-.12a.12.12 0 0 0-.074-.11.118.118 0 0 0-.092 0 .119.119 0 0 0-.074.11c0 .07.06.12.12.12zm.68 0c.07 0 .12-.05.12-.12a.12.12 0 0 0-.074-.11.118.118 0 0 0-.092 0 .119.119 0 0 0-.074.11c0 .07.06.12.12.12zm-.34.33c.07 0 .12-.05.12-.12a.12.12 0 1 0-.12.12zm-.34.35c.07 0 .12-.06.12-.13a.12.12 0 1 0-.24 0c0 .07.06.13.12.13zm.68-.01c.07 0 .12-.05.12-.12a.12.12 0 1 0-.24 0c0 .07.06.12.12.12z" class="H"/><path fill="#039" d="M19 18.83c0 .18.07.34.18.47.11.12.26.2.43.2s.32-.08.44-.2a.7.7 0 0 0 .18-.47v-.9H19v.9z"/><path d="M19.28 18.4c.07 0 .12-.06.12-.12a.12.12 0 0 0-.12-.13.119.119 0 0 0-.088.039.12.12 0 0 0-.032.09c0 .06.05.12.12.12Zm.68 0c.07 0 .12-.06.12-.12a.12.12 0 0 0-.12-.13.119.119 0 0 0-.088.039.12.12 0 0 0-.032.09c0 .06.05.12.12.12Zm-.34.33c.07 0 .12-.06.12-.12a.12.12 0 0 0-.12-.13.119.119 0 0 0-.088.038.12.12 0 0 0-.032.092c0 .06.05.12.12.12Zm-.34.34c.07 0 .12-.05.12-.12a.12.12 0 0 0-.24 0c0 .07.05.12.12.12Zm.68 0c.06 0 .12-.05.12-.12a.12.12 0 1 0-.24 0c0 .07.05.12.12.12Z" class="H"/></g></g><defs ><path id="D" d="M25.99 21.62c-2.47-.08-13.78-7.21-13.86-8.35l.63-1.05c1.12 1.65 12.68 8.59 13.82 8.34l-.59 1.06Z"/><path id="E" d="M11.5 16.97c1.52.82 4.9 1.24 8.09 1.27 2.9 0 6.7-.46 8.1-1.22l-.03-.82c-.44.7-4.5 1.37-8.1 1.34s-6.95-.59-8.06-1.31v.74z"/><path id="F" d="M19.56 10.97c3-.02 5.63.42 6.83 1.05l.44.76c-1.04-.57-3.87-1.16-7.27-1.07-2.76.02-5.72.3-7.2 1.1l.52-.88c1.22-.63 4.09-.96 6.68-.96Z"/><path id="G" d="M23.61 19.9a20.905 20.905 0 0 0-4.02-.3c-5.01.05-6.63 1.04-6.83 1.33l-.37-.61c1.27-.94 4-1.46 7.23-1.41 1.68.03 3.12.14 4.34.38l-.35.61Z"/><path id="H" d="M14.93 17.42a4.68 4.68 0 0 0 4.65 4.68 4.68 4.68 0 0 0 4.65-4.68V11.1h-9.3v6.33m7.43-4.44v4.46c0 .12 0 .24-.02.35-.07.64-.36 1.2-.8 1.63a2.74 2.74 0 0 1-3.91-.01 2.82 2.82 0 0 1-.81-1.98v-4.46l5.54.01Z"/></defs></svg>