<svg width="24" height="24" viewBox="0 0 24 24" fill="none" xmlns="http://www.w3.org/2000/svg">
<mask id="mask0_5769_1686" style="mask-type:alpha" maskUnits="userSpaceOnUse" x="0" y="0" width="24" height="24">
<rect width="24" height="24" fill="#D9D9D9"/>
</mask>
<g mask="url(#mask0_5769_1686)">
<path d="M6.82502 12L9.72502 14.9C9.92502 15.1 10.0209 15.3334 10.0125 15.6C10.0042 15.8667 9.90002 16.1 9.70002 16.3C9.50002 16.4834 9.26669 16.5792 9.00002 16.5875C8.73336 16.5959 8.50002 16.5 8.30002 16.3L3.70002 11.7C3.50002 11.5 3.40002 11.2667 3.40002 11C3.40002 10.7334 3.50002 10.5 3.70002 10.3L8.30002 5.70005C8.48336 5.51672 8.71252 5.42505 8.98752 5.42505C9.26252 5.42505 9.50002 5.51672 9.70002 5.70005C9.90002 5.90005 10 6.13755 10 6.41255C10 6.68755 9.90002 6.92505 9.70002 7.12505L6.82502 10H16C17.3834 10 18.5625 10.4875 19.5375 11.4625C20.5125 12.4375 21 13.6167 21 15V18C21 18.2834 20.9042 18.5209 20.7125 18.7125C20.5209 18.9042 20.2834 19 20 19C19.7167 19 19.4792 18.9042 19.2875 18.7125C19.0959 18.5209 19 18.2834 19 18V15C19 14.1667 18.7084 13.4584 18.125 12.875C17.5417 12.2917 16.8334 12 16 12H6.82502Z" fill="#1034BF"/>
</g>
</svg>
