<svg width="24" height="24" viewBox="0 0 24 24" fill="none" xmlns="http://www.w3.org/2000/svg">
<mask id="mask0_211_2583" style="mask-type:alpha" maskUnits="userSpaceOnUse" x="0" y="0" width="24" height="24">
<rect width="24" height="24" fill="#D9D9D9"/>
</mask>
<g mask="url(#mask0_211_2583)">
<path d="M12 12.663L9.62499 10.288C9.44165 10.1047 9.21249 10.013 8.93749 10.013C8.66249 10.013 8.42499 10.1047 8.22499 10.288C8.02499 10.488 7.92499 10.7255 7.92499 11.0005C7.92499 11.2755 8.02499 11.513 8.22499 11.713L11.3 14.788C11.5 14.988 11.7333 15.088 12 15.088C12.2667 15.088 12.5 14.988 12.7 14.788L15.8 11.688C16 11.488 16.0958 11.2547 16.0875 10.988C16.0792 10.7213 15.975 10.488 15.775 10.288C15.575 10.1047 15.3417 10.0088 15.075 10.0005C14.8083 9.99217 14.575 10.088 14.375 10.288L12 12.663Z" fill="#1034BF"/>
</g>
</svg>
