<svg width="32" height="32" viewBox="0 0 32 32" fill="none" xmlns="http://www.w3.org/2000/svg">
<path fill-rule="evenodd" clip-rule="evenodd" d="M29.3646 16.1766C30.5797 15.7947 31.7598 15.9684 31.9681 16.6277C32.1764 17.2521 31.3435 18.0851 30.059 18.5016C29.8853 18.571 29.7464 18.6058 29.5729 18.6404C30.5793 20.7571 31.3432 22.8737 31.3432 24.4699V31.0979C31.3432 31.5835 30.9265 32 30.4059 32H27.3512C26.8305 32 26.4139 31.6184 26.4139 31.0979V29.0612H5.41237V31.0979C5.41237 31.5835 4.99573 32 4.47509 32H1.42038C0.899742 32 0.483103 31.6184 0.483103 31.0979V24.4699C0.483103 22.8737 1.24694 20.6876 2.28822 18.571C2.18422 18.5364 2.04534 18.5016 1.90646 18.467C0.656862 18.0854 -0.176416 17.2524 0.0319031 16.5931C0.240223 15.9339 1.38582 15.7605 2.63542 16.1421C2.91318 16.2115 3.15637 16.3155 3.39925 16.4543L3.91989 15.5522C5.09451 13.5773 6.28957 11.9308 7 11.1652V13.3895C6.36464 14.2585 5.56382 15.462 4.75317 16.8806H27.3515C26.4957 15.383 25.6508 14.1142 25 13.233V11.2804C25.7336 12.0894 26.8639 13.683 27.9758 15.5522L28.5313 16.5237C28.7745 16.3849 29.0523 16.2806 29.3646 16.1766ZM20 25H12V27H20V25ZM3.53809 21.3582C3.53809 20.9416 3.88529 20.5598 4.30192 20.5598C5.65552 20.5947 8.43279 20.907 9.71727 23.0939C9.92559 23.4411 9.71727 23.7534 9.30063 23.684L4.30192 23.0245C3.88529 22.9553 3.53809 22.5733 3.53809 22.1221V21.3582ZM27.7678 20.5598C26.4139 20.5944 23.637 20.9416 22.3525 23.0593C22.1442 23.4411 22.3525 23.7188 22.7691 23.6494L27.7678 22.9899C28.1845 22.9204 28.5317 22.5387 28.5317 22.0875V21.3236C28.5317 20.907 28.1845 20.5252 27.7678 20.5598Z" fill="#004FB6"/>
<path fill-rule="evenodd" clip-rule="evenodd" d="M10 0H8V15H24V0H22V1C22 1.55228 21.5523 2 21 2C20.4477 2 20 1.55228 20 1V0H12V1C12 1.55228 11.5523 2 11 2C10.4477 2 10 1.55228 10 1V0ZM11 6C11.5523 6 12 5.55228 12 5C12 4.44772 11.5523 4 11 4C10.4477 4 10 4.44772 10 5C10 5.55228 10.4477 6 11 6ZM11 9C11.5523 9 12 8.55228 12 8C12 7.44772 11.5523 7 11 7C10.4477 7 10 7.44772 10 8C10 8.55228 10.4477 9 11 9ZM12 11C12 11.5523 11.5523 12 11 12C10.4477 12 10 11.5523 10 11C10 10.4477 10.4477 10 11 10C11.5523 10 12 10.4477 12 11ZM14 9C14.5523 9 15 8.55228 15 8C15 7.44772 14.5523 7 14 7C13.4477 7 13 7.44772 13 8C13 8.55228 13.4477 9 14 9ZM15 5C15 5.55228 14.5523 6 14 6C13.4477 6 13 5.55228 13 5C13 4.44772 13.4477 4 14 4C14.5523 4 15 4.44772 15 5ZM14 12C14.5523 12 15 11.5523 15 11C15 10.4477 14.5523 10 14 10C13.4477 10 13 10.4477 13 11C13 11.5523 13.4477 12 14 12ZM18 8C18 8.55228 17.5523 9 17 9C16.4477 9 16 8.55228 16 8C16 7.44772 16.4477 7 17 7C17.5523 7 18 7.44772 18 8ZM17 6C17.5523 6 18 5.55228 18 5C18 4.44772 17.5523 4 17 4C16.4477 4 16 4.44772 16 5C16 5.55228 16.4477 6 17 6ZM21 8C21 8.55228 20.5523 9 20 9C19.4477 9 19 8.55228 19 8C19 7.44772 19.4477 7 20 7C20.5523 7 21 7.44772 21 8ZM20 6C20.5523 6 21 5.55228 21 5C21 4.44772 20.5523 4 20 4C19.4477 4 19 4.44772 19 5C19 5.55228 19.4477 6 20 6ZM18 11C18 11.5523 17.5523 12 17 12C16.4477 12 16 11.5523 16 11C16 10.4477 16.4477 10 17 10C17.5523 10 18 10.4477 18 11Z" fill="#004FB6"/>
</svg>
