<svg width="160" height="722" viewBox="0 0 107 520" fill="none" xmlns="http://www.w3.org/2000/svg"><path fill="#00B67A" d="M0 450h20v20H0zm21.667 0h20v20h-20zm21.666 0h20v20h-20zM65 450h20v20H65z"/><path fill="#DCDCE6" d="M96.667 450h10v20h-10z"/><path fill="#00B67A" d="M86.667 450h10v20h-10z"/><path fill-rule="evenodd" clip-rule="evenodd" d="M11.646 458.417H17l-4.313 3.125-2.666 1.916-4.334 3.125 1.646-5.041L3 458.417h5.354L10 453.375l1.646 5.042zm1.396 4.291l-3.042.771 4.313 3.146-1.271-3.917zm20.271-4.291h5.354l-4.313 3.125-2.666 1.916-4.334 3.125L29 461.542l-4.333-3.125h5.354l1.646-5.042 1.645 5.042zm1.395 4.291l-3.041.771 4.312 3.146-1.27-3.917zm20.272-4.291h5.353l-4.312 3.125-2.667 1.916-4.333 3.125 1.646-5.041-4.334-3.125h5.355l1.645-5.042 1.646 5.042zm1.395 4.291l-3.042.771 4.313 3.146-1.271-3.917zm20.271-4.291H82l-4.313 3.125-2.666 1.916-4.334 3.125 1.646-5.041L68 458.417h5.354L75 453.375l1.646 5.042zm1.396 4.291l-3.042.771 4.313 3.146-1.271-3.917zm20.271-4.291h5.354l-4.313 3.125-2.666 1.916-4.334 3.125L94 461.542l-4.333-3.125h5.354l1.646-5.042 1.645 5.042zm1.395 4.291l-3.041.771 4.312 3.146-1.27-3.917z" fill="#fff"/><path fill="#00B67A" d="M0 500h20v20H0zm21.667 0h20v20h-20zm21.666 0h20v20h-20zM65 500h20v20H65zm21.667 0h20v20h-20z"/><path fill-rule="evenodd" clip-rule="evenodd" d="M11.646 508.417H17l-4.313 3.125-2.666 1.916-4.334 3.125 1.646-5.041L3 508.417h5.354L10 503.375l1.646 5.042zm1.396 4.291l-3.042.771 4.313 3.146-1.271-3.917zm20.271-4.291h5.354l-4.313 3.125-2.666 1.916-4.334 3.125L29 511.542l-4.333-3.125h5.354l1.646-5.042 1.645 5.042zm1.395 4.291l-3.041.771 4.312 3.146-1.27-3.917zm20.272-4.291h5.353l-4.312 3.125-2.667 1.916-4.333 3.125 1.646-5.041-4.334-3.125h5.355l1.645-5.042 1.646 5.042zm1.395 4.291l-3.042.771 4.313 3.146-1.271-3.917zm20.271-4.291H82l-4.313 3.125-2.666 1.916-4.334 3.125 1.646-5.041L68 508.417h5.354L75 503.375l1.646 5.042zm1.396 4.291l-3.042.771 4.313 3.146-1.271-3.917zm20.271-4.291h5.354l-4.313 3.125-2.666 1.916-4.334 3.125L94 511.542l-4.333-3.125h5.354l1.646-5.042 1.645 5.042zm1.395 4.291l-3.041.771 4.312 3.146-1.27-3.917z" fill="#fff"/><path fill="#73CF11" d="M0 400h20v20H0zm21.667 0h20v20h-20zm21.666 0h20v20h-20zM65 400h20v20H65z"/><path fill="#DCDCE6" d="M86.667 400h20v20h-20z"/><path fill-rule="evenodd" clip-rule="evenodd" d="M11.646 408.417H17l-4.313 3.125-2.666 1.916-4.334 3.125 1.646-5.041L3 408.417h5.354L10 403.375l1.646 5.042zm1.396 4.291l-3.042.771 4.313 3.146-1.271-3.917zm20.271-4.291h5.354l-4.313 3.125-2.666 1.916-4.334 3.125L29 411.542l-4.333-3.125h5.354l1.646-5.042 1.645 5.042zm1.395 4.291l-3.041.771 4.312 3.146-1.27-3.917zm20.272-4.291h5.353l-4.312 3.125-2.667 1.916-4.333 3.125 1.646-5.041-4.334-3.125h5.355l1.645-5.042 1.646 5.042zm1.395 4.291l-3.042.771 4.313 3.146-1.271-3.917zm20.271-4.291H82l-4.313 3.125-2.666 1.916-4.334 3.125 1.646-5.041L68 408.417h5.354L75 403.375l1.646 5.042zm1.396 4.291l-3.042.771 4.313 3.146-1.271-3.917zm20.271-4.291h5.354l-4.313 3.125-2.666 1.916-4.334 3.125L94 411.542l-4.333-3.125h5.354l1.646-5.042 1.645 5.042zm1.395 4.291l-3.041.771 4.312 3.146-1.27-3.917z" fill="#fff"/><path fill="#FFCE00" d="M0 350h20v20H0zm21.667 0h20v20h-20zm21.666 0h20v20h-20z"/><path fill="#DCDCE6" d="M65 350h20v20H65z"/><path fill="#FFCE00" d="M65 350h10v20H65z"/><path fill="#DCDCE6" d="M86.667 350h20v20h-20z"/><path fill-rule="evenodd" clip-rule="evenodd" d="M11.646 358.417H17l-4.313 3.125-2.666 1.916-4.334 3.125 1.646-5.041L3 358.417h5.354L10 353.375l1.646 5.042zm1.396 4.291l-3.042.771 4.313 3.146-1.271-3.917zm20.271-4.291h5.354l-4.313 3.125-2.666 1.916-4.334 3.125L29 361.542l-4.333-3.125h5.354l1.646-5.042 1.645 5.042zm1.395 4.291l-3.041.771 4.312 3.146-1.27-3.917zm20.272-4.291h5.353l-4.312 3.125-2.667 1.916-4.333 3.125 1.646-5.041-4.334-3.125h5.355l1.645-5.042 1.646 5.042zm1.395 4.291l-3.042.771 4.313 3.146-1.271-3.917zm20.271-4.291H82l-4.313 3.125-2.666 1.916-4.334 3.125 1.646-5.041L68 358.417h5.354L75 353.375l1.646 5.042zm1.396 4.291l-3.042.771 4.313 3.146-1.271-3.917zm20.271-4.291h5.354l-4.313 3.125-2.666 1.916-4.334 3.125L94 361.542l-4.333-3.125h5.354l1.646-5.042 1.645 5.042zm1.395 4.291l-3.041.771 4.312 3.146-1.27-3.917z" fill="#fff"/><path fill="#FFCE00" d="M0 300h20v20H0zm21.667 0h20v20h-20zm21.666 0h20v20h-20z"/><path fill="#DCDCE6" d="M65 300h20v20H65zm21.667 0h20v20h-20z"/><path fill-rule="evenodd" clip-rule="evenodd" d="M11.646 308.417H17l-4.313 3.125-2.666 1.916-4.334 3.125 1.646-5.041L3 308.417h5.354L10 303.375l1.646 5.042zm1.396 4.291l-3.042.771 4.313 3.146-1.271-3.917zm20.271-4.291h5.354l-4.313 3.125-2.666 1.916-4.334 3.125L29 311.542l-4.333-3.125h5.354l1.646-5.042 1.645 5.042zm1.395 4.291l-3.041.771 4.312 3.146-1.27-3.917zm20.272-4.291h5.353l-4.312 3.125-2.667 1.916-4.333 3.125 1.646-5.041-4.334-3.125h5.355l1.645-5.042 1.646 5.042zm1.395 4.291l-3.042.771 4.313 3.146-1.271-3.917zm20.271-4.291H82l-4.313 3.125-2.666 1.916-4.334 3.125 1.646-5.041L68 308.417h5.354L75 303.375l1.646 5.042zm1.396 4.291l-3.042.771 4.313 3.146-1.271-3.917zm20.271-4.291h5.354l-4.313 3.125-2.666 1.916-4.334 3.125L94 311.542l-4.333-3.125h5.354l1.646-5.042 1.645 5.042zm1.395 4.291l-3.041.771 4.312 3.146-1.27-3.917z" fill="#fff"/><path fill="#FF8622" d="M0 250h20v20H0zm21.667 0h20v20h-20z"/><path fill="#DCDCE6" d="M43.333 250h20v20h-20z"/><path fill="#FF8622" d="M43.333 250h10v20h-10z"/><path fill="#DCDCE6" d="M65 250h20v20H65zm21.667 0h20v20h-20z"/><path fill-rule="evenodd" clip-rule="evenodd" d="M11.646 258.417H17l-4.313 3.125-2.666 1.916-4.334 3.125 1.646-5.041L3 258.417h5.354L10 253.375l1.646 5.042zm1.396 4.291l-3.042.771 4.313 3.146-1.271-3.917zm20.271-4.291h5.354l-4.313 3.125-2.666 1.916-4.334 3.125L29 261.542l-4.333-3.125h5.354l1.646-5.042 1.645 5.042zm1.395 4.291l-3.041.771 4.312 3.146-1.27-3.917zm20.272-4.291h5.353l-4.312 3.125-2.667 1.916-4.333 3.125 1.646-5.041-4.334-3.125h5.355l1.645-5.042 1.646 5.042zm1.395 4.291l-3.042.771 4.313 3.146-1.271-3.917zm20.271-4.291H82l-4.313 3.125-2.666 1.916-4.334 3.125 1.646-5.041L68 258.417h5.354L75 253.375l1.646 5.042zm1.396 4.291l-3.042.771 4.313 3.146-1.271-3.917zm20.271-4.291h5.354l-4.313 3.125-2.666 1.916-4.334 3.125L94 261.542l-4.333-3.125h5.354l1.646-5.042 1.645 5.042zm1.395 4.291l-3.041.771 4.312 3.146-1.27-3.917z" fill="#fff"/><path fill="#FF8622" d="M0 200h20v20H0zm21.667 0h20v20h-20z"/><path fill="#DCDCE6" d="M43.333 200h20v20h-20zM65 200h20v20H65zm21.667 0h20v20h-20z"/><path fill-rule="evenodd" clip-rule="evenodd" d="M11.646 208.417H17l-4.313 3.125-2.666 1.916-4.334 3.125 1.646-5.041L3 208.417h5.354L10 203.375l1.646 5.042zm1.396 4.291l-3.042.771 4.313 3.146-1.271-3.917zm20.271-4.291h5.354l-4.313 3.125-2.666 1.916-4.334 3.125L29 211.542l-4.333-3.125h5.354l1.646-5.042 1.645 5.042zm1.395 4.291l-3.041.771 4.312 3.146-1.27-3.917zm20.272-4.291h5.353l-4.312 3.125-2.667 1.916-4.333 3.125 1.646-5.041-4.334-3.125h5.355l1.645-5.042 1.646 5.042zm1.395 4.291l-3.042.771 4.313 3.146-1.271-3.917zm20.271-4.291H82l-4.313 3.125-2.666 1.916-4.334 3.125 1.646-5.041L68 208.417h5.354L75 203.375l1.646 5.042zm1.396 4.291l-3.042.771 4.313 3.146-1.271-3.917zm20.271-4.291h5.354l-4.313 3.125-2.666 1.916-4.334 3.125L94 211.542l-4.333-3.125h5.354l1.646-5.042 1.645 5.042zm1.395 4.291l-3.041.771 4.312 3.146-1.27-3.917z" fill="#fff"/><path fill="#FF3722" d="M0 150h20v20H0z"/><path fill="#DCDCE6" d="M21.667 150h20v20h-20z"/><path fill="#FF3722" d="M21.667 150h10v20h-10z"/><path fill="#DCDCE6" d="M43.333 150h20v20h-20zM65 150h20v20H65zm21.667 0h20v20h-20z"/><path fill-rule="evenodd" clip-rule="evenodd" d="M11.646 158.417H17l-4.313 3.125-2.666 1.916-4.334 3.125 1.646-5.041L3 158.417h5.354L10 153.375l1.646 5.042zm1.396 4.291l-3.042.771 4.313 3.146-1.271-3.917zm20.271-4.291h5.354l-4.313 3.125-2.666 1.916-4.334 3.125L29 161.542l-4.333-3.125h5.354l1.646-5.042 1.645 5.042zm1.395 4.291l-3.041.771 4.312 3.146-1.27-3.917zm20.272-4.291h5.353l-4.312 3.125-2.667 1.916-4.333 3.125 1.646-5.041-4.334-3.125h5.355l1.645-5.042 1.646 5.042zm1.395 4.291l-3.042.771 4.313 3.146-1.271-3.917zm20.271-4.291H82l-4.313 3.125-2.666 1.916-4.334 3.125 1.646-5.041L68 158.417h5.354L75 153.375l1.646 5.042zm1.396 4.291l-3.042.771 4.313 3.146-1.271-3.917zm20.271-4.291h5.354l-4.313 3.125-2.666 1.916-4.334 3.125L94 161.542l-4.333-3.125h5.354l1.646-5.042 1.645 5.042zm1.395 4.291l-3.041.771 4.312 3.146-1.27-3.917z" fill="#fff"/><path fill="#FF3722" d="M0 100h20v20H0z"/><path fill="#DCDCE6" d="M21.667 100h20v20h-20zm21.666 0h20v20h-20zM65 100h20v20H65zm21.667 0h20v20h-20z"/><path fill-rule="evenodd" clip-rule="evenodd" d="M11.646 108.417H17l-4.313 3.125-2.666 1.916-4.334 3.125 1.646-5.041L3 108.417h5.354L10 103.375l1.646 5.042zm1.396 4.291l-3.042.771 4.313 3.146-1.271-3.917zm20.271-4.291h5.354l-4.313 3.125-2.666 1.916-4.334 3.125L29 111.542l-4.333-3.125h5.354l1.646-5.042 1.645 5.042zm1.395 4.291l-3.041.771 4.312 3.146-1.27-3.917zm20.272-4.291h5.353l-4.312 3.125-2.667 1.916-4.333 3.125 1.646-5.041-4.334-3.125h5.355l1.645-5.042 1.646 5.042zm1.395 4.291l-3.042.771 4.313 3.146-1.271-3.917zm20.271-4.291H82l-4.313 3.125-2.666 1.916-4.334 3.125 1.646-5.041L68 108.417h5.354L75 103.375l1.646 5.042zm1.396 4.291l-3.042.771 4.313 3.146-1.271-3.917zm20.271-4.291h5.354l-4.313 3.125-2.666 1.916-4.334 3.125L94 111.542l-4.333-3.125h5.354l1.646-5.042 1.645 5.042zm1.395 4.291l-3.041.771 4.312 3.146-1.27-3.917z" fill="#fff"/><path fill="#DCDCE6" d="M0 0h20v20H0zm21.667 0h20v20h-20zm21.666 0h20v20h-20zM65 0h20v20H65zm21.667 0h20v20h-20z"/><path fill-rule="evenodd" clip-rule="evenodd" d="M11.646 8.417H17l-4.313 3.125-2.666 1.916-4.334 3.125 1.646-5.041L3 8.417h5.354L10 3.375l1.646 5.042zm1.396 4.291L10 13.48l4.313 3.146-1.271-3.917zm20.271-4.291h5.354l-4.313 3.125-2.666 1.916-4.334 3.125L29 11.542l-4.333-3.125h5.354l1.646-5.042 1.645 5.042zm1.395 4.291l-3.041.771 4.312 3.146-1.27-3.917zM54.98 8.417h5.353l-4.312 3.125-2.667 1.916-4.333 3.125 1.646-5.041-4.334-3.125h5.355l1.645-5.042 1.646 5.042zm1.395 4.291l-3.042.771 4.313 3.146-1.271-3.917zm20.271-4.291H82l-4.313 3.125-2.666 1.916-4.334 3.125 1.646-5.041L68 8.417h5.354L75 3.375l1.646 5.042zm1.396 4.291L75 13.48l4.313 3.146-1.271-3.917zm20.271-4.291h5.354l-4.313 3.125-2.666 1.916-4.334 3.125L94 11.542l-4.333-3.125h5.354l1.646-5.042 1.645 5.042zm1.395 4.291l-3.041.771 4.312 3.146-1.27-3.917z" fill="#fff"/></svg>