<svg xmlns="http://www.w3.org/2000/svg" width="49" height="33" fill="none">
  <path fill="url(#a)" d="M0 0h49v33H0V0Z"/>
  <path fill="url(#b)" d="M0 0h24v16H0V0Z"/>
  <path fill="#fff" d="m12.125 14.128-.735-2.695c.245 0 .49.123.735.123s.49-.123.735-.123l-.735 2.695Zm-2.327-3.553c.367.367.857.613 1.347.735l-2.082 2.083.735-2.818Zm5.267 2.695-1.96-1.96c.49-.123.98-.368 1.225-.735l.735 2.695Zm-2.94-8.207a3.032 3.032 0 0 1 3.062 3.062 3.032 3.032 0 0 1-3.062 3.063 3.033 3.033 0 0 1-3.063-3.063 3.033 3.033 0 0 1 3.063-3.063ZM8.817 9.104c.123.49.49.98.736 1.224l-2.696.736 1.96-1.96Zm8.576 1.96-2.696-.613c.368-.367.613-.857.736-1.347l1.96 1.96ZM8.817 7.39c-.122.245-.122.49-.245.735 0 .245.123.49.123.735L6 8.125l2.817-.735Zm9.433.735-2.817.735c.122-.245.122-.49.244-.735 0-.245-.122-.49-.122-.735l2.695.735ZM9.553 5.798c-.245.367-.613.735-.736 1.224l-1.96-1.96 2.696.736Zm5.88 1.224c-.123-.49-.49-.857-.736-1.224l2.696-.736-1.96 1.96Zm-4.288-2.205c-.49.123-.98.368-1.347.736l-.736-2.696 2.083 1.96Zm3.308.736c-.368-.368-.858-.613-1.348-.736l1.96-1.96-.612 2.696Zm-1.593-.858c-.245-.122-.49-.123-.735-.123s-.49.123-.735.123L12.125 2l.735 2.695Z"/>
  <defs>
    <linearGradient id="a" x1="0" x2="49" y1="32.979" y2="32.979" gradientUnits="userSpaceOnUse">
      <stop stop-color="#D0252A"/>
      <stop offset="1" stop-color="#E52529"/>
    </linearGradient>
    <linearGradient id="b" x1="0" x2="24" y1="16.02" y2="16.02" gradientUnits="userSpaceOnUse">
      <stop stop-color="#283376"/>
      <stop offset="1" stop-color="#253687"/>
    </linearGradient>
  </defs>
</svg>
