<svg width="32" height="32" viewBox="0 0 32 32" fill="none" xmlns="http://www.w3.org/2000/svg">
<circle cx="16" cy="16" r="16" fill="#D8710E"/>
<path fill-rule="evenodd" clip-rule="evenodd" d="M14.889 8C13.9376 8 13.2174 8.87768 13.3842 9.83374L14.3302 15.254C14.4601 15.9983 15.0943 16.5405 15.835 16.5405H16.1652C16.906 16.5405 17.5401 15.9983 17.67 15.254L18.616 9.83374C18.7829 8.87768 18.0626 8 17.1112 8H14.889ZM14.4102 23.3995C14.862 23.8002 15.4441 24.0141 16.0424 23.9993C16.6407 24.0141 17.2228 23.8002 17.6746 23.3995C18.1099 23.0029 18.3492 22.4288 18.3274 21.8336C18.3698 21.2057 18.1294 20.5924 17.6746 20.1676C16.7205 19.3879 15.3643 19.3879 14.4102 20.1676C13.9554 20.5924 13.715 21.2057 13.7574 21.8336C13.7356 22.4288 13.9749 23.0029 14.4102 23.3995Z" fill="white"/>
</svg>
