<svg width="24" height="24" viewBox="0 0 24 24" fill="none" xmlns="http://www.w3.org/2000/svg">
<circle cx="12" cy="12" r="12" fill="#D8710E"/>
<path fill-rule="evenodd" clip-rule="evenodd" d="M11.1583 6C10.4375 6 9.89186 6.65826 10.0183 7.3753L10.7349 11.4405C10.8333 11.9987 11.3138 12.4054 11.8749 12.4054H12.1251C12.6862 12.4054 13.1667 11.9987 13.2651 11.4405L13.9817 7.3753C14.1081 6.65826 13.5625 6 12.8417 6H11.1583ZM10.7955 17.5497C11.1378 17.8502 11.5788 18.0106 12.032 17.9995C12.4853 18.0106 12.9263 17.8502 13.2685 17.5497C13.5983 17.2522 13.7796 16.8216 13.7631 16.3752C13.7952 15.9043 13.6131 15.4443 13.2685 15.1257C12.5458 14.541 11.5183 14.541 10.7955 15.1257C10.4509 15.4443 10.2689 15.9043 10.3009 16.3752C10.2844 16.8216 10.4658 17.2522 10.7955 17.5497Z" fill="white"/>
</svg>
