<svg width="24" height="7" viewBox="0 0 24 7" fill="none" xmlns="http://www.w3.org/2000/svg">
<g clip-path="url(#clip0_7732_4834)">
<mask id="mask0_7732_4834" style="mask-type:alpha" maskUnits="userSpaceOnUse" x="-6" y="-9" width="24" height="25">
<rect x="-6" y="-8.2" width="24" height="24" fill="#D9D9D9"/>
</mask>
<g mask="url(#mask0_7732_4834)">
<path d="M5.99999 6.75C5.86665 6.75 5.74165 6.72916 5.62499 6.6875C5.50832 6.64583 5.39999 6.575 5.29999 6.475L0.699987 1.875C0.516654 1.69166 0.420821 1.4625 0.412487 1.1875C0.404154 0.912497 0.499987 0.674996 0.699987 0.474996C0.883321 0.291663 1.11665 0.199996 1.39999 0.199996C1.68332 0.199996 1.91665 0.291663 2.09999 0.474996L5.99999 4.35L9.89999 0.474996C10.0833 0.291663 10.3125 0.19583 10.5875 0.187496C10.8625 0.179163 11.1 0.274996 11.3 0.474996C11.4833 0.65833 11.575 0.891663 11.575 1.175C11.575 1.45833 11.4833 1.69166 11.3 1.875L6.69999 6.475C6.59999 6.575 6.49165 6.64583 6.37499 6.6875C6.25832 6.72916 6.13332 6.75 5.99999 6.75Z" fill="#1034BF"/>
</g>
</g>
<defs>
<clipPath id="clip0_7732_4834">
<rect width="24" height="7" fill="white"/>
</clipPath>
</defs>
</svg>
