<svg xmlns="http://www.w3.org/2000/svg" width="49" height="33">
  <path d="M0 0h49v33H0Z" style="fill:#006;stroke-width:1.0122956"/>
  <path d="M0 0v1.925l23.505 15.263h2.963v-1.925L2.964 0Zm26.468 0v1.925L2.964 17.188H0v-1.925L23.505 0Z" style="fill:#fff;stroke-width:1.0122956"/>
  <path d="M11.026 0v17.188h4.41V0ZM0 5.726v5.734h26.468V5.726Z" style="fill:#fff;stroke-width:1.0122956"/>
  <path d="M0 6.875v3.438h26.468V6.875ZM11.913 0v17.188h2.634V0h-2.64ZM0 17.188l8.82-5.727h1.975l-8.82 5.727ZM0 0l8.82 5.726H6.852L0 1.28Zm15.673 5.726L24.493 0h1.975l-8.82 5.726Zm10.795 11.462-8.82-5.727h1.968l6.852 4.448z" style="fill:#c00;stroke-width:1.0122956"/>
  <path d="m22.954 26.985-3.346.261.46 2.985-2.305-2.18-2.304 2.18.46-2.985-3.346-.26 2.886-1.535-1.86-2.51 3.139 1.068 1.025-2.868 1.034 2.868 3.14-1.068-1.861 2.51m17.18 4.284-.812-1.085 1.363.46.443-1.245.444 1.244 1.364-.46-.806 1.086 1.256.666-1.454.117.198 1.299-.994-.957-1.012.957.199-1.299-1.454-.11m1.257-20.067-.804-1.087 1.363.461.443-1.245.445 1.244 1.364-.46-.806 1.086 1.256.674-1.454.11.198 1.3-.994-.95-1.012.942.199-1.292-1.454-.11m-6.835 7.205-.805-1.086 1.362.46.443-1.244.451 1.244 1.364-.46-.813 1.086 1.257.667-1.456.116.207 1.298-1.011-.955-.994.955.19-1.298-1.454-.11m16.563-2.612-.818-1.085 1.362.46.442-1.244.453 1.245 1.363-.461-.805 1.085 1.247.667-1.454.116.198 1.294-.994-.95-1.011.95.199-1.294-1.455-.116m-1.69 5.054-.789.446.222-.817-.713-.538.927-.068.353-.77.36.778.927.062-.713.537.223.817" style="fill:#fff;stroke-width:1.0122956"/>
</svg>
