<svg width="107" height="24" xmlns="http://www.w3.org/2000/svg"><g fill="none" fill-rule="evenodd"><path fill="#2354A5" d="M31.928 16.902v6.969h1.237v-2.91H35.7v-1.044h-2.535v-1.97h2.972v-1.045zm6.906 6.968h1.226v-3.654c.438-.427.735-.65 1.194-.65.575 0 .82.32.82 1.182v3.122H43.3v-3.28c0-1.323-.49-2.079-1.61-2.079-.713 0-1.246.373-1.715.831h-.043l-.086-.703h-1.011v5.231zm10.613 0h1.225v-3.654c.437-.427.735-.65 1.194-.65.575 0 .82.32.82 1.182v3.122h1.225v-3.28c0-1.323-.49-2.079-1.609-2.079-.713 0-1.246.373-1.715.831h-.043l-.085-.703h-1.012v5.231zm-12.769 0h1.226v-5.231h-1.226v5.231zm.618-6.147c.437 0 .757-.288.757-.694 0-.415-.32-.703-.757-.703s-.756.288-.756.703c0 .406.319.694.756.694zm19.971 6.275c.597 0 1.215-.213 1.705-.64l-.501-.809c-.298.245-.671.447-1.076.447-.82 0-1.396-.692-1.396-1.736 0-1.055.586-1.747 1.428-1.747.33 0 .597.137.873.382l.597-.798c-.383-.33-.862-.586-1.534-.586-1.396 0-2.621 1.002-2.621 2.749 0 1.736 1.097 2.738 2.525 2.738m-11.57 0c.618 0 1.15-.309 1.619-.703l.129.575h1.012v-3.101c0-1.459-.651-2.258-1.95-2.258-.831 0-1.578.319-2.153.681l.447.821c.47-.277.96-.511 1.47-.511.715 0 .939.469.96 1.022-2.152.235-3.08.821-3.08 1.94 0 .916.629 1.534 1.546 1.534m.394-.959c-.437 0-.756-.202-.756-.671 0-.522.468-.895 1.896-1.076v1.172c-.394.362-.714.575-1.14.575m21.967.959c.288 0 .5-.043.65-.106l-.16-.916c-.095.02-.138.02-.191.02-.128 0-.267-.106-.267-.404v-6.244h-1.225v6.179c0 .907.319 1.471 1.193 1.471m-4.846 0c.618 0 1.15-.309 1.62-.703l.128.575h1.012v-3.101c0-1.459-.65-2.258-1.95-2.258-.831 0-1.577.319-2.153.681l.448.821c.469-.277.959-.511 1.47-.511.714 0 .939.469.959 1.022-2.152.235-3.08.821-3.08 1.94 0 .916.63 1.534 1.546 1.534m.395-.959c-.437 0-.757-.202-.757-.671 0-.522.468-.895 1.896-1.076v1.172c-.393.362-.714.575-1.14.575m-4.122.831h1.226v-5.231h-1.226v5.231zm.619-6.147c.436 0 .756-.288.756-.694 0-.415-.32-.703-.756-.703-.438 0-.757.288-.757.703 0 .406.319.694.757.694zm11.612 6.147h1.258l.544-1.886h2.344l.542 1.886h1.3l-2.268-6.969h-1.45l-2.27 6.97zm2.334-3.708c.224-.735.427-1.523.618-2.302.245.768.447 1.567.67 2.302l.246.853h-1.78l.246-.853zM84.65 23.87h1.417l1.78-5.23h-1.183l-.83 2.715c-.15.512-.3 1.044-.45 1.578h-.042c-.138-.534-.298-1.066-.437-1.578l-.83-2.716h-1.247l1.821 5.231zm-4.829.128c.565 0 1.098-.309 1.481-.692l.128.564h1.012v-7.522h-1.225v1.896l.042.842c-.404-.352-.777-.575-1.374-.575-1.14 0-2.216 1.044-2.216 2.749 0 1.726.841 2.738 2.152 2.738m.3-1.012c-.758 0-1.184-.607-1.184-1.737 0-1.098.543-1.727 1.214-1.727.353 0 .704.118 1.066.438v2.439c-.35.406-.693.587-1.097.587m11.892 1.012c1.32 0 2.035-.725 2.035-1.619 0-.981-.79-1.321-1.503-1.588-.564-.202-1.086-.362-1.086-.778 0-.33.244-.576.767-.576.416 0 .789.182 1.15.448l.566-.745c-.427-.331-1.013-.629-1.738-.629-1.171 0-1.907.649-1.907 1.566 0 .874.779 1.268 1.47 1.524.555.212 1.12.405 1.12.841 0 .363-.267.629-.831.629-.533 0-.98-.223-1.45-.586l-.575.788c.51.416 1.268.725 1.982.725m7.788-.128h1.227v-3.196c.319-.789.82-1.076 1.235-1.076.224 0 .362.032.544.085l.213-1.066c-.16-.074-.33-.106-.597-.106-.555 0-1.108.373-1.481 1.054h-.043l-.085-.926H99.8v5.231zm-11.569 0h1.226v-5.231h-1.226v5.231zm.619-6.147c.436 0 .756-.288.756-.694 0-.415-.32-.703-.756-.703-.437 0-.757.288-.757.703 0 .406.32.694.757.694zm16.11 6.275c1.321 0 2.035-.725 2.035-1.619 0-.981-.788-1.321-1.502-1.588-.565-.202-1.087-.362-1.087-.778 0-.33.245-.576.767-.576.416 0 .789.182 1.151.448l.565-.745c-.427-.331-1.013-.629-1.738-.629-1.171 0-1.907.649-1.907 1.566 0 .874.779 1.268 1.471 1.524.554.212 1.119.405 1.119.841 0 .363-.267.629-.831.629-.533 0-.98-.223-1.449-.586l-.575.788c.51.416 1.267.725 1.981.725m-7.901 0c.66 0 1.289-.234 1.79-.564l-.416-.768c-.384.245-.768.384-1.215.384-.842 0-1.438-.532-1.545-1.46h3.324c.033-.128.054-.363.054-.597 0-1.46-.746-2.482-2.163-2.482-1.225 0-2.408 1.044-2.408 2.749 0 1.726 1.13 2.738 2.579 2.738zm-1.396-3.239c.106-.842.639-1.3 1.257-1.3.714 0 1.066.49 1.066 1.3h-2.323z"/><path d="M20.104 19.942L18.176.092h-.001l-1.953 20.18a78.633 78.633 0 013.882-.33" fill="#FDD800"/><path d="M24.81 19.796L24.816.092l-6.64-.003v.003l1.928 19.85a80.379 80.379 0 014.706-.146" fill="#59B247"/><path d="M16.222 20.271L18.175.091V.09L.82.091l.01 23.962c4.076-1.788 9.386-3.119 15.393-3.782M66.302.545c.312.056 1.437.384 1.437 1.183v12.8h3.8V.089h-5.237v.457zM37.375 8.773l2.547-5.681 2.224 5.68h-4.771zm-.96-8.684v.456c.461.096 1.459.375 1.055 1.276l-5.668 12.708h2.994l1.775-3.961h6.278l1.552 3.96h3.938L42.715.089h-6.3zm59.233 8.684l2.545-5.681 2.226 5.68h-4.77zm-.96-8.684v.456c.46.096 1.46.375 1.053 1.276l-5.667 12.708h2.995l1.772-3.961h6.28l1.552 3.96h3.941L100.985.089h-6.297zM84.577 14.53L90.588.09h-2.843l-4.407 10.587L79.143.09h-5.34v.456c.616.118 1.31.384 1.625 1.182l5.07 12.802h4.08zm-26.345 0L64.244.09H61.4l-4.406 10.587L52.797.09h-5.34v.456c.618.118 1.308.384 1.626 1.182L54.15 14.53h4.082z" fill="#2354A5"/></g></svg>