<svg width="24" height="24" viewBox="0 0 24 24" fill="none" xmlns="http://www.w3.org/2000/svg">
<mask id="mask0_5771_9667" style="mask-type:alpha" maskUnits="userSpaceOnUse" x="0" y="0" width="24" height="24">
<rect y="24" width="24" height="24" transform="rotate(-90 0 24)" fill="#D9D9D9"/>
</mask>
<g mask="url(#mask0_5771_9667)">
<path d="M10 7.8V14.1C10 15.15 10.3334 16.0625 11 16.8375C11.6667 17.6125 12.5 18 13.5 18C14.5 18 15.3334 17.6125 16 16.8375C16.6667 16.0625 17 15.15 17 14.1V8C17 7.71667 17.0959 7.47917 17.2875 7.2875C17.4792 7.09583 17.7167 7 18 7C18.2834 7 18.5209 7.09583 18.7125 7.2875C18.9042 7.47917 19 7.71667 19 8V14.1C19 15.7167 18.475 17.1042 17.425 18.2625C16.375 19.4208 15.0667 20 13.5 20C11.9334 20 10.625 19.4208 9.57505 18.2625C8.52505 17.1042 8.00005 15.7167 8.00005 14.1V7.8L6.10005 9.7C5.91672 9.88333 5.68338 9.975 5.40005 9.975C5.11672 9.975 4.88338 9.88333 4.70005 9.7C4.51672 9.51667 4.42505 9.28333 4.42505 9C4.42505 8.71667 4.51672 8.48333 4.70005 8.3L8.30005 4.7C8.40005 4.6 8.50838 4.52917 8.62505 4.4875C8.74172 4.44583 8.86672 4.425 9.00005 4.425C9.13338 4.425 9.25838 4.44583 9.37505 4.4875C9.49172 4.52917 9.60005 4.6 9.70005 4.7L13.3 8.3C13.4834 8.48333 13.575 8.71667 13.575 9C13.575 9.28333 13.4834 9.51667 13.3 9.7C13.1167 9.88333 12.8834 9.975 12.6 9.975C12.3167 9.975 12.0834 9.88333 11.9 9.7L10 7.8Z" fill="#1034BF"/>
</g>
</svg>
