<svg xmlns="http://www.w3.org/2000/svg" width="49" height="33" fill="none">
  <path fill="#F0F0F0" d="M12 33h25V0H12v33Z"/>
  <path fill="#DB2330" d="M0 33h12V0H0v33Zm37 0h12V0H37v33ZM24.49 6.21s1.427 2.694 1.635 3.041c.198.347.396.396.891.159.496-.228 1.219-.624 1.219-.624s-.793 4.16-.912 4.854c-.128.663.317.891.763.396.436-.515 2.08-2.328 2.08-2.328s.228.832.297 1.09c.06.267.199.445.694.356.475-.08 2.476-.525 2.476-.525s-.713 2.497-.792 2.823c-.06.327-.139.456.267.654.397.198.892.426.892.426s-4.081 3.388-4.428 3.665c-.357.248-.426.397-.248.951.169.555.297 1.09.297 1.09s-4.041-.564-4.487-.624c-.446-.06-.396.416-.396.664.02.247.128 4.517.128 4.517h-.732s.099-4.26.118-4.517c0-.248.06-.723-.396-.664l-4.487.624s.138-.535.297-1.09c.198-.544.119-.693-.238-.96A9626.68 9626.68 0 0 1 15 16.521s.495-.198.892-.416c.416-.198.336-.327.267-.654-.07-.326-.773-2.823-.773-2.823s1.982.446 2.477.535c.495.1.624-.08.693-.337.06-.267.297-1.09.297-1.09s1.635 1.803 2.08 2.309c.437.495.892.267.754-.396-.12-.694-.922-4.855-.922-4.855s.714.397 1.209.625c.495.237.693.198.892-.159.217-.347 1.644-3.031 1.644-3.031"/>
</svg>
