<svg width="95" height="56" fill="none" xmlns="http://www.w3.org/2000/svg"><path d="M94.5 1H55.076a4.213 4.213 0 00-2.868 1.103C51.459 2.796 51 3.756 51 4.813v46.374c0 1.057.46 2.017 1.208 2.71A4.214 4.214 0 0055.076 55H94.5V1z" fill="#185298" stroke="#737373"/><path d="M95 1.5H55.576a4.258 4.258 0 00-2.868 1.083c-.749.68-1.208 1.622-1.208 2.66v45.514c0 1.038.46 1.98 1.208 2.66a4.258 4.258 0 002.868 1.083H95v-53z" fill="#185298"/><path d="M60.28 22.264h2.634v6.57c0 1.152.172 1.956.516 2.412.344.456.842.684 1.495.684.653 0 1.157-.228 1.513-.684.356-.456.534-1.26.534-2.412v-6.57h2.527v6.3c0 1.968-.391 3.402-1.174 4.302-.772.9-1.905 1.35-3.4 1.35-1.507 0-2.658-.45-3.453-1.35-.795-.9-1.192-2.334-1.192-4.302v-6.3zm11.907 0h2.617v4.806h.07l3.454-4.806h2.883l-3.506 4.68L81.852 34h-2.866l-2.83-4.95-1.352 1.8V34h-2.617V22.264z" fill="#fff"/><path d="M44.5 1H5.076a4.213 4.213 0 00-2.868 1.103C1.459 2.796 1 3.756 1 4.813v46.374c0 1.057.46 2.017 1.208 2.71A4.213 4.213 0 005.076 55H44.5V1z" fill="#185298" stroke="#fff"/><path d="M45 1.5H5.576a4.258 4.258 0 00-2.868 1.083c-.749.68-1.208 1.622-1.208 2.66v45.514c0 1.038.46 1.98 1.208 2.66A4.258 4.258 0 005.576 54.5H45v-53z" fill="#185298"/><path d="M10.385 22.264h2.664v6.57c0 1.152.174 1.956.522 2.412.348.456.852.684 1.512.684s1.17-.228 1.53-.684c.36-.456.54-1.26.54-2.412v-6.57h2.556v6.3c0 1.968-.396 3.402-1.188 4.302-.78.9-1.926 1.35-3.438 1.35-1.524 0-2.688-.45-3.492-1.35-.804-.9-1.206-2.334-1.206-4.302v-6.3zm12.043 0h2.646v4.806h.072l3.492-4.806h2.916l-3.546 4.68L32.202 34h-2.898l-2.862-4.95-1.368 1.8V34h-2.646V22.264z" fill="#fff"/></svg>