<svg width="32" height="32" viewBox="0 0 32 32" fill="none" xmlns="http://www.w3.org/2000/svg">
<path fill-rule="evenodd" clip-rule="evenodd" d="M31.1616 22.8442V20.8875C31.1616 19.5698 30.9219 18.3719 30.3225 17.4535C30.6819 16.9344 30.8818 16.2954 30.8818 15.6565C30.8818 13.8595 29.4435 12.4219 27.6856 12.4219C27.5259 12.4219 27.3261 12.4219 27.1661 12.4617L26.8863 9.26736L26.4866 4.91491C26.3668 3.27754 24.9684 2 23.2905 2H9.06793C7.39003 2 5.9916 3.2779 5.87178 4.91491L5.47212 9.26736L5.11265 12.5816L5.10735 12.5805C4.90929 12.541 4.71123 12.5016 4.51352 12.5016C2.75562 12.5016 1.31736 13.9391 1.31736 15.7361C1.31736 16.2951 1.47701 16.8544 1.71702 17.3333C1.03789 18.2517 0.798241 19.5296 0.798241 20.9274V22.884C0.359476 23.044 0 23.4433 0 23.9624V24.7212C0 25.3602 0.51948 26 1.1186 26H3V28C3 29.1046 3.89543 30 5 30C6.10457 30 7 29.1046 7 28V26H24V28C24 29.1046 24.8954 30 26 30C27.1046 30 28 29.1046 28 28V26H30.8814C31.5207 26 32 25.1603 32 24.5217V24.1623C31.9609 23.603 31.6412 23.0042 31.1616 22.8442ZM4.39483 17.5808C5.49805 17.5808 6.39239 16.6865 6.39239 15.5833C6.39239 14.48 5.49805 13.5857 4.39483 13.5857C3.29162 13.5857 2.39728 14.48 2.39728 15.5833C2.39728 16.6865 3.29162 17.5808 4.39483 17.5808ZM29.7635 15.5833C29.7635 16.6865 28.8692 17.5808 27.766 17.5808C26.6628 17.5808 25.7684 16.6865 25.7684 15.5833C25.7684 14.48 26.6628 13.5857 27.766 13.5857C28.8692 13.5857 29.7635 14.48 29.7635 15.5833ZM23.0007 21C23.0007 21.8801 22.3257 22.5 21.5007 22.5H10.5C9.63761 22.5 9 21.8801 9 21V11.5C9 9.5 13 8.5 16 8.5C19 8.5 23 9.5 23 11.5L23.0007 21ZM24.0311 8.19732C24.3859 8.33569 24.797 8.08335 24.7917 7.70253C24.7777 6.6956 24.7471 5.07175 24.69 4.43716C24.61 3.87786 23.9309 3.19873 23.0519 3.19873H8.98903C8.1499 3.19873 7.43096 3.87786 7.35095 4.75681C7.29101 5.36365 7.2245 6.7632 7.1845 7.68913C7.16767 8.07874 7.59084 8.34511 7.95391 8.2028C9.99968 7.40093 13.286 7 15.9995 7C18.7069 7 21.9844 7.39911 24.0311 8.19732Z" fill="#004FB6"/>
<path fill-rule="evenodd" clip-rule="evenodd" d="M11 12C11 11.4477 11.4477 11 12 11C12.5523 11 13 11.4477 13 12V20C13 20.5523 12.5523 21 12 21C11.4477 21 11 20.5523 11 20V12ZM15 12C15 11.4477 15.4477 11 16 11C16.5523 11 17 11.4477 17 12V20C17 20.5523 16.5523 21 16 21C15.4477 21 15 20.5523 15 20V12ZM20 11C19.4477 11 19 11.4477 19 12V20C19 20.5523 19.4477 21 20 21C20.5523 21 21 20.5523 21 20V12C21 11.4477 20.5523 11 20 11Z" fill="#004FB6"/>
</svg>
