<svg width="24" height="24" viewBox="28 0 24 24" fill="none" xmlns="http://www.w3.org/2000/svg">
<mask id="mask1_5772_1380" style="mask-type:alpha" maskUnits="userSpaceOnUse" x="28" y="0" width="24" height="24">
<rect x="28" width="24" height="24" fill="#D9D9D9"/>
</mask>
<g mask="url(#mask1_5772_1380)">
<path xmlns="http://www.w3.org/2000/svg" d="M40 13.4L42.9 16.3C43.0833 16.4833 43.3167 16.575 43.6 16.575C43.8833 16.575 44.1167 16.4833 44.3 16.3C44.4833 16.1167 44.575 15.8833 44.575 15.6C44.575 15.3167 44.4833 15.0833 44.3 14.9L41.4 12L44.3 9.09999C44.4833 8.91665 44.575 8.68332 44.575 8.39999C44.575 8.11665 44.4833 7.88332 44.3 7.69999C44.1167 7.51665 43.8833 7.42499 43.6 7.42499C43.3167 7.42499 43.0833 7.51665 42.9 7.69999L40 10.6L37.1 7.69999C36.9167 7.51665 36.6833 7.42499 36.4 7.42499C36.1167 7.42499 35.8833 7.51665 35.7 7.69999C35.5167 7.88332 35.425 8.11665 35.425 8.39999C35.425 8.68332 35.5167 8.91665 35.7 9.09999L38.6 12L35.7 14.9C35.5167 15.0833 35.425 15.3167 35.425 15.6C35.425 15.8833 35.5167 16.1167 35.7 16.3C35.8833 16.4833 36.1167 16.575 36.4 16.575C36.6833 16.575 36.9167 16.4833 37.1 16.3L40 13.4Z M40 22C38.6167 22 37.3167 21.7375 36.1 21.2125C34.8833 20.6875 33.825 19.975 32.925 19.075C32.025 18.175 31.3125 17.1167 30.7875 15.9C30.2625 14.6833 30 13.3833 30 12C30 10.6167 30.2625 9.31667 30.7875 8.1C31.3125 6.88333 32.025 5.825 32.925 4.925C33.825 4.025 34.8833 3.3125 36.1 2.7875C37.3167 2.2625 38.6167 2 40 2C41.3833 2 42.6833 2.2625 43.9 2.7875C45.1167 3.3125 46.175 4.025 47.075 4.925C47.975 5.825 48.6875 6.88333 49.2125 8.1C49.7375 9.31667 50 10.6167 50 12C50 13.3833 49.7375 14.6833 49.2125 15.9C48.6875 17.1167 47.975 18.175 47.075 19.075C46.175 19.975 45.1167 20.6875 43.9 21.2125C42.6833 21.7375 41.3833 22 40 22Z" fill="#1034BF"/>
</g>
</svg>
