<svg xmlns="http://www.w3.org/2000/svg" width="49" height="33" fill="none">
  <path fill="#E31113" d="M0 33h49V0H0v33Z"/>
  <path fill="#F9E800" d="M7.74 3.47 6.6 6.75 3 6.73l2.9 2.05-1.1 3.27 2.9-2 2.92 2.03-1.1-3.3 2.92-2-3.6-.03-1.1-3.28Zm7.8.51.6.96.1-1.13 1.14-.25-1.07-.44.1-1.12-.78.84-1.07-.44.6.97-.77.84 1.15-.23Zm3.05 3.09.18 1.1.54-1 1.14.2-.8-.8.52-1-1.05.5-.8-.8.16 1.1-1.04.5 1.15.2Zm.81 3.96-.43-1.04-.3 1.08-1.17.07 1 .6-.3 1.08.9-.7.98.6-.42-1.05.9-.72-1.16.08Zm-3.01 2.22-.73.88-1.1-.4.64.95-.72.87 1.12-.3.65.94.05-1.12 1.13-.3-1.08-.4.04-1.12Z"/>
</svg>
