<svg width="25" height="25" viewBox="0 0 25 25" xmlns="http://www.w3.org/2000/svg"><g fill="none" fill-rule="evenodd"><path d="M0 12.5C0 5.596 5.595 0 12.5 0 19.404 0 25 5.595 25 12.5 25 19.404 19.405 25 12.5 25 5.596 25 0 19.405 0 12.5z" fill="#5c596d"/><g fill="#FFF"><path d="M14.233 7.372A.771.771 0 0 0 15 6.594V5.78a.772.772 0 0 0-.767-.78.771.771 0 0 0-.766.78v.814a.77.77 0 0 0 .766.778z"/><path d="M15.413 6.347v.356c0 .588-.522 1.067-1.166 1.067-.645 0-1.166-.479-1.166-1.067v-.356H9.968v.356c0 .588-.523 1.067-1.166 1.067-.644 0-1.167-.478-1.167-1.067v-.356L6.08 6.329v8.91h8.111l2.777-3.001-.012-5.891h-1.542zM7.079 8.329h9V12l-2 2.329h-7v-6z"/><path d="M8.79 7.372a.771.771 0 0 0 .766-.778V5.78A.772.772 0 0 0 8.789 5a.771.771 0 0 0-.765.78v.814a.77.77 0 0 0 .765.778z"/></g><path d="M21.837 13.246a.553.553 0 0 0 0-.784l-1.3-1.3a.553.553 0 0 0-.783 0l-1.016 1.017 2.083 2.083 1.016-1.016zM12 18.917V21h2.083l6.143-6.144-2.082-2.082L12 18.917z" fill="#FFF"/></g></svg>