<svg width="25" height="25" viewBox="0 0 25 25" xmlns="http://www.w3.org/2000/svg"><g fill="none" fill-rule="evenodd"><path d="M0 12.5C0 5.596 5.595 0 12.5 0 19.404 0 25 5.595 25 12.5 25 19.404 19.405 25 12.5 25 5.596 25 0 19.405 0 12.5z" fill="#5c596d"/><path d="M12.5 7.794a1.585 1.585 0 0 1-1.07-.38 1.256 1.256 0 0 1-.427-.99c-.028-.397.13-.785.428-1.054a1.73 1.73 0 0 1 2.138 0c.298.269.456.657.428 1.054.014.377-.143.74-.428.99a1.585 1.585 0 0 1-1.069.38zM11.26 9.65h2.459V20h-2.46V9.65z" fill="#FFF" fill-rule="nonzero"/></g></svg>