<svg width="24" height="24" viewBox="0 0 24 24" fill="none" xmlns="http://www.w3.org/2000/svg">
<mask id="mask0_5771_9503" style="mask-type:alpha" maskUnits="userSpaceOnUse" x="0" y="0" width="24" height="24">
<rect width="24" height="24" fill="#D9D9D9"/>
</mask>
<g mask="url(#mask0_5771_9503)">
<path d="M12 14.95C11.8667 14.95 11.7417 14.9292 11.625 14.8875C11.5083 14.8458 11.4 14.775 11.3 14.675L6.69999 10.075C6.51665 9.89166 6.42082 9.66249 6.41249 9.38749C6.40415 9.11249 6.49999 8.87499 6.69999 8.67499C6.88332 8.49166 7.11665 8.39999 7.39999 8.39999C7.68332 8.39999 7.91665 8.49166 8.09999 8.67499L12 12.55L15.9 8.67499C16.0833 8.49166 16.3125 8.39583 16.5875 8.38749C16.8625 8.37916 17.1 8.47499 17.3 8.67499C17.4833 8.85833 17.575 9.09166 17.575 9.37499C17.575 9.65833 17.4833 9.89166 17.3 10.075L12.7 14.675C12.6 14.775 12.4917 14.8458 12.375 14.8875C12.2583 14.9292 12.1333 14.95 12 14.95Z" fill="#191919"/>
</g>
</svg>
