<svg width="32" height="33" viewBox="0 0 32 33" fill="none" xmlns="http://www.w3.org/2000/svg">
<path fill-rule="evenodd" clip-rule="evenodd" d="M29.3646 16.1789C30.5797 15.7968 31.7598 15.9705 31.9681 16.6301C32.1764 17.2547 31.3435 18.088 30.059 18.5046C29.8853 18.5741 29.7464 18.6089 29.5729 18.6435C30.5793 20.7609 31.3432 22.8784 31.3432 24.4752V31.1055C31.3432 31.5913 30.9265 32.0079 30.4059 32.0079H27.3512C26.8305 32.0079 26.4139 31.6262 26.4139 31.1055V29.0681H5.41237V31.1055C5.41237 31.5913 4.99573 32.0079 4.47509 32.0079H1.42038C0.899742 32.0079 0.483103 31.6262 0.483103 31.1055V24.4752C0.483103 22.8784 1.24694 20.6915 2.28822 18.5741C2.18422 18.5395 2.04534 18.5046 1.90646 18.4701C0.656862 18.0883 -0.176416 17.255 0.0319031 16.5955C0.240223 15.936 1.38582 15.7625 2.63542 16.1443C2.91318 16.2137 3.15637 16.3177 3.39925 16.4566L3.91989 15.5542C5.44725 12.9853 7.00916 10.9718 7.49524 10.729C7.65794 10.6585 7.85285 10.593 8.08341 10.5327C7.85286 10.593 7.65796 10.6585 7.49527 10.729C7.47615 10.7385 7.45536 10.7508 7.43298 10.7658C7.586 11.2401 7.77732 11.6972 8.0033 12.1335C7.42697 12.7508 6.10371 14.5171 4.75317 16.8806H15.6184H16.4863H27.3515C25.9468 14.4223 24.5713 12.5805 24.0356 12.0577C24.2333 11.6668 24.4034 11.2596 24.5432 10.8386C25.1857 11.3351 26.595 13.232 27.9758 15.5542L28.5313 16.5261C28.7745 16.3872 29.0523 16.2829 29.3646 16.1789ZM15.4792 10H15.4792C12.0427 10.0259 9.85567 10.1692 8.53767 10.4296C9.85567 10.1692 12.0427 10.0259 15.4792 10ZM12 25H20V27H12V25ZM4.30192 20.5598C3.88529 20.5598 3.53809 20.9416 3.53809 21.3582V22.122C3.53809 22.5732 3.88529 22.9553 4.30192 23.0244L9.30063 23.684C9.71727 23.7534 9.92559 23.4411 9.71727 23.0939C8.43279 20.907 5.65552 20.5947 4.30192 20.5598ZM22.3525 23.0593C23.637 20.9416 26.4139 20.5944 27.7678 20.5598C28.1845 20.5252 28.5317 20.907 28.5317 21.3236V22.0875C28.5317 22.5387 28.1845 22.9204 27.7678 22.9899L22.7691 23.6494C22.3525 23.7188 22.1442 23.4411 22.3525 23.0593Z" fill="#004FB6"/>
<path fill-rule="evenodd" clip-rule="evenodd" d="M24 8C24 12.4183 20.4183 16 16 16C11.5817 16 8 12.4183 8 8C8 3.58172 11.5817 0 16 0C20.4183 0 24 3.58172 24 8ZM13 8.6L17.6667 2L16.3333 7.4H19L14.3333 14L15.6667 8.6H13Z" fill="#004FB6"/>
</svg>
