<svg xmlns="http://www.w3.org/2000/svg" width="180.01" height="20" viewBox="0 0 180.01 20"><path fill="#004fb6" d="M20.009 3.924c0 .588-.181 1.152-.546 1.688a5.345 5.345 0 01-1.36 1.373c-1.744 1.209-3.486 2.42-5.227 3.631-.16.112-.318.226-.476.34-.198.144-.4.284-.601.423a11.05 11.05 0 01-.583.362 3.163 3.163 0 01-.642.302 1.764 1.764 0 01-.557.102h-.022c-.173 0-.358-.036-.56-.102a3.388 3.388 0 01-.642-.302 9.349 9.349 0 01-.582-.362 17.248 17.248 0 01-.602-.424c-.157-.113-.316-.228-.475-.34a494.337 494.337 0 00-2.924-2.04 518.701 518.701 0 01-2.29-1.591A5.53 5.53 0 01.614 5.695C.204 5.148 0 4.64 0 4.17c0-.579.154-1.062.463-1.449.307-.389.75-.582 1.323-.582h16.437c.484 0 .903.174 1.258.525.353.349.528.771.528 1.26m0 3.284v8.867c0 .489-.174.911-.525 1.261-.348.35-.771.525-1.261.525H1.786c-.49 0-.913-.176-1.262-.525A1.723 1.723 0 010 16.075V7.208a5.94 5.94 0 001.127.971c2.695 1.832 4.545 3.117 5.551 3.853.424.315.768.558 1.032.732.264.176.617.354 1.056.534.439.184.848.276 1.229.276h.023c.378 0 .789-.093 1.228-.273a6.439 6.439 0 001.054-.537c.264-.175.609-.418 1.034-.73 1.265-.917 3.119-2.201 5.562-3.853.422-.29.793-.615 1.113-.973"/><path fill="#002185" d="M180.01 3.924c0 .588-.182 1.152-.547 1.688a5.341 5.341 0 01-1.359 1.373c-1.745 1.21-3.486 2.419-5.228 3.631-.16.112-.318.226-.476.34-.198.145-.399.285-.602.424-.191.126-.385.249-.583.362a3.163 3.163 0 01-.642.302 1.759 1.759 0 01-.557.102h-.022a1.78 1.78 0 01-.56-.102 3.397 3.397 0 01-.643-.302 9.492 9.492 0 01-.581-.361 19.97 19.97 0 01-.603-.425c-.157-.113-.315-.228-.476-.34a456.54 456.54 0 00-2.923-2.04 445.483 445.483 0 01-2.29-1.591 5.508 5.508 0 01-1.305-1.289C160.204 5.148 160 4.64 160 4.17c0-.579.155-1.062.464-1.449.307-.389.75-.582 1.322-.582h16.438c.483 0 .903.175 1.258.525.353.349.528.771.528 1.26m0 3.284v8.867c0 .489-.175.911-.525 1.261a1.715 1.715 0 01-1.261.525h-16.438a1.72 1.72 0 01-1.261-.525 1.726 1.726 0 01-.525-1.261V7.208c.327.364.703.688 1.128.971 2.695 1.832 4.544 3.117 5.55 3.854.425.313.768.557 1.032.731.264.176.617.353 1.057.534.438.184.849.276 1.229.276h.022c.378 0 .789-.093 1.229-.273a6.604 6.604 0 001.054-.537c.265-.175.609-.418 1.033-.73 1.265-.917 3.119-2.201 5.562-3.853a6.223 6.223 0 001.114-.973"/><path fill="#FFF" d="M100.01 3.924c0 .588-.182 1.152-.547 1.688a5.341 5.341 0 01-1.359 1.373c-1.745 1.21-3.486 2.419-5.228 3.631-.16.112-.318.226-.476.34-.198.145-.399.285-.602.424-.191.126-.385.249-.582.362a3.194 3.194 0 01-.643.302 1.763 1.763 0 01-.556.102h-.023c-.173 0-.358-.035-.56-.102a3.388 3.388 0 01-.642-.302 9.83 9.83 0 01-.582-.361 18.741 18.741 0 01-.602-.425c-.157-.113-.315-.228-.475-.34a530.624 530.624 0 00-2.924-2.04 554.18 554.18 0 01-2.29-1.591 5.53 5.53 0 01-1.306-1.289C80.204 5.148 80 4.64 80 4.17c0-.579.154-1.062.464-1.449.307-.389.75-.582 1.323-.582h16.437c.483 0 .903.175 1.258.525.353.349.528.771.528 1.26m0 3.284v8.867c0 .489-.174.911-.525 1.261a1.715 1.715 0 01-1.261.525H81.787c-.491 0-.912-.175-1.262-.525A1.722 1.722 0 0180 16.075V7.208a5.94 5.94 0 001.127.971c2.695 1.832 4.545 3.117 5.55 3.854.425.313.768.557 1.032.731.264.176.617.353 1.056.534.439.184.848.276 1.229.276h.023c.377 0 .789-.093 1.228-.273a6.604 6.604 0 001.054-.537c.265-.175.609-.418 1.033-.73 1.265-.917 3.119-2.201 5.562-3.853a6.169 6.169 0 001.116-.973"/></svg>
