<svg width="32" height="32" viewBox="0 0 32 32" fill="none" xmlns="http://www.w3.org/2000/svg">
<path d="M10.8058 3.26C13.0604 -1.08667 18.9396 -1.08667 21.1941 3.26L31.255 22.657C33.4333 26.8568 30.574 32 26.0608 32H5.93917C1.42603 32 -1.4333 26.8568 0.745021 22.657L10.8058 3.26Z" fill="#B10101"/>
<path fill-rule="evenodd" clip-rule="evenodd" d="M14.99 12C14.1251 12 13.4703 12.7899 13.622 13.6504L14.482 18.5286C14.6001 19.1985 15.1766 19.6864 15.85 19.6864H16.1502C16.8236 19.6864 17.4001 19.1985 17.5182 18.5286L18.3782 13.6504C18.5299 12.7899 17.8751 12 17.0102 12H14.99ZM14.5548 25.8596C14.9654 26.2202 15.4946 26.4127 16.0385 26.3993C16.5824 26.4127 17.1117 26.2202 17.5223 25.8596C17.9181 25.5026 18.1357 24.9859 18.1158 24.4502C18.1543 23.8852 17.9359 23.3332 17.5223 22.9508C16.655 22.2492 15.4221 22.2492 14.5548 22.9508C14.1412 23.3332 13.9227 23.8852 13.9612 24.4502C13.9414 24.9859 14.159 25.5026 14.5548 25.8596Z" fill="white"/>
</svg>
