<svg width="24" height="24" viewBox="0 0 24 24" fill="none" xmlns="http://www.w3.org/2000/svg">
<path d="M8.10439 2.445C9.79528 -0.814999 14.2047 -0.814999 15.8956 2.445L23.4412 16.9928C25.075 20.1426 22.9305 24 19.5456 24H4.45438C1.06953 24 -1.07498 20.1426 0.558766 16.9928L8.10439 2.445Z" fill="#B10101"/>
<path fill-rule="evenodd" clip-rule="evenodd" d="M9.01644 10.2378C8.90267 9.59243 9.39375 9 10.0424 9H11.5576C12.2062 9 12.6973 9.59243 12.5836 10.2378L11.9386 13.8964C11.85 14.3989 11.4176 14.7648 10.9126 14.7648H10.6874C10.1824 14.7648 9.75001 14.3989 9.66143 13.8964L9.01644 10.2378ZM10.8288 19.7995C10.4209 19.8095 10.024 19.6652 9.71599 19.3947C9.41919 19.1269 9.25599 18.7394 9.27085 18.3376C9.24198 17.9139 9.40585 17.4999 9.71599 17.2131C10.3665 16.6869 11.2912 16.6869 11.9417 17.2131C12.2518 17.4999 12.4157 17.9139 12.3868 18.3376C12.4017 18.7394 12.2385 19.1269 11.9417 19.3947C11.6337 19.6652 11.2368 19.8095 10.8288 19.7995ZM13.6875 14.7648C13.4306 14.7648 13.1926 14.6702 13.009 14.5111C13.058 14.3812 13.0955 14.2454 13.1203 14.1048L13.7653 10.4461C13.8562 9.93056 13.7647 9.42705 13.5396 9H14.5576C15.2063 9 15.6974 9.59243 15.5836 10.2378L14.9386 13.8964C14.85 14.3989 14.4177 14.7648 13.9126 14.7648H13.6875ZM13.5875 18.3565C13.5934 18.8326 13.4666 19.297 13.2267 19.6993C13.4178 19.7699 13.6219 19.8046 13.8289 19.7995C14.2368 19.8095 14.6337 19.6652 14.9417 19.3947C15.2385 19.1269 15.4017 18.7394 15.3869 18.3376C15.4157 17.9139 15.2519 17.4999 14.9417 17.2131C14.4495 16.8149 13.8002 16.718 13.2316 16.9225C13.4839 17.3523 13.6098 17.85 13.5875 18.3565Z" fill="white"/>
</svg>
