<svg xmlns="http://www.w3.org/2000/svg" width="100" height="24" fill="none"><path fill="#000" d="M44.894 17.753c-1.408 3.347-4.384 5.208-7.367 5.253-1.003.014-2.012.088-3.01-.142-3.522-.813-6.336-4.003-6.708-7.623-.478-4.666 2.55-8.815 7.099-9.711 3.933-.775 8.9.823 10.394 6.544.294 1.124.379 2.274.434 3.43.02.43-.132.517-.538.507-3.872-.015-7.744 0-11.616 0-.696 0-.702 0-.416.656.62 1.418 1.826 1.918 3.27 2.03 1.023.073 1.968-.137 2.782-.79a.646.646 0 0 1 .436-.149c1.73-.005 3.462-.005 5.24-.005Zm-8.227-5.27h3.393c.597 0 .616-.032.341-.56-.763-1.458-2.346-2.238-4.201-2.043-1.436.152-2.616.698-3.255 2.084-.17.358-.19.546.33.53 1.13-.037 2.26-.011 3.392-.011ZM20.44 16.01c-1.943 0-3.889.019-5.833-.012-.546-.01-.511.17-.353.553.596 1.451 1.778 2.015 3.243 2.135 1.035.084 2.008-.114 2.84-.771a.796.796 0 0 1 .537-.17c1.573 0 3.146.01 4.72 0 .362 0 .486.041.288.422-1.365 2.62-3.421 4.358-6.425 4.786-5.896.846-9.556-2.8-10.396-7.038-.965-4.911 2.202-9.517 7.15-10.413 4.192-.758 8.973 1.14 10.315 6.872.228 1.044.343 2.11.34 3.18 0 .375-.117.466-.48.463-1.983-.015-3.964-.007-5.946-.007Zm1.321-3.528a3.451 3.451 0 0 0-1.095-1.664c-1.509-1.282-4.238-1.272-5.743.013a3.12 3.12 0 0 0-.906 1.331c-.087.239-.044.338.248.338.853-.016 1.692 0 2.54 0l4.956-.018Zm41.56 10.53c-4.517.48-8.956-3.802-8.906-8.812.05-4.8 4.077-8.818 8.897-8.795 5.036.03 9.007 3.933 9.045 8.805.05 5.541-4.925 9.293-9.036 8.802Zm-3.925-8.795c-.03 2.27 1.75 4.154 3.944 4.176 2.157.022 3.97-1.811 4.013-4.06.043-2.247-1.723-4.146-3.925-4.187-2.201-.04-4 1.78-4.027 4.071h-.005Zm-6.893 1.928c0 2.016-.01 4.03.009 6.045 0 .386-.087.508-.497.508a97.599 97.599 0 0 0-3.976 0c-.406.008-.496-.114-.495-.508.014-3.993 0-7.988.02-11.983 0-.443-.076-.597-.566-.582-1.273.04-1.273.012-1.273-1.267 0-.7.012-1.402 0-2.102-.008-.303.051-.44.401-.428.454.015 1.043.196 1.331-.07.289-.268.074-.857.101-1.303C47.703 2.16 49.075.63 51.444.194c.884-.173 1.788-.23 2.687-.17.268.02.362.097.359.37a77.783 77.783 0 0 0 0 2.682c0 .25-.045.39-.342.39-1.634 0-1.646 1.003-1.643 2.116 0 .264.154.266.341.264h1.325c.228 0 .31.068.309.3a168.744 168.744 0 0 0 0 3.213c0 .276-.123.313-.354.306-.389-.013-.78.02-1.165-.012-.386-.032-.471.098-.468.465.02 2 .01 4.014.01 6.028Zm-45.721.014c0 1.997-.016 3.997.01 5.996 0 .45-.133.551-.563.54a84.788 84.788 0 0 0-3.821 0c-.457.013-.596-.09-.592-.57.02-3.979 0-7.957.022-11.937 0-.417-.072-.57-.536-.558C0 9.665 0 9.635 0 8.332V6.178c0-.247.072-.339.33-.339.474 0 1.09.154 1.383-.08.294-.236.069-.88.118-1.345C2.102 1.819 3.667.332 6.447.085A10.375 10.375 0 0 1 8.352.016c.266.025.41.078.402.396a58.566 58.566 0 0 0 0 2.682c0 .278-.099.372-.363.372-1.495 0-1.649.866-1.61 2.147 0 .238.158.231.323.231.425 0 .853.01 1.275 0 .26-.01.38.053.375.339a110.527 110.527 0 0 0 0 3.102c0 .267-.068.38-.355.365-.389-.022-.781.022-1.167-.014-.386-.035-.459.12-.456.474.014 2.018.006 4.034.006 6.05Z"/><path fill="#FCDC03" d="M80.754 7.01c-1.573 0-3.148.02-4.72-.012-.48 0-.512.18-.447.553a4.76 4.76 0 0 0 1.3 2.453 4.828 4.828 0 0 0 2.454 1.324c1.975.37 3.971-.465 4.95-2.177.32-.563.745-.413 1.166-.414.26 0 .098.203.057.302a6.267 6.267 0 0 1-1.646 2.323 6.34 6.34 0 0 1-2.51 1.365 6.378 6.378 0 0 1-5.484-1.009c-3.243-2.396-3.507-7.458-.512-10.1C77.227-.03 80.234-.43 82.529.664c2.142 1.021 3.6 3.558 3.478 5.999-.017.338-.17.352-.427.352-1.609-.009-3.218-.005-4.826-.005Zm11.705 0c-1.556 0-3.113-.019-4.669.012-.464.01-.548-.146-.54-.565.052-3.151 2.129-5.773 5.002-6.28C96.566-.586 100 2.26 100 6.59a6.306 6.306 0 0 1-.717 2.933 6.366 6.366 0 0 1-2.002 2.274 6.46 6.46 0 0 1-5.863.78c-1.75-.63-2.879-1.909-3.647-3.553-.099-.213-.097-.311.183-.316.447-.01.788 0 1.084.49a4.622 4.622 0 0 0 2.14 1.859 4.672 4.672 0 0 0 2.832.269c1.888-.39 3.364-1.965 3.691-3.89.06-.35-.034-.42-.361-.418-1.627-.002-3.255-.008-4.881-.008Z"/></svg>
