<svg xmlns="http://www.w3.org/2000/svg" width="567" height="1058" viewBox="0 0 567 1058" fill="none">
  <path d="M328.723 0.318726C326.264 0.318726 -416.596 0.392578 -416.596 0.392578C-492.675 0.392578 -557.533 30.9679 -602.471 81.6311C-626.052 108.222 -642.528 139.857 -652.132 173.444L-744.141 495.072L-836.189 173.431C-845.8 139.851 -862.276 108.216 -885.851 81.6311C-930.781 30.9617 -995.634 0.392578 -1071.69 0.392578C-1071.69 0.392578 -1492.66 0.31897 -1495.11 0.31897C-1692.65 0.31897 -1739.18 126.703 -1732.12 218.965C-1731.54 226.582 -1730.58 233.978 -1729.31 241.042C-1717.74 306.029 -1699.53 341.026 -1658.06 441.238L-864.096 1529.82C-824.895 1619.22 -730.166 1677.8 -624.828 1677.8H-219.693C-114.355 1677.8 -19.6262 1619.23 19.5746 1529.82L491.613 441.231C533.079 341.026 551.333 306.022 562.903 241.035C564.175 233.935 565.096 226.502 565.667 218.848C572.701 126.586 526.122 0.3125 328.704 0.3125" fill="#E6F3FE"/>
</svg>
