<svg xmlns="http://www.w3.org/2000/svg" style="fill:none" viewBox="615 0 897 1850" width="897" height="1850">
<path style="fill:#e6f3fe" d="m 1283.72,0.00696 c -2.35,0 -713.292,0.0818 -713.292,0.0818 -72.81,0 -134.881,33.84715 -177.888,89.93185 -22.568,29.4364 -38.336,64.4564 -47.527,101.6374 L 256.957,547.704 168.864,191.644 C 159.667,154.47 143.898,119.45 121.336,90.0206 78.3364,33.9291 16.2708,0.08875 -56.5139,0.08875 c 0,0 -402.8801,-0.0815 -405.2341,-0.0815 -189.048,0 -233.582,139.9088 -226.819,242.0428 0.553,8.433 1.472,16.621 2.683,24.44 11.073,71.941 28.505,110.683 68.189,221.619 L 142.156,1693.18 C 179.673,1792.15 270.331,1857 371.143,1857 h 387.728 c 100.811,0 191.469,-64.84 228.986,-163.82 L 1439.61,488.102 c 39.69,-110.929 57.16,-149.678 68.23,-221.619 1.22,-7.861 2.1,-16.089 2.64,-24.562 C 1517.22,139.786 1472.64,0 1283.7,0" />
</svg>
