<svg xmlns="http://www.w3.org/2000/svg" width="126.508" height="40"><path fill="#a6a6a6" d="M116.98 0H7.53a13.2 13.2 0 00-2 .2 6.67 6.67 0 00-1.9.62A6.44 6.44 0 002 2 6.26 6.26 0 00.82 3.62a6.6 6.6 0 00-.63 1.9 13 13 0 00-.18 2c0 .3-.02.62-.02.92v23.12c0 .3 0 .6.02.92a13 13 0 00.17 2 6.6 6.6 0 00.62 1.9A6.2 6.2 0 002 38a6.27 6.27 0 001.62 1.18 6.7 6.7 0 001.9.63 13.46 13.46 0 002 .2h111.46a13.28 13.28 0 002-.2 6.8 6.8 0 001.9-.62 6.28 6.28 0 001.63-1.18 6.4 6.4 0 001.2-1.6 6.6 6.6 0 00.6-1.92 13.5 13.5 0 00.2-2V7.52a13.5 13.5 0 00-.2-2 6.62 6.62 0 00-.6-1.9 6.47 6.47 0 00-2.8-2.8 6.77 6.77 0 00-1.92-.63 13.04 13.04 0 00-2-.2h-2z"/><path d="M8.44 39.13c-.3 0-.6 0-.9-.02a12.7 12.7 0 01-1.87-.15A5.88 5.88 0 014 38.4a5.4 5.4 0 01-1.38-1A5.32 5.32 0 011.6 36a5.72 5.72 0 01-.55-1.67 12.4 12.4 0 01-.16-1.87c-.02-.2-.03-.92-.03-.92V8.44s0-.7.02-.9a12.37 12.37 0 01.15-1.86 5.76 5.76 0 01.55-1.66 5.37 5.37 0 011-1.4A5.57 5.57 0 014 1.6a5.82 5.82 0 011.67-.55A12.6 12.6 0 017.54.9l.9-.03h109.62l.9.02a12.38 12.38 0 011.87.15 5.94 5.94 0 011.67.55 5.6 5.6 0 012.4 2.42 5.76 5.76 0 01.55 1.65 13 13 0 01.17 1.88v24.92a12.73 12.73 0 01-.17 1.85 5.74 5.74 0 01-.54 1.67 5.48 5.48 0 01-1 1.38 5.4 5.4 0 01-1.4 1.02 5.86 5.86 0 01-1.67.55 12.54 12.54 0 01-1.87.16c-.3.02-.6.02-.9.02h-1.08z"/><path d="M24.77 20.3a4.95 4.95 0 012.36-4.15 5.07 5.07 0 00-4-2.16c-1.67-.2-3.3 1-4.16 1-.87 0-2.2-1-3.6-.96a5.32 5.32 0 00-4.48 2.73c-1.94 3.34-.5 8.26 1.35 10.97.93 1.33 2 2.8 3.43 2.75 1.4-.06 1.9-.9 3.58-.9 1.66 0 2.15.9 3.6.86 1.48-.02 2.42-1.33 3.3-2.67a10.96 10.96 0 001.53-3.1 4.78 4.78 0 01-2.93-4.4zm-2.73-8.1a4.87 4.87 0 001.1-3.48 4.96 4.96 0 00-3.2 1.66 4.64 4.64 0 00-1.14 3.36 4.1 4.1 0 003.24-1.53zm13.62 2.5V9.58h-1.88v-.85h4.68v.85h-1.88v5.12zm7.1-1.2a1.83 1.83 0 01-1.95 1.3 2.05 2.05 0 01-2.07-2.34 2.08 2.08 0 012.08-2.35c1.26 0 2.02.87 2.02 2.28v.3h-3.18v.06a1.2 1.2 0 001.2 1.3 1.08 1.08 0 001.07-.55zm-3.12-1.47h2.27a1.1 1.1 0 00-1.1-1.16 1.15 1.15 0 00-1.16 1.16zm.64-2.58l1.03-1.43h1.06L41.2 9.45zm3.77-1.01h.9v6.26h-.9zm6.15 5.06a1.83 1.83 0 01-1.94 1.3 2.05 2.05 0 01-2.08-2.34 2.08 2.08 0 012.07-2.35c1.26 0 2 .87 2 2.28v.3H47.1v.06a1.2 1.2 0 001.2 1.3 1.08 1.08 0 001.07-.55zm-3.12-1.47h2.28a1.1 1.1 0 00-1.1-1.16 1.15 1.15 0 00-1.18 1.16zm.64-2.58l1.04-1.43h1.04l-1.16 1.43zm6.68 2.22a1 1 0 00-1.06-.76c-.74 0-1.2.58-1.2 1.54 0 .97.46 1.55 1.2 1.55a.98.98 0 001.06-.75h.87a1.76 1.76 0 01-1.93 1.54 2.07 2.07 0 01-2.1-2.36 2.05 2.05 0 012.1-2.33 1.78 1.78 0 011.93 1.57zm2.05-3.23h.88v2.48h.07a1.4 1.4 0 011.37-.8 1.48 1.48 0 011.55 1.67v2.9h-.9V12c0-.7-.32-1.07-.95-1.07a1.05 1.05 0 00-1.13 1.14v2.63h-.9zm4.99 4.99c0-.8.6-1.28 1.67-1.35l1.23-.07v-.38c0-.47-.3-.74-.92-.74-.48 0-.83.18-.93.5h-.86c.1-.77.83-1.27 1.85-1.27 1.13 0 1.77.57 1.77 1.53v3.07h-.86v-.63h-.07a1.5 1.5 0 01-1.36.7 1.36 1.36 0 01-1.5-1.34zm2.9-.4v-.36l-1.1.07c-.63.04-.9.25-.9.65s.34.63.83.63a1.06 1.06 0 001.16-1zm2.26-2.83h.87v.7h.06a1.22 1.22 0 011.22-.78 1.87 1.87 0 01.4.04v.88a2.43 2.43 0 00-.5-.06 1.06 1.06 0 00-1.15 1.06v2.66h-.9zm3.36 4.95h.9c.1.33.46.54 1.06.54.74 0 1.18-.36 1.18-.96v-.86h-.07a1.5 1.5 0 01-1.4.76c-1.14 0-1.85-.9-1.85-2.24 0-1.37.72-2.28 1.87-2.28a1.56 1.56 0 011.42.8h.07v-.72H74v4.54c0 1.03-.82 1.68-2.1 1.68-1.12 0-1.84-.5-1.94-1.27zm3.16-2.76c0-.9-.47-1.48-1.22-1.48-.77 0-1.2.58-1.2 1.47 0 .9.43 1.47 1.2 1.47.76 0 1.22-.57 1.22-1.48zm6.08 1.11a1.83 1.83 0 01-1.94 1.3 2.05 2.05 0 01-2.08-2.34 2.08 2.08 0 012.08-2.35c1.25 0 2 .87 2 2.28v.3H76.1v.06a1.2 1.2 0 001.2 1.3 1.08 1.08 0 001.06-.55zm-3.1-1.47h2.26a1.1 1.1 0 00-1.1-1.16 1.15 1.15 0 00-1.17 1.16zm4.36-1.83h.86v.7h.06a1.22 1.22 0 011.22-.78 1.87 1.87 0 01.4.04v.88a2.43 2.43 0 00-.5-.06 1.06 1.06 0 00-1.15 1.06v2.66h-.9zm5.74 2.25c0-1.42.73-2.33 1.86-2.33a1.48 1.48 0 011.4.8h.05V8.43h.9v6.26h-.85V14h-.07a1.56 1.56 0 01-1.42.78c-1.14 0-1.86-.9-1.86-2.33zm.9 0c0 .95.46 1.53 1.22 1.53.75 0 1.2-.58 1.2-1.53 0-.94-.46-1.53-1.2-1.53-.75 0-1.2.58-1.2 1.53zm4.5.98c0-.8.6-1.28 1.68-1.35L94.5 12v-.38c0-.47-.32-.74-.93-.74-.5 0-.84.18-.93.5h-.86c.1-.77.8-1.27 1.84-1.27 1.12 0 1.76.57 1.76 1.53v3.07h-.85v-.63h-.07a1.5 1.5 0 01-1.36.7 1.36 1.36 0 01-1.5-1.34zm2.9-.4v-.36l-1.1.07c-.62.04-.9.25-.9.65s.35.63.83.63a1.06 1.06 0 001.17-1zm2.27-2.83h.86v.7h.06a1.35 1.35 0 011.34-.8 1.46 1.46 0 011.56 1.7v2.9h-.9V12c0-.7-.3-1.07-.96-1.07a1.03 1.03 0 00-1.08 1.14v2.63h-.9zm6.85-.1c1 0 1.67.48 1.76 1.28h-.85c-.1-.33-.4-.54-.9-.54s-.9.23-.9.58c0 .27.24.44.73.55l.75.18c.86.2 1.27.56 1.27 1.22 0 .85-.8 1.42-1.87 1.42s-1.77-.5-1.85-1.3h.9a.9.9 0 00.97.57c.56 0 .95-.25.95-.6 0-.28-.2-.45-.66-.56l-.78-.17c-.85-.2-1.25-.6-1.25-1.26 0-.8.73-1.36 1.75-1.36zM35.2 18.07h1.86V30.5H35.2zm4.1 4.53l1-4.53h1.82L40.9 22.6zm9.85 4.53H44.4l-1.1 3.37h-2l4.47-12.43h2.1L52.3 30.5h-2.04zm-4.25-1.55h3.76l-1.85-5.45h-.05zm17.1.38c0 2.8-1.5 4.62-3.78 4.62A3.07 3.07 0 0155.38 29h-.05v4.48h-1.86V21.43h1.8v1.5h.04a3.2 3.2 0 012.9-1.6c2.3 0 3.8 1.82 3.8 4.63zm-1.9 0c0-1.83-.95-3.04-2.4-3.04-1.42 0-2.37 1.23-2.37 3.04 0 1.82.95 3.04 2.37 3.04 1.45 0 2.4-1.2 2.4-3.04zm11.87 0c0 2.8-1.5 4.62-3.78 4.62A3.07 3.07 0 0165.33 29h-.04v4.48h-1.86V21.43h1.8v1.5h.03a3.2 3.2 0 012.88-1.6c2.3 0 3.82 1.82 3.82 4.63zm-1.9 0c0-1.83-.96-3.04-2.4-3.04-1.43 0-2.38 1.23-2.38 3.04 0 1.82.94 3.04 2.36 3.04 1.45 0 2.4-1.2 2.4-3.04zm8.48 1.07c.14 1.23 1.34 2.04 2.97 2.04 1.57 0 2.7-.8 2.7-1.92 0-.97-.68-1.54-2.3-1.94l-1.6-.38c-2.28-.55-3.34-1.62-3.34-3.35 0-2.14 1.87-3.6 4.52-3.6 2.62 0 4.42 1.46 4.48 3.6H84.1c-.1-1.24-1.13-1.98-2.63-1.98s-2.52.74-2.52 1.85c0 .87.65 1.4 2.25 1.8l1.37.32c2.55.6 3.6 1.63 3.6 3.44 0 2.34-1.84 3.8-4.8 3.8-2.74 0-4.6-1.43-4.72-3.67zM90.2 19.3v2.13h1.7v1.47h-1.7v5c0 .77.33 1.13 1.1 1.13a5.8 5.8 0 00.6-.04v1.45a5.1 5.1 0 01-1.03.1c-1.83 0-2.55-.7-2.55-2.46v-5.2h-1.3v-1.47h1.3V19.3zm2.7 6.66c0-2.85 1.7-4.64 4.3-4.64 2.63 0 4.3 1.8 4.3 4.64 0 2.86-1.66 4.64-4.3 4.64-2.63 0-4.3-1.78-4.3-4.64zm6.7 0c0-1.96-.9-3.1-2.4-3.1s-2.4 1.15-2.4 3.1c0 1.96.9 3.1 2.4 3.1s2.4-1.14 2.4-3.1zm3.43-4.53h1.77v1.54h.04a2.16 2.16 0 012.18-1.63 2.87 2.87 0 01.64.07v1.74a2.6 2.6 0 00-.84-.1 1.87 1.87 0 00-1.93 2.08v5.37h-1.87zm13.2 6.4c-.25 1.64-1.85 2.77-3.9 2.77-2.64 0-4.27-1.77-4.27-4.6 0-2.84 1.64-4.68 4.2-4.68 2.5 0 4.07 1.72 4.07 4.47v.62h-6.4v.12a2.36 2.36 0 002.44 2.56 2.05 2.05 0 002.1-1.27zm-6.3-2.7h4.54a2.18 2.18 0 00-2.22-2.3 2.3 2.3 0 00-2.3 2.3z" fill="#fff"/></svg>