<svg xmlns="http://www.w3.org/2000/svg" width="49" height="33" fill="none">
  <path fill="#fff" d="M0 0h49v33H0z"/>
  <path fill="#273485" d="M5.104 33h15.313V23L5.104 33ZM0 11h11.23L0 4v7Zm37.77 0H49V4l-11.23 7Zm0 11L49 29v-7H37.77ZM0 22v7l11.23-7H0Zm28.604 11h15.292L28.583 23l.02 10Zm-.021-33v10L43.896 0H28.583ZM6.125 0l14.292 10V0H6.125Z"/>
  <path fill="#C91517" d="M0 0v2.498L12.632 11h3.701L0 0Zm32.667 22L49 33v-2.444L36.312 22h-3.645ZM45.145 0 28.583 11h3.876l16.54-11h-3.854ZM16.792 22 0 33h3.625l16.792-11h-3.625Z"/>
  <path fill="#C91517" d="M22.084 0v13.22H0v6.457h22.084V33h4.842V19.677H49V13.22H26.906V0h-4.822Z"/>
</svg>
