<svg xmlns="http://www.w3.org/2000/svg" width="180.01" height="20" viewBox="0 0 180 20"><path fill="#004fb6" d="M10.5 0C4.98 0 .5 4.47.5 10c0 5.52 4.48 10 10 10a9.786 9.786 0 0 0 7.4-3.5 9.823 9.823 0 0 0 2.05-7.94h-9.44V12h5.68a5.409 5.409 0 0 1-5.68 4.319C7.08 16.241 4.33 13.42 4.33 10c0-3.43 2.75-6.24 6.18-6.32 1.48 0 2.9.53 3.98 1.55l2.72-2.6A9.504 9.504 0 0 0 10.5 0m18.56 5.72h-2.85v2.85h-2.87v2.86h2.87v2.859h2.86V11.42h2.85V8.57h-2.85V5.72"/><path fill="#002185" d="M158.59 0c-5.521 0-10 4.47-10 10s4.479 10 10 10a9.784 9.784 0 0 0 7.399-3.5 9.82 9.82 0 0 0 2.051-7.94h-9.45V12h5.681a5.41 5.41 0 0 1-5.681 4.319c-3.431-.079-6.181-2.899-6.181-6.33s2.75-6.24 6.181-6.33c1.479 0 2.899.54 4 1.56l2.7-2.6C163.5.9 161.08-.03 158.6 0m18.54 5.72h-2.84v2.85h-2.859v2.86h2.859v2.859h2.859V11.42h2.851V8.57h-2.851V5.72"/><path fill="#FFF" d="M84.3 0c-5.52 0-10 4.47-10 10s4.48 10 10 10c2.85-.021 5.56-1.32 7.4-3.5a9.823 9.823 0 0 0 2.05-7.94h-9.44V12h5.67c-.53 2.67-2.96 4.5-5.67 4.319-3.43-.079-6.18-2.899-6.18-6.32 0-3.43 2.75-6.24 6.18-6.32 1.48 0 2.9.53 3.98 1.55l2.72-2.6A9.564 9.564 0 0 0 84.28 0m18.58 5.72h-2.851v2.85h-2.87v2.86h2.87v2.859h2.86V11.42h2.85V8.57h-2.85V5.72"/></svg>
