<svg xmlns="http://www.w3.org/2000/svg" width="49" height="33" fill="none">
  <path fill="#E31113" d="M0 33h49V0H0v33Z"/>
  <path fill="#E31113" d="m22.057 20.632-.635.271-.469-.49.073.662-.631.275.679.14.08.662.345-.578.682.134-.467-.496.343-.58Zm1.639-9.686.083.664.341-.582.683.129-.473-.491.34-.583-.633.277-.473-.491.08.663-.63.282.682.132ZM18.5 15.972l.346-.577.68.132-.464-.495.339-.58-.634.272-.47-.49.075.664-.634.277.683.136.08.66Z"/>
  <path fill="#E31113" d="M24.985 16.291c.045-.008 4.325-.735 5.642 3.328.005.012 1.29 3.442-2.339 5.652 0 0 .693-1.1-.285-1.973-.978-.869-1.204-.191-2.044-2.04-.004-.017-.18-.844.073-1.457.255-.62.42-.811.426-1.21.004-.403-.014-.832-.36-1.314-.35-.484-.556-.616-1.309-.84.005 0 .694-.06 1.525.35.832.41 1.94 1.455 2.07 3.036l.147.013c0-.02.038-1.841-1.98-3.08-.018-.01-1-.492-1.566-.465Zm-.478.41c.001.003.269.619.115 1.5-.157.888-.855 2.22-2.384 2.816l.03.141s1.836-.513 2.457-2.748c0 0 .184-1.057-.016-1.573 0 0 2.06 3.721-1.59 6.171 0 0-3.02 2.23-6.32-.426 0 0 1.304.302 1.871-.86.567-1.158-.175-1.16 1.404-2.487.007-.004.782-.418 1.471-.375.693.045.93.14 1.33.022.402-.116.822-.265 1.196-.728.373-.464.44-.696.436-1.453Zm-8.545-5.364s.107 1.28 1.429 1.44c1.325.155 1.096-.523 2.903.508.001.001.658.576.83 1.223.168.646.149.892.39 1.223.24.328.517.667 1.094.862.574.196.824.19 1.57-.052-.009.008-.532.437-1.45.572-.925.131-2.463-.093-3.528-1.298l-.127.069s1.076 1.514 3.482 1.387c0 0 1.107-.16 1.553-.504 0 0-3.046 3.038-6.603.467 0 0-3.146-2.062-1.543-5.897Zm13.557.414s3.806-.143 4.901 3.853c0 0-.882-.968-2.045-.337-1.156.63-.555 1.043-2.64 1.25 0 0-.892-.087-1.43-.509-.537-.422-.674-.63-1.07-.755-.398-.128-.832-.24-1.416-.071-.581.172-.78.323-1.23.942.002-.005.152-.652.81-1.288.662-.637 2.034-1.335 3.64-.973l.06-.131c-.023-.008-1.819-.592-3.659.88 0 0-.79.76-.936 1.293 0 0 .56-4.182 5.015-4.154Zm-2.72-4.71c-.01.003-1.235.507-.975 1.756.262 1.257.861.833.413 2.803 0 0-.362.782-.949 1.141-.583.361-.834.42-1.084.743-.247.32-.498.68-.51 1.266-.012.585.073.813.548 1.417 0 0-.6-.34-1.022-1.141-.424-.801-.684-2.272.175-3.623l-.112-.095s-1.159 1.458-.275 3.61c0 0 .507.955.988 1.254-.005-.003-3.962-1.817-2.543-5.867.013-.043 1.072-3.515 5.346-3.265Z"/>
  <path fill="#E31113" d="m30.61 13.54-.633.278-.476-.487.082.665-.629.283.683.128.085.663.34-.582.682.126-.472-.49.337-.585Zm-1.559 6.543-.63.277-.475-.492.077.662-.63.281.682.135.081.661.343-.579.681.13-.469-.492.34-.583Z"/>
  <path fill="#FEFEFE" d="M26.799 7.04c-.013.006-1.234.51-.975 1.757.262 1.257.86.833.413 2.803 0 0-.362.784-.949 1.142-.583.36-.834.418-1.084.74-.247.322-.498.681-.51 1.268-.011.585.073.812.548 1.417 0 0-.6-.34-1.022-1.141-.424-.802-.684-2.273.175-3.624l-.112-.094s-1.16 1.458-.275 3.61c.006.012.51.957.988 1.254 0 0-3.963-1.814-2.543-5.866.01-.03 1.064-3.517 5.346-3.266Zm-3.156 3.494-.63.28.683.132.082.665.342-.583.683.13-.472-.492.339-.583-.632.277-.475-.49.08.664Z"/>
  <path fill="#FEFEFE" d="M29.518 11.751s3.807-.144 4.903 3.853c-.016-.018-.893-.962-2.046-.337-1.157.63-.556 1.043-2.64 1.25 0 0-.892-.087-1.43-.509-.537-.422-.674-.63-1.07-.755-.398-.128-.832-.24-1.417-.071-.58.172-.78.323-1.227.942 0 0 .148-.65.806-1.288.663-.637 2.037-1.335 3.641-.973l.06-.131c-.015-.006-1.815-.596-3.659.88-.02.02-.79.767-.935 1.293 0 0 .56-4.183 5.014-4.154Zm.065 2.245-.63.284.684.128.086.662.338-.582.684.126-.474-.49.338-.585-.632.28-.475-.488.081.665Z"/>
  <path fill="#FEFEFE" d="M24.984 16.292c.036-.007 4.324-.74 5.644 3.327 0 0 1.295 3.437-2.339 5.651.003-.005.69-1.103-.286-1.972-.978-.87-1.203-.19-2.045-2.039 0 0-.182-.839.074-1.458.255-.62.42-.81.425-1.21.006-.403-.013-.833-.36-1.315-.347-.484-.555-.616-1.308-.84.001 0 .692-.061 1.525.35.832.409 1.94 1.455 2.07 3.035l.147.015s.05-1.835-1.98-3.08c-.011-.006-.998-.492-1.567-.464Zm3.04 4.239-.633.28.683.135.082.661.342-.58.682.13-.47-.49.34-.583-.631.276-.472-.493.077.664Z"/>
  <path fill="#FEFEFE" d="M24.507 16.702s.27.615.115 1.5c-.156.886-.856 2.22-2.385 2.817l.03.14s1.837-.514 2.458-2.748c0 0 .185-1.058-.016-1.575 0 0 2.062 3.722-1.59 6.172 0 0-3.02 2.23-6.321-.426 0 0 1.306.301 1.872-.858.566-1.158-.175-1.163 1.405-2.49.013-.007.783-.418 1.47-.374.692.044.93.14 1.331.022.4-.117.82-.265 1.195-.728.373-.465.44-.695.436-1.452Zm-3.482 4.374-.631.276.68.137.08.663.345-.577.682.132-.467-.494.343-.581-.636.271-.469-.49.073.663Z"/>
  <path fill="#FEFEFE" d="M15.962 11.337s.107 1.28 1.429 1.44c1.325.155 1.097-.523 2.902.508.01.008.66.58.831 1.223.168.646.148.891.39 1.222.24.328.515.668 1.094.863.574.197.823.19 1.57-.052-.012.01-.535.438-1.45.572-.926.131-2.463-.093-3.528-1.3l-.128.071c.007.01 1.084 1.513 3.483 1.387 0 0 1.108-.16 1.553-.504 0 0-3.045 3.037-6.603.467 0 0-3.146-2.06-1.543-5.897Zm2.41 3.56-.634.277.683.137.08.66.346-.576.68.133-.465-.495.34-.58-.635.27-.47-.49.075.665Z"/>
</svg>
