<svg xmlns="http://www.w3.org/2000/svg" width="64" height="75"><g fill="none"><path fill="#D7D7D7" d="M63.443 6.327L31.91 0 .375 6.327v41.15C.661 66.883 31.909 75 31.909 75s31.248-8.117 31.534-27.523V6.327z"/><path fill="#F1F1F1" d="M31.91 0L.374 6.327v41.15C.661 66.883 31.909 75 31.909 75V0z"/><path fill="#106CB2" d="M31.91 67.09c-7.792-2.48-23.666-9.568-23.865-19.591v-34.8L31.91 7.91l23.864 4.788v34.8c-.071 3.532-2.219 8.886-11.991 14.434-4.638 2.633-9.332 4.338-11.873 5.158z"/><path fill="#0296C8" d="M31.91 67.09c-7.792-2.48-23.666-9.568-23.865-19.591v-34.8L31.91 7.91v59.18z"/><path fill="#FFD900" d="M31.703 31.288a6.49 6.49 0 01.757-.259c-.425-.404-.992-.552-1.355-.33-.312.191-.386.602-.225 1.026a5.76 5.76 0 01.823-.437zm3.752 14.115a.753.753 0 00-.63-.72.748.748 0 00-.747.372c.242.032.497.079.762.147.22.06.422.129.615.201z"/><path fill="#FFD900" d="M39.516 29.893v-11.57h-15.21v11.57H12.733v8.72c1.57.076 3.109-.013 4.63-.585 4.798-1.807 9.113-11.13 14.904-9.504l2.13 1.785c1.297.418 3.057-.182 4.364.277.271 5.556-1.695 6.556-6.447 6.982.048 1.108.078 2.016-.698 2.283-4.128 1.42-4.421-3.907-4.909-6.633-.956 4.88 1.865 5.649 1.702 7.143 0 0-2.018 7.989-2.061 8.081l-1.772 2.771c.232-.126.467-.25.708-.366.813-.39 1.827-.236 2.579-.76.835-.581 1.069-1.747 1.428-2.629.454-1.115 1.219-2.074 1.63-3.212.117-.324.14-.667.25-.992.183-.536.354-1.05.598-1.56.145-.301.335-.764.732-.569.342.169.397.67.453.998.072.43.125.979.51 1.259.062.044.13.074.198.098.157-.22.317-.442.48-.654.121-.157.508-.752.776-.679.184.05.172.624.138.746-.077.285-.114.575-.18.862.172.06.342.13.506.211.286.143.74.35.777.71.051.49.388.576.717.858.345.297.524.803.356 1.237-.052.133-.145.246-.211.372-.058.11-.073.244-.14.347-.13.21-.474.268-.694.316-.868.194-1.564.853-1.948 1.626a3.303 3.303 0 00-.327 1.187c-.026.248-.083.493-.113.74-.01.076-.076.95-.057.95.055-.003.316-.08.392-.106.126-.045.256-.076.386-.11.277-.07.557-.131.838-.188a13.01 13.01 0 011.582-.234c.42-.03.858-.041 1.27.054.274.064.57.192.682.464a.778.778 0 01.033.428c-.11.625-.56.693-1.115.795-1.477.268-2.935.677-4.305 1.294a.99.99 0 01-.09.217v-.002c-.092.181-.225.372-.277.46-.255.437-.539.859-.795 1.296h7.174v-11.57h11.568V29.893H39.516z"/><path fill="#106CB2" d="M38.892 52.189c-.114-.272-.41-.4-.682-.464-.413-.096-.851-.085-1.27-.054-.532.041-1.06.127-1.582.233a19.54 19.54 0 00-.838.188c-.13.034-.26.066-.386.11a3.297 3.297 0 01-.393.106c-.019 0 .047-.873.057-.95.03-.247.088-.492.113-.74.042-.424.136-.801.328-1.186.384-.773 1.08-1.433 1.948-1.626.22-.049.563-.108.694-.317.066-.103.081-.237.14-.346.065-.126.158-.239.211-.372.168-.434-.012-.94-.357-1.237-.329-.282-.665-.368-.716-.858-.037-.36-.491-.567-.778-.71a4.19 4.19 0 00-.505-.212c.066-.286.102-.577.18-.862.033-.122.045-.695-.138-.745-.268-.073-.655.521-.776.678a21.02 21.02 0 00-.48.655.78.78 0 01-.199-.099c-.385-.28-.437-.83-.51-1.258-.055-.328-.11-.83-.452-.998-.397-.195-.587.267-.732.569-.245.51-.415 1.024-.598 1.56-.11.324-.133.668-.25.991-.412 1.139-1.177 2.098-1.63 3.213-.36.882-.594 2.047-1.429 2.628-.751.525-1.765.371-2.578.76-.242.116-.476.24-.709.367l1.772-2.771c.044-.092 2.062-8.081 2.062-8.081.163-1.494-2.658-2.264-1.702-7.143.487 2.726.78 8.053 4.908 6.633.776-.268.747-1.176.698-2.283 4.753-.426 6.719-1.426 6.448-6.983-1.307-.458-3.067.142-4.364-.277l-2.13-1.785c-5.79-1.625-10.107 7.698-14.905 9.505-1.52.572-3.059.66-4.63.585v6.494h11.574v11.569h8.036c.257-.437.54-.859.796-1.297.05-.087.184-.277.277-.459v-.002a.99.99 0 00.09-.213c1.37-.617 2.827-1.026 4.304-1.294.554-.102 1.006-.17 1.115-.795a.776.776 0 00-.032-.427zm-4.067-7.506a.753.753 0 01.63.72 6.59 6.59 0 00-.615-.2 6.189 6.189 0 00-.762-.148.748.748 0 01.747-.372zM31.105 30.7c.363-.223.93-.074 1.355.33-.249.07-.501.152-.757.258a5.71 5.71 0 00-.824.437c-.16-.423-.086-.834.225-1.025z"/></g></svg>