<svg xmlns="http://www.w3.org/2000/svg" width="76" height="75"><g fill="none" fill-rule="evenodd"><path d="M0 0h75v75H0z"/><g fill-rule="nonzero" transform="translate(.41)"><circle cx="37.5" cy="37.5" r="37.5" fill="#D7D7D7"/><path fill="#F1F1F1" d="M37.5 75C16.79 75 0 58.21 0 37.5S16.79 0 37.5 0v75z"/></g><g fill-rule="nonzero" transform="translate(10.636 10.227)"><circle cx="27.273" cy="27.273" r="27.273" fill="#106CB2"/><path fill="#0296C8" d="M27.273 54.545C12.21 54.545 0 42.335 0 27.273 0 12.21 12.21 0 27.273 0v54.545z"/></g><path d="M15.353 31.875c-1.224.544-1.668 2.219-.99 3.74.675 1.52 2.213 2.312 3.435 1.766 1.224-.544 1.667-2.22.99-3.74-.674-1.52-2.213-2.312-3.435-1.766zm7.482 1.105c1.303-.308 2.048-1.87 1.666-3.492-.38-1.62-1.745-2.683-3.049-2.375-1.301.308-2.049 1.87-1.666 3.492.381 1.62 1.747 2.683 3.049 2.375zm4.849-.208c1.304.3 2.663-.77 3.037-2.391.374-1.624-.381-3.182-1.686-3.483-1.303-.302-2.662.77-3.035 2.391-.375 1.623.38 3.181 1.684 3.483zm8.472 3.05c.268-1.645-.588-3.151-1.91-3.366-1.32-.215-2.607.943-2.872 2.585-.267 1.644.588 3.15 1.909 3.365 1.32.215 2.607-.943 2.873-2.584zm-11.634-.312s-5.022 1.266-5.691 7.714c-.67 6.448 5.173 4.99 8.275 4.239 3.103-.752 7.798-3.016 5.14-6.488 0 0-3.596-6.317-7.724-5.465zm35.943-3.635c1.224.544 1.668 2.219.99 3.74-.674 1.52-2.213 2.312-3.435 1.766-1.224-.544-1.667-2.22-.99-3.74.674-1.52 2.214-2.312 3.435-1.766zm-7.481 1.105c-1.303-.308-2.05-1.87-1.667-3.492.381-1.62 1.746-2.683 3.05-2.375 1.3.308 2.048 1.87 1.666 3.492-.382 1.62-1.747 2.683-3.05 2.375zm-4.85-.208c-1.304.3-2.663-.77-3.037-2.391-.374-1.624.382-3.182 1.686-3.483 1.304-.302 2.662.77 3.035 2.391.375 1.623-.38 3.181-1.684 3.483zm-8.471 3.05c-.268-1.645.587-3.151 1.908-3.366 1.32-.215 2.608.943 2.873 2.585.268 1.644-.588 3.15-1.909 3.365-1.32.215-2.606-.943-2.872-2.584zm11.634-.312s5.021 1.266 5.69 7.714c.67 6.448-5.173 4.99-8.275 4.239-3.102-.752-7.798-3.016-5.14-6.488 0 0 3.596-6.317 7.725-5.465z" fill="#FFD900" fill-rule="nonzero"/><path d="M51.909 24.31a4.82 4.82 0 01.553-.189c-.31-.294-.725-.402-.99-.24-.228.14-.282.439-.165.747.178-.114.378-.222.602-.318z"/></g></svg>