<svg width="48" height="48" viewBox="0 0 48 48" fill="none" xmlns="http://www.w3.org/2000/svg">
<g clip-path="url(#clip0_2295_47418)">
<circle cx="24" cy="24" r="24" fill="#004FB6"/>
<path d="M24 35.0625H24.225C32.4375 35.025 39.4875 32.9625 42.7125 29.9625H42.75L38.1 15.1875C37.6875 13.8375 36.45 12.9 35.025 12.9H24.225H12.975C11.5875 12.9 10.3125 13.8375 9.9 15.1875L5.25 29.9625C8.55 32.9625 15.675 35.0625 24 35.0625Z" fill="white"/>
<path d="M13.8751 19.1625C13.8751 17.2875 15.3751 15.7875 17.2501 15.7875C19.1251 15.7875 20.6251 17.2875 20.6251 19.1625C20.6251 21.0375 19.0876 22.5375 17.2501 22.5375C15.3751 22.5 13.8751 21 13.8751 19.1625ZM29.2501 21.9C29.2501 20.4375 30.4126 19.275 31.8751 19.275C33.3376 19.275 34.5001 20.475 34.5001 21.9375C34.5001 23.4 33.3001 24.5625 31.8751 24.6C30.4126 24.5625 29.2501 23.3625 29.2501 21.9ZM23.9251 30.7125C23.9251 30.7125 23.9251 32.4375 23.9251 33.45C23.2876 33.45 22.6126 33.45 21.9751 33.4125L13.5751 24.3C14.5501 23.8125 15.6376 23.55 16.8001 23.55C16.8376 23.55 16.8751 23.55 16.9126 23.55C20.7751 23.55 23.9251 26.625 23.9251 30.7125ZM12.4126 25.125L19.8001 33.375C15.9751 33.0375 12.4876 32.175 9.86258 30.975V30.75C9.82508 28.425 10.8376 26.4375 12.4126 25.125ZM34.0501 25.7625L27.8251 33.45C27.3376 33.4875 26.8501 33.525 26.3251 33.5625V30.8625C26.3251 27.7125 28.7626 25.3125 31.7626 25.3125C31.8001 25.3125 31.8376 25.3125 31.8751 25.3125C32.6251 25.3125 33.3751 25.5 34.0501 25.7625ZM37.4251 30.9375V31.5C35.3251 32.2875 32.8501 32.8875 30.1126 33.2625L35.5126 26.7C36.6751 27.7125 37.4251 29.2125 37.4251 30.9375Z" fill="#004FB6"/>
</g>
<defs>
<clipPath id="clip0_2295_47418">
<rect width="48" height="48" fill="white"/>
</clipPath>
</defs>
</svg>
