<svg xmlns="http://www.w3.org/2000/svg" viewBox="0 0 176 176"><circle fill="#D7D7D7" cx="88" cy="88" r="88"/><path fill="#F1F1F1" d="M88 176c-48.601 0-88-39.399-88-88S39.399 0 88 0v176z"/><circle fill="#106CB2" cx="87.999" cy="88" r="64"/><path fill="#0296C8" d="M87.999 24C52.653 24 24 52.653 24 88s28.653 64 63.999 64V24z"/><path fill="#FFD900" d="M130.857 100.873c-1.184 0-2.143.823-2.143 1.837v2.477h-5.001l-2.941-17.737c-2.8-16.532-6.238-29.714-22.696-29.714H83.714V54.5H62.286v3.235H57.01c-7.738 0-14.01 6.254-14.01 13.97v31.797c0 3.312 2.693 5.998 6.015 5.998H68.5c1.016-6.23 6.215-11 12.5-11s11.484 4.77 12.5 11H133v-6.791c0-1.014-.959-1.836-2.143-1.836z"/><path fill="#106CB2" d="M81 98.5c-6.285 0-11.484 4.77-12.5 11h25c-1.016-6.23-6.215-11-12.5-11z"/><path fill="#0296C8" d="M68.571 83.925c0 1.008-.805 1.825-1.797 1.825H51.369c-.993 0-1.797-.817-1.797-1.825v-11.35c0-1.008.805-1.825 1.797-1.825h15.405c.993 0 1.797.817 1.797 1.825v11.35zm31.429.008c0 1.003-.759 1.817-1.696 1.817H77.696c-.937 0-1.696-.814-1.696-1.817V72.567c0-1.003.759-1.817 1.696-1.817h20.608c.937 0 1.696.814 1.696 1.817v11.366z"/><path fill="#FFD900" d="M82.554 102.632a9.512 9.512 0 00-10.977 10.976c.645 3.937 3.821 7.113 7.758 7.76a9.512 9.512 0 0010.978-10.977c-.647-3.937-3.822-7.113-7.759-7.759z"/><circle fill="#106CB2" cx="80.945" cy="112" r="3"/></svg>