<?xml version="1.0" encoding="UTF-8"?>
<svg xmlns="http://www.w3.org/2000/svg" xmlns:xlink="http://www.w3.org/1999/xlink" version="1.1" viewBox="0 0 120 90">
  <defs>
    <style>
      .cls-1 {
        fill: none;
      }

      .cls-2 {
        fill: #00596b;
      }

      .cls-3 {
        fill: #050505;
      }

      .cls-4 {
        fill: #003841;
      }

      .cls-5 {
        fill: #f59b1b;
      }

      .cls-6 {
        fill: #f0bc9e;
      }

      .cls-7 {
        fill: #ffd900;
      }

      .cls-8 {
        fill: #fff3c6;
      }

      .cls-9 {
        fill: #9bd7dd;
      }

      .cls-10 {
        fill: #00586c;
      }

      .cls-11 {
        fill: #191919;
      }

      .cls-12 {
        clip-path: url(#clippath);
      }

      .cls-13 {
        fill: #ffb64b;
      }
    </style>
    <clipPath id="clippath">
      <path class="cls-1" d="M49.9,22.9c-.3,3.1-1.4,6.1-2.4,9-.2.6-.4,1.2-.8,1.7-.3.4-.7.8-1.1,1.2-.9.8-1.8,1.8-2.5,2.7-2.2,2.8-3.8,6-5.3,9.2-.5,1-1,2-1.4,3-2.9,5.9-5.7,11.9-8.6,17.8-.6,1.4-1.3,2.9-.7,4.3.6,1.4,2.1,2,3.5,2.5,2.3.8,4.6,1.7,6.9,2.5.3,0,.6.2,1,.2s.7-.4,1.1-.7c.7-.6,1.5-1,2.2-1.6,1-.9,1.6-2.2,2.1-3.5,2-4.4,4.4-8.6,7.3-12.6,1.6,6.7-1.1,13.9.7,20.5,0,.4.2.8.5,1,.4.3.9.3,1.4.3,3.5-.2,7.1-.4,10.6-.6.3,0,.6,0,.8-.2.4-.2.5-.8.5-1.2,1.6-11.7-3-23.9.2-35.2.9-3.4,2.5-6.5,3.2-10,.5-2.5.4-5,.4-7.5s0-1.3-.4-1.9c-.4-.5-1.2-.8-1.7-.3,0,2.1-.3,4.2-.9,6.2,0,.5-.3,1-.8,1.2-.4.2-.9.2-1.3.2-3.6-.3-7.3-.7-10.9-1.1-.2,0-.5,0-.6-.2-.2-.2-.2-.4-.2-.6v-5.3c0-1.8,0-.6-.2-.8s-.5-.2-.7-.2h-1.4l-.4.2h0Z"/>
    </clipPath>
  </defs>
  <!-- Generator: Adobe Illustrator 28.7.1, SVG Export Plug-In . SVG Version: 1.2.0 Build 142)  -->
  <g>
    <g id="Layer_1">
      <g>
        <rect class="cls-1" y="0" width="120" height="90"/>
        <g id="Layer_1-2">
          <g>
            <path class="cls-10" d="M47.3,34.5s-8.4.4-8.5-1.5c0,0,2.6-3.4,7.8-1.4,0,0,1.9,1.5,1.2,2.7h-.5v.2Z"/>
            <path class="cls-4" d="M53,23.1c-2.6-.7-5.2.8-7.5,2.3-1.5.9-3,1.9-4.2,3.2-1.2,1.2-2.2,2.8-2.5,4.6,1.8-1.4,4.3-1.2,6.5-1,.7,0,1.4.2,1.9.5.6.4.9,1.2.6,1.8,6.2-.4,12.4-.5,18.6-.4.4,0,.9,0,1.3.2s.7.7.5,1.1c2.3-.7,4.7-1.1,7.1-1.1-.2-1.8-.9-3.5-1.6-5.2-.8-1.9-1.8-3.9-3.7-5-1.4-.8-3.1-.9-4.7-1-4.1-.2-8.3-.5-12.4-.3"/>
            <g>
              <path class="cls-9" d="M49.9,22.9c-.3,3.1-1.4,6.1-2.4,9-.2.6-.4,1.2-.8,1.7-.3.4-.7.8-1.1,1.2-.9.8-1.8,1.8-2.5,2.7-2.2,2.8-3.8,6-5.3,9.2-.5,1-1,2-1.4,3-2.9,5.9-5.7,11.9-8.6,17.8-.6,1.4-1.3,2.9-.7,4.3.6,1.4,2.1,2,3.5,2.5,2.3.8,4.6,1.7,6.9,2.5.3,0,.6.2,1,.2s.7-.4,1.1-.7c.7-.6,1.5-1,2.2-1.6,1-.9,1.6-2.2,2.1-3.5,2-4.4,4.4-8.6,7.3-12.6,1.6,6.7-1.1,13.9.7,20.5,0,.4.2.8.5,1,.4.3.9.3,1.4.3,3.5-.2,7.1-.4,10.6-.6.3,0,.6,0,.8-.2.4-.2.5-.8.5-1.2,1.6-11.7-3-23.9.2-35.2.9-3.4,2.5-6.5,3.2-10,.5-2.5.4-5,.4-7.5s0-1.3-.4-1.9c-.4-.5-1.2-.8-1.7-.3,0,2.1-.3,4.2-.9,6.2,0,.5-.3,1-.8,1.2-.4.2-.9.2-1.3.2-3.6-.3-7.3-.7-10.9-1.1-.2,0-.5,0-.6-.2-.2-.2-.2-.4-.2-.6v-5.3c0-1.8,0-.6-.2-.8-.2-.2-.5-.2-.7-.2h-1.4l-.4.2h0Z"/>
              <g class="cls-12">
                <g>
                  <path class="cls-2" d="M53.8,53.1c2.3,1.6,4.6-1.5,4.4-3.6,0-.4-.8-.7-.9-.7-.6-.9-1.3-2.4-2.3-3.1-1.2-.8-2.4.3-2.8,1.5-.8,2,0,4.8,1.4,5.8h.2,0ZM56.8,49.7h.2c.4-.7,1.2-.6.7.4,0,0,0-.3-.3-.3s-.7,0-.5,0h0Z"/>
                  <path class="cls-2" d="M71.8,32.8c-.7-5-6.5-4.6-5.4.5.3.6.7.5.2.2,0-.2,2.1,1.5,2.8,1.6,1.5.5,2.5-.5,2.4-2.2h0ZM66.8,33.6h0ZM67,32.7h.7c.2,0,.3,0,0,0,0,0,0,.4-.3.5-.4,0-.5,0-.5-.5h0Z"/>
                  <path class="cls-2" d="M42.8,52.7c1.1-.7,2.4-2.8,1.3-3.7,0,0,0-.3,0-.6.3-1,0-2.2-.9-3-1.3-1.7-3.9-1.3-4.9.5-2,3.2.4,9.3,4.5,6.9h0Z"/>
                  <path class="cls-2" d="M62.9,49c1.7.7,3.9-.6,4.5-2.3.4-1.1.2-1.5-.2-1.8-.2-.3-.3-.3-.2-.7.2-.6.2-1.2,0-1.8-.6-1.9-3-3.1-4.8-1.7-2.4,1.6-2.2,7,.6,8.2h.2,0Z"/>
                  <path class="cls-2" d="M39.3,67.9s-.5-.4-.5-.6v-.5c.3-1.1-.5-2.8-1.6-3.5-1.5-1.1-3.5-.3-4.3,1.3-1.2,2-.6,5.2.7,6.5,2.2,2.2,6.3-.5,5.6-3.2h0Z"/>
                  <path class="cls-2" d="M60.5,61.5c0-2-2.1-5.5-4.2-4.9-.2,0-.3.6-.6.6-1.3,0-1.6,1.3-2,2.4-.4,1.9.3,4.3,1.8,5.5,2.5,1.8,5.4-.8,4.9-3.5h0Z"/>
                  <path class="cls-2" d="M56.2,56.7h0Z"/>
                  <path class="cls-2" d="M56.2,56.9h0Z"/>
                  <path class="cls-2" d="M49.8,33.1h0Z"/>
                  <path class="cls-2" d="M53,40.4c1.8-2.2.3-6.9-2.5-7.5-.7,0-.6,0-.8.5,0,.4-.6,0-1,.3-3.2,2.5,0,10.3,4.2,6.9h0v-.2h0Z"/>
                  <path class="cls-2" d="M59.3,31.8c-.6.3-.9.8-1.1,1.4,0,.6-.4.6,0,1,.5.9,1.2,2.2,2.4,2.4,2.7-.3,1.6-5.9-1.1-4.8,0,0-.2,0-.2,0ZM58.5,34s0-.3.2-.4c0,0,.3.3.4.3,0,0-.2.3-.4.3s-.2,0-.2-.2h0Z"/>
                  <polygon class="cls-2" points="48 60.1 48 60.1 48 60.1 48 60.1"/>
                  <path class="cls-2" d="M47.1,63.7c1.4-.4,2.2-2.8,2.1-3.4,0-.2,0-.5-.2-.7-.4-.2-.6-.3-.7-.4-.4-.9-1.2-2.1-2.1-2.8-1-.7-2.2,0-2.6.9-1.2,2.5,0,7.3,3.4,6.3h0ZM47.7,60.1h0c.3-.5,1.4-.8.7.4,0-.2-.2-.3-.4-.3h-.5.2Z"/>
                  <path class="cls-2" d="M66.6,70.6v-.5c-.3-.4-.9-1.3-1.5-1.6-2.5-1.5-2.8,2.9-1.5,4.1.7.8,2.2.6,2.7-.4.3-.5.3-1.2.4-1.6h0ZM66.1,70.6s0,.3-.2.4l-.2-.2h-.2.2s.4-.3.5,0h0v-.2s0,0,0,0Z"/>
                </g>
              </g>
            </g>
            <path class="cls-11" d="M74.7,77.7c2.1,0,3.4,1.5,4,3.4.7,2,.3,4.1-.3,6.1-.5,1.3-1.4,2.7-2.7,2.8-1.2,0-2.3-.9-2.9-2-1.2-2.1-1.6-4.6-1.1-6.9.3-1.5.9-3,2.4-3.2,0,0,.6-.2.6-.2Z"/>
            <path class="cls-11" d="M90.4,77.7c2.1,0,3.4,1.5,4,3.4.7,2,.3,4.1-.3,6.1-.5,1.3-1.4,2.7-2.7,2.8-1.2,0-2.3-.9-2.9-2-1.2-2.1-1.6-4.6-1.1-6.9.3-1.5.9-3,2.4-3.2,0,0,.6-.2.6-.2Z"/>
            <path class="cls-6" d="M48.2,41c.5,0,1,0,1.5-.3.5-.2.9-.5,1-1h-2.9c0,.5.2,1.1.3,1.6"/>
            <path class="cls-6" d="M70.6,43c-1.1.4-2.3.3-3.4,0-1-.4-1.9-1.3-2-2.3v-.3h3.9v.2c.3.9.7,1.8,1.3,2.5"/>
            <path class="cls-11" d="M48.2,37.4s-2.9-1-3.5.8c0,0-.8,1.5,1.7,7.4l3.5,13.3s2,13.6,1.6,15.1l.5.7,2.4-2.5s0-8.9-2.9-19.5l-3.9-12.8,21.5.2,3.2,8.4s4.2,11.9,4.5,25.1v5.1h2.8s.5-13.4-2.1-22.4c0,0-3.6-15.3-5.9-18.3l-23.5-.7h0Z"/>
            <path class="cls-6" d="M38.4,76.8v4.2s-10.3,2.5-12.6-2.1c0,0-1.3-2.9,1-2.7h5.5l.3-1.3,5.8,1.9Z"/>
            <path class="cls-6" d="M54.9,83.9s-.3,2.2,0,3.5h12.5s2.1-1.4,0-2.8l-5.2-2.1v-2.9h-7.4l.2,4.2h0Z"/>
            <path class="cls-7" d="M38.4,81s.4,2.5-.3,2.8c0,0-11.3.7-13.5-3.1,0,0-1.8-1.8-1-4.9,0,0,.6-1.3,4.2-.6l4.1.2s1.4,0,2.4.9c0,0,1.5,1.7,1.2,4.4,0,0,2.8-.3,2.9.3Z"/>
            <path class="cls-7" d="M54.9,87.4s-.5,1,0,2.4h13.4s3.2-.4,1.2-3.5c0,0-1.7-2.3-6.1-3.2l-1.9-1.3s-2.7-.6-4.6,3.3c0,0-.7,1.7-.7,2.4h-1.3Z"/>
            <path class="cls-5" d="M96.3,84.2c.8-2.9-.8-5.8-2.5-8.3-.9-1.3-1.9-2.5-3.1-3.5-3.6-2.9-9.4-2.8-12.9.4-1,.9-1.8,2-2.7,3.1-.7.9-1.3,1.8-2,2.7,6.3,0,12.6,0,18.9.2v3.5c-6.6.2-13.2.3-19.7,0h-.6c-.2,0-.3-.4-.4-.6-1.1-3-1.2-6.6-3.5-9-1.3-1.4-3.2-2.1-5.1-2.3-1.9-.2-3.8,0-5.7.4-1.8.3-3.7.7-5.2,1.8-1.7,1.3-2.7,3.3-3.2,5.4-.4,2.1-.3,4.3-.3,6.4,16-.7,32.1.7,48-.2"/>
            <path class="cls-13" d="M92.4,82.5h-21.2l-.8-4h22v4Z"/>
            <path class="cls-11" d="M49.8,77.7c2.1,0,3.4,1.5,4,3.4.7,2,.3,4.1-.3,6.1-.5,1.3-1.4,2.7-2.7,2.8-1.2,0-2.3-.9-2.9-2-1.2-2.1-1.6-4.6-1.1-6.9.3-1.5.9-3,2.4-3.2,0,0,.6-.2.6-.2Z"/>
            <path class="cls-11" d="M65.6,77.7c2.1,0,3.4,1.5,4,3.4.7,2,.3,4.1-.3,6.1-.5,1.3-1.4,2.7-2.7,2.8-1.2,0-2.3-.9-2.9-2-1.2-2.1-1.6-4.6-1.1-6.9.3-1.5.9-3,2.4-3.2,0,0,.6-.2.6-.2Z"/>
            <path class="cls-6" d="M40,32.3c-.9,2.6-2.4,5.2-2.4,8v.5c0,.3.5.4.8.4,1.8.4,4.7.4,6.6,0,0-.8-.2-1.6-.2-2.3v-.7c0-.2.3-.4.5-.6.5-.3,1.1-.4,1.7-.4s.7,0,1.5.2h.3v.2c.2.5.6,1,1.1,1.2h.6c.2,0,.3-.3.2-.5,0,.2.3.4.5.5h.6c.2,0,.2-.4,0-.6,0,.5.7.7,1.1.8h.6c.2,0,.2-.5,0-.5.2.5.7.6,1.2.6s.5,0,.6-.2c.2-.2,0-.5,0-.7-.5-1-1.1-1.9-1.9-2.6-.3-.2-.6-.5-.9-.6h-.8c-1.8,0-3.5.7-5.2.5h-.2v-1.6c0-.3.2-.6.2-.8,0-.5-.6-.9-1-1-.7-.2-1.4-.3-2.1-.3h-2.3c-.5,0-.9,0-1,.3"/>
            <path class="cls-6" d="M68.3,35.1c0,.2-.3.3-.5.3h-2.5c-.9,0-1.7.3-2.1,1.1,0,.2-.2.5-.2.8v1.2c0,.2.2.4.5.4s.2,0,.3-.2c.2-.2.2-.5.2-.7,0,.3,0,.7.4.9h.6c.3-.2.3-.5.3-.8,0,.3,0,.6.3.8h.2c.2,0,.4-.2.4-.4v-.6c-.2.5.2,1.1.6,1.1s1-.4,1-.9h2.9c.9,0,1,0,1.2.4,0,0,0,.2.2.3.2.3.3.5.4.8l.6,1.5c.5-.5.7-1.2.9-1.9,0-.7,0-1.5.2-2.2,0-.9.2-1.9.2-2.9h-3.3c-.5,0-1.1,0-1.6.2-.5,0-1,.4-1.4.8"/>
            <path class="cls-6" d="M51.9,7.7c0,1.5,0,3-.2,4.5,0,.5,0,1.1-.2,1.6-.2.4-.4.8-.6,1.2-.6,1-1.1,2.3-.6,3.4.2.4.5.7.7,1.1,1.2,1.6,1.9,3.6,3.1,5.2,1.7,2.2,4.4,3.4,7.1,3.4s5.4-1.4,7.1-3.5c1.1-1.3,1.8-2.9,2.4-4.5.6-1.5,1.3-3.2.8-4.7-.2-.5-.4-1-.6-1.5-.3-1-.3-2.1-.4-3.1-.2-2.2-1.2-4.3-2.8-5.9-1.6-1.5-3.8-2.4-6-2.2-2.4.2-4.5,1.6-6.4,2.9-.7.5-1.5,1-2.2,1.5-.6.4-1.2.9-1.2,1.6"/>
            <path class="cls-8" d="M52,15.1c0,.3.3.6.4.9,0-.9.8-1.5,1.3-2.3.9-1.4.8-3.2.7-4.9,3.1-.3,5.6-2.4,8-4.4,1.6,2.1,3.8,3.7,6.4,4.5.3,0,.7.2.9.4.2.3.3.7.3,1,0,1.4.2,2.8.3,4.2h.8c.4-2.4.4-4.9-.2-7.2-.6-2.4-2-4.6-4.1-5.8-1-.6-2.2-1-3.4-1.2-1.7-.4-3.5-.5-5.2,0-.8.3-1.6.8-2.2,1.3-3.7,2.8-5.8,7.5-5.4,12.1,0,.2,0,.5.2.7,0,.2.4.3.6,0"/>
            <path class="cls-3" d="M64.2,14.9s.5-.2.7-.3c.5-.2.7,0,1.2,0s.5.2.6.4c.2.2.2.7-.2.6,0,0-.4-.2-.5-.3-.2,0-.3-.2-.5-.2h-1s-.5.2-.6,0c0,0,0-.2.3-.5h0v.3Z"/>
            <path class="cls-3" d="M59.5,15.3c-.2,0-.5-.3-.7-.4-.5-.2-.8,0-1.3,0s-.5.2-.7.4,0,.7.2.6c.2,0,.4,0,.5-.2.2,0,.4-.2.6-.2h.8c.2,0,.5.3.7.2.4,0,.2-.5,0-.6h0v.2h0Z"/>
            <path class="cls-4" d="M47.1,32.8c-1.1-.5-2.4-.6-3.6-.7-1.4,0-3-.2-4.3.4,0-.3.3-.6.6-.8s.7-.2,1-.2c2-.2,4,0,5.9.7.2,0,.3,0,.4.2v.4"/>
          </g>
        </g>
      </g>
    </g>
  </g>
</svg>