<svg xmlns="http://www.w3.org/2000/svg" viewBox="0 0 176 176"><circle fill="#D7D7D7" cx="88" cy="88" r="88"/><path fill="#F1F1F1" d="M88 176c-48.601 0-88-39.399-88-88S39.399 0 88 0v176z"/><circle fill="#106CB2" cx="87.999" cy="88" r="64"/><path fill="#0296C8" d="M87.999 24C52.653 24 24 52.653 24 88s28.653 64 63.999 64V24z"/><path fill="#FFD900" d="M136.822 103.835l-.09-13.472h-1.082L125.553 76.25h-14.751c-.225.064-.465.096-.633.269a1.385 1.385 0 00-.393.987l.138 12.894H40.707L40 96.503l3.155 8.523-1.082-.001.36 2.857 16.494 1.525c-.109-.652-.2-1.311-.2-1.994 0-6.64 5.359-12.043 11.945-12.043 6.587 0 11.945 5.402 11.945 12.043 0 .332-.071.645-.097.971l.248 1.223 25.152.643.807-3.313c.255-6.415 5.473-11.565 11.897-11.565 6.587 0 11.945 5.402 11.945 12.043 0 .03-.008.057-.009.087l5.438-.001v-3.665h-1.176z"/><path fill="#0296C8" d="M113.5 90.375v-8.5h9.973l5.527 8.5z"/><path fill="#FFD900" d="M131.999 73.188c-.007-.802-.056-1.447-.197-2.484-.212-1.555-.635-3.238-1.441-4.645-1.303-2.273-3.484-4.653-4.869-6.057-.799-.81-1.91-1.253-3.088-1.253H94.511l-17.175 2.777-3.302-.014c.005-.06.036-.112.036-.174 0-1.184-.979-2.143-2.186-2.143H52.209c-1.207 0-2.186.959-2.186 2.143 0 .026.014.048.015.074l-4.302-.018c-.256-.001-.488.075-.727.127-.159.034-.331.03-.48.085-.239.088-.436.239-.643.375-.117.077-.256.122-.361.212-.195.166-.33.382-.476.588-.073.104-.179.183-.239.296-.18.336-.296.707-.333 1.102l-.224 2.966c-.018-.002-.031-.012-.048-.014l-.304-.026c-1.418-.119-2.668.892-2.792 2.259l-1.1 12.147c-.124 1.367.925 2.572 2.343 2.692l.304.026c.108.009.204-.03.31-.034l-.343 4.553h67.04l-.115-10.903c-.016-1.383.875-2.575 2.151-3.085.426-.17.894-.264 1.386-.264h20.842s.036-.357.057-.952c.012-.296.019.046.015-.356z"/><path fill="#0296C8" d="M79 79.029c0 .95-.77 1.721-1.721 1.721H54.721A1.721 1.721 0 0153 79.029v-9.558c0-.951.77-1.721 1.721-1.721h22.558c.951 0 1.721.77 1.721 1.721v9.558zm43.551-10.748c0 .976-.776 1.767-1.733 1.767h-9.543c-.957 0-1.733-.791-1.733-1.767v-3.098c0-.976.776-1.766 1.733-1.766h9.543c.957 0 1.733.791 1.733 1.766v3.098z"/><circle fill="#FFD900" cx="120.609" cy="107.5" r="9.75"/><circle fill="#106CB2" cx="120.609" cy="107.5" r="3.25"/><circle fill="#FFD900" cx="70.609" cy="107.5" r="9.75"/><circle fill="#106CB2" cx="70.609" cy="107.5" r="3.25"/></svg>