<svg width="150" height="150" xmlns="http://www.w3.org/2000/svg"><g fill="none"><path d="M74.998 0C33.578 0 0 33.578 0 75.002 0 116.423 33.579 150 74.998 150 116.421 150 150 116.423 150 75.002 150 33.578 116.421 0 74.998 0" fill="#F1F1F1"/><path d="M74.998 0v150C116.421 150 150 116.423 150 75.002 150 33.578 116.421 0 74.998 0" fill="#D7D7D7"/><path d="M55.582 108.638a4.811 4.811 0 01-4.797-4.797v-1.755a4.811 4.811 0 014.797-4.797h19.236v-1.871h-38.08a4.812 4.812 0 01-4.798-4.798v-1.611a4.812 4.812 0 014.798-4.798h38.08v-1.843H32.914a4.812 4.812 0 01-4.799-4.798v-2.195a4.812 4.812 0 014.799-4.797h41.904V68.67H39.166a4.812 4.812 0 01-4.798-4.798V61.81c0-2.389 1.774-4.366 4.067-4.723.35-.089.711-.15 1.088-.15l35.295-.23v-3.004H70.17c-1.958-.626-3.394-2.55-3.394-4.812v-1.838c0-2.107 1.247-3.919 3-4.664.073-.16.563-.254.788-.255.317-.07.645-.11.981-.11h3.273V20.456c19.924 0 37.345 10.687 46.864 26.636l.028.048c-9.513-15.976-26.949-26.684-46.893-26.684-30.123 0-54.544 24.42-54.544 54.546 0 30.124 24.42 54.544 54.544 54.544h.001v-20.907H55.582z" fill="#0296C8"/><path d="M97.703 56.608c-.006-1.572-.227-2.442-.986-2.905H74.818v3.004l2.792-.018 20.093-.081zM77.712 82.369h-2.894v1.842h2.902zm-.054-13.698h-2.84v1.907h2.848zm20.138-26.646l4.25-.017a31.95 31.95 0 013.062-.167c.484-.002 1.112.062 1.853.184l.538.094c3.141.593 8.105 2.132 13.912 4.51.093.153.18.31.272.462-9.52-15.949-26.941-26.635-46.865-26.636v21.57h22.978zM77.765 95.418h-2.947v1.87h2.954z" fill="#106CB2"/><path d="M126.668 91.941l-5.404-24.977a3.884 3.884 0 00-.323-.9c-.713-1.889-2.714-3.047-4.748-2.62l-1.757.367a4.187 4.187 0 00-3.23 4.943l6.87 32.784-1.623.347-7.987-38.116a4.187 4.187 0 00-4.942-3.23l-1.87.392a4.187 4.187 0 00-3.23 4.942l7.996 38.156-1.569.335-7.314-34.905a4.187 4.187 0 00-4.942-3.23l-1.372.287a4.187 4.187 0 00-3.23 4.942l7.321 34.944-1.592.34-3.96-18.9a4.187 4.187 0 00-4.942-3.23l-1.494.313a4.187 4.187 0 00-3.23 4.942l3.933 18.77h-9.21v20.908c24.208 0 44.721-15.776 51.849-37.604z" fill="#106CB2"/><path d="M126.668 91.941l.003-.01-.003.01z" fill="#FFDD03"/><path d="M129.3 72.505a57.146 57.146 0 00-.197-2.802c-.012-.12-.019-.24-.032-.359a53.917 53.917 0 00-.304-2.395c-.031-.215-.067-.428-.101-.642a54.082 54.082 0 00-.341-1.908c-.037-.185-.07-.37-.108-.553a55.847 55.847 0 00-.525-2.276c-.052-.206-.109-.41-.163-.615a52.214 52.214 0 00-.498-1.752c-.067-.22-.132-.443-.201-.663a54.03 54.03 0 00-.728-2.151c-.067-.187-.141-.37-.211-.555a55.69 55.69 0 00-1.854-4.365c-.074-.155-.153-.308-.23-.462a55.167 55.167 0 00-2.124-3.916c-.091-.153-.178-.309-.272-.461-5.807-2.38-10.77-3.918-13.912-4.51l-.538-.095c-.74-.122-1.369-.186-1.853-.184a31.93 31.93 0 00-3.061.167l-4.25.017H71.544c-.337 0-.665.038-.982.109-.225 0-.715.095-.788.255-1.753.745-3 2.557-3 4.664v1.838c0 2.262 1.436 4.186 3.394 4.812h26.549c.759.463.98 1.333.986 2.905l-20.094.08-2.79.019-35.296.23a4.537 4.537 0 00-1.088.15c-2.293.357-4.067 2.335-4.067 4.723v2.063a4.812 4.812 0 004.798 4.798h38.492l.008 1.907H32.914a4.812 4.812 0 00-4.799 4.797v2.195a4.812 4.812 0 004.799 4.798h44.798l.008 1.843H36.738a4.812 4.812 0 00-4.798 4.798v1.61a4.812 4.812 0 004.798 4.799h41.027l.008 1.87H55.582a4.811 4.811 0 00-4.797 4.798v1.755a4.811 4.811 0 004.797 4.797h28.445l-3.933-18.77a4.187 4.187 0 013.23-4.942l1.494-.313a4.187 4.187 0 014.942 3.23l3.96 18.9 1.593-.34-7.322-34.944a4.187 4.187 0 013.23-4.943l1.372-.287a4.187 4.187 0 014.943 3.23l7.314 34.906 1.568-.335-7.995-38.156a4.187 4.187 0 013.23-4.942l1.869-.393a4.187 4.187 0 014.942 3.23l7.987 38.117 1.623-.347-6.87-32.784a4.187 4.187 0 013.23-4.943l1.757-.368c2.034-.426 4.035.732 4.749 2.62.138.284.254.58.322.9l5.404 24.978.004-.01a53.596 53.596 0 00.669-2.222c.162-.577.316-1.157.459-1.742.036-.146.067-.296.102-.443.247-1.042.459-2.097.645-3.16.041-.243.09-.483.13-.727.064-.403.115-.81.17-1.216.06-.44.119-.88.168-1.322a55.86 55.86 0 00.231-2.682c.02-.294.04-.587.053-.88.039-.841.064-1.686.064-2.535a51.66 51.66 0 00-.06-2.498z" fill="#FFD900"/></g></svg>