<svg width="50" height="50" viewBox="0 0 50 50" fill="none" xmlns="http://www.w3.org/2000/svg">
<path fill-rule="evenodd" clip-rule="evenodd" d="M45.8822 25.276C47.7807 24.6792 49.6247 24.9506 49.9502 25.9807C50.2757 26.9564 48.9742 28.2579 46.9672 28.9087C46.6957 29.0171 46.4787 29.0716 46.2077 29.1256C47.7802 32.4329 48.9737 35.7402 48.9737 38.2343V48.5905C48.9737 49.3492 48.3227 50 47.5092 50H42.7362C41.9227 50 41.2717 49.4037 41.2717 48.5905V45.4082H8.45683V48.5905C8.45683 49.3492 7.80583 50 6.99233 50H2.21934C1.40585 50 0.754848 49.4037 0.754848 48.5905V38.2343C0.754848 35.7402 1.94834 32.3244 3.57534 29.0171C3.41284 28.9631 3.19584 28.9087 2.97884 28.8547C1.02635 28.2584 -0.27565 26.9569 0.0498487 25.9268C0.375348 24.8966 2.16534 24.6257 4.11784 25.222C4.55184 25.3305 4.93184 25.4929 5.31133 25.7098L6.12483 24.3003C8.41733 20.4458 10.7596 17.392 11.6139 16.8212C11.853 17.5625 12.152 18.2769 12.5051 18.9587C11.6046 19.9233 9.537 22.6831 7.42683 26.376H24.4038H25.7598H42.7367C40.5418 22.5347 38.3925 19.657 37.5555 18.8401C37.8646 18.2293 38.1304 17.5928 38.3489 16.9348C39.3527 17.7105 41.5547 20.6733 43.7122 24.3003L44.5802 25.8183C44.9602 25.6014 45.3942 25.4384 45.8822 25.276ZM18.75 39.0625H31.25V42.1875H18.75V39.0625ZM6.72176 32.1247C6.07076 32.1247 5.52826 32.7212 5.52826 33.3722V34.5657C5.52826 35.2707 6.07076 35.8677 6.72176 35.9757L14.5322 37.0062C15.1832 37.1147 15.5087 36.6267 15.1832 36.0842C13.1762 32.6672 8.83675 32.1792 6.72176 32.1247ZM34.9257 36.0302C36.9327 32.7212 41.2717 32.1787 43.3872 32.1247C44.0382 32.0707 44.5807 32.6672 44.5807 33.3182V34.5117C44.5807 35.2167 44.0382 35.8132 43.3872 35.9217L35.5767 36.9522C34.9257 37.0607 34.6002 36.6267 34.9257 36.0302Z" fill="#004FB6"/>
<path fill-rule="evenodd" clip-rule="evenodd" d="M37.5 12.5001C37.5 19.4037 31.9036 25.0001 25 25.0001C18.0964 25.0001 12.5 19.4037 12.5 12.5001C12.5 5.59656 18.0964 0.00012207 25 0.00012207C31.9036 0.00012207 37.5 5.59656 37.5 12.5001ZM31.2399 16.1059C31.0226 20.7667 26.5333 21.8744 26.5333 21.8744C28.1265 20.3686 28.5244 19.7456 28.7418 18.1662C28.9592 16.5869 28.0904 16.1066 28.0904 16.1066C27.4028 18.0501 25.2026 17.285 25.2026 17.285C26.2249 17.2482 26.6423 16.2198 26.6062 14.4205C26.5701 12.6213 24.3977 11.0787 24.3977 11.0787C25.0852 11.8129 24.6505 13.4657 23.8907 14.7508C23.6098 15.226 23.2793 15.4702 22.9524 15.7119C22.395 16.1238 21.8479 16.5282 21.5738 18.0559C21.1391 20.4797 23.2393 21.8751 23.2393 21.8751C20.271 21.2506 18.75 18.6061 18.75 16.403C18.75 15.1024 19.305 14.3007 19.8491 13.5146C20.2268 12.9691 20.5991 12.4312 20.7772 11.7393C21.2113 10.0504 19.2202 9.86646 19.2202 9.86646C20.198 8.5078 22.4788 9.31549 22.4788 9.31549C21.8266 8.0304 21.537 4.72534 23.6372 3.61621C25.7374 2.50707 27.4028 3.62342 27.4028 3.62342C26.8597 3.54986 26.0631 4.02726 25.8457 4.98207C25.6284 5.93688 26.0624 6.52462 27.0764 7.73616C27.2391 7.93058 27.4624 8.15812 27.7218 8.42239C29.0787 9.80495 31.4224 12.193 31.2399 16.1059Z" fill="#004FB6"/>
</svg>
