<svg xmlns="http://www.w3.org/2000/svg" viewBox="0 0 176 176"><path fill="#F1F1F1" d="M87.999 0C39.399 0 0 39.397 0 88.001 0 136.602 39.399 176 87.999 176 136.601 176 176 136.602 176 88.001 176 39.397 136.601 0 87.999 0"/><path fill="#D7D7D7" d="M87.999 176C136.601 176 176 136.602 176 88.001 176 39.397 136.601 0 87.999 0v176z"/><path fill="#0296C8" d="M87.999 24C52.654 24 24 52.631 24 87.953c0 35.32 28.654 63.951 63.999 63.951 35.347 0 64.001-28.631 64.001-63.951C152 52.631 123.346 24 87.999 24"/><path fill="#106CB2" d="M152 87.953C152 52.631 123.346 24 87.999 24v56.945H65.487l-37.45 29.386.013.033c9.089 24.263 32.496 41.539 59.949 41.539.997 0 1.987-.03 2.972-.075.298-.014.595-.034.892-.051a62.261 62.261 0 002.128-.162c.306-.028.613-.056.918-.088a64.568 64.568 0 002.513-.319c.128-.019.257-.032.384-.052.944-.145 1.88-.315 2.81-.501.292-.058.582-.124.873-.187a63.486 63.486 0 004.982-1.28c.232-.07.467-.133.698-.206a62.548 62.548 0 002.57-.869c.315-.114.626-.237.939-.355a65.234 65.234 0 002.741-1.109c.531-.23 1.057-.47 1.58-.714.326-.152.655-.298.978-.456a62.532 62.532 0 002.263-1.158c.365-.196.723-.403 1.084-.606.432-.243.862-.487 1.287-.739.397-.235.79-.475 1.181-.718.379-.236.753-.478 1.126-.721.398-.26.798-.517 1.191-.786.362-.248.716-.507 1.072-.762a63.765 63.765 0 002.132-1.591c.274-.213.548-.425.818-.643.432-.348.858-.703 1.281-1.062.239-.203.475-.409.711-.615.442-.387.883-.774 1.314-1.173l.169-.161a64.487 64.487 0 002.886-2.867c.112-.119.227-.235.339-.355a63.784 63.784 0 001.697-1.901 64.175 64.175 0 005.284-7.068l.2-.311a63.683 63.683 0 004.312-7.965l.116-.257c.305-.681.6-1.367.881-2.061l.001-.003A63.712 63.712 0 00152 87.953z"/><path fill="#0296C8" d="M96.884 151.347l-.093-.369-4.253-19.435h-9.013l-4.123 19.838c0 .001 7.426 1.414 17.482-.034zm-5.193-28.924l-2.285-10.903h-2.115l-2.195 10.903z"/><path fill="#0097CA" d="M75.856 97.643h24.097v6.347H75.856z"/><path fill="#FFD900" d="M133.906 72.855c-.595-1.855-3.966-2.433-7.53-1.291-.861.276-1.653.628-2.353 1.028l-1.627-2.836c-4.376-7.382-8.867-13.246-10.312-13.907-2.912-1.33-9.746-2.033-22.925-2.11v-.008c-.432 0-.836.003-1.255.004-.419-.001-.823-.004-1.255-.004v.008c-13.179.077-20.013.78-22.925 2.11-1.445.661-5.936 6.524-10.312 13.907l-1.474 2.569a12.442 12.442 0 00-2.156-.921c-3.564-1.141-6.935-.563-7.53 1.291-.595 1.854 1.812 4.283 5.375 5.425.378.121.753.219 1.124.302-2.961 6.15-5.162 12.39-5.162 17.05v19.151a2.649 2.649 0 002.65 2.647h8.795a2.65 2.65 0 002.65-2.647v-5.781h60.439v5.781a2.649 2.649 0 002.65 2.647h8.795a2.649 2.649 0 002.65-2.647V95.471c0-4.605-2.148-10.754-5.057-16.835.45-.091.907-.209 1.369-.357 3.564-1.141 5.971-3.57 5.376-5.424z"/><path fill="#0296C8" d="M75.766 97.643h24.097v6.347H75.766zM53.474 83.399c-1.257-.032-2.276 1.053-2.276 2.309v2.179c0 1.256 1.01 2.405 2.257 2.565l14.922 1.928c1.246.162 1.911-.676 1.25-1.746-3.795-6.141-12.122-7.132-16.153-7.235zm68.862 0c-4.031.103-12.358 1.094-16.153 7.235-.661 1.069.003 1.907 1.25 1.746l14.922-1.928c1.248-.16 2.257-1.309 2.257-2.565v-2.179c0-1.256-1.019-2.341-2.276-2.309zM65.195 58.674c-1.226.981-5.501 6.492-9.945 14.249h65.31c-4.444-7.757-8.719-13.268-9.945-14.249-3.902-1.635-16.901-1.757-22.71-1.766-5.81.009-18.808.131-22.71 1.766z"/></svg>