<svg width="48" height="48" viewBox="0 0 48 48" fill="none" xmlns="http://www.w3.org/2000/svg">
<g clip-path="url(#clip0_2295_47543)">
<circle cx="24" cy="24" r="24" fill="#004FB6"/>
<path d="M9.03471 14.124C9.06996 13.6655 9.63401 13.4539 9.98655 13.8066L12.0312 15.8523L14.6752 15.1469L15.3803 12.5016L13.3356 10.4559C13.0183 10.1384 13.1946 9.5741 13.6529 9.50356C15.204 9.3272 16.7904 9.82099 17.9538 10.9849C19.0819 12.1136 19.5754 13.6655 19.4697 15.1469C19.3992 15.9581 19.6459 16.734 20.21 17.2984L22.3605 19.4499L18.9409 22.8358L16.9314 20.7549C16.3321 20.1553 15.5213 19.8378 14.7105 19.9084C13.2299 20.0495 11.6787 19.5557 10.5506 18.3917C9.35199 17.2278 8.85844 15.6406 9.03471 14.124ZM36.4618 37.7906C35.5099 38.7781 33.9235 38.7781 32.9717 37.7906L26.0973 30.8423L29.5169 27.2447L36.4618 34.2635C37.4489 35.2511 37.4489 36.8383 36.4618 37.7906ZM37.1316 15.0763C36.3208 14.7941 35.3689 14.9352 34.6638 15.4643C34.5581 15.4996 34.4876 15.5701 34.3818 15.6406C34.3818 15.6406 34.3466 15.6406 34.3466 15.6759L24.8987 25.3048L26.9434 27.3505L25.8858 28.4086C25.1102 28.0206 24.1584 28.1617 23.5238 28.8318C23.136 29.2198 22.9245 29.7489 22.9245 30.3132C22.9245 30.6306 22.995 30.9481 23.136 31.2302L16.6847 37.7553C15.8738 38.5665 14.5695 38.5665 13.7586 37.7553L11.7845 35.7801C10.9736 34.9689 10.9736 33.6286 11.7845 32.8174L18.2358 26.2924C19.0114 26.6451 19.9985 26.504 20.5978 25.8691C21.2323 25.2342 21.3734 24.2467 21.0208 23.4707L22.0784 22.4126L23.7001 24.035L33.1832 14.4414C33.6768 13.9477 33.9588 13.2422 33.9588 12.5368C33.9588 12.2194 33.8883 11.9372 33.7825 11.6551L37.3783 9.82099L39 11.4434L37.1316 15.0763Z" fill="white"/>
<path d="M19.1877 29.5722L13.9702 34.7923C13.8292 34.9334 13.6529 35.0039 13.4414 35.0039C13.2651 35.0039 13.0536 34.9334 12.9126 34.7923C12.6305 34.5101 12.6305 34.0516 12.9126 33.7342L18.1301 28.5141C18.2711 28.373 18.4473 28.3025 18.6589 28.3025C18.8351 28.3025 19.0466 28.373 19.1877 28.5141C19.4697 28.7963 19.4697 29.2901 19.1877 29.5722ZM20.7741 30.2776C21.0561 30.5598 21.0561 31.0183 20.7741 31.3358L15.5566 36.5558C15.4156 36.6969 15.2393 36.7674 15.0278 36.7674C14.8515 36.7674 14.64 36.6969 14.499 36.5558C14.2169 36.2736 14.2169 35.8151 14.499 35.4977L19.7165 30.2776C19.8575 30.1366 20.0337 30.066 20.2453 30.066C20.4215 30.066 20.633 30.1366 20.7741 30.2776Z" fill="#004FB6"/>
<path d="M35.1005 36.4198C35.5524 35.9894 35.5524 35.2611 35.1005 34.7976C34.6487 34.3673 33.9387 34.3673 33.4868 34.7976C33.035 35.228 33.035 35.9563 33.4868 36.4198C33.9387 36.8833 34.6487 36.8833 35.1005 36.4198Z" fill="#004FB6"/>
</g>
<defs>
<clipPath id="clip0_2295_47543">
<rect width="48" height="48" fill="white"/>
</clipPath>
</defs>
</svg>
