<?xml version="1.0" encoding="UTF-8"?>
<svg xmlns="http://www.w3.org/2000/svg" xmlns:xlink="http://www.w3.org/1999/xlink" version="1.1" viewBox="0 0 120 90">
  <defs>
    <style>
      .cls-1 {
        fill: none;
      }

      .cls-2 {
        fill: #05142d;
      }

      .cls-3 {
        fill: #ffd900;
      }

      .cls-4 {
        clip-path: url(#clippath);
      }
    </style>
    <clipPath id="clippath">
      <rect class="cls-1" x="8.3" y="5" width="103.2" height="80"/>
    </clipPath>
  </defs>
  <!-- Generator: Adobe Illustrator 28.7.1, SVG Export Plug-In . SVG Version: 1.2.0 Build 142)  -->
  <g>
    <g id="Layer_1">
      <g id="Layer_1-2" data-name="Layer_1">
        <g>
          <rect class="cls-1" y="0" width="120" height="90"/>
          <g class="cls-4">
            <g>
              <path class="cls-3" d="M9.4,62.7h25c.6,0,1.1.5,1.1,1.2v5.2c0,.6-.5,1.2-1.1,1.2H9.4c-.6,0-1.1-.5-1.1-1.2v-5.2c0-.6.5-1.2,1.1-1.2Z"/>
              <path class="cls-3" d="M10.8,55.2h25c.6,0,1.1.5,1.1,1.2v5.2c0,.6-.5,1.2-1.1,1.2H10.8c-.6,0-1.1-.5-1.1-1.2v-5.2c0-.6.5-1.2,1.1-1.2Z"/>
              <path class="cls-3" d="M11.7,70h25c.6,0,1.1.5,1.1,1.2v5.2c0,.6-.5,1.2-1.1,1.2H11.7c-.6,0-1.1-.5-1.1-1.2v-5.2c0-.6.5-1.2,1.1-1.2Z"/>
              <path class="cls-3" d="M10.4,77.4h25c.6,0,1.1.5,1.1,1.2v5.2c0,.6-.5,1.2-1.1,1.2H10.4c-.6,0-1.1-.5-1.1-1.2v-5.2c0-.6.5-1.2,1.1-1.2Z"/>
              <path class="cls-2" d="M34.9,70.1c-3.9.5-7.9.6-11.8.7-3.9,0-8,0-11.8-.7h0c5.9,0,17.9-.2,23.6,0Z"/>
              <path class="cls-2" d="M34.5,62.8c-3.9.5-7.9.6-11.8.7-3.9,0-8,0-11.8-.7h0c5.9,0,17.9-.2,23.6,0Z"/>
              <path class="cls-2" d="M35.4,77.4c-3.9.5-8.1.6-12.1.7-4,0-8.1,0-12.1-.7h0c6,0,18.3-.2,24.1,0h0Z"/>
              <path class="cls-3" d="M83.1,48h25c.6,0,1.1.5,1.1,1.2v5.2c0,.6-.5,1.2-1.1,1.2h-25c-.6,0-1.1-.5-1.1-1.2v-5.2c0-.6.5-1.2,1.1-1.2Z"/>
              <path class="cls-3" d="M83.1,55.3h25c.6,0,1.1.5,1.1,1.2v5.2c0,.6-.5,1.2-1.1,1.2h-25c-.6,0-1.1-.5-1.1-1.2v-5.2c0-.6.5-1.2,1.1-1.2Z"/>
              <path class="cls-3" d="M83.1,62.7h25c.6,0,1.1.5,1.1,1.2v5.2c0,.6-.5,1.2-1.1,1.2h-25c-.6,0-1.1-.5-1.1-1.2v-5.2c0-.6.5-1.2,1.1-1.2Z"/>
              <path class="cls-3" d="M85.4,70h25c.6,0,1.1.5,1.1,1.2v5.2c0,.6-.5,1.2-1.1,1.2h-25c-.6,0-1.1-.5-1.1-1.2v-5.2c0-.6.5-1.2,1.1-1.2Z"/>
              <path class="cls-3" d="M84,77.4h25c.6,0,1.1.5,1.1,1.2v5.2c0,.6-.5,1.2-1.1,1.2h-25c-.6,0-1.1-.5-1.1-1.2v-5.2c0-.6.5-1.2,1.1-1.2Z"/>
              <path class="cls-2" d="M107.7,62.9c-3.9.5-8.1.6-12.1.7-4,0-8.1,0-12.1-.7h0c6,0,18.3-.2,24.1,0h0Z"/>
              <path class="cls-2" d="M108.6,70.2c-3.9.5-7.9.6-11.8.7-3.9,0-8,0-11.8-.7h0c5.9,0,17.9-.2,23.6,0Z"/>
              <path class="cls-2" d="M109.2,77.5c-3.9.5-8.1.6-12.1.7-4,0-8.1,0-12.1-.7h0c6,0,18.3-.2,24.1,0h0Z"/>
              <path class="cls-2" d="M107.7,55.6c-3.9.5-8.1.6-12.1.7-4,0-8.1,0-12.1-.7h0c6,0,18.3-.2,24.1,0h0Z"/>
              <path class="cls-3" d="M47.1,70h25c.6,0,1.1.5,1.1,1.2v5.2c0,.6-.5,1.2-1.1,1.2h-25c-.6,0-1.1-.5-1.1-1.2v-5.2c0-.6.5-1.2,1.1-1.2Z"/>
              <path class="cls-3" d="M45.7,77.3h25c.6,0,1.1.5,1.1,1.2v5.2c0,.6-.5,1.2-1.1,1.2h-25c-.6,0-1.1-.5-1.1-1.2v-5.2c0-.6.5-1.2,1.1-1.2Z"/>
              <path class="cls-3" d="M45,40.6h25c.6,0,1.1.5,1.1,1.2v5.2c0,.6-.5,1.2-1.1,1.2h-25c-.6,0-1.1-.5-1.1-1.2v-5.2c0-.6.5-1.2,1.1-1.2Z"/>
              <path class="cls-3" d="M46.4,33.1h25c.6,0,1.1.5,1.1,1.2v5.2c0,.6-.5,1.2-1.1,1.2h-25c-.6,0-1.1-.5-1.1-1.2v-5.2c0-.6.5-1.2,1.1-1.2Z"/>
              <path class="cls-3" d="M45,47.9h25c.6,0,1.1.5,1.1,1.2v5.2c0,.6-.5,1.2-1.1,1.2h-25c-.6,0-1.1-.5-1.1-1.2v-5.2c0-.6.5-1.2,1.1-1.2Z"/>
              <path class="cls-3" d="M47.3,55.2h25c.6,0,1.1.5,1.1,1.2v5.2c0,.6-.5,1.2-1.1,1.2h-25c-.6,0-1.1-.5-1.1-1.2v-5.2c0-.6.5-1.2,1.1-1.2Z"/>
              <path class="cls-3" d="M45.9,62.6h25c.6,0,1.1.5,1.1,1.2v5.2c0,.6-.5,1.2-1.1,1.2h-25c-.6,0-1.1-.5-1.1-1.2v-5.2c0-.6.5-1.2,1.1-1.2Z"/>
              <path class="cls-2" d="M70.9,77.4c-3.9.5-8.1.6-12.1.7-4,0-8.1,0-12.1-.7h0c6,0,18.3-.2,24.1,0h0Z"/>
              <path class="cls-2" d="M69.5,47.9c-3.9.5-8.1.6-12.1.7-4,0-8.1,0-12.1-.7h0c6,0,18.3-.2,24.1,0h0Z"/>
              <path class="cls-2" d="M70.2,40.6c-3.9.5-8.1.6-12.1.7-4,0-8.1,0-12.1-.7h0c6,0,18.3-.2,24.1,0h0Z"/>
              <path class="cls-2" d="M70.4,55.3c-3.9.5-7.9.6-11.8.7-3.9,0-8,0-11.8-.7h0c5.9,0,17.9-.2,23.6,0Z"/>
              <path class="cls-2" d="M70.9,62.6c-3.9.5-8.1.6-12.1.7-4,0-8.1,0-12.1-.7h0c6,0,18.3-.2,24.1,0h0Z"/>
              <path class="cls-2" d="M70.9,70.1c-3.9.5-8.1.6-12.1.7-4,0-8.1,0-12.1-.7h0c6,0,18.3-.2,24.1,0h0Z"/>
              <path class="cls-2" d="M100.2,5c-.6,0-1,.6-.7,1.1l4.3,6.4c.3.5,1.1.4,1.2-.2l1.4-5.8c0-.4-.2-.8-.6-.9l-5.7-.6h0Z"/>
              <path class="cls-2" d="M13.3,29.4c-.5,0-1-.2-1.3-.7-.5-.7-.3-1.7.4-2.2l20.4-13.9c.4-.3,1.1-.4,1.6-.1l14.8,7.5,19.3-12.9c.5-.3,1.1-.4,1.6,0l17.8,10.1,14.6-10.2c.7-.5,1.7-.3,2.2.4s.3,1.7-.4,2.2l-15.4,10.8c-.5.4-1.1.4-1.6,0l-17.8-10.1-19.2,12.9c-.4.3-1,.4-1.6.1l-14.8-7.5-19.6,13.4c-.3.2-.6.3-.9.3h0Z"/>
            </g>
          </g>
        </g>
      </g>
    </g>
  </g>
</svg>