<svg width="150" height="150" xmlns="http://www.w3.org/2000/svg"><g fill="none" fill-rule="evenodd"><g fill-rule="nonzero"><circle fill="#D7D7D7" cx="75" cy="75" r="75"/><path d="M75 150c-41.421 0-75-33.579-75-75S33.579 0 75 0v150z" fill="#F1F1F1"/></g><g transform="translate(19.602 20.455)" fill-rule="nonzero"><circle fill="#106CB2" cx="55.397" cy="54.545" r="54.545"/><path d="M55.397 0C25.272 0 .852 24.42.852 54.545c0 30.126 24.42 54.546 54.545 54.546V0z" fill="#0296C8"/></g><g transform="translate(28.977 28.125)"><path d="M17.517 24.178a5.78 5.78 0 003.218-.974l19.95 19.95 1.773-1.771-19.99-19.99a5.77 5.77 0 00.858-3.025 5.81 5.81 0 10-5.81 5.81zm22.295 21.287l-28.268.04a5.777 5.777 0 00-1.537-2.744 5.81 5.81 0 101.593 5.25l28.215-.04-.003-2.506zm2.766 6.637l-1.76-1.785L20.686 70.16a5.77 5.77 0 00-3.02-.879 5.81 5.81 0 104.817 2.627l20.096-19.805zm4.702 29.15l.021-28.214h-.075v-.002h-2.431v.002h-.075l.02 28.214a5.81 5.81 0 00-2.957 9.805 5.785 5.785 0 004.228 1.692 5.789 5.789 0 004.226-1.692 5.81 5.81 0 00-2.956-9.805zm-2.59-69.196l-.275 28.214.686.007v.018l.91-.009.91.009v-.018l.685-.007-.274-28.214A5.809 5.809 0 0046.01.567a5.809 5.809 0 00-1.321 11.489zm4.874 29.327l1.772 1.772 19.95-19.951a5.809 5.809 0 10-2.59-4.835c0 1.11.317 2.143.857 3.026l-19.99 19.988zm40.667 1.39a5.809 5.809 0 00-8.216-.011 5.78 5.78 0 00-1.537 2.743l-28.269-.039-.003 2.506 28.214.04a5.808 5.808 0 009.798 2.978 5.809 5.809 0 00.013-8.217zM74.357 69.28a5.777 5.777 0 00-3.02.88L51.204 50.316l-1.76 1.785L69.54 71.907a5.809 5.809 0 004.901 8.991 5.809 5.809 0 005.767-5.851 5.808 5.808 0 00-5.85-5.767z" fill-rule="nonzero" fill="#FFD900"/><circle fill="#106CB2" fill-rule="nonzero" cx="46" cy="47" r="18"/><path d="M44.352 60h2.95v-3.163c3.132-.669 4.744-2.919 4.744-5.838 0-5.808-8.028-5.565-8.028-8.454 0-1.368.79-1.946 2.25-1.946 1.277 0 2.22.517 3.314 1.52l2.25-2.554c-1.185-1.247-2.584-2.22-4.53-2.494V34h-2.95v3.132c-2.858.578-4.622 2.646-4.622 5.626 0 5.474 8.028 5.413 8.028 8.545 0 1.399-.76 2.098-2.463 2.098-1.46 0-2.798-.608-4.349-1.764L39 54.648c1.43 1.308 3.558 2.098 5.352 2.311V60z" fill="#FFD900"/></g></g></svg>