<svg xmlns="http://www.w3.org/2000/svg" viewBox="0 0 176 176"><circle fill="#D7D7D7" cx="88" cy="88" r="88"/><path fill="#F1F1F1" d="M88 176c-48.601 0-88-39.399-88-88S39.399 0 88 0v176z"/><path fill="#106CB2" d="M122.797 113.553c-4.599 3.683-7.433 4.942-13.315 5.946l-.361.001c1.789-3.672 2.635-7.739 2.27-11.905-1.021-11.68-11-20.831-22.719-20.831-.662 0-1.329.028-2.001.087-12.529 1.098-21.833 12.187-20.74 24.718.213 2.437.894 4.724 1.822 6.88-4.868-1.009-8.953-2.316-12.244-4.076-5.093-2.724-8.466-6.513-10.482-11.473-.43-1.057-.714-1.985-.857-3.241-.145-1.255-.172-2.833-.17-5.411.004-5.345.164-6.564 1.246-9.838 1.535-4.642 4.009-9.667 6.682-13.565 2.083-3.038 4.954-4.529 8.008-4.797 3.054-.269 6.274.581 9.442 1.921 15.024 6.358 38.089 20.169 45.959 27.914.887.873 1.548 1.505 2.019 1.86.471.349.656.383.73.383.074-.004.308-.073.784-.492.477-.42 1.13-1.138 2-2.11 1.665-1.861 5.187-5.538 7.886-8.245 2.447-2.455 17.78-15.994 20.375-18.283C141.037 42.93 116.728 24 87.999 24 52.653 24 24 52.653 24 88s28.653 64 63.999 64C123.345 152 152 123.347 152 88c0-1.407-.061-2.799-.151-4.183-3.698 3.745-12.873 13.193-13.949 14.524-3.436 4.251-11.235 12.115-15.103 15.212z"/><path fill="#0296C8" d="M87.999 24C52.653 24 24 52.653 24 88s28.653 64 63.999 64V24z"/><path fill="#106CB2" d="M111.392 107.596c-1.021-11.68-11-20.831-22.719-20.831-.662 0-1.329.028-2.001.087-12.529 1.098-21.833 12.187-20.74 24.718.213 2.437.894 4.724 1.822 6.88 0 0 17.359 6.613 41.729 1.049-.001 0 2.273-7.737 1.909-11.903z"/><path fill="#FFD900" d="M94.317 92.478C85 88.995 74.643 93.719 71.124 103.006c-3.439 9.288 1.28 19.696 10.557 23.179 9.277 3.483 19.675-1.241 23.154-10.529 3.518-9.287-1.2-19.695-10.518-23.178z"/><path fill="#106CB2" d="M99.556 102.486c.56.641.84 2.242.44 3.243-.16.36-.56.681-1.16.761-.56.04-.92-.28-1.16-.761-.44-.761-.68-1.521-.64-2.402.04-.6.24-1.121.84-1.361.48-.201 1.28.04 1.68.52zm-1.84 8.687c-.32.881-.88 1.441-1.839 1.561-.64.08-1.12-.2-1.4-.761-.6-1.081-.36-2.882.48-3.763.52-.56 1.16-.801 1.879-.6s.96.761 1.08 1.441c.12.721.08 1.402-.2 2.122z"/><path fill="#0296C8" d="M73.843 113.655a7.163 7.163 0 01-1.28-3.683c-.36-9.928 8.318-17.414 17.835-15.893 1.04.16 2.039.48 3.039.721 1.52.641 2.959 1.441 4.199 2.522.32.28.6.721.76 1.121.24.6-.12 1.041-.76 1.121-.24.04-.48 0-.72 0-1.44-.12-2.279.681-2.079 2.082.12.721.4 1.441.68 2.122.36.841.12 1.401-.8 1.601-1.28.24-2.279 1.401-2.479 2.882-.12.881 0 1.721.4 2.522.36.761.08 1.321-.76 1.521-1.2.24-2.119.841-2.799 1.842-.4.6-.84.641-1.44.28-.8-.48-1.6-1.001-2.479-1.401-1.4-.6-2.559-.28-3.559.881-.16.16-.32.32-.52.44-.52.28-.92.16-1.24-.32-.48-.721-1.12-1.281-1.919-1.561-1-.36-1.799-.04-2.279.881-.04.08-.08.16-.12.2-.44.92-1.08 1-1.68.119z"/><path fill="#106CB2" d="M77.442 120.661c-.08.04-.24 0-.36 0-.88-.641-1.56-1.401-1.959-2.442-.04-.08 0-.24.04-.32.04-.04.2-.04.28 0 .96.56 1.64 1.401 2.039 2.442.04.12 0 .28-.04.32zm2.319-2.122c-.44 0-.88-.08-1.28-.16-.72-.32-1.36-.761-1.72-1.481-.2-.36-.28-.801-.28-1.201.04-.681.6-1.081 1.24-.921.36.08.72.2 1.04.4.8.48 1.4 1.201 1.8 2.042.36.721 0 1.281-.8 1.321zm4.359 4.964c-.04.12-.28.28-.4.28-.64-.04-1.28-.12-1.839-.16-.44-.28-.8-.48-1.12-.761-.32-.28-.24-.56.16-.6.36-.04.76-.08 1.12.04.64.2 1.24.48 1.879.801.12.04.24.28.2.4zm-.92-4.683c-1.28-.36-1.04-1.801-.24-2.482 1.24-1.041 3.599-.681 4.479.721.4.601.16 1.321-.52 1.681-1.159.56-2.359.52-3.719.08zm7.878 3.202c-1.08.761-2.279.881-3.399.681-.84-.32-.92-.841-.36-1.241 1.08-.761 2.279-.921 3.559-.56.64.199.72.76.2 1.12zm-.08-3.363c-1.04-.08-1.56-1.081-1.12-2.002.6-1.241 2.479-2.282 3.839-2.082.12 0 .24.04.28.04.96.36 1.32 1.281.76 2.042-.88 1.282-2.119 2.082-3.759 2.002zm6.398 2.122c-.4.641-1 1.081-1.64 1.401-.24.12-.56.24-.84.28-.44.08-.6-.12-.4-.6.32-.56.84-1.001 1.44-1.321.32-.16.64-.32 1-.4.16-.04.44 0 .48.12.12.12.04.4-.04.52zm3.12-6.405c-.2 1.081-.88 1.882-1.799 2.402-.32.2-.72.32-1.08.04-.4-.28-.32-.681-.2-1.081l.12-.36c.4-.841.96-1.521 1.799-1.922.32-.16.72-.24.96.04.2.2.279.601.2.881zm-.12-13.611c-.08-.36.08-.48.44-.36.12.08.28.2.4.32.72.681 1.12 1.561 1.36 2.482.04.16-.04.36-.08.52-.16-.04-.4-.04-.48-.16-.801-.761-1.401-1.681-1.64-2.802zm1.799 9.968c-.36.28-.64.2-.84-.24-.2-.48-.16-1.361.08-2.162.2-.28.36-.6.6-.881.32-.32.64-.24.84.16.36.841-.04 2.562-.68 3.123zm-14.516-3.323c.88-.36 1.68-.28 2.399.36.48.44.56.961.36 1.561-.4 1.121-1.919 2.162-3.119 2.122-.76-.04-1.36-.32-1.68-1.001-.32-.641-.04-1.241.36-1.761.44-.6 1-1.041 1.68-1.281zm-8.078 1.121c.64-.681 1.4-.961 2.319-.681.6.2.92.641 1 1.281.12 1.201-.84 2.762-1.959 3.243-.68.28-1.36.28-1.959-.2-.56-.44-.56-1.121-.4-1.761.16-.721.479-1.362.999-1.882zm10.597-12.57c.04-.16.24-.32.36-.36.64-.08 1.28-.08 1.839-.12.48.2.88.36 1.24.56.36.2.32.52-.08.641-.36.12-.76.2-1.08.16-.68-.08-1.32-.28-1.959-.48-.16-.041-.32-.281-.32-.401zm1.68 3.803c1.32.12 1.32 1.601.64 2.402-1.08 1.201-3.479 1.241-4.559 0-.48-.52-.36-1.281.24-1.721 1.08-.761 2.239-.921 3.679-.681zm-8.318-2.402c.92-.961 2.119-1.241 3.239-1.201.88.16 1.04.681.56 1.161-.96.921-2.119 1.281-3.439 1.121-.68-.08-.84-.601-.36-1.081zm.76 4.003c1.04-.12 1.72.801 1.4 1.801-.4 1.321-2.079 2.642-3.479 2.682h-.28c-1-.2-1.48-1.041-1.08-1.882.72-1.44 1.799-2.441 3.439-2.601zm-6.758-.6c.28-.681.8-1.241 1.4-1.681.24-.16.48-.32.76-.4.4-.16.6.04.48.56-.2.6-.68 1.121-1.24 1.561-.28.24-.6.4-.92.56-.12.08-.4.04-.48-.04a.683.683 0 010-.56zm-2.08 6.845c.04-1.121.56-2.002 1.4-2.682.32-.24.68-.44 1.08-.24.4.24.4.641.36 1.081 0 .12-.04.24-.04.36-.24.881-.68 1.641-1.48 2.202-.32.2-.68.36-.96.12-.24-.2-.36-.56-.36-.841z"/><path fill="#FFD900" d="M90.519 152.769l1.65-19.825L96.5 125.5h-17l4.889 7.467 1.274 19.819m63.468-83.789c-2.595 2.289-17.928 15.829-20.375 18.283-2.699 2.707-6.22 6.384-7.886 8.245-.871.972-1.524 1.69-2 2.11-.477.42-.71.488-.784.492-.074 0-.259-.034-.73-.383-.471-.356-1.132-.988-2.019-1.86-7.869-7.745-30.935-21.556-45.959-27.914-3.168-1.341-6.388-2.19-9.442-1.921-3.054.268-5.925 1.76-8.008 4.797-2.673 3.898-5.147 8.922-6.682 13.565-1.082 3.273-1.242 4.493-1.246 9.838-.002 2.579.025 4.156.17 5.411.143 1.256.428 2.184.857 3.241 2.016 4.96 5.389 8.749 10.482 11.473 3.29 1.76 7.375 3.067 12.244 4.076-.927-2.156-1.609-4.443-1.822-6.88-1.094-12.531 8.21-23.62 20.74-24.718a22.881 22.881 0 012.001-.087c11.719 0 21.698 9.15 22.719 20.831.365 4.166-1.909 11.904-1.909 11.904 5.882-1.005 8.716-2.263 13.315-5.946 3.868-3.098 11.666-10.961 15.103-15.212 1.076-1.331 10.251-10.779 13.949-14.524a63.78 63.78 0 00-2.718-14.821z"/><path d="M55.361 80.055a.618.618 0 00-.818.307l-.317.697a.618.618 0 00.307.818l19.554 8.886c.61-.474 1.244-.919 1.9-1.333l-20.626-9.375zM72.278 92.32l-18.64-8.471a.618.618 0 00-.818.307l-.317.697a.618.618 0 00.307.818l17.997 8.179c.468-.532.958-1.042 1.471-1.53zm-20.365-4.678a.618.618 0 00-.818.307l-.317.697a.618.618 0 00.307.818l17.2 7.816c.35-.579.726-1.14 1.124-1.686l-17.496-7.952zm-1.723 3.793a.618.618 0 00-.818.307l-.317.697a.618.618 0 00.307.818l17.083 7.763c.242-.624.508-1.235.8-1.833L50.19 91.435z" fill="#0296C8"/></svg>