<?xml version="1.0" encoding="UTF-8"?>
<svg xmlns="http://www.w3.org/2000/svg" version="1.1" viewBox="0 0 120 90">
  <defs>
    <style>
      .cls-1 {
        fill: none;
      }

      .cls-2 {
        fill: #00596b;
      }

      .cls-3 {
        fill: #293741;
      }

      .cls-4 {
        fill: #26193e;
      }

      .cls-5 {
        fill: #fff3c6;
      }

      .cls-6 {
        fill: #d0ebb9;
      }

      .cls-7 {
        fill: #37afba;
      }

      .cls-8 {
        fill: #c9c6fe;
      }

      .cls-9 {
        fill: #938dfd;
      }
    </style>
  </defs>
  <!-- Generator: Adobe Illustrator 28.7.1, SVG Export Plug-In . SVG Version: 1.2.0 Build 142)  -->
  <g>
    <g id="Layer_1">
      <g>
        <polygon class="cls-9" points="109.4 79.3 112.9 79.3 112.9 47.8 8.3 47.8 8.3 79.3 8.3 79.3 8.3 79.1 26.9 79.1 49.1 79.1 54.1 79.1 54.1 78 54.8 78 54.8 51.9 65.9 51.9 65.9 78 66.5 78 66.5 79.1 101.8 79.1 109.4 79.3"/>
        <rect class="cls-9" x="78.9" y="50.6" width="21" height="3.1"/>
        <rect class="cls-9" x="78.5" y="54.5" width="21.6" height="11.4"/>
        <rect class="cls-9" x="72.7" y="54.5" width="4.9" height="11.4"/>
        <rect class="cls-9" x="20.6" y="50.6" width="21" height="3.1"/>
        <rect class="cls-9" x="43" y="54.5" width="4.9" height="11.4"/>
        <rect class="cls-9" x="20.3" y="54.5" width="21.6" height="11.4"/>
        <path class="cls-4" d="M55.4,52.6h10.5v-.6h-11.1v26.1h.6v-25.5Z"/>
        <path class="cls-5" d="M47.9,50.6h-4.9v3.1h4.9v-3.1Z"/>
        <path class="cls-5" d="M47.9,54.5h-4.9v11.4h4.9v-11.4Z"/>
        <path class="cls-5" d="M41.6,50.6h-21v3.1h21v-3.1Z"/>
        <path class="cls-5" d="M41.9,54.5h-21.6v11.4h21.6v-11.4Z"/>
        <path class="cls-5" d="M19.4,50.6h-4.8v3.1h4.8v-3.1Z"/>
        <path class="cls-5" d="M19.4,54.5h-4.9v11.4h4.9v-11.4Z"/>
        <path class="cls-5" d="M106.1,61.9v-7.4h-4.9v11.4h4.9s0-4,0-4Z"/>
        <path class="cls-5" d="M106.1,50.6h-4.9v3.1h4.9v-3.1Z"/>
        <path class="cls-5" d="M100.1,54.5h-21.6v11.4h21.6v-11.4Z"/>
        <path class="cls-5" d="M99.9,50.6h-21v3.1h21v-3.1Z"/>
        <path class="cls-5" d="M77.6,50.6h-4.8v3.1h4.8v-3.1Z"/>
        <path class="cls-5" d="M77.6,54.5h-4.9v11.4h4.9v-11.4Z"/>
        <path class="cls-4" d="M65.6,78h-11.8v1.1h0c0,0,12.8,0,12.8,0v-.4s0-.7,0-.7h-1Z"/>
        <path class="cls-8" d="M114,47.2h-55.5c0,0,0,0,0,0H6l1.4-30.7h89.1v-4.4l9,.4v8.6l3-4.6h4.1l1.4,30.7Z"/>
        <path class="cls-4" d="M114,47.2v1.4H6v-1.4h52.5c0,0,0,0,0,0h55.5Z"/>
        <path class="cls-8" d="M105.9,11.5v-.8h-9.7v.8h9.7Z"/>
        <path class="cls-4" d="M105.5,11.5v1l-9-.4v-.6h9Z"/>
        <path class="cls-4" d="M108.5,16.5l-3,4.6v-4.6h3Z"/>
        <path class="cls-6" d="M28.2,70c0-.2-.2-.5-.2-.5-.6-.7-1.2.3-1.4.9,0,0,0,.3-.1.3,0,.1-.4,0-.5.1-.4.3-.2,1-.3,1.4-.1,0-.3,0-.4,0-.3.2-.5.8-.5,1.2,0,.6,0,.9,0,1.3-.5,0-1.1.5-1,1.2,0,.2.1.5,0,.7,0,.4,0,.5,0,.8s0,1,.1.9c.1,0,1.1-.6,1.1-.7,0,0,0,0,0,0,0,0,.1,0,.2.1h0c.3-.2.8-.5,1.1-.5.4,0,.8-.1.7-.8-.3-1,1.4-.9,2.5-1.4.4-.4-.4-1.7-.4-1.9s0-.6-.1-1c-.1-.4-.6-.5-.9-.6,0-.2.2-.3.2-.6,0-.6,0-.7-.2-1s-.3-.2-.3-.2Z"/>
        <path class="cls-7" d="M45.4,78.6c-.6-1.4-2.9-1.9-4-.8s-.2,0-.2,0c-.2-.3-.2-1.1-.5-1.5-.6-1.4-2.6-2.6-3.9-1.8-.2,0-.5.3-.6.1-1.1-2-4.3-3.5-5.8-1.3-.3.6-1.3.2-1.8.4-1.2.4-1.8,1.7-1.5,2.9,0,.2,0,.3,0,.4-.2,0-.6,0-1,0-.4,0-.9,0-1.2.3-.6.4-1.3.8-1.3,1.6,0,.1.2.2.5.2h4.2c4.8,0,9.8,0,14.6,0,.8,0,1.9,0,2.5,0s0-.5,0-.5Z"/>
        <path class="cls-2" d="M107.5,76.6c1-1.7-.3-3-2.1-3-.5-.4-.6-1.3-1.3-1.7-1.2-1.1,1.6-3.3-1.8-4.9.4-1.3.6-2.9-.8-3.5-.6-2.6-3.1,0-3.3,1.5-1.2.2-1.5,1.8-1.2,2.7-2.1-.7-2.1,2.6-1.9,3.9.2.4.7.6,0,.6-1.7.4-1.5,2.3-1.1,3.6-.1,1.3.1,3,1.5,3.4.7,0,7.7,0,10,0,1.5,0,.5-.8,1.1-2.1s.6,0,.9-.5Z"/>
        <path class="cls-3" d="M55.4,78.1h0s10.5,0,10.5,0v-25.6h-10.5v25.6Z"/>
      </g>
      <rect class="cls-1" width="120" height="90"/>
    </g>
  </g>
</svg>