<svg width="48" height="48" viewBox="0 0 48 48" fill="none" xmlns="http://www.w3.org/2000/svg">
<path d="M24 48C16.0268 45.3333 4.98275 39.4667 4.875 33.28V3.78667L24 0L43.125 3.78667V33.3333C43.0711 36.64 39.6771 40.3733 33.5356 43.7867C29.9261 45.8133 26.3165 47.2 24 48Z" fill="#004FB6"/>
<path d="M24 40.125C18.6967 38.3333 11.3508 34.3917 11.2792 30.235V10.4192L24 7.875L36.7208 10.4192V30.2708C36.685 32.4925 34.4275 35.0008 30.3425 37.2942C27.9417 38.6558 25.5408 39.5875 24 40.125Z" fill="white"/>
<path d="M31.875 19.1329L29.7273 17.25L21.6375 26.7L17.9864 23.5026L16.125 25.6697L20.5994 29.6132V29.5776L21.9597 30.75L31.875 19.1329Z" fill="#004FB6"/>
</svg>
