<svg width="150" height="150" xmlns="http://www.w3.org/2000/svg"><g fill="none"><circle fill="#F1F1F1" cx="75.423" cy="74.577" r="74.576"/><path d="M75.422 149.153c41.189 0 74.578-33.388 74.578-74.576C150 33.387 116.611 0 75.422 0v149.153z" fill="#D7D7D7"/><g transform="translate(21.186 20.339)"><circle fill="#0296C8" cx="54.266" cy="54.267" r="54.237"/><path d="M54.266 108.504c29.954 0 54.238-24.281 54.238-54.236S84.22.03 54.266.03v108.473z" fill="#106CB2"/></g><path d="M24.607 93.526c7.03-.049 22.06-.154 22.067-.153 3.199.91 27.445 6.399 27.445 6.399 4.977 1.25 9.996 1.398 14.728-1.206 10.024-5.52 20.059-9.545 30.074-15.08.5-.276.952-.73 1.285-1.2 1.13-1.605.278-3.883-1.662-4.134-1.055-.138-2.246.093-3.264.462l-18.615 8.283s-2.63 1.395-6.334 1.96c-3.798.046-7.596.171-11.394.263-2.575.062-5.151.127-7.729.175-1.47 0-1.47-.714-1.513-1.474-.043-.76.477-1.021 1.138-1.086.264-.027.526-.044.79-.052 3.204-.081 6.406-.161 9.61-.24 3.368-.085 6.74-.108 10.104-.273 2.352-.115 3.952-1 3.99-3.253.042-2.42-1.835-3.384-4.386-3.336h-69.5c0-.001.484 7.054 3.166 13.945z" fill="#FFD900"/><path fill="#106CB2" d="M73.587 36.396h3.881v10.066h-3.88z"/><path fill="#0296C8" d="M102.857 66.504l9.963-1.434.553 3.841-9.963 1.435z"/><path fill="#106CB2" d="M37.805 68.911l.553-3.841 9.963 1.434-.553 3.841z"/><path fill="#0296C8" d="M94.1 52.697l7.117-7.117 2.743 2.744-7.117 7.117z"/><path fill="#106CB2" d="M50.586 44.745l-1.672 1.672-1.076 1.076 7.129 7.129 1.452-1.453 1.296-1.295z"/><path d="M58.255 73.456c0-9.51 7.71-17.22 17.22-17.22 9.51 0 17.22 7.71 17.22 17.22h-34.44z" fill="#FFD900"/><path d="M36.256 77.444l4.246 18.648H25.675s-3.578-6.94-4.46-18.648h15.04z" fill="#106CB2"/></g></svg>