<svg width="150" height="150" xmlns="http://www.w3.org/2000/svg"><g fill="none"><path d="M116.793 2.894S109.055.01 99.026.01c0 0-12.765-.608-24.024 8.2C63.742-.6 50.975.01 50.975.01 40.945.01 33.21 2.894 33.21 2.894 13.237 9.983 0 28.647 0 51.034c0 13.56 3.407 26.88 16.824 41.718l58.141 57.217.037.031.033-.03 58.145-57.218C146.593 77.915 150 64.594 150 51.035c0-22.388-13.237-41.052-33.207-48.14z" fill="#D7D7D7"/><path d="M75.002 8.21C63.742-.6 50.975.01 50.975.01 40.945.01 33.21 2.893 33.21 2.893 13.237 9.983 0 28.647 0 51.034c0 13.56 3.407 26.88 16.824 41.718L75.002 150V8.21z" fill="#F1F1F1"/><path d="M122.316 28.736c-7.13-6.9-14.75-10.59-27.16-10.59-13.497.209-19.55 7.594-20.12 8.146-.57-.553-6.625-7.937-20.12-8.145-12.412 0-20.032 3.69-27.162 10.59-15.038 14.55-12.416 40.716 1.193 53.882l46.09 44.596 46.086-44.596c13.61-13.166 16.23-39.331 1.193-53.883z" fill="#0296C8"/><path d="M75.036 127.215l46.086-44.596c13.611-13.166 16.231-39.331 1.193-53.883-7.13-6.9-14.75-10.59-27.16-10.59-13.497.209-19.55 7.594-20.12 8.146v100.923z" fill="#106CB2"/><g transform="translate(46.875 38.352)"><circle fill="#FFD900" cx="27.912" cy="27.47" r="27.273"/><path fill="#106CB2" d="M42.903 21.676h-8.978v-8.978H22.12v8.978h-8.98v11.806h8.98v8.977h11.805v-8.977h8.978z"/></g></g></svg>