<svg xmlns="http://www.w3.org/2000/svg" viewBox="0 0 176 176"><circle fill="#D7D7D7" cx="88" cy="88" r="88"/><path fill="#F1F1F1" d="M88 176c-48.601 0-88-39.399-88-88S39.399 0 88 0v176z"/><circle fill="#106CB2" cx="87.999" cy="88" r="64"/><path fill="#0296C8" d="M87.999 24C52.653 24 24 52.653 24 88s28.653 64 63.999 64V24z"/><path fill="#FFD900" d="M126.047 105.212v-4.855c0-3.314-.562-6.331-2.098-8.623a8.19 8.19 0 001.361-4.534c0-4.49-3.591-8.142-8.006-8.142-.437 0-.864.046-1.283.115l-.667-8.035-1.022-10.889c-.343-4.081-3.807-7.305-8.013-7.305H70.711c-4.23 0-7.696 3.224-8.015 7.305l-1.019 10.889-.89 8.268a7.875 7.875 0 00-1.514-.15c-4.414 0-8.006 3.653-8.006 8.142a8.19 8.19 0 001.031 3.983c-1.727 2.329-2.347 5.488-2.347 8.976v4.856a2.874 2.874 0 00-1.953 2.725v1.413c0 1.589 1.271 2.882 2.834 2.882H54.1v5.359c0 3.017 2.406 5.464 5.374 5.464 2.967 0 5.373-2.447 5.373-5.464v-5.359h46.304v5.359c0 3.017 2.404 5.464 5.372 5.464s5.373-2.447 5.373-5.464v-5.359h3.268c1.562 0 2.834-1.294 2.834-2.882v-1.413a2.867 2.867 0 00-1.951-2.726z"/><circle fill="#0296C8" cx="59" cy="87" r="5"/><path fill="#106CB2" d="M103.999 99.479c0 2.211-1.863 4.021-4.14 4.021H76.14c-2.277 0-4.14-1.809-4.14-4.021V75.47c0-2.211 1.799-4.492 3.998-5.067l3.272-.856c2.199-.576 5.861-1.047 8.138-1.047h1.185c2.277 0 5.939.471 8.138 1.046l3.272.857c2.199.575 3.998 2.856 3.998 5.067l-.002 24.009z"/><circle fill="#0296C8" cx="117.5" cy="87" r="5"/><path fill="#FFD900" d="M85.5 73.879v24.242a.88.88 0 01-.879.879h-.242a.88.88 0 01-.879-.879V73.879a.88.88 0 01.879-.879h.242c.485 0 .879.393.879.879zm-3.5 0v24.242a.88.88 0 01-.879.879h-.242a.88.88 0 01-.879-.879V73.879c0-.486.394-.879.879-.879h.242c.485 0 .879.393.879.879zm7 0v24.242a.88.88 0 01-.879.879h-.242a.88.88 0 01-.879-.879V73.879c0-.486.394-.879.879-.879h.242c.485 0 .879.393.879.879zm-10.5 0v24.242a.88.88 0 01-.879.879h-.242a.88.88 0 01-.879-.879V73.879a.88.88 0 01.879-.879h.242c.485 0 .879.393.879.879zm14 0v24.242a.88.88 0 01-.879.879h-.242a.88.88 0 01-.879-.879V73.879a.88.88 0 01.879-.879h.242c.485 0 .879.393.879.879zm7 0v24.242a.88.88 0 01-.879.879h-.242a.88.88 0 01-.879-.879V73.879a.88.88 0 01.879-.879h.242c.485 0 .879.393.879.879zm-3.5 0v24.242a.88.88 0 01-.879.879h-.242a.88.88 0 01-.879-.879V73.879c0-.486.394-.879.879-.879h.242c.485 0 .879.393.879.879z"/><path fill="#0296C8" d="M108.699 70c-1.085 0-2.815-.28-3.845-.621l-9.915-3.287c-1.03-.342-2.761-.621-3.844-.621h-2.072v-.778c.6-.348 1.023-.961 1.023-1.693 0-1.105-.916-2-2.045-2s-2.045.895-2.045 2c0 .732.422 1.345 1.023 1.693v.777h-3.254c-1.084 0-2.814.28-3.844.621l-9.918 3.287c-1.032.342-2.494.622-3.25.622-.756 0-1.297-.896-1.202-1.992l.781-8.077C66.481 57.715 68.255 56 70.42 56h35.153c2.166 0 3.94 1.717 4.115 3.061l.804 8.947c.098 1.096-.709 1.992-1.793 1.992z"/></svg>