<svg width="150" height="150" xmlns="http://www.w3.org/2000/svg"><g fill="none"><path d="M138.136 12.655L75.068 0 12 12.655v82.298C12.573 133.765 75.068 150 75.068 150s62.496-16.235 63.068-55.047V12.655z" fill="#D7D7D7"/><path d="M75.068 0L12 12.655v82.298C12.573 133.765 75.068 150 75.068 150V0z" fill="#F1F1F1"/><path d="M75.015 134.005c-15.582-4.962-47.277-19.136-47.674-39.182v-69.6l47.727-9.577 47.727 9.576v69.6c-.141 7.063-4.436 17.772-23.982 28.867-9.276 5.267-18.716 8.677-23.798 10.316z" fill="#106CB2"/><path d="M75.015 134.005c-15.582-4.962-47.277-19.136-47.674-39.182v-69.6l47.727-9.577" fill="#0296C8"/><path fill="#0296C8" d="M75.05 46.472l28.035-.033.005 4.665H75.055zm0 17.648l28.033-.034.006 4.632-28.034.034zm0-8.724l27.99-.034.004 4.665-27.99.001z"/><path fill="#106CB2" d="M47.01 46.472l28.036-.033.004 4.665H47.016zm0 17.648l28.034-.034.006 4.632-28.034.034zm0-8.724L75 55.362l.005 4.665-27.99.001z"/></g></svg>