<svg xmlns="http://www.w3.org/2000/svg" width="75" height="75"><g fill="none" fill-rule="evenodd"><path d="M0 0h76v75H0z"/><g fill-rule="nonzero"><path fill="#F1F1F1" d="M37.444 74.893c20.68 0 37.444-16.764 37.444-37.444 0-20.68-16.764-37.444-37.444-37.444C16.764.005 0 16.769 0 37.449c0 20.68 16.764 37.444 37.444 37.444"/><path fill="#D7D8D8" d="M37.444 74.893c20.68 0 37.444-16.764 37.444-37.444 0-20.68-16.764-37.444-37.444-37.444v74.888z"/><path fill="#146DB3" d="M10.21 37.506c0 15.04 12.194 27.233 27.234 27.233 15.04 0 27.234-12.193 27.234-27.233 0-15.04-12.193-27.234-27.234-27.234-15.04 0-27.233 12.193-27.233 27.234"/><path fill="#0296C9" d="M37.444 10.272c-15.04 0-27.233 12.193-27.233 27.234 0 15.04 12.193 27.233 27.233 27.233V10.272z"/></g><g fill="#FFD902" fill-rule="nonzero"><path d="M28.076 25.167l-.164-1.042.314-.05.136.87c.94.126 1.857.38 2.727.758a9.04 9.04 0 013.863 3.184s-.271-.9-.585-2.52c-.593-2.928-2.142-7.819-6.091-6.998a8.811 8.811 0 00-7.14 7.462c-.443 3.57 2.941 7.554 2.941 7.554-.485-4.626 3.028-8.297 3.992-9.218"/><path d="M36.644 36.699c-.12.415-.216.837-.285 1.264-.157.857-.607 2.092-1.314 1.328-.707-.764.314-4.42.221-6.87-.092-2.448-1.592-2.905-2.634-3.798a29.433 29.433 0 00-4.035-2.378c0 .35-1.17 1.8-2.142 4.063-.971 2.264-1.428 3.5-.714 5.456.714 1.956 2.806 2.999 3.292 3.448.485.45 2.092 1.229 1.813 1.486-1.27 1.256-3.413-.907-3.413-.907s1.8 4.17 2.857 6.547c1.056 2.378 2.32 2.571 3.084 2.564.764-.007 4.099-.921 5.413-2.435 1.313-1.514.635-3.177 0-4.998-.636-1.821-2.143-4.777-2.143-4.777m11.654-3.735v-1.064h-.315v.886c-.884.313-1.72.748-2.484 1.292a9.218 9.218 0 00-3.135 3.906s.1-.935.107-2.606c.036-3.006.635-8.133 4.584-8.112a8.504 8.504 0 018.226 5.934c1.085 3.463-1.428 8.04-1.428 8.04-.379-4.663-4.42-7.583-5.513-8.297"/><path d="M42.157 46.046c.193.384.363.78.507 1.185.307.814.964 1.942 1.506 1.05.543-.893-1.106-4.285-1.428-6.734-.321-2.449 1.007-3.184 1.843-4.284a29.433 29.433 0 013.448-3.149c.072.343 1.428 1.542 2.8 3.57 1.37 2.028 2.006 3.164 1.67 5.249-.335 2.085-2.142 3.513-2.542 4.055-.4.543-1.785 1.628-1.47 1.828 1.427.986 3.113-1.57 3.113-1.57s-.972 4.47-1.571 7.033c-.6 2.563-1.764 2.999-2.5 3.141-.735.143-4.105-.092-5.648-1.328-1.542-1.235-1.185-3.013-.87-4.927.314-1.913 1.185-5.134 1.185-5.134"/></g></g></svg>