<svg width="50" height="51" viewBox="0 0 50 51" fill="none" xmlns="http://www.w3.org/2000/svg">
<path fill-rule="evenodd" clip-rule="evenodd" d="M45.8822 25.2795C47.7807 24.6825 49.6247 24.954 49.9502 25.9845C50.2757 26.9605 48.9742 28.2625 46.9672 28.9135C46.6957 29.022 46.4787 29.0765 46.2077 29.1305C47.7802 32.4389 48.9737 35.7474 48.9737 38.2424V48.6024C48.9737 49.3614 48.3227 50.0124 47.5092 50.0124H42.7362C41.9227 50.0124 41.2717 49.4159 41.2717 48.6024V45.4189H8.45683V48.6024C8.45683 49.3614 7.80583 50.0124 6.99233 50.0124H2.21934C1.40585 50.0124 0.754848 49.4159 0.754848 48.6024V38.2424C0.754848 35.7474 1.94834 32.3304 3.57534 29.022C3.41284 28.968 3.19584 28.9135 2.97884 28.8595C1.02635 28.263 -0.27565 26.961 0.0498487 25.9305C0.375348 24.9 2.16534 24.629 4.11784 25.2255C4.55184 25.334 4.93184 25.4965 5.31133 25.7135L6.12483 24.3035C8.51132 20.2895 10.9518 17.1435 11.7113 16.764C12.3214 16.4996 13.2215 16.2809 14.4857 16.108C13.2215 16.2809 12.3215 16.4996 11.7114 16.764C11.6815 16.7789 11.649 16.7981 11.614 16.8215C11.8531 17.5627 12.1521 18.2769 12.5052 18.9586C11.6046 19.9232 9.53704 22.683 7.42683 26.376H24.4038H25.7598H42.7367C40.5418 22.5348 38.3926 19.6571 37.5556 18.8401C37.8646 18.2294 38.1304 17.5931 38.3488 16.9352C39.3526 17.711 41.5547 20.675 43.7122 24.3035L44.5802 25.822C44.9602 25.605 45.3942 25.442 45.8822 25.2795ZM18.75 39.0625H31.25V42.1875H18.75V39.0625ZM6.72176 32.1247C6.07076 32.1247 5.52826 32.7212 5.52826 33.3722V34.5657C5.52826 35.2707 6.07076 35.8677 6.72176 35.9757L14.5322 37.0062C15.1832 37.1147 15.5087 36.6267 15.1832 36.0842C13.1762 32.6672 8.83675 32.1792 6.72176 32.1247ZM34.9257 36.0302C36.9327 32.7212 41.2717 32.1787 43.3872 32.1247C44.0382 32.0707 44.5807 32.6672 44.5807 33.3182V34.5117C44.5807 35.2167 44.0382 35.8132 43.3872 35.9217L35.5767 36.9522C34.9257 37.0607 34.6002 36.6267 34.9257 36.0302Z" fill="#004FB6"/>
<path fill-rule="evenodd" clip-rule="evenodd" d="M37.5 12.5C37.5 19.4036 31.9036 25 25 25C18.0964 25 12.5 19.4036 12.5 12.5C12.5 5.59644 18.0964 0 25 0C31.9036 0 37.5 5.59644 37.5 12.5ZM20.3125 13.4375L27.6042 3.125L25.5208 11.5625H29.6875L22.3958 21.875L24.4792 13.4375H20.3125Z" fill="#004FB6"/>
</svg>
