<svg width="150" height="150" xmlns="http://www.w3.org/2000/svg"><g fill="none"><g transform="translate(.818)"><circle fill="#F1F1F1" cx="75" cy="75" r="75"/><path d="M75 0c41.421 0 75 33.579 75 75s-33.579 75-75 75V0z" fill="#D7D7D7"/></g><path d="M50.117 82.756c.322 0 .638.021.956.033 9.29.343 17.147 5.658 23.442 14.145.426-.785.86-1.555 1.304-2.303V20.455c-30.124 0-54.545 24.42-54.545 54.545a54.33 54.33 0 004.92 22.636c6.101-9.2 13.955-14.88 23.923-14.88z" fill="#0296C8"/><path d="M101.836 76.781c.34 0 .673.024 1.009.037 8.523.332 16.916 7.822 23.86 17.823A54.4 54.4 0 00130.364 75c0-30.124-24.421-54.545-54.546-54.545V94.63c6.54-11 15.072-17.85 26.018-17.85z" fill="#106CB2"/><g transform="translate(25.534 40.057)"><path d="M29.85 85.517c2.86-5.548 6.842-9.961 12.22-12.131 1.976-6.073 4.269-11.643 6.911-16.509-6.295-8.486-14.151-13.802-23.442-14.145-.319-.012-.634-.033-.956-.033-9.968 0-17.822 5.68-23.923 14.88a54.725 54.725 0 0029.19 27.938z" fill="#106CB2"/><path d="M77.31 36.761c-.336-.013-.67-.037-1.009-.037-10.945 0-19.477 6.851-26.018 17.85a68.56 68.56 0 00-1.304 2.303c-2.642 4.866-4.934 10.435-6.91 16.509 2.346-.947 4.957-1.472 7.859-1.472.12 0 .237.004.355.008l.237.006a22.06 22.06 0 017.36 1.431c5.618 2.144 10.032 6.525 13.118 12.046a54.708 54.708 0 0030.171-30.821c-6.943-10-15.336-17.49-23.86-17.823z" fill="#0296C8"/><path d="M57.881 73.36a22.023 22.023 0 00-7.596-1.437c-.118-.003-.235-.008-.355-.008-2.902 0-5.513.524-7.86 1.472-5.378 2.17-9.36 6.583-12.22 12.13a54.109 54.109 0 008.224 2.583 54.735 54.735 0 0012.21 1.389c4.22 0 8.323-.496 12.267-1.402a54.184 54.184 0 008.448-2.68c-3.086-5.523-7.5-9.903-13.118-12.047z" fill="#FFD900"/><ellipse fill="#106CB2" cx="26.525" cy="24.353" rx="14.102" ry="14.651"/><ellipse fill="#0296C8" cx="75.828" cy="16.388" rx="15.514" ry="16.117"/><ellipse fill="#FFD900" cx="50.521" cy="54.197" rx="12.999" ry="13.504"/></g></g></svg>