<svg width="150" height="150" xmlns="http://www.w3.org/2000/svg"><g fill="none" fill-rule="evenodd"><g fill-rule="nonzero" transform="translate(7)"><path d="M125.238 47.727c-2-11.252-7.29-21.669-15.38-30.039C99.415 6.888 85.414.626 70.421.053a48.468 48.468 0 00-4.488 0c-14.99.575-28.988 6.835-39.427 17.635-8.092 8.37-13.37 18.788-15.371 30.04H0V150h136.364V47.727h-11.126z" fill="#F1F1F1"/><path d="M125.238 47.727c-2-11.252-7.29-21.669-15.38-30.039C99.415 6.888 85.414.626 70.421.053A48.468 48.468 0 0068.182 0v150h68.182V47.727h-11.126z" fill="#D7D7D7"/><path d="M105.682 68.182V57.955c0-20.245-16.045-36.733-36.111-37.466-.459-.02-.92-.034-1.39-.034-.467 0-.929.013-1.388.034-20.066.733-36.111 17.22-36.111 37.466v10.227H20.455v11.932c0 .941.762 1.704 1.704 1.704h11.785c1.78 0 3.371 1.302 3.54 3.074a3.41 3.41 0 01-3.393 3.744H22.159c-.942 0-1.704.763-1.704 1.705v3.409c0 .942.762 1.705 1.704 1.705h11.785c1.78 0 3.371 1.301 3.54 3.074a3.41 3.41 0 01-3.393 3.744H22.159c-.942 0-1.704.763-1.704 1.704v3.41c0 .941.762 1.704 1.704 1.704h11.785c1.78 0 3.371 1.301 3.54 3.074a3.41 3.41 0 01-3.393 3.744H22.159c-.942 0-1.704.763-1.704 1.705v11.931h95.454V68.182h-10.227zm-13.637 0H44.318V57.955c0-13.18 10.684-23.864 23.864-23.864 13.18 0 23.863 10.684 23.863 23.864v10.227z" fill="#106CB2"/><path d="M68.182 68.182H44.318V57.955c0-13.18 10.684-23.864 23.864-23.864V20.455c-.468 0-.93.013-1.389.034-20.066.733-36.111 17.22-36.111 37.466v10.227H20.455v11.932c0 .941.762 1.704 1.704 1.704h11.785c1.78 0 3.371 1.302 3.54 3.074a3.41 3.41 0 01-3.393 3.744H22.159c-.942 0-1.704.763-1.704 1.705v3.409c0 .942.762 1.705 1.704 1.705h11.785c1.78 0 3.371 1.301 3.54 3.074a3.41 3.41 0 01-3.393 3.744H22.159c-.942 0-1.704.763-1.704 1.704v3.41c0 .941.762 1.704 1.704 1.704h11.785c1.78 0 3.371 1.301 3.54 3.074a3.41 3.41 0 01-3.393 3.744H22.159c-.942 0-1.704.763-1.704 1.705v11.931h47.889" fill="#0296C8"/><circle fill="#FFD900" cx="68" cy="99" r="21"/></g><path d="M73.175 114h3.404v-3.65c3.614-.771 5.474-3.368 5.474-6.736 0-6.702-9.264-6.421-9.264-9.754 0-1.58.913-2.246 2.597-2.246 1.474 0 2.561.597 3.825 1.754l2.596-2.947c-1.368-1.439-2.982-2.561-5.228-2.877V84h-3.404v3.614c-3.298.667-5.333 3.053-5.333 6.491 0 6.316 9.263 6.246 9.263 9.86 0 1.614-.877 2.421-2.842 2.421-1.684 0-3.228-.702-5.017-2.035L67 107.825c1.65 1.508 4.105 2.42 6.175 2.666V114z" fill="#106CB2"/></g></svg>