<svg xmlns="http://www.w3.org/2000/svg" viewBox="0 0 176 176"><circle fill="#D7D7D7" cx="88" cy="88" r="88"/><path fill="#F1F1F1" d="M88 176c-48.601 0-88-39.399-88-88S39.399 0 88 0v176z"/><circle fill="#106CB2" cx="87.999" cy="88" r="64"/><path fill="#0296C8" d="M87.999 24C52.653 24 24 52.653 24 88s28.653 64 63.999 64V24z"/><path fill="#FFD900" d="M112.312 128a7.574 7.574 0 01-6.287-11.787c4.104-6.133 6.827-21.823 6.827-29.51 0-12.989-11.149-23.555-24.853-23.555-13.703 0-24.852 10.567-24.852 23.555 0 6.963 3.561 22.954 7.951 29.509a7.575 7.575 0 01-12.589 8.426C52.095 115.054 48 95.769 48 86.703 48 65.362 65.944 48 87.999 48S128 65.362 128 86.703c0 7.491-2.363 27.442-9.386 37.935a7.568 7.568 0 01-6.302 3.362z"/><circle fill="#106CB2" cx="88" cy="55.5" r="3"/><circle fill="#106CB2" cx="68" cy="62" r="3"/><circle fill="#106CB2" cx="56.5" cy="78" r="3"/><circle fill="#106CB2" cx="56" cy="98" r="3"/><circle fill="#106CB2" cx="108" cy="62" r="3"/><circle fill="#106CB2" cx="119" cy="78" r="3"/><circle fill="#106CB2" cx="120" cy="98" r="3"/></svg>