<svg xmlns="http://www.w3.org/2000/svg" viewBox="0 0 176 176"><path fill="#D7D7D7" d="M160 176H16V0h102l42 42z"/><path fill="#F1F1F1" d="M16 0h72v176H16z"/><path fill="#106CB2" d="M104 57V24H39v128h98V57z"/><path fill="#0296C8" d="M39 24h49v128H39z"/><path fill="#106CB2" d="M137 53h-29V24z"/><g fill="#FFD900"><circle transform="rotate(-89.719 100.57 112.482)" cx="100.571" cy="112.483" r="6.106"/><circle transform="rotate(-89.719 79.022 103.503)" cx="79.021" cy="103.504" r="7.902"/><path d="M98.775 143.731c.037-16.325-8.779-28.692-19.689-28.734-10.91-.042-19.783 12.376-19.82 28.701l39.509.033zm17.959 0c.029-12.249-7.003-21.518-15.689-21.55a12.055 12.055 0 00-4.065.695c3.64 5.232 5.416 12.54 5.397 20.855h14.357zM116.571 78H59.429c-.79 0-1.429-.671-1.429-1.5s.639-1.5 1.429-1.5h57.143c.789 0 1.429.671 1.429 1.5s-.64 1.5-1.43 1.5zm0 8H59.429c-.79 0-1.429-.671-1.429-1.5s.639-1.5 1.429-1.5h57.143c.789 0 1.429.671 1.429 1.5s-.64 1.5-1.43 1.5zm0-16H59.429c-.79 0-1.429-.671-1.429-1.5s.639-1.5 1.429-1.5h57.143c.789 0 1.429.671 1.429 1.5s-.64 1.5-1.43 1.5z"/></g></svg>