<svg xmlns="http://www.w3.org/2000/svg" viewBox="0 0 176 176"><path fill="#D7D7D7" d="M137.037 3.396S127.958.011 116.191.011c0 0-14.978-.714-28.189 9.622C74.791-.704 59.811.011 59.811.011c-11.769 0-20.846 3.385-20.846 3.385C15.531 11.713 0 33.613 0 59.881 0 75.79 3.998 91.42 19.74 108.829L88 175.964l.002.036.039-.036 68.223-67.135C172.002 91.42 176 75.79 176 59.881c0-26.268-15.531-48.168-38.963-56.485z"/><path fill="#F1F1F1" d="M88.002 9.633C74.791-.704 59.811.011 59.811.011c-11.769 0-20.846 3.385-20.846 3.385C15.531 11.713 0 33.613 0 59.881 0 75.79 3.998 91.42 19.74 108.829L88.002 176l.039-.036-.039-166.331z"/><path fill="#0296C8" d="M143.475 33.717c-8.366-8.096-17.306-12.425-31.867-12.425-15.837.244-22.94 8.91-23.607 9.557-.669-.648-7.774-9.313-23.609-9.557-14.563 0-23.503 4.329-31.869 12.425-17.644 17.074-14.567 47.774 1.399 63.223l54.079 52.326 54.075-52.326c15.97-15.449 19.044-46.149 1.399-63.223z"/><path fill="#106CB2" d="M88.001 149.266l54.075-52.326c15.97-15.449 19.044-46.149 1.399-63.223-8.366-8.096-17.306-12.425-31.867-12.425-15.837.244-22.94 8.91-23.607 9.557v118.417z"/><path fill="#FFD900" d="M124.547 79.482a5.403 5.403 0 00-4.921 3.188h-12.677c-.913 0-1.725.581-2.019 1.446l-4.529 13.31-9.502-44.327a2.132 2.132 0 00-2.013-1.684c-.993-.017-1.853.605-2.121 1.546l-9.997 35.015-8.162-15.979a2.131 2.131 0 00-1.899-1.162h-.033a2.133 2.133 0 00-1.895 1.222l-5.01 10.616H52.21a2.133 2.133 0 000 4.264h8.911c.825 0 1.576-.476 1.928-1.222l3.734-7.912 8.651 16.935a2.133 2.133 0 003.949-.385l9.139-32.008 9.33 43.522a2.131 2.131 0 004.103.24l6.523-19.17h11.07a5.403 5.403 0 005.002 3.363 5.408 5.408 0 005.408-5.408 5.413 5.413 0 00-5.411-5.41z"/></svg>