<svg xmlns="http://www.w3.org/2000/svg" width="16" height="10"><path fill="#004FB6" fill-rule="evenodd" d="M15.5 8a.49.49 0 01.36.14.49.49 0 01.14.36v1a.487.487 0 01-.14.36.487.487 0 01-.36.14h-11a.487.487 0 01-.36-.14A.487.487 0 014 9.5v-1a.49.49 0 01.14-.36A.487.487 0 014.5 8h11zm0-4a.49.49 0 01.36.14.49.49 0 01.14.36v1a.487.487 0 01-.14.36.487.487 0 01-.36.14h-11a.487.487 0 01-.36-.14A.487.487 0 014 5.5v-1a.49.49 0 01.14-.36A.487.487 0 014.5 4h11zM4 .5a.49.49 0 01.14-.36A.487.487 0 014.5 0h11a.49.49 0 01.36.14.49.49 0 01.14.36v1a.487.487 0 01-.14.36.487.487 0 01-.36.14h-11a.487.487 0 01-.36-.14A.487.487 0 014 1.5v-1zm-4 0C0 .354.008.234.023.14.04.048.06 0 .083 0h1.834c.024 0 .044.047.06.14C1.992.235 2 .355 2 .5v1c0 .146-.008.266-.023.36-.016.093-.036.14-.06.14H.083C.06 2 .04 1.953.023 1.86A2.256 2.256 0 010 1.5v-1zm0 4c0-.146.008-.266.023-.36C.04 4.048.06 4 .083 4h1.834c.024 0 .044.047.06.14.015.094.023.214.023.36v1c0 .146-.008.266-.023.36-.016.093-.036.14-.06.14H.083C.06 6 .04 5.953.023 5.86A2.256 2.256 0 010 5.5v-1zm0 4c0-.146.008-.266.023-.36C.04 8.048.06 8 .083 8h1.834c.024 0 .044.047.06.14.015.094.023.214.023.36v1c0 .146-.008.266-.023.36-.016.093-.036.14-.06.14H.083c-.024 0-.044-.047-.06-.14A2.256 2.256 0 010 9.5v-1z"/></svg>