<svg width="150" height="150" xmlns="http://www.w3.org/2000/svg"><g fill="none"><path d="M138.136 12.655L75.068 0 12 12.655v82.298C12.573 133.765 75.068 150 75.068 150s62.496-16.235 63.068-55.047V12.655z" fill="#D7D7D7"/><path d="M75.068 0L12 12.655v82.298C12.573 133.765 75.068 150 75.068 150V0z" fill="#F1F1F1"/><path d="M75.068 15.647l-47.727 9.576v69.6c.166 8.383 5.812 15.733 13.456 21.817 7.13-14.546 15.992-26.943 34.271-27.03 3.454-.017 20.975-1.472 34.946 26.52 10.093-8.271 12.672-15.87 12.781-21.306V25.223l-47.727-9.576z" fill="#106CB2"/><path fill="#FFD900" d="M40.797 116.64l.001.001z"/><path d="M75.035 89.61l.033-73.963-47.727 9.576v69.6c.166 8.383 5.812 15.733 13.456 21.817 7.125-14.538 15.982-26.928 34.238-27.03z" fill="#0296C8"/><path fill="#FFD900" d="M40.797 116.64l.001.001z"/><g transform="translate(40.125 40.057)" fill="#FFD900"><path d="M34.943 49.552C16.664 49.639 7.802 62.037.672 76.584 11.309 85.05 25.824 91.062 34.89 93.949c5.082-1.64 14.523-5.05 23.798-10.315 4.5-2.555 8.182-5.088 11.2-7.562-13.97-27.992-31.49-26.537-34.945-26.52z"/><circle cx="35.173" cy="20.023" r="19.526"/></g></g></svg>