<svg xmlns="http://www.w3.org/2000/svg" viewBox="0 0 192 176"><path fill="#F1F1F1" d="M192 6H0v158h36v6h32.999v-6h53v6h33v-6h37V6z"/><path fill="#D7D7D7" d="M192 6H96v158h26v6h33v-6h37V6z"/><path fill="#0296C8" d="M19 24h154v120H19z"/><path fill="#106CB2" d="M96 24h77v120H96z"/><path fill="#F1F1F1" d="M19.602 71.029h-.523a2.884 2.884 0 01-2.875-2.875V57.437a2.884 2.884 0 012.875-2.875h.523a2.884 2.884 0 012.875 2.875v10.717a2.883 2.883 0 01-2.875 2.875zm0 52.69h-.523a2.884 2.884 0 01-2.875-2.875v-10.717a2.884 2.884 0 012.875-2.875h.523a2.884 2.884 0 012.875 2.875v10.717a2.884 2.884 0 01-2.875 2.875z"/><g fill="#FFD900"><path d="M158.117 86h-9.298a16.653 16.653 0 00-3.027-7.557l6.406-6.51c.917-.917.917-2.531 0-3.448l-.303-.359c-.917-.917-2.349-.945-3.266-.028l-6.581 6.601A16.648 16.648 0 00135 71.746v-9.304c0-1.297-1.2-2.441-2.497-2.441h-.429c-1.297 0-2.074 1.143-2.074 2.441v9.218a16.656 16.656 0 00-7.425 2.9l-6.556-6.489c-.917-.917-2.49-.917-3.407 0l-.339.303c-.917.917-.935 2.643-.018 3.56l6.393 6.505a16.664 16.664 0 00-3.032 7.562h-9.012c-1.297 0-2.605.612-2.605 1.91v.429c0 1.297 1.308 2.662 2.605 2.662h9.083a16.658 16.658 0 003.006 7.158l-6.559 6.487a2.275 2.275 0 000 3.26l.303.265c.917.917 2.561.898 3.478-.019l6.414-6.358a16.65 16.65 0 007.669 3.082v9.077c0 1.297.777 2.047 2.074 2.047h.429c1.297 0 2.497-.75 2.497-2.047v-9.163a16.668 16.668 0 007.288-3.133l6.443 6.476a2.324 2.324 0 003.301 0l.286-.303c.917-.917.909-2.267-.009-3.184l-6.566-6.49a16.654 16.654 0 003.004-7.155h9.369c1.297 0 1.883-1.364 1.883-2.662v-.43c.003-1.298-.583-1.91-1.88-1.91zm-25.784 16.075c-7.677 0-13.923-6.246-13.923-13.923s6.246-13.923 13.923-13.923 13.923 6.246 13.923 13.923-6.246 13.923-13.923 13.923z"/><circle cx="132.333" cy="88.152" r="6.923"/></g></svg>