<svg width="176" height="176" xmlns="http://www.w3.org/2000/svg"><g fill="none" fill-rule="evenodd"><path d="M176 88c0 48.6-39.4 88-88 88-48.601 0-88-39.4-88-88C0 39.399 39.399 0 88 0c48.6 0 88 39.399 88 88" fill="#D7D7D7"/><path d="M88 176c-48.601 0-88-39.399-88-88S39.399 0 88 0v176z" fill="#F1F1F1"/><path d="M24 88c0 35.347 28.653 64 63.999 64C123.345 152 152 123.347 152 88s-28.655-64-64.001-64C52.653 24 24 52.653 24 88" fill="#106CB2"/><path d="M87.999 24C52.653 24 24 52.653 24 88s28.653 64 63.999 64V24z" fill="#0296C8"/><path d="M116.843 80.95L99.832 64.885A14.253 14.253 0 0089.969 61l-23.43.127a7.676 7.676 0 00-6.22 3.232L50.478 78.25s-7.052 1.8-9.223 3.06c-2.17 1.261-3.074 3.421-3.074 3.421L38 99.852s.905 3.24 1.989 4.32c1.085 1.08 3.255 2.52 3.255 2.52h7.98c1.673 4.81 6.222 8.308 11.596 8.308h.36c5.375 0 9.924-3.499 11.597-8.309h30.613c1.673 4.81 6.222 8.31 11.597 8.31h.36c5.375 0 9.925-3.5 11.597-8.31h.195s3.979-1.079 5.787-2.339c1.809-1.26 3.074-3.6 3.074-3.6v-9.636a5.696 5.696 0 00-2.842-4.923c-1.45-.849-3.595-1.777-6.742-2.542-8.137-1.98-11.573-2.7-11.573-2.7" fill="#FFD900"/><path d="M76.5 81.498l-18.175.002c-.674 0-1.063-.792-.665-1.354l7.844-12.636c1.116-1.578 2.892-2.511 4.782-2.51l6.214.001v16.497zm31.281.002h-7.795l.994-1.667a1.623 1.623 0 00-.573-2.23 1.643 1.643 0 00-2.24.57L96.182 81.5H83.5V65h6.372c2.162 0 4.243.885 5.818 2.474l12.583 12.697c.473.477.157 1.329-.492 1.329" fill="#0296C8"/><path d="M63 109c-3.438 0-6.25-2.813-6.25-6.25 0-3.438 2.812-6.25 6.25-6.25s6.25 2.812 6.25 6.25c0 3.437-2.812 6.25-6.25 6.25m54 0c-3.438 0-6.25-2.813-6.25-6.25 0-3.438 2.812-6.25 6.25-6.25s6.25 2.812 6.25 6.25c0 3.437-2.812 6.25-6.25 6.25" fill="#106CB2"/></g></svg>