<svg xmlns="http://www.w3.org/2000/svg" viewBox="0 0 176 176"><circle fill="#D7D7D7" cx="88" cy="88" r="88"/><path fill="#F1F1F1" d="M88 176c-48.601 0-88-39.399-88-88S39.399 0 88 0v176z"/><circle fill="#106CB2" cx="87.999" cy="88" r="64"/><path fill="#0296C8" d="M87.999 24C52.653 24 24 52.653 24 88s28.653 64 63.999 64V24z"/><circle fill="#FFD900" cx="55.5" cy="100.75" r="16"/><circle fill="#106CB2" cx="55.5" cy="100.75" r="7"/><circle fill="#FFD900" cx="120.5" cy="100.75" r="16"/><circle fill="#106CB2" cx="120.5" cy="100.75" r="7"/><path fill="#FFD900" d="M132.039 82.412c-.557.21-1.185-.034-1.846-.383l-.02.084c-3.046-1.66-6.462-2.69-10.14-2.69-11.488 0-20.833 9.208-21.711 20.827H82.937L80.6 90.469l-6.142-.287c-3.86-6.43-10.706-10.76-18.563-10.76l-.02.002H45.344v-5.303H39.5v-3.982s6.067-2.481 12.077-1.843c2.42.257 5.094 1.38 7.521 2.694.632-.568 1.38-.998 2.316-1.087 4.188-.402 10.324 2.21 14.609 1.909 3.62-.255 12.956-.71 17.78-.002l-3.206-9.553-4.145-5.701-7.409.071c-.904 0-1.637-.756-1.637-1.688 0-.932.733-1.688 1.637-1.688h7.546c.972 0 1.899.48 2.481 1.283l5.479 7.536h7.319c1.054 0 2.02.608 2.502 1.575l2.721 5.456s9.727 1.257 14.414 3.314c4.577 2.009 9.544 5.926 9.544 5.926 1.229.97 1.989 3.694.99 4.071z"/></svg>