<svg width="150" height="150" xmlns="http://www.w3.org/2000/svg"><g fill="none"><path d="M138.136 12.655L75.068 0 12 12.655v82.298C12.573 133.765 75.068 150 75.068 150s62.496-16.235 63.068-55.047V12.655z" fill="#D7D7D7"/><path d="M75.068 0L12 12.655v82.298C12.573 133.765 75.068 150 75.068 150V0z" fill="#F1F1F1"/><path d="M75.015 134.005c-15.582-4.962-47.277-19.136-47.674-39.182v-69.6l47.727-9.577 47.727 9.576v69.6c-.141 7.063-4.436 17.772-23.982 28.867-9.276 5.267-18.716 8.677-23.798 10.316z" fill="#106CB2"/><path d="M75.015 134.005c-15.582-4.962-47.277-19.136-47.674-39.182v-69.6l47.727-9.577" fill="#0296C8"/><g transform="translate(46.943 46.023)"><ellipse fill="#FFD900" transform="rotate(-.258 54.63 71.098)" cx="54.63" cy="71.098" rx="13.634" ry="13.073"/><path fill="#106CB2" d="M62.71 72.206l-.014-3.414-6.301.028-.026-6.04-3.56.015.026 6.041-6.3.028.014 3.414 6.301-.028.026 6.04 3.56-.015-.026-6.04z"/><path fill="#0296C8" d="M28.107.45L56.142.415l.005 4.665H28.11zm-.001 17.647l28.034-.034.006 4.632-28.034.034zm.001-8.724l27.99-.034.004 4.666H28.11z"/><path fill="#106CB2" d="M.067.45L28.103.415l.004 4.665H.072zm0 17.647l28.034-.034.006 4.632-28.034.034zm0-8.724l27.99-.034.005 4.666H.072z"/></g></g></svg>