<svg width="150" height="150" xmlns="http://www.w3.org/2000/svg"><g fill="none"><path d="M138.136 12.655L75.068 0 12 12.655v82.298C12.573 133.765 75.068 150 75.068 150s62.496-16.235 63.068-55.047V12.655z" fill="#D7D7D7"/><path d="M75.068 0L12 12.655v82.298C12.573 133.765 75.068 150 75.068 150V0z" fill="#F1F1F1"/><path d="M75.015 134.005c-15.582-4.962-47.277-19.136-47.674-39.182v-69.6l47.727-9.577 47.727 9.576v69.6c-.141 7.063-4.436 17.772-23.982 28.867-9.275 5.267-18.716 8.677-23.798 10.316z" fill="#106CB2"/><path d="M75.015 134.005c-15.582-4.962-47.277-19.136-47.674-39.182v-69.6l47.727-9.577-.053 118.359z" fill="#0296C8"/><g transform="translate(49.5 46.023)"><circle fill="#FFD900" cx="25.568" cy="25.099" r="25.096"/><path fill="#106CB2" d="M39.753 17.191l-3.85-3.324-14.39 16.666-6.515-5.626-3.324 3.849 8.002 6.908.006-.008 2.365 2.04z"/></g></g></svg>