<svg xmlns="http://www.w3.org/2000/svg" width="75" height="75"><g fill="none" fill-rule="evenodd"><path d="M0 2h76v75H0z"/><path fill="#F1F1F1" fill-rule="nonzero" d="M37.444 74.893c20.68 0 37.444-16.764 37.444-37.444 0-20.68-16.764-37.444-37.444-37.444C16.764.005 0 16.769 0 37.449c0 20.68 16.764 37.444 37.444 37.444"/><path fill="#D7D8D8" fill-rule="nonzero" d="M37.444 74.893c20.68 0 37.444-16.764 37.444-37.444 0-20.68-16.764-37.444-37.444-37.444v74.888z"/><path fill="#146DB3" fill-rule="nonzero" d="M10.218 37.506c0 15.04 12.193 27.233 27.233 27.233 15.04 0 27.234-12.193 27.234-27.233 0-15.04-12.193-27.234-27.234-27.234-15.04 0-27.233 12.193-27.233 27.234"/><path fill="#0296C9" fill-rule="nonzero" d="M37.444 10.272c-15.04 0-27.233 12.193-27.233 27.234 0 15.04 12.193 27.233 27.233 27.233V10.272z"/><path fill="#FFD902" fill-rule="nonzero" d="M44.735 34.364c-.515-.614-.943-3.17-.943-3.999v-.935a1.428 1.428 0 00-1.428-1.5h-1.057c-.778 0-1.428.422-1.428.936s-.635.714-1.428.714h-2.142c-.778 0-1.428-.236-1.428-.714s-.636-.935-1.428-.935h-1.057a1.428 1.428 0 00-1.428 1.5v2.313a4.706 4.706 0 01-.943 2.62l-4.113 4.891a4.727 4.727 0 00-.942 2.62v9.24a1.428 1.428 0 001.428 1.5h21.857a1.428 1.428 0 001.428-1.5V41.87a4.748 4.748 0 00-.943-2.62l-4.005-4.885z"/><path fill="#FFD902" fill-rule="nonzero" d="M24.463 34.614c-.653.54-1.597.54-2.25 0l-3.884-3.442a1.264 1.264 0 010-1.956c10.661-9.147 27.77-9.054 38.223.2a1.264 1.264 0 010 1.956l-3.97 3.406c-.653.54-1.597.54-2.25 0l-4.62-2.963a1.371 1.371 0 01-.849-1.25l.05-4.284a27.47 27.47 0 00-14.816-.078l-.05 4.284a1.385 1.385 0 01-.893 1.228l-4.691 2.899z"/><path fill="#146DB3" fill-rule="nonzero" d="M42.978 38.97h-3.342v-3.592h-4.384v3.592H31.91v4.727h3.342v3.591h4.384v-3.591h3.342z"/></g></svg>