<svg width="75" height="75" xmlns="http://www.w3.org/2000/svg"><g fill="none" fill-rule="evenodd"><path d="M37.5 0C16.79 0 0 16.788 0 37.5 0 58.211 16.79 75 37.5 75" fill="#eeefee"/><path d="M37.5 0C58.21 0 75 16.788 75 37.5 75 58.211 58.21 75 37.5 75" fill="#D6D6D6"/><path d="M37.5 11.506c-14.356 0-25.994 11.637-25.994 25.994 0 14.356 11.638 25.994 25.994 25.994S63.494 51.856 63.494 37.5c0-14.357-11.638-25.994-25.994-25.994" fill="#0097CA"/><path d="M37.5 10.227c15.063 0 27.273 12.21 27.273 27.273 0 15.063-12.21 27.273-27.274 27.273V10.227" fill="#106CB2"/><path d="M11.371 36.364h1.173a24.693 24.693 0 012.819-10.396h-.121a1.14 1.14 0 01-1.144-1.136 1.14 1.14 0 011.144-1.137h1.47a25.258 25.258 0 0112.726-9.811c2.426-2.321 5.24-3.657 8.24-3.657-15.136 0-27.45 12.235-27.45 27.273a1.14 1.14 0 011.143-1.136m5.341 14.941h-1.47a1.14 1.14 0 01-1.144-1.137 1.14 1.14 0 011.144-1.136h.12a24.693 24.693 0 01-2.818-10.396H11.37a1.14 1.14 0 01-1.144-1.136c0 15.037 12.315 27.273 27.45 27.273-3 0-5.813-1.336-8.239-3.657a25.258 25.258 0 01-12.726-9.811m6.765-12.669h-2.287c.093 3.702.633 7.215 1.536 10.396h2.344c-.932-3.137-1.498-6.66-1.593-10.396m1.593-12.668h-2.344c-.902 3.181-1.443 6.694-1.536 10.396h2.287c.095-3.736.661-7.26 1.593-10.396" fill="#136DB3"/><path d="M23.451 23.695h2.38c2.55-6.741 6.907-11.195 11.846-11.195-2.885 0-5.656.491-8.24 1.384-2.47 2.362-4.537 5.75-5.986 9.811m2.38 27.61h-2.38c1.449 4.061 3.516 7.449 5.987 9.811a25.187 25.187 0 008.24 1.384c-4.94 0-9.297-4.454-11.847-11.195" fill="#136DB3"/><path d="M37.677 12.5v-2.273c-3 0-5.813 1.336-8.24 3.657a25.187 25.187 0 018.24-1.384m.001 50a25.18 25.18 0 01-8.24-1.384c2.427 2.321 5.24 3.656 8.24 3.656V62.5zm-16.506-25c0-.381.008-.759.017-1.137h-8.645c-.017.378-.03.756-.03 1.137s.013.76.03 1.136h8.645a47.498 47.498 0 01-.017-1.136m16.506-1.136H23.476c-.01.377-.017.755-.017 1.136 0 .381.007.76.017 1.136h14.202v-2.272z" fill="#136DB3"/><path d="M11.371 38.636h1.173a25.126 25.126 0 01-.03-1.136c0-.381.013-.76.03-1.136H11.37a1.14 1.14 0 00-1.144 1.136 1.14 1.14 0 001.144 1.136M23.46 37.5c0-.381.006-.76.016-1.137h-2.287c-.01.378-.017.756-.017 1.137s.008.759.017 1.136h2.287c-.01-.377-.017-.755-.017-1.136m-.008-13.805h-6.738c-.49.732-.94 1.491-1.35 2.273h7.362c.22-.778.463-1.536.726-2.273m14.227 2.273v-2.272H25.83c-.276.73-.53 1.49-.763 2.272h12.61z" fill="#136DB3"/><path d="M15.242 23.695a1.14 1.14 0 00-1.144 1.137 1.14 1.14 0 001.144 1.136h.12c.412-.782.86-1.541 1.35-2.273h-1.47zm10.589 0h-2.38a35.788 35.788 0 00-.726 2.273h2.344a33.26 33.26 0 01.762-2.273m-.762 25.337c.232.782.486 1.541.762 2.272h11.847v-2.272h-12.61zm-2.344 0h-7.362c.411.782.86 1.541 1.35 2.272h6.738a36.064 36.064 0 01-.726-2.272" fill="#136DB3"/><path d="M15.242 49.032a1.14 1.14 0 00-1.144 1.136 1.14 1.14 0 001.144 1.136h1.47c-.49-.73-.938-1.49-1.35-2.272h-.12zm7.483 0c.22.778.463 1.536.726 2.272h2.38a33.1 33.1 0 01-.763-2.272h-2.343z" fill="#136DB3"/><path d="M59.625 31.197c-.448-.574-1.478-.52-2.3.122l-.022.02-.003-.005-3.868 3.019-6.921-4.706-1.541.133-.762.595 6.417 6.168-4.804 3.75-2.576-.972-1.68 1.311 3.12 2.225 1.4 3.568 1.68-1.312-.315-2.735 4.8-3.746 4.404 7.688.76-.594.505-1.462-2.87-7.817 3.88-3.027-.005-.005.024-.016c.822-.642 1.125-1.627.677-2.202M42.5 45.768l-1.26-1.719c.858-.628 1.35-1.002 1.355-1.005l1.286 1.699s-.503.381-1.382 1.025m-5.629 3.978l-1.2-1.761a209.23 209.23 0 002.804-1.946l1.23 1.74c-.947.67-1.9 1.33-2.833 1.967zm-5.779 3.778l-1.126-1.81c.922-.573 1.888-1.19 2.87-1.834l1.167 1.783c-.996.652-1.975 1.278-2.91 1.86zm-5.996 3.48l-.998-1.883a84.28 84.28 0 002.958-1.65l1.073 1.841a87.1 87.1 0 01-3.033 1.692zm-6.458 2.83l-.628-2.035c.902-.279 1.936-.68 3.073-1.192l.875 1.943c-1.217.548-2.334.98-3.32 1.285zm-3.787.553c-1.831-.18-2.977-1.333-3.142-3.164l2.123-.19c.073.818.406 1.153 1.228 1.233l-.209 2.12zm-.53-6.287l-2.03-.646c.167-.524.37-1.088.607-1.677l1.977.793a22.81 22.81 0 00-.554 1.53" fill="#FFD900"/></g></svg>