<svg width="50" height="50" viewBox="0 0 50 50" fill="none" xmlns="http://www.w3.org/2000/svg">
<path fill-rule="evenodd" clip-rule="evenodd" d="M49.9502 25.9808C49.6247 24.9507 47.7807 24.6793 45.8822 25.276C45.3942 25.4385 44.9602 25.6014 44.5802 25.8183L43.7122 24.3004C41.3257 20.2884 38.8847 17.089 38.0712 16.7636C37.4814 16.4994 36.5864 16.2808 35.3206 16.1079C35.534 16.1371 35.737 16.1675 35.9296 16.1993C35.8945 16.9439 35.7422 17.617 35.4994 18.2263C36.28 18.3467 36.9286 18.4941 37.3672 18.6741C38.0177 19.1621 40.3502 22.1996 42.7367 26.376H7.42683C9.81333 22.1996 12.1453 19.2166 12.7963 18.6741C13.2061 18.5059 13.7991 18.3683 14.5122 18.2553C14.2592 17.6301 14.1017 16.9373 14.0689 16.1686C13.0207 16.331 12.2521 16.5294 11.7113 16.7636C10.9518 17.143 8.51132 20.2879 6.12483 24.3004L5.31133 25.7099C4.93184 25.493 4.55184 25.3305 4.11784 25.2221C2.16534 24.6258 0.375348 24.8967 0.0498487 25.9268C-0.27565 26.9569 1.02635 28.2585 2.97884 28.8547C3.19584 28.9087 3.41284 28.9632 3.57534 29.0172C1.94834 32.3245 0.754848 35.7402 0.754848 38.2343V48.5906C0.754848 49.4038 1.40585 50 2.21934 50H6.99233C7.80583 50 8.45683 49.3493 8.45683 48.5906V45.4082H41.2717V48.5906C41.2717 49.4038 41.9227 50 42.7362 50H47.5092C48.3227 50 48.9737 49.3493 48.9737 48.5906V38.2343C48.9737 35.7402 47.7802 32.4329 46.2077 29.1256C46.4787 29.0717 46.6957 29.0172 46.9672 28.9087C48.9742 28.258 50.2757 26.9564 49.9502 25.9808ZM31.25 39.0625H18.75V42.1875H31.25V39.0625ZM5.52826 33.3723C5.52826 32.7213 6.07076 32.1248 6.72176 32.1248C8.83675 32.1793 13.1762 32.6673 15.1832 36.0842C15.5087 36.6267 15.1832 37.1147 14.5322 37.0062L6.72176 35.9757C6.07076 35.8677 5.52826 35.2707 5.52826 34.5657V33.3723ZM43.3872 32.1247C41.2717 32.1787 36.9327 32.7212 34.9257 36.0302C34.6002 36.6267 34.9257 37.0607 35.5767 36.9522L43.3872 35.9217C44.0382 35.8132 44.5807 35.2167 44.5807 34.5117V33.3182C44.5807 32.6672 44.0382 32.0707 43.3872 32.1247Z" fill="#004FB6"/>
<path fill-rule="evenodd" clip-rule="evenodd" d="M24.3495 22.8613C24.5677 22.9334 24.7847 23.0052 25 23.0769C25.2153 23.0052 25.4323 22.9334 25.6505 22.8613C29.8167 21.484 34.375 19.977 34.375 15.8654V2.16346L25 0L15.625 2.16346V15.8654C15.625 19.977 20.1833 21.484 24.3495 22.8613ZM29.1958 6.49033L30.7692 7.89847L23.5052 16.5865L22.5087 15.7097V15.7363L19.2307 12.7871L20.5944 11.1664L23.2692 13.5576L29.1958 6.49033Z" fill="#004FB6"/>
</svg>
