<svg xmlns="http://www.w3.org/2000/svg" xmlns:xlink="http://www.w3.org/1999/xlink" width="96" height="24"><defs><path id="a" d="M0 0h24v24H0z"/><path id="c" d="M24 0h24v24H24z"/><path id="e" d="M48 0h24v24H48z"/><path id="g" d="M72 0h24v24H72z"/></defs><g fill="none" fill-rule="evenodd"><mask id="b" fill="#fff"><use xlink:href="#a"/></mask><g fill="#004fb6" mask="url(#b)"><path d="M8.839 18.707L3 21l3.02-4.383c-1.358-1.51-2.183-3.473-2.183-5.544C3.837 6.614 7.663 3 12.383 3 17.103 3 21 6.788 21 11.246c0 4.459-3.896 8.247-8.617 8.247a8.388 8.388 0 01-3.544-.786z"/></g><mask id="d" fill="#fff"><use xlink:href="#c"/></mask><g fill="#FFF" mask="url(#d)"><path d="M32.839 18.707L27 21l3.02-4.383c-1.358-1.51-2.183-3.473-2.183-5.544C27.837 6.614 31.663 3 36.383 3 41.103 3 45 6.788 45 11.246c0 4.459-3.896 8.247-8.617 8.247a8.388 8.388 0 01-3.544-.786z"/></g><mask id="f" fill="#fff"><use xlink:href="#e"/></mask><g fill="#191d64" mask="url(#f)"><path d="M56.839 18.707L51 21l3.02-4.383c-1.358-1.51-2.183-3.473-2.183-5.544C51.837 6.614 55.663 3 60.383 3 65.103 3 69 6.788 69 11.246c0 4.459-3.896 8.247-8.617 8.247a8.388 8.388 0 01-3.544-.786z"/></g><mask id="h" fill="#fff"><use xlink:href="#g"/></mask><g fill="#5c596d" mask="url(#h)"><path d="M80.839 18.707L75 21l3.02-4.383c-1.358-1.51-2.183-3.473-2.183-5.544C75.837 6.614 79.663 3 84.383 3 89.103 3 93 6.788 93 11.246c0 4.459-3.896 8.247-8.617 8.247a8.388 8.388 0 01-3.544-.786z"/></g></g></svg>