<svg xmlns="http://www.w3.org/2000/svg" width="120" height="24"><g fill="none"><path fill="#B10101" d="M109.333 12L114 16.667 112.667 18 108 13.333 103.333 18 102 16.667 106.667 12 102 7.333 103.333 6 108 10.667 112.667 6 114 7.333 109.333 12z"/><path fill="#CCC" d="M61.333 12L66 16.667 64.667 18 60 13.333 55.333 18 54 16.667 58.667 12 54 7.333 55.333 6 60 10.667 64.667 6 66 7.333 61.333 12z"/><path fill="#CCC" d="M61.333 12L66 16.667 64.667 18 60 13.333 55.333 18 54 16.667 58.667 12 54 7.333 55.333 6 60 10.667 64.667 6 66 7.333 61.333 12z"/><path fill="#5c596d" d="M85.333 12L90 16.667 88.667 18 84 13.333 79.333 18 78 16.667 82.667 12 78 7.333 79.333 6 84 10.667 88.667 6 90 7.333 85.333 12z"/><path fill="#FFF" d="M37.333 12L42 16.667 40.667 18 36 13.333 31.333 18 30 16.667 34.667 12 30 7.333 31.333 6 36 10.667 40.667 6 42 7.333 37.333 12z"/><path fill="#004fb6" d="M13.333 12L18 16.667 16.667 18 12 13.333 7.333 18 6 16.667 10.667 12 6 7.333 7.333 6 12 10.667 16.667 6 18 7.333 13.333 12z"/></g></svg>