<svg width="150" height="150" xmlns="http://www.w3.org/2000/svg"><g fill="none" fill-rule="evenodd"><g fill-rule="nonzero"><path d="M74.998 0C33.578 0 0 33.577 0 75c0 41.422 33.579 75 74.998 75C116.421 150 150 116.423 150 75S116.421 0 74.998 0" fill="#F1F1F1"/><path d="M74.998 150C116.421 150 150 116.421 150 75c0-41.423-33.579-75-75.002-75v150z" fill="#D7D7D7"/></g><g fill-rule="nonzero"><path d="M75 20.455c-30.125 0-54.545 24.419-54.545 54.546 0 30.124 24.42 54.544 54.544 54.544 30.125 0 54.546-24.42 54.546-54.544 0-30.127-24.42-54.546-54.546-54.546" fill="#0296C8"/><path d="M75 129.545c30.124 0 54.545-24.42 54.545-54.545 0-30.126-24.42-54.545-54.546-54.545v109.09z" fill="#106CB2"/></g><g fill-rule="nonzero"><path d="M117.94 78.348c-1.094-.142-2.328.096-3.383.477L95.26 87.366s-2.726 1.44-6.567 2.022c-3.937.048-7.873.178-11.81.272-.594.014-1.058.027-1.91.04-.852.014-1.27.027-1.703.041-1.703.034-2.932.072-4.399.1-1.524 0-1.524-.737-1.57-1.521-.044-.785.495-1.054 1.18-1.12.273-.028.546-.046.82-.054 1.324-.033 2.265-.066 3.969-.1.52-.014.85-.03 1.702-.045 1.704-.035 2.902-.07 4.29-.103 3.491-.088 6.987-.111 10.474-.28 2.438-.12 4.096-1.055 4.136-3.378.043-2.496-1.902-3.463-4.547-3.463H33.142l3.263 14.28c4.1-.02 7.03-.022 7.033-.022 3.316.939 28.45 6.605 28.45 6.605.46.115.532.223 1.383.319.578.11.851.205 1.703.286 4.26.638 8.22.326 12.182-1.844 10.391-5.692 20.793-9.844 31.175-15.552.518-.284.987-.753 1.332-1.238 1.171-1.655.288-4.004-1.723-4.263z" fill="#FFD900"/><path d="M36.405 94.183h-.007L33.141 79.86l-.503-2.626H20.519a53.713 53.713 0 004.639 19.492h11.88l-.633-2.543z" fill="#106CB2"/></g><path d="M74.955 30.683l-.046-.001c-11.297 0-20.454 9.157-20.454 20.454s9.158 20.455 20.454 20.455h.046c11.08-.027 20.409-9.173 20.409-20.455 0-11.281-9.33-20.429-20.409-20.453z" fill="#FFD900" fill-rule="nonzero"/><path d="M73.63 65.682h3.403v-3.65c3.615-.771 5.474-3.368 5.474-6.736 0-6.702-9.263-6.421-9.263-9.755 0-1.578.912-2.245 2.597-2.245 1.473 0 2.56.596 3.824 1.754l2.597-2.947c-1.369-1.439-2.983-2.562-5.229-2.877v-3.544H73.63v3.614c-3.298.667-5.333 3.052-5.333 6.491 0 6.316 9.263 6.246 9.263 9.86 0 1.614-.877 2.42-2.842 2.42-1.685 0-3.228-.701-5.018-2.034l-2.245 3.473c1.649 1.51 4.105 2.421 6.175 2.667v3.509z" fill="#106CB2"/></g></svg>