<?xml version="1.0" encoding="UTF-8"?>
<svg xmlns="http://www.w3.org/2000/svg" version="1.1" viewBox="0 0 120 90">
  <defs>
    <style>
      .cls-1 {
        fill: none;
      }

      .cls-2 {
        fill: #1e3935;
      }

      .cls-3 {
        fill: #d89480;
      }

      .cls-4 {
        fill: #23153f;
      }

      .cls-5 {
        fill: #a5d4fb;
      }

      .cls-6 {
        fill: #e09f84;
      }

      .cls-7 {
        fill: #ca8366;
      }

      .cls-8 {
        fill: #2b1b47;
      }

      .cls-9 {
        fill: #5f87e1;
      }

      .cls-10 {
        fill: #835343;
      }

      .cls-11 {
        fill: #1a1a1a;
      }
    </style>
  </defs>
  <!-- Generator: Adobe Illustrator 28.7.1, SVG Export Plug-In . SVG Version: 1.2.0 Build 142)  -->
  <g>
    <g id="Layer_1">
      <g id="Layer_1-2" data-name="Layer_1">
        <rect class="cls-1" y="0" width="120" height="90"/>
        <g id="Layer_1-2">
          <g>
            <g>
              <path class="cls-5" d="M64.7,48.7c-1.9.6-5.2,4.8-6.1,6.1-1.4,2-3.3,1.7-4.8,2s-1.7.8-2.8,1.3c-1.1.6-13.8-.9-14.6-1.3s-.9-8.1-.9-8.1c0,0,13.8,0,15.1-.3,1.2-.3,7.1-9.6,8.9-12.2,0-.2.3-.3.3-.4,0,0,.2-.2.2-.3.8-.9,5.2-4.5,5.2-4.5,0,0,1.2,17.2-.7,17.8h.2Z"/>
              <path class="cls-9" d="M60.8,41.7c-.8-1.6-1.1-3.7-1.3-5.6,0-.2.3-.3.3-.4.2,1.9.5,4.1,1.2,5.9,0,.2-.2.3-.3,0h0Z"/>
              <g>
                <path class="cls-6" d="M35.7,48.7s1.9,1.8,1.4,5.3c0,0-7.4-.6-8.7-1.3-1.2-.7-2.5-1.6-2.5-1.6,0,0-2-1-2.4-1.7-.5-.9-.9-1.9-1.4-2.9,0-.3-.3-.6,0-.8s.7,0,.9,0c.3.2.4.4.7.6l.3.3c0,.2.2.3.3.4,0-.3-.2-.6-.3-.8v-.6c0-.3.4-.3.6-.2.4,0,.7.4.9.8v-1.2c.2-.4.3-.8.4-1.3,0-.2.2-.4.4-.4s.3.2.5.3c.3.3.3.8.2,1.2-.2.7-.3,2.1,0,2.6.2.5,1.5,2,1.5,1.7v-1.4s-1.8-1.4-1.9-2.5c0-1,.6-1.3,1.3-.8s1.4,1.8,2.1,2.1,1.7.5,2.7,1.2c.4.3.8.7,1.4.7h1.6v.3Z"/>
                <path class="cls-7" d="M25.6,45.8c0-.2-.3,0-.3.2.5.8.6,2.5,1,3.3,0,.2.3,0,.3-.2-.3-.8-.5-2.5-1-3.4h0Z"/>
                <path class="cls-7" d="M24.5,47.6c0-.3-.2-.6-.3-.8,0-.2-.3,0-.3.2,0,.3.2.5.3.8,0,.2.3,0,.3,0h0v-.2Z"/>
              </g>
            </g>
            <g>
              <path class="cls-5" d="M84.2,33.3s2.6,1.4,3.5,3.1c1.4,2.8,2.3,8.5,2.9,10,.6,1.4.7,6,.7,6l-11.2,12.4s-18.2-2.1-19.5-3.6c-.9-1.1-1.4-2.6-.3-3.8,1.6-2,.8-5.9.8-7.1-.2-1.9,1.9-.8.9-3.4-.9-2.5-1.1-3.5-.2-5.5s2-7,1.9-8.1,3.1-3.1,3.1-3.1c-.2,0,17.5,3.3,17.5,3.3h-.2v-.2Z"/>
              <path class="cls-9" d="M87.3,35.4c-1.8.6-3,2.1-4,3.6-1.1,1.6-2.3,4-2.9,5.9,0,.2.3.3.3,0,.5-1.8,1.6-4.1,2.6-5.6,1-1.4,2.2-3,4-3.6.3,0,.2-.4,0-.3h0Z"/>
              <path class="cls-9" d="M81.9,53.2c-.2-.3-.4-.7-.6-1.1-.3-.6-.3-1.2-.3-1.9,0-1.9-.3-3.5-1.1-5.1-.2-.3-.8,0-.6.3.8,1.8.9,3.4.9,5.2s0,1.3.4,1.9c.4.8.9,1.4.8,2.4,0,.4.5.4.7,0,.3-.6,0-1.3-.3-1.9v.2Z"/>
            </g>
            <g>
              <g>
                <path class="cls-5" d="M73.1,38.9c2.3.2,4.6,0,6.9-.8.6-.2,1.2-.3,1.8-.5,1-.7,2-1.4,3-2.1-.6-.4,1.2,0,1.2,0,1.5.4,3.6-3.6.5-5.7,1.2-.4,5.1-4.1,2.7-8.9-.9-1.8-5.7-2.1-7.1-2.2-3.1-.2-3.7,1.4-8.1,3-1.6.6-3-.3-4,.4-3.1,2.1-4,4.5-4,4.5,0,0-1.4,3-.3,8,1.9,3,3.8,4.1,7.4,4.2h0Z"/>
                <path class="cls-2" d="M68.1,31.8c-.3-.7-1.9-.8-1.4-3.3s2.5-5.4,5.3-5.7c2.8-.3.8,5.8.6,5.9-.2.3-4.5,3-4.5,3h0Z"/>
                <path class="cls-9" d="M65.7,34c-.2.2-.3,0-.4-.3-.3-.8-.5-1.4-.6-2.2h0s.3-.3.5-.4v1c0,.6.2,1.2.3,1.8v.3s.2-.2.2-.2Z"/>
              </g>
              <g>
                <path class="cls-2" d="M79.1,29.3s9.6-4.3,9.6-7.2-10.5-2.5-10.5-2.5l-5.2,6.7,6.1,3Z"/>
                <path class="cls-10" d="M68.9,13.4s-1-4.9,1-6.9c2-2,6-1.8,7-.2,1,1.7.8,1.3,2.2,1.8s2.7.8,3,2.5-.4,2.7-.4,2.7c.2,1.3.3,1.3.5,2.6.2,1.3-2.1,4.5-5.7,6.1s-7.6-8.7-7.6-8.7h0Z"/>
                <g>
                  <path class="cls-6" d="M68.5,23.2c.5.2.4,0,.5,0,0,.3.6,4-.5,5.2s-1.8,1.4-1.8,1.4c0,0,1.2,4,7.2,2.2,2.4-.7,5.2-2.9,5.2-2.9,0,0-.5-.3-1.1-.8-.6-.4-1.1-1.7-1.2-2.3-.3-1.3-.6-3.8.8-6.1,0,0,1.4.3,2.2-1.2.3-.5.6-1.8-.2-2.5-.4-.3-1.4-.3-1.9.3-.2.2-.6.8-.9.6-.2,0-.2-.3-.2-.4,0-.6.3-1,.5-1.6.2-.4,0-1-.2-1.4-.3-.6-.9-.8-1.5-1.2s-1.2-.9-1.5-1.6c0-.2-.3-.3-.4-.5-.3-.3-.8,0-1.3,0h-.9c-.3,0-.6-.3-.8-.3-.4,0-.8.7-1.1.9-.3.4-.7.8-1,1.3-1.4,1.9-2.9,4.8-2.6,7.3,0,.9.5,1.8,1.2,2.3.5.4,1,.7,1.4.8v.5Z"/>
                  <path class="cls-11" d="M73.4,16c.2.2.5,0,.5-.2,0-.3-.3-.6-.5-.8-.3-.2-.8-.3-.9-.2-.3,0-.4.5-.3.5.8,0,1,.5,1.2.6h0Z"/>
                  <path class="cls-11" d="M67.5,14.3c0-.3.4-.5.7-.6h.8l.2.2v.4c-.3.3-.4,0-.7,0-.5,0-.8.2-.8,0h-.2Z"/>
                </g>
                <g>
                  <path class="cls-5" d="M85.5,25.9c-.7.3-3.9,2.1-4.7,2.5-3.7,1.9-8,4.7-8,4.7v.5l11.4-4.1c-.5-.8,1.6-2.8,1.3-3.6Z"/>
                  <path class="cls-9" d="M84.8,34h.3v-.4l-3.6-2.5h-.4v.4l3.6,2.5h.2,0Z"/>
                  <path class="cls-9" d="M74.7,34.7h.2s5.2-2.9,9.1-4.2c.2,0,.3-.3.3-.5s-.3-.3-.5-.3c-3.9,1.4-9.1,4.2-9.2,4.3-.2,0-.3.3-.2.5,0,.2.2.2.3.2h0Z"/>
                </g>
              </g>
            </g>
            <g>
              <path class="cls-8" d="M61.7,60.8s13.2-.2,18,2.8c4.8,3-7.7,7.9-7.7,7.9l-10.3-10.7Z"/>
              <path class="cls-8" d="M73.6,64.2l-15.6,12-1.4,1-3.3-.8s-1.2-.6-3-1.5c-6.6-3.4-21.6-11.8-20.9-17.1.9-6.8,8.6-7.7,13.3-5.3,4.6,2.4,17.5,7.5,21.2,8.6,3.7,1.1,9.7,3,9.7,3h0Z"/>
              <path class="cls-11" d="M54.6,69.8c4.7-1.8,5.2-1.8,5.8-1.1.5.7,0,2.4-2,3.5s-3.8-2.5-3.8-2.5h0Z"/>
              <path class="cls-4" d="M57.8,66.8c-.7-.7-1.5-1.1-2.2-1.7-.8-.6-1.6-1.3-2.4-1.9-1.3-1-2.5-2-3.7-3-.6-1.3-1.7-2.4-2.7-3.3-1.1-1-2.3-1.9-3.6-2.5-.4-.2-.6.4-.3.6,1.4.6,2.5,1.4,3.6,2.5s.7.7.9,1.1c-2.7-2-5.6-3.8-8.9-4.7-.4,0-.7.5-.3.6,3.6,1.1,6.9,3.2,9.8,5.6,1.6,1.3,3,2.5,4.7,3.8,1.4,1.2,3,2.7,4.7,3.5.3,0,.6-.3.3-.5h0Z"/>
              <path class="cls-4" d="M65.4,62c-1.4-.5-2.9-1.1-4.2-1.7-.4-.2-.6.4-.3.6,1.4.7,2.8,1.3,4.2,1.7.4.2.7-.5.3-.7h0Z"/>
              <path class="cls-6" d="M60.7,73.4l-2.7,2.8-1.4,1-3.3-.8s-1.2-.6-3-1.5c-.3-.6-.6-2.1,1-3.5,2-1.7,4.6-2,4.6-2l4.8,3.9h0Z"/>
            </g>
            <g>
              <path class="cls-8" d="M94.8,57.9c0,.9-.2,1.9-.4,3.1-1.4,6.3-11,19.5-16.8,20.4-3.8.6-5.1.3-6.9,0h-3.4l-5.7-8,.7-2.6s7-5.3,11.6-9.9,10.7-11.6,15.2-10.3c.8.3,1.4.5,2.1.8,2.1,1,3.3,2.6,3.5,5.2v1.2h.1Z"/>
              <path class="cls-4" d="M94.8,57.9c0,.9-.2,1.9-.4,3.1-1.4,6.3-11,19.5-16.8,20.4-3.8.6-5.1.3-6.9,0-2.1-.8-4.9-1.9-3.3-4.9.2-.3.9,1.5,1.3,1.4,5.6-3.4,17.7-11.4,19.6-12.8,1.8-1.4,6-4.1,6.5-7.3h0Z"/>
              <path class="cls-4" d="M72.5,61.8c-1.4,1.1-4.8,3.7-6.2,4.7-1.4,1-2.9,1.9-4.3,2.9-.2,0,0,.3.2.3,1.5-.8,2.9-1.9,4.3-2.9s4.9-3.6,6.3-4.7c.2-.2,0-.4-.3-.3Z"/>
              <path class="cls-3" d="M62.5,81.8s.2,0,.3.2l.2.3c.2.3.6.4,1,.5.3,0,.8,0,1.1.3.3.3.4.8.8.9h.5c.3,0,.5.5.8.6h.9c.3,0,.4.2.7.3h1.8c.5-.3.7-.8.6-1.4s-.3-1-.5-1.4c-.3-1-.3-2.1-.3-3.2s0-1-.3-1.4c-.2-.4-.5-.8-.9-1.1h-1c-2.1.7-4,1.5-6.1,2.2-.4.2-.8.3-1.3.5-.5.3-1,.5-1.5.8-.2,0-.7.3-.7.5,0,.3.4.3.6.4,1,.5,2.1.9,3.2,1.3v-.2h.1Z"/>
              <path class="cls-6" d="M62.3,71s-9.3,4.9-11.3,5.4c-.7.2-1.4.3-2.2.3-1.9,0-3.9,0-5.8.2h-2c-1,0-2.2,1-1,1.9.3.3.7.5.8.8,0,.3,0,.5.3.7.2.2.3.3.5.3.3.3.3.9.6,1.3.3.3.8.2,1,.4.3.2.3.5.4.8.5.8,2,.8,2.9.8s1.7-.2,2.5-.3c1.2,0,5.9-1,6.5-1.4.8-.3,1.4-1.1,2-1.6.6-.4,1.3-.8,1.9-1.1.4-.3,5.8-2.5,8-3.5,0,0-5.9-1.4-5.2-5.3h0v.3Z"/>
              <path class="cls-7" d="M58.7,72.6c-1.9,1-4,2-6,3-.3.2,0,.7.3.6,2-.9,4.1-1.9,6-3,.4-.3,0-.8-.3-.6h0Z"/>
              <path class="cls-4" d="M94.8,56.8l-5.7-5,2.2-.3c2.1,1,3.3,2.6,3.5,5.2h0Z"/>
            </g>
            <path class="cls-6" d="M90.3,46.7c-.3.9-.6,1.5-1.4,2.2-.3.3-.7.7-.8,1.1,0,.4.2.8.3,1.2,0,.2,0,.3.2.3.3.4,1.2.2,1.6.7.2.2.2.5.4.6.3.2.5,0,.8.2.4.2.6.7,1,.7s.3-.2.5-.3h.8c.6,0,1.2,0,1.7-.3.6-.3,1-.9,1.3-1.6.4-.9.8-1.9.9-3,0-.5.5-1.5,0-1.8,0,0-.6,0-.5-.2,0-.5.3-1.1-.4-1.2-.3,0-.8.2-1,.4,0,0-.2.5-.4.5s-.2-.3-.2-.3c0-.3-.3-.3-.6-.3-.6.2-.8.7-1.2,1.2-.3.6-.8,1.1-1.3,1.5s-.3.2-.3.3c-.3,0-.3-.3-.3-.5,0-.4.2-.8.3-1.2.2-.3.3-1-.3-1.1-.6-.2-.8.5-1,.9h0Z"/>
          </g>
        </g>
      </g>
    </g>
  </g>
</svg>