<svg xmlns="http://www.w3.org/2000/svg" width="49" height="33" fill="none">
  <path fill="#FEFEFE" d="M0 22h49V11H0v11Z"/>
  <path fill="#F4992C" d="M0 11h49V0H0v11Z"/>
  <path fill="#168436" d="M0 33h49V22H0v11Z"/>
  <path fill="#FEFEFE" d="M24.878 12.554a.075.075 0 0 0-.003.023.22.22 0 0 0 .224.213.22.22 0 0 0 .22-.18c.198.035.387.082.573.144a.23.23 0 0 0-.012.07c0 .117.1.214.222.214a.22.22 0 0 0 .201-.124c.192.087.373.188.545.3a.218.218 0 0 0-.045.129c0 .116.1.213.223.213a.218.218 0 0 0 .173-.082c.158.132.307.275.443.427a.209.209 0 0 0-.088.17c0 .116.099.211.223.211a.225.225 0 0 0 .134-.042 3.6 3.6 0 0 1 .284.474.214.214 0 0 0-.135.197.218.218 0 0 0 .307.196c.07.194.125.391.164.596a.215.215 0 0 0-.197.21c0 .119.1.215.223.215l.028-.003a2.967 2.967 0 0 1-.002.564c-.01 0-.017-.004-.026-.004a.22.22 0 0 0-.223.214c0 .11.084.197.192.212a3.94 3.94 0 0 1-.157.563.22.22 0 0 0-.309.198c0 .089.057.164.138.197a3.824 3.824 0 0 1-.298.49.23.23 0 0 0-.125-.037.22.22 0 0 0-.224.215c0 .065.033.123.077.161-.13.147-.273.285-.427.41a.225.225 0 0 0-.175-.083.22.22 0 0 0-.223.216c0 .047.018.092.047.13a3.75 3.75 0 0 1-.53.293.221.221 0 0 0-.201-.12.217.217 0 0 0-.223.212c0 .026.005.05.014.071a3.894 3.894 0 0 1-.581.148.224.224 0 0 0-.221-.177.218.218 0 0 0-.222.214l.002.02a3.482 3.482 0 0 1-.606 0v-.02a.22.22 0 0 0-.222-.214c-.11 0-.2.079-.219.178a4.219 4.219 0 0 1-.595-.15.215.215 0 0 0 .013-.07c0-.119-.1-.213-.223-.213a.221.221 0 0 0-.2.118 3.702 3.702 0 0 1-.522-.29.204.204 0 0 0 .048-.13c0-.117-.1-.216-.223-.216a.24.24 0 0 0-.179.085 3.722 3.722 0 0 1-.431-.418.204.204 0 0 0 .075-.156.22.22 0 0 0-.223-.216.221.221 0 0 0-.12.036 3.804 3.804 0 0 1-.292-.482.213.213 0 0 0 .133-.195.22.22 0 0 0-.304-.2 3.621 3.621 0 0 1-.16-.568.217.217 0 0 0 .187-.21.22.22 0 0 0-.223-.216c-.009 0-.015.004-.023.005a3.622 3.622 0 0 1 0-.583l.023.002a.219.219 0 0 0 .223-.215.22.22 0 0 0-.189-.21 3.63 3.63 0 0 1 .157-.567.246.246 0 0 0 .082.016.22.22 0 0 0 .223-.213.214.214 0 0 0-.134-.197 3.72 3.72 0 0 1 .288-.484.227.227 0 0 0 .137.045.219.219 0 0 0 .223-.214c0-.07-.035-.13-.09-.169.133-.149.275-.287.429-.417a.22.22 0 0 0 .165.072.22.22 0 0 0 .222-.213.217.217 0 0 0-.037-.12c.166-.11.339-.205.522-.291a.22.22 0 0 0 .19.106.219.219 0 0 0 .216-.271c.192-.064.39-.117.595-.154.019.101.11.177.221.177a.218.218 0 0 0 .222-.213l-.002-.021c.105-.008.21-.014.316-.014.098 0 .2.006.297.012ZM20.83 17.34a.013.013 0 0 0-.007.004l.022-.006 1.585-.287c.246-.044 1.088-.326 1.404-.439a.79.79 0 0 0 .057.13c-.32.135-1.104.493-1.307.625-.233.153-1.19.767-1.337.861l-.022.013.01-.006a.12.12 0 0 1-.009.007l.02-.01a234.92 234.92 0 0 1 1.447-.683c.223-.103.932-.575 1.218-.776a.6.6 0 0 0 .108.137c-.26.2-.953.755-1.12.938-.186.203-.948 1.027-1.067 1.158l-.018.017.01-.007-.01.01.02-.02c.134-.114 1.007-.833 1.22-1.009.19-.16.779-.816.988-1.062a.933.933 0 0 0 .117.09c-.2.26-.705.963-.816 1.18l-.706 1.388-.014.02s.004-.003.007-.01l-.005.011.012-.021c.1-.143.74-1.062.897-1.284.14-.199.519-.972.655-1.268a.796.796 0 0 0 .206.078c-.117.27-.454 1.125-.509 1.371l-.338 1.508-.007.025.004-.012-.002.012.006-.023.547-1.454c.088-.237.273-1.135.323-1.422.05.01.102.016.153.017-.026.286-.095 1.092-.09 1.255.01.194.019 1.488.099 1.766.08-.278.091-1.572.098-1.767.008-.162-.062-.968-.089-1.254a.897.897 0 0 0 .165-.018c.04.247.236 1.205.329 1.451l.546 1.453.007.02s-.002-.002-.003-.009l.005.01-.007-.022-.34-1.51c-.056-.258-.417-1.166-.517-1.399a.678.678 0 0 0 .201-.08c.125.272.526 1.093.671 1.299l.896 1.286.011.02a.037.037 0 0 0-.006-.011c.006.004.008.008.008.009l-.014-.02-.707-1.388c-.113-.226-.65-.97-.834-1.208a.753.753 0 0 0 .115-.085c.19.225.813.921 1.01 1.084l1.221 1.012.016.015-.008-.008a.115.115 0 0 1 .009.008l-.017-.017c-.118-.13-.881-.956-1.066-1.157-.172-.19-.908-.777-1.144-.957a.724.724 0 0 0 .108-.134c.266.186 1.014.682 1.243.79.252.118 1.284.606 1.444.68l.01.006.013.003-.02-.01c-.15-.095-1.107-.71-1.338-.862-.212-.134-1.032-.507-1.334-.634a.761.761 0 0 0 .06-.13c.295.109 1.173.405 1.428.45.275.048 1.402.253 1.583.285l.016.004h-.004a.097.097 0 0 0 .012.003l-.008-.003.008.002-.024-.008c-.171-.054-1.26-.4-1.527-.488-.245-.078-1.161-.23-1.476-.273a.707.707 0 0 0 .03-.173c.336.033 1.222.105 1.471.09.282-.016 1.43-.083 1.61-.096h.01l.014-.002h-.024c-.18-.011-1.328-.09-1.608-.108-.251-.018-1.133.048-1.473.079a.899.899 0 0 0-.009-.116c.343-.054 1.197-.209 1.434-.289.264-.089 1.35-.451 1.52-.51l.024-.004-.026.003c-.176.036-1.3.257-1.577.31-.242.047-1.055.33-1.382.453a.683.683 0 0 0-.062-.17c.314-.137 1.107-.5 1.314-.63.232-.155 1.185-.77 1.335-.865l.022-.013-.011.006c.005-.003.009-.008.009-.008l-.022.012c-.159.077-1.19.565-1.443.684-.223.107-.942.585-1.22.781a1.03 1.03 0 0 0-.08-.115c.237-.182.959-.776 1.129-.967l1.05-1.169.01-.01.005-.01-.015.018-1.205 1.024c-.196.166-.805.864-.994 1.094a.721.721 0 0 0-.138-.119c.177-.235.715-.99.83-1.216l.7-1.392.01-.022a.033.033 0 0 1-.006.01l-.006.01-.887 1.29c-.145.21-.544 1.036-.663 1.306a.841.841 0 0 0-.177-.082c.11-.28.423-1.13.472-1.374.051-.264.267-1.35.302-1.517l.007-.022s-.003.003-.005.01l.002-.012-.007.024c-.056.164-.42 1.21-.51 1.465-.082.235-.243 1.119-.289 1.418a.772.772 0 0 0-.216-.032c.02-.232.101-1.131.093-1.302-.007-.197-.017-1.489-.098-1.765-.08.277-.09 1.568-.098 1.765-.007.17.072 1.07.093 1.302a.763.763 0 0 0-.194.027c-.04-.275-.208-1.198-.293-1.439l-.512-1.467-.002-.01-.004-.01.006.02c.032.172.248 1.255.3 1.52.052.25.375 1.133.48 1.392a.74.74 0 0 0-.178.075c-.112-.254-.523-1.106-.669-1.32-.155-.223-.788-1.145-.887-1.288l-.013-.022.006.013c-.004-.008-.008-.01-.008-.01l.013.02c.08.155.579 1.15.699 1.392.114.23.668 1.003.839 1.229a.748.748 0 0 0-.143.111c-.186-.227-.8-.931-.997-1.097-.21-.178-1.069-.91-1.206-1.024l-.008-.009-.01-.009.018.018c.118.13.869.966 1.05 1.17.173.19.9.792 1.135.97a.691.691 0 0 0-.084.11c-.282-.197-.998-.674-1.22-.78l-1.446-.681-.02-.013.009.007a.122.122 0 0 0-.01-.005l.02.012 1.337.862c.204.133.993.492 1.31.631a.829.829 0 0 0-.07.167c-.33-.122-1.13-.402-1.372-.447a271.9 271.9 0 0 0-1.578-.309l-.021-.006.008.004.014.004 1.521.507c.231.078 1.068.23 1.419.286a.521.521 0 0 0-.012.118c-.35-.033-1.211-.097-1.46-.08-.277.02-1.425.097-1.604.11h-.013c-.009 0-.012.005-.012.005h.025c.179.01 1.327.076 1.606.094.249.015 1.106-.055 1.457-.089 0 .057.008.117.022.175-.333.048-1.213.194-1.451.272-.266.085-1.355.433-1.529.487l-.014.003Zm-.007.003.007-.003h-.004l-.003.003Z"/>
  <path fill="#2B2771" d="M24.581 12c2.532 0 4.582 1.968 4.582 4.393 0 2.427-2.05 4.394-4.582 4.394-2.53 0-4.581-1.967-4.581-4.394C20 13.968 22.05 12 24.581 12Zm-.315.556v.021a.217.217 0 0 1-.22.213.221.221 0 0 1-.222-.177 4.34 4.34 0 0 0-.596.154.203.203 0 0 1 .01.056.22.22 0 0 1-.225.216.218.218 0 0 1-.19-.108 4.232 4.232 0 0 0-.522.294.21.21 0 0 1 .037.118.22.22 0 0 1-.222.213.22.22 0 0 1-.165-.072c-.154.13-.296.268-.428.417a.206.206 0 0 1 .09.168.22.22 0 0 1-.224.215.22.22 0 0 1-.137-.046 3.627 3.627 0 0 0-.288.486.212.212 0 0 1 .135.196.22.22 0 0 1-.224.213.244.244 0 0 1-.082-.016c-.067.184-.12.372-.157.567.105.017.19.105.19.21a.22.22 0 0 1-.224.215l-.023-.002a3.382 3.382 0 0 0 0 .582c.007 0 .014-.004.023-.004.122 0 .224.098.224.216a.219.219 0 0 1-.188.21c.037.194.09.384.16.568a.21.21 0 0 1 .08-.015c.125 0 .224.095.224.215a.214.214 0 0 1-.133.195c.085.17.182.328.29.482a.225.225 0 0 1 .12-.035c.125 0 .223.095.223.215a.204.204 0 0 1-.073.156c.133.15.277.289.433.419a.232.232 0 0 1 .177-.086.22.22 0 0 1 .222.215c0 .05-.017.095-.047.13.167.111.34.207.523.291a.223.223 0 0 1 .198-.119.217.217 0 0 1 .212.284c.189.063.389.114.593.15a.224.224 0 0 1 .22-.178.22.22 0 0 1 .222.214v.02a3.722 3.722 0 0 0 .605 0 .107.107 0 0 1-.002-.02.22.22 0 0 1 .223-.214c.111 0 .201.079.221.176a3.79 3.79 0 0 0 .58-.147.226.226 0 0 1-.012-.07c0-.12.098-.215.223-.215.088 0 .164.05.2.122.186-.084.36-.183.529-.294a.216.216 0 0 1-.045-.13c0-.117.1-.215.222-.215a.22.22 0 0 1 .174.084c.154-.126.298-.264.429-.41a.213.213 0 0 1-.078-.162.22.22 0 0 1 .225-.214c.045 0 .09.014.125.037.11-.156.21-.319.297-.49a.217.217 0 0 1-.138-.198.22.22 0 0 1 .308-.198c.066-.183.12-.37.158-.563a.218.218 0 0 1-.192-.21c0-.119.1-.216.223-.216.009 0 .017.004.027.004.006-.099.013-.196.013-.296 0-.09-.004-.18-.01-.268l-.03.003a.219.219 0 0 1-.223-.215c0-.109.086-.197.197-.21a3.704 3.704 0 0 0-.165-.596.188.188 0 0 1-.082.017.218.218 0 0 1-.224-.213c0-.089.057-.164.136-.196a3.857 3.857 0 0 0-.285-.475.226.226 0 0 1-.134.043.218.218 0 0 1-.223-.214c0-.068.035-.128.088-.168a4.27 4.27 0 0 0-.444-.427.215.215 0 0 1-.172.082.219.219 0 0 1-.222-.213c0-.048.016-.093.044-.128a4.043 4.043 0 0 0-.544-.3.224.224 0 0 1-.203.124.22.22 0 0 1-.222-.216c0-.023.006-.048.014-.07a4.145 4.145 0 0 0-.574-.144.22.22 0 0 1-.22.181.22.22 0 0 1-.224-.213c0-.009.002-.016.004-.023a4.094 4.094 0 0 0-.613.002Z"/>
  <path fill="#2B2771" d="M24.019 16.91c-.26.2-.954.756-1.12.938l-1.067 1.157-.018.017.02-.015c.134-.114 1.006-.835 1.22-1.01.19-.16.779-.816.989-1.063a.893.893 0 0 0 .116.089c-.2.262-.705.965-.816 1.183l-.706 1.386-.014.02a.749.749 0 0 0 .014-.02c.099-.141.74-1.061.897-1.283.139-.198.519-.973.656-1.268a.785.785 0 0 0 .205.078c-.117.269-.454 1.125-.508 1.37-.06.264-.301 1.339-.338 1.509l-.007.025A.211.211 0 0 0 23.55 20c.06-.165.452-1.2.545-1.455.089-.237.275-1.134.325-1.421.049.01.1.014.153.016-.028.288-.097 1.095-.09 1.254.01.195.018 1.489.098 1.767.08-.278.09-1.572.099-1.767.007-.16-.063-.966-.09-1.254a.93.93 0 0 0 .166-.02c.04.249.236 1.206.327 1.452.097.253.486 1.29.548 1.455l-.338-1.513c-.056-.256-.417-1.165-.518-1.397a.804.804 0 0 0 .2-.08c.126.27.527 1.09.672 1.298l.896 1.285.01.02c0-.004-.01-.021-.01-.021l-.707-1.388c-.114-.225-.651-.97-.834-1.21a.676.676 0 0 0 .114-.084c.19.224.813.922 1.01 1.084.213.178 1.083.898 1.22 1.012l.018.016-.017-.018c-.118-.13-.882-.955-1.067-1.157-.171-.19-.907-.776-1.142-.955a.919.919 0 0 0 .108-.134c.266.185 1.013.68 1.242.789.25.118 1.283.606 1.445.68l.02.01c-.168-.107-1.125-.721-1.356-.872-.211-.136-1.033-.51-1.334-.636a.685.685 0 0 0 .06-.128c.296.108 1.174.403 1.429.448.276.049 1.404.254 1.583.287-.17-.057-1.263-.403-1.528-.49-.245-.078-1.161-.23-1.477-.274a.722.722 0 0 0 .03-.174c.338.035 1.223.106 1.474.093l1.608-.097h.024c-.004-.002-.024-.002-.024-.002l-1.606-.11c-.253-.017-1.135.049-1.474.08a.878.878 0 0 0-.01-.115c.344-.055 1.198-.211 1.434-.291.264-.09 1.349-.45 1.52-.51-.178.036-1.303.256-1.578.309-.244.048-1.057.33-1.383.454a.733.733 0 0 0-.062-.17c.314-.137 1.107-.5 1.314-.63.23-.154 1.186-.77 1.336-.866l.02-.011c-.005 0-.022.01-.022.01-.161.077-1.192.564-1.445.682-.221.108-.941.585-1.22.782a.859.859 0 0 0-.08-.114c.238-.182.96-.777 1.13-.967l1.05-1.17.018-.017c-.004.002-.018.015-.018.015-.136.114-.995.846-1.205 1.025-.196.165-.804.863-.992 1.093a.766.766 0 0 0-.14-.12c.178-.235.717-.99.83-1.217.122-.242.622-1.234.699-1.39l.013-.022a.265.265 0 0 0-.014.02l-.886 1.29c-.146.209-.544 1.036-.665 1.307a.788.788 0 0 0-.176-.083c.11-.28.423-1.13.472-1.374l.3-1.517.009-.023a641.619 641.619 0 0 1-.52 1.488c-.082.235-.243 1.119-.29 1.418a.818.818 0 0 0-.215-.033c.022-.23.1-1.13.094-1.3-.01-.197-.02-1.49-.1-1.766-.08.276-.087 1.569-.096 1.766-.01.17.07 1.07.09 1.3a.794.794 0 0 0-.191.027c-.041-.275-.21-1.198-.294-1.44-.09-.254-.455-1.3-.511-1.465.03.17.248 1.255.3 1.519.05.25.373 1.134.48 1.393a.725.725 0 0 0-.18.076c-.111-.255-.521-1.106-.667-1.32-.155-.224-.79-1.145-.888-1.29l-.013-.021.01.022c.08.156.58 1.15.7 1.393.115.229.668 1.004.839 1.23a.704.704 0 0 0-.144.11c-.186-.227-.8-.932-.995-1.098-.211-.177-1.071-.91-1.207-1.023l-.016-.018a.164.164 0 0 0 .016.018l1.05 1.17c.172.192.9.792 1.135.969a.697.697 0 0 0-.084.112c-.282-.198-.998-.674-1.221-.78-.251-.12-1.283-.607-1.445-.683l-.02-.012.019.014c.15.095 1.104.71 1.337.86.206.135.993.495 1.31.633a.813.813 0 0 0-.07.168c-.33-.124-1.131-.403-1.371-.448l-1.578-.31-.023-.005a540.655 540.655 0 0 1 1.544.515c.23.078 1.069.23 1.42.287a.569.569 0 0 0-.013.118c-.35-.034-1.212-.097-1.46-.081l-1.604.11h-.025a426.455 426.455 0 0 1 1.631.098c.248.016 1.106-.054 1.456-.088a.76.76 0 0 0 .023.176c-.333.047-1.212.192-1.45.27-.265.085-1.357.434-1.53.487.178-.03 1.309-.236 1.585-.285.247-.044 1.089-.325 1.406-.44a.843.843 0 0 0 .056.132c-.32.134-1.103.493-1.307.623-.233.153-1.188.767-1.337.862l-.022.012c.006-.001.022-.01.022-.01.16-.076 1.193-.564 1.445-.681.224-.104.934-.576 1.218-.776a.609.609 0 0 0 .109.138Z"/>
</svg>
