<svg width="24" height="24" viewBox="0 0 24 24" fill="none" xmlns="http://www.w3.org/2000/svg">
<path d="M0 6.85714C0 3.07005 3.07005 0 6.85714 0H17.1429C20.93 0 24 3.07005 24 6.85714V17.1429C24 20.93 20.93 24 17.1429 24H6.85714C3.07005 24 0 20.93 0 17.1429V6.85714Z" fill="#737373"/>
<mask id="mask0_5984_1510" style="mask-type:alpha" maskUnits="userSpaceOnUse" x="4" y="4" width="16" height="16">
<rect x="4.80005" y="4.8" width="14.4" height="14.4" fill="#D9D9D9"/>
</mask>
<g mask="url(#mask0_5984_1510)">
<path d="M11.9999 18.2883C11.1304 18.2883 10.3136 18.1223 9.54972 17.7903C8.7858 17.4584 8.11971 17.0083 7.55145 16.44C6.98319 15.8717 6.53449 15.2042 6.20535 14.4375C5.87623 13.6707 5.71167 12.8526 5.71167 11.983C5.71167 11.1135 5.87623 10.2981 6.20536 9.53705C6.53449 8.77596 6.98319 8.11269 7.55145 7.54725C8.11971 6.98182 8.7858 6.53454 9.54972 6.20541C10.3136 5.87629 11.1304 5.71173 11.9999 5.71173C12.8695 5.71173 13.6863 5.8763 14.4502 6.20543C15.2141 6.53456 15.8802 6.98184 16.4484 7.54727C17.0167 8.11271 17.4654 8.77597 17.7945 9.53706C18.1236 10.2982 18.2882 11.1135 18.2882 11.9831C18.2882 12.8526 18.1236 13.6708 17.7945 14.4375C17.4654 15.2042 17.0167 15.8717 16.4484 16.44C15.8802 17.0083 15.2141 17.4584 14.4502 17.7903C13.6863 18.1223 12.8695 18.2883 11.9999 18.2883ZM11.9999 16.6983C12.4947 16.6983 12.9752 16.6249 13.4412 16.4781C13.9073 16.3314 14.3334 16.1072 14.7195 15.8054L8.17755 9.27197C7.88711 9.66936 7.66852 10.0983 7.5218 10.5587C7.37505 11.0191 7.30169 11.4939 7.30169 11.9831C7.30169 13.2948 7.75821 14.4086 8.67125 15.3245C9.58429 16.2403 10.6939 16.6983 11.9999 16.6983ZM15.8308 14.6941C16.1156 14.2967 16.3314 13.8678 16.4781 13.4074C16.6248 12.947 16.6982 12.4722 16.6982 11.9831C16.6982 10.677 16.2417 9.57022 15.3286 8.66283C14.4156 7.75544 13.306 7.30175 11.9999 7.30175C11.5108 7.30175 11.0374 7.37229 10.5798 7.51337C10.1222 7.65446 9.69474 7.86739 9.29735 8.15217L15.8308 14.6941Z" fill="white"/>
</g>
</svg>
