<svg width="24" height="24" viewBox="0 0 24 24" fill="none" xmlns="http://www.w3.org/2000/svg">
<path d="M0 6.85714C0 3.07005 3.07005 0 6.85714 0H17.1429C20.93 0 24 3.07005 24 6.85714V17.1429C24 20.93 20.93 24 17.1429 24H6.85714C3.07005 24 0 20.93 0 17.1429V6.85714Z" fill="#737373"/>
<mask id="mask0_5984_1511" style="mask-type:alpha" maskUnits="userSpaceOnUse" x="4" y="4" width="16" height="16">
<rect x="4.80005" y="4.8" width="14.4" height="14.4" fill="#D9D9D9"/>
</mask>
<g mask="url(#mask0_5984_1511)">
<path d="M8.39995 18C8.06995 18 7.78745 17.8825 7.55245 17.6475C7.31745 17.4125 7.19995 17.13 7.19995 16.8V10.8C7.19995 10.47 7.31745 10.1875 7.55245 9.9525C7.78745 9.7175 8.06995 9.6 8.39995 9.6H8.99995V8.4C8.99995 7.57 9.29245 6.8625 9.87745 6.2775C10.4625 5.6925 11.17 5.4 12 5.4C12.83 5.4 13.5375 5.6925 14.1225 6.2775C14.7075 6.8625 15 7.57 15 8.4V9.6H15.6C15.93 9.6 16.2125 9.7175 16.4475 9.9525C16.6825 10.1875 16.8 10.47 16.8 10.8V16.8C16.8 17.13 16.6825 17.4125 16.4475 17.6475C16.2125 17.8825 15.93 18 15.6 18H8.39995ZM12 15C12.33 15 12.6125 14.8825 12.8475 14.6475C13.0825 14.4125 13.2 14.13 13.2 13.8C13.2 13.47 13.0825 13.1875 12.8475 12.9525C12.6125 12.7175 12.33 12.6 12 12.6C11.67 12.6 11.3875 12.7175 11.1525 12.9525C10.9175 13.1875 10.8 13.47 10.8 13.8C10.8 14.13 10.9175 14.4125 11.1525 14.6475C11.3875 14.8825 11.67 15 12 15ZM10.2 9.6H13.8V8.4C13.8 7.9 13.625 7.475 13.275 7.125C12.925 6.775 12.5 6.6 12 6.6C11.5 6.6 11.075 6.775 10.725 7.125C10.375 7.475 10.2 7.9 10.2 8.4V9.6Z" fill="white"/>
</g>
</svg>
