<svg width="24" height="24" viewBox="0 0 24 24" fill="none" xmlns="http://www.w3.org/2000/svg">
<path d="M0 6.85714C0 3.07005 3.07005 0 6.85714 0H17.1429C20.93 0 24 3.07005 24 6.85714V17.1429C24 20.93 20.93 24 17.1429 24H6.85714C3.07005 24 0 20.93 0 17.1429V6.85714Z" fill="#1C4FD2"/>
<path fill-rule="evenodd" clip-rule="evenodd" d="M12.0001 9.35945C11.5611 9.37075 11.134 9.20804 10.8026 8.90324C10.4832 8.60151 10.3076 8.16479 10.3236 7.71204C10.2925 7.23447 10.4688 6.76795 10.8026 6.4448C11.5025 5.85173 12.4976 5.85173 13.1976 6.4448C13.5313 6.76795 13.7076 7.23447 13.6766 7.71204C13.6925 8.16479 13.5169 8.60151 13.1976 8.90324C12.8661 9.20804 12.439 9.37075 12.0001 9.35945ZM10.3801 12.198C10.3801 11.6325 10.8153 11.1741 11.3521 11.1741H12.6481C13.1849 11.1741 13.6201 11.6325 13.6201 12.198V16.9761C13.6201 17.5416 13.1849 18 12.6481 18H11.3521C10.8153 18 10.3801 17.5416 10.3801 16.9761V12.198Z" fill="white"/>
</svg>
