<svg width="32" height="32" viewBox="0 0 32 32" fill="none" xmlns="http://www.w3.org/2000/svg">
<path d="M0 9.14286C0 4.0934 4.0934 0 9.14286 0H22.8571C27.9066 0 32 4.0934 32 9.14286V22.8571C32 27.9066 27.9066 32 22.8571 32H9.14286C4.0934 32 0 27.9066 0 22.8571V9.14286Z" fill="#1C4FD2"/>
<path fill-rule="evenodd" clip-rule="evenodd" d="M16 12.4793C15.4147 12.4943 14.8453 12.2774 14.4034 11.871C13.9775 11.4687 13.7434 10.8864 13.7647 10.2827C13.7233 9.64596 13.9584 9.02394 14.4034 8.59307C15.3367 7.80231 16.6634 7.80231 17.5967 8.59307C18.0416 9.02394 18.2768 9.64596 18.2353 10.2827C18.2566 10.8864 18.0225 11.4687 17.5967 11.871C17.1548 12.2774 16.5853 12.4943 16 12.4793ZM13.84 16.264C13.84 15.51 14.4203 14.8988 15.136 14.8988H16.864C17.5798 14.8988 18.16 15.51 18.16 16.264V22.6349C18.16 23.3888 17.5798 24 16.864 24H15.136C14.4203 24 13.84 23.3888 13.84 22.6349V16.264Z" fill="white"/>
</svg>
