<svg xmlns="http://www.w3.org/2000/svg" width="180.01" height="20" viewBox="0 0 180.01 20"><g fill="#004fb6"><path d="M9.94 1.87c2.65 0 2.97 0 4 .04 1 .05 1.5.22 1.85.36.46.18.8.4 1.14.73.35.34.56.68.74 1.14.14.35.3.88.34 1.85.04 1.04.05 1.35.05 4 0 2.66 0 2.97-.06 4-.04 1-.2 1.52-.33 1.869-.18.461-.4.801-.74 1.15-.36.34-.68.561-1.14.74-.37.13-.9.3-1.87.34-1.04.051-1.36.061-4 .061-2.67 0-3 0-4.03-.051-.96-.02-1.5-.199-1.84-.319-.46-.181-.8-.4-1.15-.74-.34-.351-.55-.7-.72-1.149-.14-.36-.32-.881-.35-1.86-.05-1.04-.06-1.36-.06-4 0-2.63 0-2.96.06-4 .04-.98.2-1.5.35-1.86.17-.46.38-.8.73-1.15.36-.34.7-.56 1.16-.73.34-.14.88-.32 1.84-.35C6.95 1.9 7.27 1.89 9.93 1.89m0-1.8c-2.7 0-3.04 0-4.1.05-1.05.06-1.78.2-2.4.46-.67.28-1.2.6-1.77 1.16C1.12 2.3.77 2.84.52 3.5.28 4.1.1 4.84.06 5.9 0 6.97 0 7.3 0 10s0 3.04.06 4.1c.05 1.051.2 1.78.46 2.4.25.66.6 1.2 1.15 1.77.56.551 1.1.9 1.76 1.15.63.24 1.36.42 2.4.46 1.07.04 1.4.05 4.1.05 2.7 0 3.04 0 4.1-.05 1.05-.05 1.78-.2 2.4-.46.67-.26 1.23-.6 1.8-1.15.55-.55.87-1.1 1.12-1.76.25-.619.42-1.35.47-2.4.05-1.06.06-1.399.06-4.1 0-2.7 0-3.04-.05-4.08-.04-1.07-.2-1.78-.46-2.43-.25-.66-.6-1.2-1.15-1.77-.56-.55-1.1-.9-1.76-1.15-.63-.24-1.36-.42-2.4-.46C13 .08 12.66.07 9.96.07L9.92.1l.01-.01zm.02 4.8a5.089 5.089 0 00-5.1 5.08v.021c0 2.83 2.3 5.1 5.1 5.1s5.1-2.279 5.1-5.1a5.09 5.09 0 00-5.1-5.101zm0 8.4c-1.83 0-3.32-1.47-3.32-3.3 0-1.8 1.48-3.32 3.3-3.32 1.84 0 3.32 1.5 3.32 3.31s-1.48 3.3-3.3 3.3v.01z"/><circle cx="15.243" cy="4.697" r="1.192"/></g><g fill="#FFF"><path d="M90 1.87c2.649 0 2.97 0 4.021.04.97.05 1.5.22 1.84.36.47.18.8.4 1.149.73.351.34.56.68.74 1.14.14.35.3.88.34 1.85.05 1.04.06 1.35.06 4 0 2.66 0 2.97-.069 4-.05 1-.2 1.52-.34 1.869-.181.461-.4.801-.73 1.15-.37.34-.7.561-1.149.73-.351.14-.881.32-1.851.35-1.05.051-1.36.061-4.02.061-2.66 0-2.97 0-4.02-.051-.96-.02-1.5-.199-1.84-.319-.46-.181-.8-.4-1.15-.74-.35-.351-.56-.7-.73-1.14-.14-.36-.32-.881-.35-1.86-.06-1.04-.07-1.36-.07-4 0-2.63 0-2.96.06-4 .04-.98.2-1.5.34-1.86.18-.46.4-.8.73-1.15.36-.34.7-.561 1.15-.73.35-.14.88-.32 1.84-.35C87 1.91 87.31 1.9 89.97 1.9m0-1.8c-2.7 0-3.03 0-4.1.05-1.05.06-1.78.2-2.4.46-.67.28-1.2.6-1.77 1.16-.52.53-.86 1.08-1.1 1.73-.26.62-.43 1.35-.47 2.4-.06 1.07-.07 1.4-.07 4.1s0 3.04.07 4.1c.04 1.051.2 1.78.46 2.4.24.66.58 1.2 1.13 1.77.56.551 1.1.9 1.76 1.15.62.24 1.35.42 2.4.46 1.06.04 1.4.05 4.1.05 2.701 0 3.03 0 4.1-.05 1.05-.05 1.78-.2 2.399-.46a5.07 5.07 0 001.78-1.15c.56-.55.88-1.1 1.13-1.76.26-.619.43-1.35.48-2.4.061-1.06.07-1.399.07-4.1 0-2.7 0-3.04-.061-4.08-.05-1.07-.22-1.78-.47-2.43-.25-.66-.601-1.2-1.15-1.77-.56-.55-1.1-.88-1.76-1.15-.62-.24-1.351-.4-2.399-.46C93.05.08 92.7.07 90 .07l-.04.02.01.01zM90 4.9a5.09 5.09 0 00-5.1 5.08V10c0 2.83 2.3 5.1 5.1 5.1s5.101-2.279 5.101-5.1A5.09 5.09 0 0090 4.9zm0 8.4c-1.83 0-3.32-1.47-3.32-3.3 0-1.8 1.48-3.32 3.3-3.32s3.32 1.5 3.32 3.3c0 1.831-1.48 3.331-3.3 3.331V13.3z"/><circle cx="95.306" cy="4.697" r="1.192"/></g><g fill="#002185"><path d="M170.069 1.87c2.65 0 2.971 0 4.001.04 1 .05 1.5.22 1.85.36.46.18.8.399 1.141.729.35.34.56.681.739 1.141.14.35.3.88.34 1.85.04 1.04.05 1.35.05 4 0 2.66 0 2.97-.06 4-.04 1-.2 1.52-.33 1.869-.18.461-.399.801-.739 1.15-.361.34-.681.561-1.141.74-.37.13-.9.3-1.87.34-1.04.051-1.36.061-4 .061-2.67 0-3 0-4.029-.051-.961-.02-1.5-.199-1.841-.319-.46-.181-.8-.4-1.149-.74-.34-.351-.551-.7-.721-1.149-.14-.36-.32-.881-.35-1.86-.051-1.04-.061-1.36-.061-4 0-2.63 0-2.96.061-4 .04-.98.199-1.5.35-1.86.17-.46.381-.8.73-1.149.359-.34.699-.561 1.16-.73.34-.14.88-.319 1.84-.35 1.04-.04 1.359-.05 4.02-.05m0-1.802c-2.699 0-3.039 0-4.1.051-1.051.06-1.78.199-2.4.46-.67.279-1.199.6-1.77 1.159-.54.54-.891 1.08-1.141 1.74-.24.601-.42 1.34-.459 2.4-.06 1.07-.06 1.4-.06 4.1s0 3.04.061 4.1c.049 1.051.199 1.78.459 2.4.25.66.601 1.2 1.15 1.77.561.551 1.1.9 1.76 1.15.631.24 1.36.42 2.4.46 1.07.04 1.4.05 4.1.05 2.7 0 3.04 0 4.101-.05 1.05-.05 1.779-.2 2.4-.46.67-.26 1.229-.6 1.799-1.15.551-.55.871-1.1 1.121-1.76.25-.619.42-1.35.469-2.4.051-1.06.061-1.399.061-4.1 0-2.699 0-3.04-.05-4.079-.04-1.07-.2-1.78-.46-2.431-.25-.66-.6-1.2-1.15-1.77-.56-.55-1.1-.9-1.76-1.15-.63-.24-1.359-.42-2.4-.46-1.06-.04-1.399-.05-4.1-.05l-.04.03.009-.01zm.02 4.801a5.09 5.09 0 00-5.101 5.079v.021c0 2.83 2.301 5.1 5.101 5.1s5.1-2.279 5.1-5.1c0-2.831-2.28-5.1-5.1-5.1zm0 8.399c-1.83 0-3.32-1.47-3.32-3.3 0-1.8 1.479-3.32 3.3-3.32 1.841 0 3.32 1.5 3.32 3.311a3.31 3.31 0 01-3.3 3.3v.009z"/><circle cx="175.373" cy="4.697" r="1.192"/></g></svg>
