<svg xmlns="http://www.w3.org/2000/svg" width="49" height="33" viewBox="0 0 49 33"><defs><style>.cls-3{fill:#ffd83d}</style></defs><g id="Lichtenstein"><path d="M0 0h49v33H0z" fill="#002b7f"/><path d="M0 16.52h49V33H0z" fill="#ce1126"/><g id="half"><path d="M10.6 7l-.1 3.06H7.4a4.64 4.64 0 0 1-.7-2.23 1.3 1.3 0 0 1 1.38-1.25A12 12 0 0 1 10.6 7z" class="cls-3"/><path d="M7.08 9V7.18h.07v1.76L7.08 9zm.25.4V7h.07v2.35l-.07.04zm.25.3V6.88h.07v2.8l-.07.04zm.25-.7V6.8h.07V9h-.07zm.25.06L8 9V6.8h.07V9.06zm.25 0V6.72h.07V9l-.07.06zm.25 0V6.72h.07V9l-.07.06zm.25.02V6.75h.07V9l-.07.08zm.24.02V6.77h.07v2.3l-.07.03zm.25.15V6.92h.07v2.3l-.1.03zm.25.32V6.94h.07v2.6l-.07.03zm.25-.3V6.94h.07v2.3l-.1.03zm.25 0V6.94h.07v2.3l-.07.03zM8.64 6.82c.53.1 1.7.63 1.55 1.36-.2 1-.8.62-1.6.47l-.6.2c-.23.23-.55.44-.76.17h-.37v1.4h4V7zm2.22 3.64h-4V9h.4a.27.27 0 0 0 .2.1.78.78 0 0 0 .54-.27l.6-.2.45.1c.34.1.63.16.82 0a.84.84 0 0 0 .3-.6.68.68 0 0 0-.17-.48 2.43 2.43 0 0 0-1.4-.8v-.06l2.23.2v3.4l.03.05zM6.9 10.4h3.92V7.05L9 6.9a2.3 2.3 0 0 1 1 .7.75.75 0 0 1 .15.58.9.9 0 0 1-.32.63c-.22.16-.53.08-.88 0l-.43-.1-.52.2a.83.83 0 0 1-.54.3.34.34 0 0 1-.25-.14h-.3z"/><circle cx="10.43" cy="6.58" r=".24" class="cls-3"/><path d="M10.43 6.87a.3.3 0 1 1 .3-.3.3.3 0 0 1-.3.3zm0-.48a.2.2 0 1 0 .2.17.2.2 0 0 0-.2-.2z"/><circle cx="9.88" cy="6.45" r=".24" class="cls-3"/><path d="M9.88 6.74a.3.3 0 1 1 .3-.3.3.3 0 0 1-.3.3zm0-.48a.2.2 0 1 0 .2.2.2.2 0 0 0-.2-.2z"/><circle cx="9.33" cy="6.31" r=".24" class="cls-3"/><path d="M9.33 6.6a.3.3 0 1 1 .3-.3.3.3 0 0 1-.3.3zm0-.48a.2.2 0 1 0 .2.2.2.2 0 0 0-.2-.2z"/><circle cx="8.78" cy="6.22" r=".24" class="cls-3"/><path d="M8.78 6.5a.3.3 0 1 1 .3-.28.3.3 0 0 1-.3.3zm0-.47a.2.2 0 1 0 .22.2.2.2 0 0 0-.22-.23z"/><circle cx="8.22" cy="6.16" r=".24" class="cls-3"/><path d="M8.22 6.45a.3.3 0 1 1 .3-.3.3.3 0 0 1-.3.3zm0-.48a.2.2 0 1 0 .2.2.2.2 0 0 0-.2-.17z"/><circle cx="7.68" cy="6.19" r=".24" class="cls-3"/><path d="M7.68 6.48a.3.3 0 1 1 .32-.3.3.3 0 0 1-.32.3zm0-.48a.2.2 0 1 0 .2.2.2.2 0 0 0-.2-.2z"/><circle cx="7.16" cy="6.37" r=".24" class="cls-3"/><path d="M7.16 6.66a.3.3 0 1 1 .3-.3.3.3 0 0 1-.3.3zm0-.48a.2.2 0 1 0 .2.2.2.2 0 0 0-.2-.2z"/><circle cx="6.73" cy="6.69" r=".24" class="cls-3"/><path d="M6.73 7A.3.3 0 1 1 7 6.7a.3.3 0 0 1-.27.3zm0-.48a.2.2 0 1 0 .2.2.2.2 0 0 0-.2-.22z"/><circle cx="6.42" cy="7.14" r=".24" class="cls-3"/><path d="M6.42 7.43a.3.3 0 1 1 .3-.3.3.3 0 0 1-.3.3zm0-.48a.2.2 0 1 0 .2.2.2.2 0 0 0-.2-.2z"/><circle cx="6.27" cy="7.67" r=".24" class="cls-3"/><path d="M6.27 8a.3.3 0 1 1 .3-.3.3.3 0 0 1-.3.3zm0-.48a.2.2 0 1 0 .2.2.2.2 0 0 0-.2-.25z"/><circle cx="6.27" cy="8.21" r=".24" class="cls-3"/><path d="M6.27 8.5a.3.3 0 1 1 .3-.3.3.3 0 0 1-.3.3zm0-.48a.2.2 0 1 0 .2.2.2.2 0 0 0-.2-.22z"/><circle cx="6.38" cy="8.75" r=".24" class="cls-3"/><path d="M6.38 9a.3.3 0 1 1 .3-.3.3.3 0 0 1-.3.3zm0-.48a.2.2 0 1 0 .2.2.2.2 0 0 0-.2-.17z"/><path d="M10.53 6.9v.32a13.8 13.8 0 0 0-2.25-.43c-.74 0-1.3.27-1.3 1a4 4 0 0 0 .7 2.05l-.42.2a4.64 4.64 0 0 1-.7-2.23 1.44 1.44 0 0 1 1.52-1.38 11.34 11.34 0 0 1 2.45.45z" class="cls-3"/><path d="M7.25 10.15a4.72 4.72 0 0 1-.7-2.25 1.5 1.5 0 0 1 1.53-1.5 8 8 0 0 1 1.92.32l.54.13v.37c-.22 0-.47-.1-.73-.17a6.25 6.25 0 0 0-1.5-.26c-.5.03-1.3.2-1.3 1a4 4 0 0 0 .7 2l-.42.2zm.83-3.65A1.4 1.4 0 0 0 6.6 7.87 4.56 4.56 0 0 0 7.27 10l.34-.16a4.05 4.05 0 0 1-.7-2.05c0-.7.5-1.1 1.38-1.1A6.32 6.32 0 0 1 9.8 7c.24.06.47.12.67.16v-.22L10 6.82a8 8 0 0 0-1.92-.32z"/></g><g id="half-2"><path d="M11.15 7l.1 3.06h3.1a4.64 4.64 0 0 0 .65-2.2 1.3 1.3 0 0 0-1.37-1.27 12 12 0 0 0-2.48.4z" class="cls-3"/><path d="M14.67 9V7.18h.07v1.76l-.07.06zm-.25.4V7h.07v2.35l-.1.04zm-.24.3V6.88h.07v2.8l-.07.04zm-.25-.7V6.8H14V9h-.07zm-.25.06V6.8h.07V9l-.07.06zm-.25 0V6.72h.07V9l-.07.06zm-.25 0V6.72h.07V9l-.07.06zm-.25.02V6.75H13V9l-.07.08zm-.25.02V6.77h.07v2.3l-.07.03zm-.25.15V6.92h.07v2.3l-.07.03zm-.25.32V6.94h.07v2.6l-.07.03zm-.25-.3V6.94H12v2.3l-.07.03zm-.25 0V6.94h.07v2.3l-.07.03zm1.42-2.45c-.52.1-1.68.63-1.54 1.36.2 1 .8.62 1.6.47l.6.2c.23.22.55.43.76.16h.36v1.43h-4V7zm1.78 3.64h-4V7l2.22-.2v.07a2.43 2.43 0 0 0-1.4.8.68.68 0 0 0-.13.52.84.84 0 0 0 .3.57c.2.13.48.05.8 0l.45-.1.6.2a.78.78 0 0 0 .5.27.27.27 0 0 0 .27-.15h.37v1.45zm-3.95-.07h3.9V9.03h-.3a.34.34 0 0 1-.25.13.83.83 0 0 1-.54-.3l-.6-.2-.42.1c-.35.1-.66.18-.88 0a.9.9 0 0 1-.32-.62.75.75 0 0 1 .15-.58 2.3 2.3 0 0 1 1-.7l-1.78.15z"/><circle cx="11.32" cy="6.58" r=".24" class="cls-3"/><path d="M11.32 6.87a.3.3 0 1 1 .3-.3.3.3 0 0 1-.3.3zm0-.48a.2.2 0 1 0 .2.17.2.2 0 0 0-.2-.2z"/><circle cx="11.87" cy="6.45" r=".24" class="cls-3"/><path d="M11.87 6.74a.3.3 0 1 1 .3-.3.3.3 0 0 1-.3.3zm0-.48a.2.2 0 1 0 .2.2.2.2 0 0 0-.2-.2z"/><circle cx="12.42" cy="6.31" r=".24" class="cls-3"/><path d="M12.42 6.6a.3.3 0 1 1 .3-.3.3.3 0 0 1-.3.3zm0-.48a.2.2 0 1 0 .2.2.2.2 0 0 0-.2-.2z"/><circle cx="12.97" cy="6.22" r=".24" class="cls-3"/><path d="M13 6.5a.3.3 0 1 1 .3-.28.3.3 0 0 1-.3.3zm0-.5a.2.2 0 1 0 .2.2.2.2 0 0 0-.2-.2z"/><circle cx="13.53" cy="6.16" r=".24" class="cls-3"/><path d="M13.53 6.45a.3.3 0 1 1 .3-.3.3.3 0 0 1-.3.3zm0-.48a.2.2 0 1 0 .2.2.2.2 0 0 0-.2-.17z"/><circle cx="14.07" cy="6.19" r=".24" class="cls-3"/><path d="M14.07 6.48a.3.3 0 1 1 .3-.3.3.3 0 0 1-.3.3zm0-.48a.2.2 0 1 0 .2.2.2.2 0 0 0-.2-.2z"/><circle cx="14.59" cy="6.37" r=".24" class="cls-3"/><path d="M14.6 6.66a.3.3 0 1 1 .28-.3.3.3 0 0 1-.3.3zm0-.48a.2.2 0 1 0 .18.2.2.2 0 0 0-.2-.2z"/><circle cx="15.03" cy="6.69" r=".24" class="cls-3"/><path d="M15 7a.3.3 0 1 1 .3-.3.3.3 0 0 1-.3.3zm0-.48a.2.2 0 1 0 .2.2.2.2 0 0 0-.2-.22z"/><circle cx="15.34" cy="7.14" r=".24" class="cls-3"/><path d="M15.34 7.43a.3.3 0 1 1 .3-.3.3.3 0 0 1-.3.3zm0-.48a.2.2 0 1 0 .2.2.2.2 0 0 0-.2-.2z"/><circle cx="15.49" cy="7.67" r=".24" class="cls-3"/><path d="M15.5 8a.3.3 0 1 1 .28-.3.3.3 0 0 1-.3.3zm0-.48a.2.2 0 1 0 .18.2.2.2 0 0 0-.2-.25z"/><circle cx="15.48" cy="8.21" r=".24" class="cls-3"/><path d="M15.48 8.5a.3.3 0 1 1 .3-.3.3.3 0 0 1-.3.3zm0-.48a.2.2 0 1 0 .2.2.2.2 0 0 0-.2-.22z"/><circle cx="15.38" cy="8.75" r=".24" class="cls-3"/><path d="M15.38 9a.3.3 0 1 1 .3-.3.3.3 0 0 1-.3.3zm0-.48a.2.2 0 1 0 .2.2.2.2 0 0 0-.2-.17z"/><path d="M11.22 6.9v.32a13.8 13.8 0 0 1 2.25-.43c.74 0 1.3.27 1.3 1a4 4 0 0 1-.7 2.05l.42.2a4.64 4.64 0 0 0 .7-2.23 1.44 1.44 0 0 0-1.55-1.42 11.34 11.34 0 0 0-2.44.5z" class="cls-3"/><path d="M14.5 10.15l-.42-.2a4 4 0 0 0 .7-2c0-.86-.78-1-1.25-1A6.25 6.25 0 0 0 12 7.1c-.26.07-.5.13-.73.17v-.32-.05l.54-.13a8 8 0 0 1 1.95-.32 1.5 1.5 0 0 1 1.58 1.47 4.72 4.72 0 0 1-.7 2.25l-.1-.02zm-.35-.27l.34.16a4.56 4.56 0 0 0 .65-2.16 1.4 1.4 0 0 0-1.5-1.38 8 8 0 0 0-1.9.32l-.5.12v.22c.2 0 .44-.1.68-.16a6.32 6.32 0 0 1 1.54-.26c.86 0 1.36.4 1.36 1.08a4.05 4.05 0 0 1-.7 2.05z"/></g><path d="M10.88 3.65l-.25.47.25.47.25-.5zm0 1.2l-.25.46.25.5.25-.48z" class="cls-3"/><path d="M10.88 5.83l-.25-.47.25-.47a.05.05 0 0 1 .1 0l.24.45-.25.47h-.1zm-.2-.52l.2.4.2-.38-.2-.36zm.2-.65l-.25-.47.25-.47a.05.05 0 0 1 .1 0l.24.48-.25.47h-.1zm-.2-.52l.2.37.2-.38-.2-.37z"/><path d="M10 4.72l.4.25.4-.25-.4-.25zm1 0l.4.25.4-.25-.4-.25z" class="cls-3"/><path d="M11.38 5L11 4.76v-.08l.4-.25h.05l.4.25v.08L11.4 5zm-.3-.3l.3.2.3-.2-.3-.2zm-.7.3l-.4-.25v-.08l.4-.25h.04l.4.25v.08L10.4 5zm-.32-.3l.3.2.32-.2-.3-.2z"/><circle cx="10.88" cy="4.72" r=".19" class="cls-3"/><path d="M10.88 5a.24.24 0 1 1 .24-.24.24.24 0 0 1-.24.24zm0-.38a.14.14 0 1 0 .14.14.14.14 0 0 0-.14-.18z"/><circle cx="10.88" cy="5.94" r=".51" class="cls-3"/><path d="M10.88 6.5a.56.56 0 1 1 .56-.56.56.56 0 0 1-.56.56zm0-1a.46.46 0 1 0 .46.46.46.46 0 0 0-.46-.48zm.5.6a3 3 0 0 0-1 0v-.07a3 3 0 0 1 1 0v.07zm0-.26H11v-.4h.08v.3h.33v.07zm-1 0v-.07h.32v-.25h.07v.32h-.36z"/><path d="M10.38 6.8a5.92 5.92 0 0 1-.48 2.32l.53-.2a15.46 15.46 0 0 0 .28-2zm1 0l-.38.07a15.46 15.46 0 0 0 .28 2l.53.2a5.92 5.92 0 0 1-.4-2.26z" class="cls-3"/><path d="M11.85 9.17l-.53-.2A10.4 10.4 0 0 1 11 7.3v-.43-.05l.34-.06a5.92 5.92 0 0 0 .47 2.3v.05zm-.5-.3l.4.16a6.28 6.28 0 0 1-.42-2.16h-.24v.4a10.52 10.52 0 0 0 .25 1.6zm-1.45.3v-.06a5.92 5.92 0 0 0 .47-2.27l.34.06v.48a10.4 10.4 0 0 1-.22 1.6l-.53.2zm.52-2.3A6.28 6.28 0 0 1 10 9l.4-.16a10.52 10.52 0 0 0 .22-1.56v-.4z"/><path d="M10.88 8.62a1 1 0 0 0-1.13 1.06c-.15-.27-.8-1.13-1.42-1a1 1 0 0 0-.63 1.14 1.1 1.1 0 0 0-1.82-.5c.57.48.82 1.86 1.3 2.46h7.4c.47-.6.73-2 1.3-2.45a1.1 1.1 0 0 0-1.82.5 1 1 0 0 0-.63-1.16c-.6-.1-1.26.74-1.42 1a1 1 0 0 0-1.1-1.05z" class="cls-3"/><path d="M14.57 11.82h-7.4a4.7 4.7 0 0 1-.55-1.12 3.54 3.54 0 0 0-.74-1.33v-.08A1.26 1.26 0 0 1 7 9a1.1 1.1 0 0 1 .67.56 1 1 0 0 1 .67-1c.58-.1 1.16.57 1.4.9a1 1 0 0 1 1.15-1 1 1 0 0 1 1.14 1c.23-.33.8-1 1.4-.9a1 1 0 0 1 .66 1 1.1 1.1 0 0 1 .67-.56 1.26 1.26 0 0 1 1.13.26v.08a3.55 3.55 0 0 0-.74 1.33 4.7 4.7 0 0 1-.56 1.12zm-7.36-.1h7.36a4.84 4.84 0 0 0 .53-1.08 3.9 3.9 0 0 1 .7-1.33 1.15 1.15 0 0 0-1-.2 1.07 1.07 0 0 0-.7.73H14a1 1 0 0 0-.6-1.1c-.6-.1-1.22.77-1.35 1h-.1a1 1 0 0 0-1.07-1 1 1 0 0 0-1.08 1h-.1a2.92 2.92 0 0 0-.53-.64 1.08 1.08 0 0 0-.84-.36 1 1 0 0 0-.6 1.1h-.1A1.07 1.07 0 0 0 7 9.1a1.15 1.15 0 0 0-1 .22 3.9 3.9 0 0 1 .72 1.33 4.82 4.82 0 0 0 .5 1.08zm7.36.05c0 .27-1.65.57-3.68.57s-3.68-.3-3.68-.57 1.65-.42 3.68-.42 3.68.15 3.68.42zm-3.68.63c-2 0-3.72-.3-3.72-.62s2.85-.45 3.72-.45 3.72 0 3.72.45-1.74.6-3.72.6zm0-1c-2.4 0-3.64.18-3.64.37s1.53.54 3.64.54 3.64-.3 3.64-.52-1.25-.38-3.64-.38z"/><circle cx="10.88" cy="6.65" r=".17" class="cls-3"/><path d="M10.88 6.86a.2.2 0 1 1 .2-.2.2.2 0 0 1-.2.2zm0-.34a.13.13 0 1 0 .13.13.14.14 0 0 0-.1-.13z"/><circle cx="10.88" cy="7.02" r=".18" class="cls-3"/><path d="M10.88 7.24A.22.22 0 1 1 11.1 7a.22.22 0 0 1-.22.24zm0-.37A.15.15 0 1 0 11 7a.15.15 0 0 0-.12-.12z"/><circle cx="10.88" cy="7.42" r=".2" class="cls-3"/><path d="M10.88 7.66a.24.24 0 1 1 .24-.24.24.24 0 0 1-.24.24zm0-.4a.16.16 0 1 0 .16.16.16.16 0 0 0-.16-.16z"/><circle cx="10.88" cy="7.87" r=".23" class="cls-3"/><path d="M10.88 8.13a.26.26 0 1 1 .26-.26.27.27 0 0 1-.26.26zm0-.46a.2.2 0 1 0 .2.2.2.2 0 0 0-.2-.2z"/><circle cx="10.88" cy="8.36" r=".25" class="cls-3"/><path d="M10.88 8.65a.3.3 0 1 1 .3-.3.3.3 0 0 1-.3.3zm0-.5a.2.2 0 1 0 .2.2.2.2 0 0 0-.2-.2zm-.1.7s-.05 0 0 .06 0 .17 0 .23.05.06.06 0a1.24 1.24 0 0 0 0-.2c0-.05-.04-.08-.06-.08zm.2 0s-.06 0-.06.07a1.24 1.24 0 0 0 0 .2c0 .06.05.07.06 0s0-.16 0-.2.02-.08.02-.08zm-.38 0a.06.06 0 0 0 0 .05v.18c0 .08.06 0 .06 0a1 1 0 0 0 0-.2zm.54 0a1 1 0 0 0 0 .2s.06.05.06 0v-.2a.06.06 0 0 0 0-.06zM10.4 9a.05.05 0 0 0 0 .06 1 1 0 0 1 0 .2c0 .04 0 0 0 0v-.2V9zm1 0v.26c0 .05 0 .05 0 0a1 1 0 0 1 0-.2.05.05 0 0 0 0-.06zM8.45 9v.08c0 .08.06.1.1.18s.06 0 .05 0A1.5 1.5 0 0 0 8.5 9h-.04zm4.84 0h-.06a1.5 1.5 0 0 0-.07.18s0 .08.06 0 .06-.1.1-.18-.02 0-.04 0zM8.64 9v.06c0 .06.06.12.08.2s.07 0 .05 0 0-.1-.05-.2S8.67 9 8.65 9zm4.43 0H13s0 .13-.05.18 0 .07.05 0 .06-.13.08-.2v-.05zM8.9 9v.1l.08.17c0 .07.07.05.06 0S9 9.2 9 9.07 8.92 9 8.9 9zm4 0l-.06.06c-.06.06 0 .18-.06.22s0 .06.06 0l.08-.18s-.04-.1-.06-.1zM8.3 9a.06.06 0 0 0 0 .08l.06.13c0 .08.06 0 0 0V9.1L8.3 9zm5.16 0v.19s0 .06 0 0l.07-.15a.06.06 0 0 0-.07-.06zm-3.28.14a.06.06 0 0 0 0 .07c0 .08 0 .13.06.2s.06 0 .06 0a1.4 1.4 0 0 0 0-.2h-.12zm1.4 0a1.4 1.4 0 0 0 0 .2s0 .07.06 0 0-.13.06-.2a.06.06 0 0 0-.13.05zm-.7.06v.1a.6.6 0 0 1-.1.3c0 .06-.1 0-.17 0l-.14-.1c-.07 0-.1 0 0 .08a1.77 1.77 0 0 1 .47 1.12v0a1.77 1.77 0 0 1 .47-1.12c.07-.1 0-.14 0-.1l-.17.12h-.17a.6.6 0 0 1-.1-.3s-.05-.06-.08-.06zm-1.73-.03s0 .15.06.2.1 0 .08 0 0-.1 0-.16a.07.07 0 0 0-.12-.02zm3.46 0a.07.07 0 0 0-.04.06v.15c0 .05 0 .07.06 0s0-.14.07-.2zm-4.47 0v.1l.1.16s.08 0 0 0 0-.1-.07-.18a.05.05 0 0 0-.03-.06zm5.5 0a.05.05 0 0 0-.04 0c0 .07 0 .13-.1.18s0 .08 0 0l.1-.17c.1.04.07 0 .04 0zm-7.06.16v.1a.93.93 0 0 0 .13.13s.04 0 0 0l-.1-.16s-.04-.05-.05-.05zm8.62 0h-.07l-.12.2s0 .08 0 0a.93.93 0 0 0 .14-.13s.1-.05.06-.05zm-8.38 0v.06l.1.17s.1.07.07 0 0-.1-.07-.2a.08.08 0 0 0-.1.02zm8.13 0a.08.08 0 0 0-.08.05c0 .07 0 .1-.06.2s0 .05.07 0l.14-.12s0-.06-.05-.06zm-8.6 0v.06l.15.1h.05a.38.38 0 0 0-.15-.13zm9.08 0a.38.38 0 0 0-.14.12s0 .1.04 0l.16-.1s0 .07-.04.06zm-5.4.12v.26c0 .06.08.06.07 0s0-.12 0-.2zm1.66 0v.2c0 .06.05.04.06 0s0-.13 0-.2V9.4zm-3.14-.1v.08a1.26 1.26 0 0 1 .08.44c0 .06 0 .07-.08 0l-.14-.08s-.08 0 0 .03a1.6 1.6 0 0 1 .58.86c0 .06.06.07 0 0a1.9 1.9 0 0 1 0-1c0-.1 0-.17-.06 0s-.1.1-.16 0a2.35 2.35 0 0 1-.2-.4v-.04zm4.6 0v.05a2.35 2.35 0 0 1-.18.38c-.05.08-.12 0-.16 0s-.1-.05-.07 0a1.9 1.9 0 0 1 0 1c0 .08 0 .07 0 0a1.6 1.6 0 0 1 .58-.86c.07 0 0-.08 0-.05l-.13.08h-.1a1.26 1.26 0 0 1 .1-.44v-.06zm-6.1.12v.06c0 .06.07.14.08.18s.07 0 0 0v-.13a.06.06 0 0 0-.02-.1zm7.6 0a.06.06 0 0 0-.05 0v.15c0 .06 0 .08 0 0s.06-.1.08-.18.05.03.03.03zM8 9.4v.1l.13.15s.07 0 0 0L8 9.43zm5.76 0l-.13.18s0 .08 0 0l.13-.15s.03-.05 0-.04zm-6.47.18v.2a1 1 0 0 0 0-.15.05.05 0 0 0 0-.05zm7.16 0a1 1 0 0 0 0 .15s0 .06 0 0v-.15c0-.05.02 0 0 0zm-6.54.07s-.06 0 0 .08.12.12.14.15.08 0 0 0L8 9.68l-.07-.03zm5.88 0l-.1.17c0 .06 0 .07 0 0s.08-.08.14-.15 0-.08 0-.08zm-6.9.2v.06a.93.93 0 0 1 .17.34c0 .07 0 .06-.06.06s-.1-.08-.2-.1-.1 0 0 .08a2.6 2.6 0 0 1 .73.68c0 .1.1.12.08 0a1.17 1.17 0 0 1-.1-.62 1.7 1.7 0 0 0 .05-.3c0-.08 0-.07-.07 0a.58.58 0 0 1-.05.14H7.3a2.35 2.35 0 0 0-.3-.3zm7.93 0h-.05a2.35 2.35 0 0 0-.27.3c-.04.07-.1.06-.12 0a.58.58 0 0 1-.05-.15c0-.07-.06-.08-.07 0a1.7 1.7 0 0 0 .05.3 1.17 1.17 0 0 1-.1.62c0 .1 0 .05.08 0a2.6 2.6 0 0 1 .72-.68c.05 0 0-.08 0-.07s-.13.08-.22.08-.06 0-.06-.06a.93.93 0 0 1 .16-.34s-.02-.02-.04-.02z"/><path d="M7.36 11.46l.1.3m.1-.36l.08.3m.13-.33l.06.3m.17-.34l.06.3m.2-.33l.04.3m.22-.3l.05.3m.2-.4v.32m.22-.3v.3m.2-.34v.3m.2-.33v.32m.2-.32v.32m.2-.33v.32m.26-.33v.32m.28-.32v.32m3.87 0l-.1.3m-.1-.36l-.07.3m.06-.34l-.07.3m-.14-.34l-.07.3m-.2-.33l-.04.3m-.23-.3l-.05.3m-.2-.4v.3m-.22-.3v.3m-.2-.33v.3m-.2-.33v.32m-.4-.3v.33m-.2-.34v.32m-.25-.34v.32m-.28-.32v.32m-.35-.34v.35" class="cls-3"/><path d="M14.3 11.8l.1-.3h.07l-.1.3h-.07zm-6.85 0l-.1-.3h.07l.1.3zm6.66-.05l.1-.3h.07l-.08.3h-.07zm-6.46 0l-.08-.3h.07l.08.3zm6.3 0l.05-.3h.06l-.06.3-.07-.03zm-6.12 0l-.05-.3h.07l.06.3zm5.92 0l.06-.3h.07l-.06.3-.06-.07zm-5.7 0l-.06-.3h.07l.06.3zm5.46 0l.05-.3h.07l-.05.3-.06-.1zm-5.22 0l-.05-.3h.08l.06.3zm4.95 0l.06-.3h.06l-.05.3-.05-.1zm-4.67 0l-.05-.3h.08l.05.3zm4.18-.07v-.3h.08v.3l-.06-.1zm-3.7-.1v-.3h.07v.3zm3.94 0v-.3h.07v.3zm-4.18 0v-.3h.07v.3zm3.7 0v-.3h.07v.3l-.05-.03zm-3.2 0v-.3h.06v.3zm2.73 0v-.32h.06v.32l-.07-.05zm-2.27 0v-.32h.07v.32zm2.5 0v-.32h.08v.32l-.04-.05zm-2.76 0v-.32h.07v.32zm2.28 0v-.32h.07v.32l-.04-.07zm-1.8 0v-.32h.07v.32zm.9 0v-.35h.07v.35l-.04-.08zm.65 0v-.32h.07v.32l-.05-.08zm-1.3 0v-.32.32zm1 0v-.32h.07v.32l-.04-.1zm-.7 0v-.32.32z"/></g></svg>
