<svg xmlns="http://www.w3.org/2000/svg" width="100" height="100" viewBox="0 0 100 100"><path d="M73.13 10.05a31.06 31.06 0 0 0-9.83-1.6A22.28 22.28 0 0 0 50.05 13 21.94 21.94 0 0 0 36.7 8.45a31.05 31.05 0 0 0-9.84 1.6C15.8 14 8.48 24.32 8.48 36.72c0 7.5 1.9 14.9 9.3 23.1L50 91.56l32.2-31.72c7.43-8.22 9.3-15.6 9.3-23.1.02-12.4-7.3-22.73-18.37-26.68zm0 45.1L50.4 77.2l-.4.4-23.17-22.45c-5.34-5.82-6.7-11-6.7-16.37a19.66 19.66 0 0 1 13.23-18.9 22.66 22.66 0 0 1 7.08-1.12 17.65 17.65 0 0 1 9.9 3.4l.26-.16a14.74 14.74 0 0 1 9-3.22 22.66 22.66 0 0 1 7.08 1.13 19.66 19.66 0 0 1 13.2 18.88c0 5.32-1.37 10.54-6.7 16.37z" fill="#5c596d"/></svg>
