<svg xmlns="http://www.w3.org/2000/svg" width="180.01" height="20" viewBox="0 0 180 20"><path fill="#fff" d="M98.45.07H81.47C80.67.07 80 .72 80 1.5v17.06c0 .8.66 1.44 1.47 1.44h16.98c.8 0 1.48-.64 1.48-1.44V1.5c0-.78-.67-1.43-1.48-1.43zM85.9 17.05h-2.95v-9.5h2.96v9.5zm-1.47-10.8c-.95 0-1.7-.77-1.7-1.72 0-.94.75-1.7 1.7-1.7s1.72.76 1.72 1.7c0 .95-.77 1.7-1.72 1.7zm12.55 10.8h-2.95v-4.62c0-1.1-.03-2.52-1.54-2.52-1.55 0-1.78 1.2-1.78 2.45v4.7h-2.96v-9.5h2.84v1.3h.04c.4-.75 1.36-1.54 2.8-1.54 3 0 3.54 1.98 3.54 4.54v5.2z"/><path fill="#002185" d="M178.53.07h-16.97c-.8 0-1.47.65-1.47 1.44v17.06c0 .8.65 1.44 1.46 1.44h16.97c.82 0 1.48-.65 1.48-1.44V1.5c0-.78-.65-1.43-1.47-1.43z"/><path fill="#fff" d="M163.04 7.54H166v9.5h-2.96v-9.5zm1.48-4.72c.94 0 1.7.76 1.7 1.7 0 .96-.75 1.72-1.7 1.72s-1.7-.77-1.7-1.7c0-.96.75-1.72 1.7-1.72M167.85 7.54h2.83v1.3h.04c.4-.75 1.36-1.53 2.8-1.53 3 0 3.54 1.98 3.54 4.54v5.2h-2.95v-4.6c0-1.12 0-2.53-1.52-2.53-1.54 0-1.78 1.2-1.78 2.45v4.7h-2.95v-9.5z"/><path fill="#004fb6" d="M18.45.08H1.47C.67.08 0 .72 0 1.52v17.04C0 19.36.66 20 1.47 20h16.98c.8 0 1.47-.64 1.47-1.44V1.52c0-.8-.66-1.44-1.47-1.44z"/><path fill="#fff" d="M2.95 7.55H5.9v9.5H2.96v-9.5zm1.48-4.73c.95 0 1.7.77 1.7 1.7 0 .96-.75 1.73-1.7 1.73-.94 0-1.7-.77-1.7-1.72 0-.94.75-1.7 1.7-1.7M7.76 7.55h2.83v1.3h.03c.4-.75 1.36-1.54 2.8-1.54 3 0 3.54 1.98 3.54 4.54v5.22h-2.95v-4.63c0-1.1-.02-2.52-1.53-2.52-1.55 0-1.8 1.2-1.8 2.45v4.7H7.77v-9.5z"/></svg>
