<svg xmlns="http://www.w3.org/2000/svg" width="100.083" height="19.917" viewBox="0 0 100 20"><path fill="#FFD900" d="M19.917 9.958c0 5.5-4.459 9.958-9.959 9.958C4.459 19.917 0 15.458 0 9.958S4.459 0 9.958 0c5.5 0 9.959 4.458 9.959 9.958z"/><path fill="#004fb6" d="M59.917 9.958c0 5.5-4.459 9.958-9.959 9.958-5.499 0-9.958-4.458-9.958-9.958S44.459 0 49.958 0c5.5 0 9.959 4.458 9.959 9.958z"/><path fill="#3E812C" d="M100.083 9.958c0 5.5-4.459 9.958-9.959 9.958-5.499 0-9.958-4.458-9.958-9.958S84.625 0 90.124 0c5.5 0 9.959 4.458 9.959 9.958z"/></svg>
