<svg xmlns="http://www.w3.org/2000/svg" width="100" height="100" viewBox="0 0 100 100"><path fill="#fff" d="M50 5.1a46.4 46.4 0 1 0 46.4 46.4A46.4 46.4 0 0 0 50 5.1zm.93 6.5c32.26 0 38.87 34.1 38.87 34.1a131.38 131.38 0 0 1-14.2-3.45c-8.74-2.6-17.78-6.77-24.68-6.77-11.36 0-20.34 4.8-30.25 7.83a64.56 64.56 0 0 1-10.47 2.4C12.32 35 20.94 11.6 50.93 11.6zM10.2 58.45S42.84 57 42.84 91.2c0 1.6-29.06-7.02-32.64-32.75zm39.4 5.82a10 10 0 1 1 10-10 10 10 0 0 1-10 10zm7.26 27S55.4 58.6 89.62 58.6c1.6 0-7.03 29.05-32.76 32.63z" /><circle fill="#fff" cx="49.59" cy="54.23" r="4.05" /></svg>
