<svg width="32" height="32" viewBox="0 0 32 32" fill="none" xmlns="http://www.w3.org/2000/svg">
<path fill-rule="evenodd" clip-rule="evenodd" d="M31.9721 9.78415C31.7902 9.20878 30.7598 9.05719 29.6988 9.39052C29.4261 9.48125 29.1836 9.57226 28.9712 9.69342L28.4861 8.84558C27.1525 6.60467 25.7884 4.81769 25.3337 4.63595C24.4547 4.24232 22.3633 4.03015 18.3623 4H17.9683H17.5743C13.5733 4.03015 11.5121 4.24232 10.6029 4.63595C10.1784 4.84784 8.81458 6.60439 7.48092 8.84558L7.47354 8.85924C7.09868 8.9339 6.80504 9.01947 6.58099 9.11593C6.1542 9.32782 4.7828 11.0844 3.44175 13.3256L2.98462 14.1128C2.77137 13.9917 2.55783 13.9009 2.31395 13.8403C1.21678 13.5073 0.210921 13.6586 0.0280117 14.234C-0.154897 14.8094 0.576739 15.5363 1.67391 15.8694C1.79585 15.8995 1.91779 15.9299 2.00911 15.9601C1.09484 17.8074 0.424175 19.7152 0.424175 21.1083V26.8927C0.424175 27.3469 0.789993 27.68 1.24713 27.68H3.92923C4.38636 27.68 4.75218 27.3165 4.75218 26.8927V25.1152H23.192V26.8927C23.192 27.3469 23.5578 27.68 24.0149 27.68H26.6971C27.1542 27.68 27.52 27.3165 27.52 26.8927V23.2H30.608C31.0626 23.2 31.4264 22.8365 31.4264 22.4127V16.6283C31.4264 15.2352 30.7595 13.388 29.8807 11.5407C30.0322 11.5105 30.1534 11.4801 30.3051 11.4195C31.4267 11.0561 32.154 10.3291 31.9721 9.78415ZM9.02112 8.65244C10.0394 7.04244 10.9205 5.94294 11.2093 5.70245C12.3178 5.24802 15.8248 5.19294 17.7322 5.16298L18.0902 5.15723C19.8483 5.15723 23.7582 5.21781 24.9404 5.70245C25.304 5.97492 26.6074 7.67089 27.9411 10.0028H22.2978C21.8935 9.50615 21.573 9.18729 21.3935 9.11593C20.5096 8.7223 18.4066 8.51013 14.3834 8.47998H13.9873H13.5911C11.6385 8.49461 10.1454 8.55212 9.02112 8.65244ZM24.9804 14.0461C25.0052 14.0903 25.0291 14.1332 25.0512 14.1734C25.3018 14.63 25.6108 15.2688 25.7979 15.6631L28.3046 15.3326C28.6684 15.272 28.9716 14.939 28.9716 14.5454V13.879C28.9716 13.5155 28.6684 13.1824 28.3046 13.2126C27.5032 13.233 26.1308 13.3788 24.9804 14.0461ZM10.4216 21.751H17.7365V23.5681H10.4216V21.751ZM3.77723 17.6924C3.41142 17.6924 3.10657 18.0254 3.10657 18.3889V19.0553C3.10657 19.4489 3.41142 19.7823 3.77723 19.8426L8.16621 20.4179C8.53203 20.4785 8.71493 20.206 8.53202 19.9031C7.40423 17.9953 4.96572 17.7228 3.77723 17.6924ZM19.626 19.8732C20.7538 18.0256 23.192 17.7227 24.3807 17.6926C24.7466 17.6624 25.0514 17.9955 25.0514 18.359V19.0253C25.0514 19.419 24.7466 19.752 24.3807 19.8126L19.9918 20.388C19.626 20.4486 19.443 20.2062 19.626 19.8732ZM7.19076 10.1824C6.82494 10.4853 5.51451 12.1509 4.17346 14.4828H13.7134H14.4754H24.0153C22.6743 12.1509 21.3635 10.4549 20.998 10.1824C19.8092 9.69779 15.8777 9.63721 14.1098 9.63721L13.7498 9.64296C11.8318 9.67292 8.30543 9.728 7.19076 10.1824Z" fill="#004FB6"/>
</svg>
