<svg xmlns="http://www.w3.org/2000/svg" width="100" height="100" viewBox="0 0 100 100"><path fill="#5c596d" d="M60.26 27c13.14 2.28 9.42-12.3 16.3-16.3-11.23-.35-18.56 3.24-20.13 12.5 3.58-1.5 4.93-5.3 9.58-5.76-2 3.1-4.26 6-5.75 9.6M36.28 9.75c-.1 3.63 8.15 7.18 8.63 13.43-15.2 4.48-15.23-14-22.04-21.1C37.33 2 48 5.68 48.76 19.34c-4.37-6.54-8.88-5.34-12.48-9.6" /><path d="M76.03 61.43h-45.7l-1.1-10.6h47.92l-1.12 10.6zm-1.83 1.1H32.55s3.55 22.94 5 33c11.13 3.22 20.33 3.22 31.9 0 1.34-10.1 4.77-33 4.77-33zM68.7 50c-3.65-3-9.53-4.9-16.2-4.9S40 47 36.33 50H68.7z" fill="#5c596d"/><path fill="#5c596d" d="M41.5 15.3s10.2 9.37 10.2 28.94h2s-.4-13 8.56-23.24c0 0-6.93 4.5-9.38 12.23.03 0-.37-8.56-11.38-17.94z" /></svg>
