<svg xmlns="http://www.w3.org/2000/svg" width="100" height="100" viewBox="0 0 100 100"><path fill="#fff" d="M57.3 27c13.1 2.3 9.4-12.3 16.3-16.3-11.3-.4-18.6 3.2-20.2 12.5 3.6-1.5 4.9-5.3 9.6-5.8-2 3.1-4.3 6-5.7 9.6m-24-17.2c-.1 3.6 8.2 7.2 8.6 13.4-15.2 4.5-15.2-14-22-21.1C34.3 2 45 5.7 45.8 19.3c-4.4-6.5-8.9-5.3-12.5-9.5" /><path fill="#fff" d="M72.8 61.4H27.2L26 50.8h48zm-2 1.1H29.2s3.5 22.9 5 33c11.1 3.2 20.3 3.2 31.9 0 1.3-10.1 4.7-33 4.7-33zM66.2 50c-3.6-3-9.5-4.9-16.2-4.9S37.5 47 33.8 50h32.4zM38.5 15.3s10.2 9.4 10.2 29h2s-.4-13 8.6-23.2c0 0-6.9 4.5-9.4 12.2 0-.1-.4-8.6-11.4-18z" /></svg>
