<svg xmlns="http://www.w3.org/2000/svg" width="17" height="17"><path fill="#5C596D" fill-rule="evenodd" d="M.647 5.525a27.476 27.476 0 0010.64 10.639l.214.117a5.069 5.069 0 003.864.447l.29-.077a1.626 1.626 0 001.088-1.068l.252-2.233a.81.81 0 00-.485-.835l-2.485-1.068a1.412 1.412 0 00-1.748.524l-.621.95a.65.65 0 01-.874.215 17.467 17.467 0 01-7.028-7.164.667.667 0 01.194-.855l.796-.563a1.404 1.404 0 00.486-1.786L4.123.458A.797.797 0 003.268.01l-2.02.33a1.577 1.577 0 00-.931.932 5.098 5.098 0 00.33 4.252L6-21"/></svg>