<svg xmlns="http://www.w3.org/2000/svg" xmlns:xlink="http://www.w3.org/1999/xlink" width="234" height="28">
  <defs>
    <path id="a" d="M2.786 14v-3.36h1.456a5.19 5.19 0 0 0 1.379-.175 3.07 3.07 0 0 0 1.106-.546 2.58 2.58 0 0 0 .735-.931c.177-.373.266-.812.266-1.316 0-.532-.089-.978-.266-1.337a2.344 2.344 0 0 0-.728-.875 2.903 2.903 0 0 0-1.099-.476 6.492 6.492 0 0 0-1.393-.14h-3.08V14h1.624zm1.33-4.662h-1.33V6.146h1.33c.672 0 1.176.11 1.512.329.336.22.504.618.504 1.197 0 1.11-.672 1.666-2.016 1.666zm7.7 4.83c.43 0 .842-.08 1.239-.238a2.978 2.978 0 0 0 1.043-.7c.299-.308.539-.686.721-1.134.182-.448.273-.957.273-1.526 0-.57-.091-1.078-.273-1.526a3.497 3.497 0 0 0-.721-1.134 3.062 3.062 0 0 0-1.043-.707 3.223 3.223 0 0 0-2.471 0c-.392.163-.74.399-1.043.707a3.349 3.349 0 0 0-.721 1.134 4.128 4.128 0 0 0-.266 1.526c0 .57.089 1.078.266 1.526.177.448.418.826.721 1.134.303.308.651.541 1.043.7.392.159.803.238 1.232.238zm0-1.316c-.504 0-.898-.208-1.183-.623-.285-.415-.427-.968-.427-1.659 0-.7.142-1.258.427-1.673a1.357 1.357 0 0 1 1.183-.623c.504 0 .9.208 1.19.623.29.415.434.973.434 1.673 0 .69-.145 1.244-.434 1.659-.29.415-.686.623-1.19.623zM19.586 14l.784-3.192c.075-.327.145-.653.21-.98.065-.327.13-.672.196-1.036h.056l.21 1.029c.065.322.135.646.21.973L22.05 14h1.918l1.75-6.874h-1.512l-.826 3.57c-.065.327-.126.653-.182.98-.056.327-.117.658-.182.994h-.056l-.224-.994a37.38 37.38 0 0 0-.238-.98l-.91-3.57h-1.47l-.896 3.57c-.084.327-.161.653-.231.98-.07.327-.138.658-.203.994h-.056a27.902 27.902 0 0 1-.175-.994 14.497 14.497 0 0 0-.189-.98l-.826-3.57h-1.624L17.738 14h1.848zm10.346.168c.439 0 .859-.07 1.26-.21.401-.14.765-.317 1.092-.532l-.546-1.008a3.702 3.702 0 0 1-.763.371 2.535 2.535 0 0 1-.833.133c-.56 0-1.02-.168-1.379-.504-.36-.336-.576-.817-.651-1.442h4.368a3.23 3.23 0 0 0 .07-.756c0-.476-.06-.915-.182-1.316a2.956 2.956 0 0 0-.539-1.036 2.404 2.404 0 0 0-.889-.672c-.355-.159-.765-.238-1.232-.238a2.9 2.9 0 0 0-1.176.252 3.132 3.132 0 0 0-1.015.714c-.294.308-.53.686-.707 1.134a4.079 4.079 0 0 0-.266 1.512c0 .57.086 1.076.259 1.519.173.443.413.819.721 1.127a3.15 3.15 0 0 0 1.078.707c.41.163.854.245 1.33.245zm1.218-4.214h-3.052c.075-.579.266-1.015.574-1.309a1.512 1.512 0 0 1 1.078-.441c.476 0 .828.154 1.057.462.229.308.343.737.343 1.288zM35.7 14V9.8c.215-.523.471-.889.77-1.099.299-.21.583-.315.854-.315a2.157 2.157 0 0 1 .714.112l.28-1.4c-.196-.093-.457-.14-.784-.14-.364 0-.719.119-1.064.357-.345.238-.64.581-.882 1.029h-.056l-.112-1.218h-1.33V14h1.61zm6.412.168c.439 0 .859-.07 1.26-.21.401-.14.765-.317 1.092-.532l-.546-1.008a3.702 3.702 0 0 1-.763.371 2.535 2.535 0 0 1-.833.133c-.56 0-1.02-.168-1.379-.504-.36-.336-.576-.817-.651-1.442h4.368a3.23 3.23 0 0 0 .07-.756c0-.476-.06-.915-.182-1.316a2.956 2.956 0 0 0-.539-1.036 2.404 2.404 0 0 0-.889-.672c-.355-.159-.765-.238-1.232-.238a2.9 2.9 0 0 0-1.176.252 3.132 3.132 0 0 0-1.015.714c-.294.308-.53.686-.707 1.134a4.079 4.079 0 0 0-.266 1.512c0 .57.086 1.076.259 1.519.173.443.413.819.721 1.127a3.15 3.15 0 0 0 1.078.707c.41.163.854.245 1.33.245zm1.218-4.214h-3.052c.075-.579.266-1.015.574-1.309a1.512 1.512 0 0 1 1.078-.441c.476 0 .828.154 1.057.462.229.308.343.737.343 1.288zm5.348 4.214c.373 0 .728-.089 1.064-.266a3.64 3.64 0 0 0 .882-.644h.056l.112.742h1.33V4.116h-1.61v2.492l.056 1.106a3.98 3.98 0 0 0-.812-.553c-.27-.135-.602-.203-.994-.203a2.48 2.48 0 0 0-1.085.252c-.35.168-.66.406-.931.714-.27.308-.488.686-.651 1.134a4.392 4.392 0 0 0-.245 1.512c0 1.139.254 2.023.763 2.653.509.63 1.197.945 2.065.945zm.392-1.33c-.504 0-.889-.194-1.155-.581-.266-.387-.399-.954-.399-1.701 0-.728.154-1.288.462-1.68.308-.392.686-.588 1.134-.588a2 2 0 0 1 .693.126c.229.084.464.233.707.448v3.206c-.448.513-.929.77-1.442.77zm11.298 1.33c.383 0 .751-.084 1.106-.252.355-.168.667-.41.938-.728a3.66 3.66 0 0 0 .651-1.169c.163-.462.245-.987.245-1.575a5.3 5.3 0 0 0-.182-1.442 3.216 3.216 0 0 0-.532-1.099 2.377 2.377 0 0 0-.854-.7 2.593 2.593 0 0 0-1.148-.245c-.355 0-.702.08-1.043.238a4.03 4.03 0 0 0-.945.616l.042-1.148V4.116h-1.61V14h1.274l.14-.7h.042c.29.28.595.495.917.644.322.15.642.224.959.224zm-.336-1.33c-.205 0-.427-.042-.665-.126a2.225 2.225 0 0 1-.721-.448V9.058c.523-.513 1.027-.77 1.512-.77.523 0 .9.191 1.134.574.233.383.35.92.35 1.61 0 .784-.154 1.374-.462 1.771-.308.397-.69.595-1.148.595zm5.278 3.99c.373 0 .702-.058.987-.175.285-.117.537-.285.756-.504.22-.22.413-.483.581-.791.168-.308.322-.658.462-1.05l2.492-7.182h-1.554L67.998 10.5a208.316 208.316 0 0 0-.518 1.932h-.056a60.932 60.932 0 0 1-.301-.987 22.823 22.823 0 0 0-.301-.945l-1.19-3.374h-1.638l2.702 6.79-.126.434a2.082 2.082 0 0 1-.497.847c-.22.22-.511.329-.875.329-.084 0-.17-.012-.259-.035a11.608 11.608 0 0 1-.231-.063l-.294 1.26c.13.047.266.082.406.105.14.023.303.035.49.035z"/>
  </defs>
  <g style="fill:none;fill-rule:nonzero" transform="translate(0 2)">
    <use xlink:href="#a" width="100%" height="100%" style="fill:#000"/>
    <use xlink:href="#a" width="100%" height="100%" style="fill:#444"/>
  </g>
  <path d="M206.574 37.436c.726.13 3.332.89 3.332 2.74v29.64h8.81V36.38h-12.142zm-67.058 19.055 5.904-13.154 5.156 13.154zm-2.224-20.111v1.056c1.067.223 3.38.868 2.444 2.955l-13.14 29.427h6.941l4.116-9.174h14.554l3.599 9.174h9.127l-13.04-33.438Zm137.314 20.111 5.9-13.154 5.16 13.154zM272.38 36.38v1.056c1.064.223 3.382.868 2.442 2.955l-13.137 29.427h6.942l4.108-9.174h14.556l3.6 9.174h9.134l-13.046-33.44H272.38zm-23.438 33.437 13.933-33.438h-6.589l-10.218 24.52-9.721-24.52h-12.384v1.057c1.43.274 3.035.89 3.769 2.739l11.752 29.642zm-61.075 0 13.937-33.438h-6.593l-10.216 24.52-9.725-24.52h-12.38v1.057c1.432.274 3.033.89 3.77 2.739l11.747 29.642zm-73.874-.016.011-33.418-11.273-.003v.003l3.268 33.662c2.61-.152 5.275-.239 7.994-.244m-14.582.805 3.32-34.222v-.005l-29.476.005.015 40.635c6.925-3.027 15.939-5.284 26.141-6.413" class="cls-1" style="fill:#191d64;stroke-width:0" transform="translate(33.218 -24.12) scale(.66593)"/>
</svg>
