<svg xmlns="http://www.w3.org/2000/svg" width="103" height="42">
  <path d="M17.162.844h3.08c.504 0 .968.047 1.393.14.425.093.791.252 1.099.476.308.224.55.516.728.875.177.36.266.805.266 1.337 0 .504-.089.943-.266 1.316a2.58 2.58 0 0 1-.735.931 3.07 3.07 0 0 1-1.106.546 5.19 5.19 0 0 1-1.379.175h-1.456V10h-1.624zm2.954 4.494c1.344 0 2.016-.555 2.016-1.666 0-.579-.168-.978-.504-1.197-.336-.22-.84-.329-1.512-.329h-1.33v3.192zm4.746 1.232c0-.57.089-1.078.266-1.526.177-.448.418-.826.721-1.134a3.172 3.172 0 0 1 2.275-.952c.43 0 .842.082 1.239.245.397.163.744.399 1.043.707.299.308.539.686.721 1.134.182.448.273.957.273 1.526 0 .57-.091 1.078-.273 1.526a3.497 3.497 0 0 1-.721 1.134 2.978 2.978 0 0 1-1.043.7c-.397.159-.81.238-1.239.238-.43 0-.84-.08-1.232-.238a3.065 3.065 0 0 1-1.043-.7 3.349 3.349 0 0 1-.721-1.134 4.128 4.128 0 0 1-.266-1.526Zm1.652 0c0 .69.142 1.244.427 1.659.285.415.679.623 1.183.623s.9-.208 1.19-.623c.29-.415.434-.968.434-1.659 0-.7-.145-1.258-.434-1.673a1.374 1.374 0 0 0-1.19-.623c-.504 0-.898.208-1.183.623-.285.415-.427.973-.427 1.673Zm5.796-3.444h1.624l.826 3.57c.075.327.138.653.189.98.051.327.11.658.175.994h.056c.065-.336.133-.667.203-.994a24.8 24.8 0 0 1 .231-.98l.896-3.57h1.47l.91 3.57c.084.327.163.653.238.98.075.327.15.658.224.994h.056c.065-.336.126-.667.182-.994.056-.327.117-.653.182-.98l.826-3.57h1.512L40.36 10h-1.918l-.798-3.206a40.582 40.582 0 0 1-.21-.973l-.21-1.029h-.056a46.023 46.023 0 0 1-.406 2.016L35.978 10H34.13ZM43.02 6.57c0-.56.089-1.064.266-1.512.177-.448.413-.826.707-1.134a3.132 3.132 0 0 1 1.015-.714 2.898 2.898 0 0 1 1.176-.252c.467 0 .877.08 1.232.238.355.159.651.383.889.672.238.29.418.635.539 1.036.121.401.182.84.182 1.316 0 .317-.023.57-.07.756h-4.368c.075.625.292 1.106.651 1.442.36.336.819.504 1.379.504.299 0 .576-.044.833-.133.257-.089.511-.212.763-.371l.546 1.008c-.327.215-.69.392-1.092.532-.401.14-.821.21-1.26.21a3.57 3.57 0 0 1-1.33-.245A3.158 3.158 0 0 1 44 9.216a3.225 3.225 0 0 1-.721-1.127c-.173-.443-.259-.95-.259-1.519Zm4.606-.616c0-.55-.114-.98-.343-1.288-.229-.308-.581-.462-1.057-.462-.41 0-.77.147-1.078.441-.308.294-.5.73-.574 1.309zm2.94-2.828h1.33l.112 1.218h.056c.243-.448.537-.791.882-1.029.345-.238.7-.357 1.064-.357.327 0 .588.047.784.14l-.28 1.4a2.157 2.157 0 0 0-.714-.112c-.27 0-.555.105-.854.315-.299.21-.555.576-.77 1.099V10h-1.61zM55.34 6.57c0-.56.089-1.064.266-1.512.177-.448.413-.826.707-1.134a3.132 3.132 0 0 1 1.015-.714 2.898 2.898 0 0 1 1.176-.252c.467 0 .877.08 1.232.238.355.159.651.383.889.672.238.29.418.635.539 1.036.121.401.182.84.182 1.316 0 .317-.023.57-.07.756h-4.368c.075.625.292 1.106.651 1.442.36.336.819.504 1.379.504.299 0 .576-.044.833-.133.257-.089.511-.212.763-.371l.546 1.008c-.327.215-.69.392-1.092.532-.401.14-.821.21-1.26.21a3.57 3.57 0 0 1-1.33-.245 3.158 3.158 0 0 1-1.078-.707 3.225 3.225 0 0 1-.721-1.127c-.173-.443-.259-.95-.259-1.519Zm4.606-.616c0-.55-.114-.98-.343-1.288-.229-.308-.581-.462-1.057-.462-.41 0-.77.147-1.078.441-.308.294-.5.73-.574 1.309zm2.52.616a4.4 4.4 0 0 1 .245-1.512c.163-.448.38-.826.651-1.134.27-.308.581-.546.931-.714a2.48 2.48 0 0 1 1.085-.252c.392 0 .723.068.994.203.27.135.541.32.812.553l-.056-1.106V.116h1.61V10h-1.33l-.112-.742h-.056a3.64 3.64 0 0 1-.882.644 2.25 2.25 0 0 1-1.064.266c-.868 0-1.556-.315-2.065-.945-.509-.63-.763-1.514-.763-2.653Zm1.666-.014c0 .747.133 1.314.399 1.701s.651.581 1.155.581c.513 0 .994-.257 1.442-.77V4.862a2.277 2.277 0 0 0-.707-.448 1.996 1.996 0 0 0-.693-.126c-.448 0-.826.196-1.134.588-.308.392-.462.952-.462 1.68zm9.52-6.44h1.61v2.548l-.042 1.148a4.03 4.03 0 0 1 .945-.616c.34-.159.688-.238 1.043-.238.43 0 .812.082 1.148.245.336.163.62.397.854.7.233.303.41.67.532 1.099.121.43.182.91.182 1.442 0 .588-.082 1.113-.245 1.575a3.66 3.66 0 0 1-.651 1.169c-.27.317-.583.56-.938.728a2.554 2.554 0 0 1-1.106.252 2.27 2.27 0 0 1-.959-.224 3.35 3.35 0 0 1-.917-.644h-.042l-.14.7h-1.274zm1.61 8.148c.243.215.483.364.721.448.238.084.46.126.665.126.457 0 .84-.198 1.148-.595.308-.397.462-.987.462-1.771 0-.69-.117-1.227-.35-1.61-.233-.383-.611-.574-1.134-.574-.485 0-.99.257-1.512.77zm6.146 3.164c.065.019.142.04.231.063.089.023.175.035.259.035.364 0 .656-.11.875-.329.22-.22.385-.502.497-.847l.126-.434-2.702-6.79h1.638l1.19 3.374c.103.299.203.614.301.945.098.331.198.66.301.987h.056a371.956 371.956 0 0 1 .518-1.932l1.036-3.374h1.554l-2.492 7.182c-.14.392-.294.742-.462 1.05a3.435 3.435 0 0 1-.581.791c-.22.22-.471.387-.756.504a2.587 2.587 0 0 1-.987.175 3.05 3.05 0 0 1-.49-.035 2.356 2.356 0 0 1-.406-.105z" style="fill:#444;fill-rule:evenodd"/>
  <path d="M206.574 37.436c.726.13 3.332.89 3.332 2.74v29.64h8.81V36.38h-12.142zm-67.058 19.055 5.904-13.154 5.156 13.154zm-2.224-20.111v1.056c1.067.223 3.38.868 2.444 2.955l-13.14 29.427h6.941l4.116-9.174h14.554l3.599 9.174h9.127l-13.04-33.438Zm137.314 20.111 5.9-13.154 5.16 13.154zM272.38 36.38v1.056c1.064.223 3.382.868 2.442 2.955l-13.137 29.427h6.942l4.108-9.174h14.556l3.6 9.174h9.134l-13.046-33.44H272.38zm-23.438 33.437 13.933-33.438h-6.589l-10.218 24.52-9.721-24.52h-12.384v1.057c1.43.274 3.035.89 3.769 2.739l11.752 29.642zm-61.075 0 13.937-33.438h-6.593l-10.216 24.52-9.725-24.52h-12.38v1.057c1.432.274 3.033.89 3.77 2.739l11.747 29.642zm-73.874-.016.011-33.418-11.273-.003v.003l3.268 33.662c2.61-.152 5.275-.239 7.994-.244m-14.582.805 3.32-34.222v-.005l-29.476.005.015 40.635c6.925-3.027 15.939-5.284 26.141-6.413" class="cls-1" style="fill:#191d64;stroke-width:0" transform="translate(-33.071 6.647) scale(.45145)"/>
</svg>
