<svg width="24" height="24" viewBox="0 0 24 24" fill="none" xmlns="http://www.w3.org/2000/svg">
<circle cx="12" cy="12" r="12" fill="#D8710E"/>
<mask id="mask0_5984_1509" style="mask-type:alpha" maskUnits="userSpaceOnUse" x="2" y="2" width="20" height="20">
<rect x="2" y="2" width="20" height="20" fill="#D9D9D9"/>
</mask>
<g mask="url(#mask0_5984_1509)">
<path d="M11.9799 18.1694C10.2701 18.1694 8.81437 17.5686 7.61284 16.3671C6.41131 15.1656 5.81055 13.7099 5.81055 12C5.81055 10.2901 6.41131 8.83445 7.61284 7.63292C8.81437 6.43139 10.2701 5.83063 11.9799 5.83063C12.9127 5.83063 13.7753 6.02313 14.5676 6.40813C15.36 6.79299 16.0406 7.30959 16.6095 7.95792V6.62042C16.6095 6.39667 16.6848 6.2091 16.8353 6.05771C16.9859 5.90632 17.1724 5.83063 17.3949 5.83063C17.6176 5.83063 17.8056 5.90632 17.9591 6.05771C18.1126 6.2091 18.1893 6.39667 18.1893 6.62042V10.2102C18.1893 10.4526 18.1058 10.6572 17.9387 10.8242C17.7717 10.9913 17.5671 11.0748 17.3247 11.0748H13.7249C13.5026 11.0748 13.3162 10.9995 13.1658 10.849C13.0153 10.6984 12.9401 10.5118 12.9401 10.2892C12.9401 10.0681 13.0158 9.88125 13.1672 9.72875C13.3186 9.57625 13.5062 9.5 13.7299 9.5H15.6395C15.2367 8.90875 14.7162 8.43757 14.078 8.08646C13.44 7.73535 12.7406 7.55979 11.9799 7.55979C10.7466 7.55979 9.69825 7.99146 8.83492 8.85479C7.97145 9.71827 7.53971 10.7667 7.53971 12C7.53971 13.2333 7.97145 14.2817 8.83492 15.1452C9.69825 16.0085 10.7466 16.4402 11.9799 16.4402C12.9851 16.4402 13.871 16.1367 14.6378 15.5296C15.4046 14.9226 15.9147 14.1616 16.168 13.2465C16.2422 13.0315 16.383 12.8644 16.5905 12.7452C16.7979 12.6262 17.0119 12.5872 17.2326 12.6281C17.4679 12.6692 17.6547 12.7796 17.793 12.9592C17.9312 13.1389 17.9729 13.3359 17.918 13.5502C17.5786 14.8869 16.8651 15.9909 15.7774 16.8623C14.6896 17.7337 13.4238 18.1694 11.9799 18.1694Z" fill="white"/>
</g>
</svg>
