<svg width="1760" height="320" viewBox="0 0 1760 320" xmlns="http://www.w3.org/2000/svg"><g fill="none" fill-rule="evenodd"><g fill="#FFD900"><path d="M10 317l-6 3 1-7-5-5 7-1 3-7 3 7 7 1-5 5 1 7zM45 317l-6 3 1-7-5-5 7-1 3-7 3 7 7 1-5 5 1 7zM80 317l-6 3 1-7-5-5 7-1 3-7 3 7 7 1-5 5 1 7zM115 317l-6 3 1-7-5-5 7-1 3-7 3 7 7 1-5 5 1 7zM150 317l-6 3 1-7-5-5 7-1 3-7 3 7 7 1-5 5 1 7z"/></g><path d="M170 287l-6 3 1-7-5-5 7-1 3-7 3 7 7 1-5 5 1 7zM205 287l-6 3 1-7-5-5 7-1 3-7 3 7 7 1-5 5 1 7zM240 287l-6 3 1-7-5-5 7-1 3-7 3 7 7 1-5 5 1 7zM275 287l-6 3 1-7-5-5 7-1 3-7 3 7 7 1-5 5 1 7zM310 287l-6 3 1-7-5-5 7-1 3-7z" fill="#FFD900"/><path d="M310 287v-17l3 7 7 1-5 5 1 7z" fill="#000" fill-opacity=".25"/><path d="M330 257l-6 3 1-7-5-5 7-1 3-7 3 7 7 1-5 5 1 7zM365 257l-6 3 1-7-5-5 7-1 3-7 3 7 7 1-5 5 1 7zM400 257l-6 3 1-7-5-5 7-1 3-7 3 7 7 1-5 5 1 7zM435 257l-6 3 1-7-5-5 7-1 3-7 3 7 7 1-5 5 1 7z" fill="#FFD900"/><path d="M470 257l-6 3 1-7-5-5 7-1 3-7 3 7 7 1-5 5 1 7z" fill="#000" fill-opacity=".25"/><g><path d="M490 227l-6 3 1-7-5-5 7-1 3-7 3 7 7 1-5 5 1 7zM525 227l-6 3 1-7-5-5 7-1 3-7 3 7 7 1-5 5 1 7zM560 227l-6 3 1-7-5-5 7-1 3-7 3 7 7 1-5 5 1 7zM595 227l-6 3 1-7-5-5 7-1 3-7z" fill="#FFD900"/><path d="M595 227v-17l3 7 7 1-5 5 1 7zM630 227l-6 3 1-7-5-5 7-1 3-7 3 7 7 1-5 5 1 7z" fill="#000" fill-opacity=".25"/></g><g><path d="M650 197l-6 3 1-7-5-5 7-1 3-7 3 7 7 1-5 5 1 7zM685 197l-6 3 1-7-5-5 7-1 3-7 3 7 7 1-5 5 1 7zM720 197l-6 3 1-7-5-5 7-1 3-7 3 7 7 1-5 5 1 7z" fill="#FFD900"/><path d="M755 197l-6 3 1-7-5-5 7-1 3-7 3 7 7 1-5 5 1 7zM790 197l-6 3 1-7-5-5 7-1 3-7 3 7 7 1-5 5 1 7z" fill="#000" fill-opacity=".25"/></g><g><path d="M810 167l-6 3 1-7-5-5 7-1 3-7 3 7 7 1-5 5 1 7zM845 167l-6 3 1-7-5-5 7-1 3-7 3 7 7 1-5 5 1 7zM880 167l-6 3 1-7-5-5 7-1 3-7z" fill="#FFD900"/><path d="M880 167v-17l3 7 7 1-5 5 1 7zM915 167l-6 3 1-7-5-5 7-1 3-7 3 7 7 1-5 5 1 7zM950 167l-6 3 1-7-5-5 7-1 3-7 3 7 7 1-5 5 1 7z" fill="#000" fill-opacity=".25"/></g><g><path d="M970 137l-6 3 1-7-5-5 7-1 3-7 3 7 7 1-5 5 1 7zM1005 137l-6 3 1-7-5-5 7-1 3-7 3 7 7 1-5 5 1 7z" fill="#FFD900"/><path d="M1040 137l-6 3 1-7-5-5 7-1 3-7 3 7 7 1-5 5 1 7zM1075 137l-6 3 1-7-5-5 7-1 3-7 3 7 7 1-5 5 1 7zM1110 137l-6 3 1-7-5-5 7-1 3-7 3 7 7 1-5 5 1 7z" fill="#000" fill-opacity=".25"/></g><g><path d="M1130 107l-6 3 1-7-5-5 7-1 3-7 3 7 7 1-5 5 1 7zM1165 107l-6 3 1-7-5-5 7-1 3-7z" fill="#FFD900"/><path d="M1165 107V90l3 7 7 1-5 5 1 7zM1200 107l-6 3 1-7-5-5 7-1 3-7 3 7 7 1-5 5 1 7zM1235 107l-6 3 1-7-5-5 7-1 3-7 3 7 7 1-5 5 1 7zM1270 107l-6 3 1-7-5-5 7-1 3-7 3 7 7 1-5 5 1 7z" fill="#000" fill-opacity=".25"/></g><g><path d="M1290 77l-6 3 1-7-5-5 7-1 3-7 3 7 7 1-5 5 1 7z" fill="#FFD900"/><path d="M1325 77l-6 3 1-7-5-5 7-1 3-7 3 7 7 1-5 5 1 7zM1360 77l-6 3 1-7-5-5 7-1 3-7 3 7 7 1-5 5 1 7zM1395 77l-6 3 1-7-5-5 7-1 3-7 3 7 7 1-5 5 1 7zM1430 77l-6 3 1-7-5-5 7-1 3-7 3 7 7 1-5 5 1 7z" fill="#000" fill-opacity=".25"/></g><g><path d="M1450 47l-6 3 1-7-5-5 7-1 3-7z" fill="#FFD900"/><path d="M1450 47V30l3 7 7 1-5 5 1 7zM1485 47l-6 3 1-7-5-5 7-1 3-7 3 7 7 1-5 5 1 7zM1520 47l-6 3 1-7-5-5 7-1 3-7 3 7 7 1-5 5 1 7zM1555 47l-6 3 1-7-5-5 7-1 3-7 3 7 7 1-5 5 1 7zM1590 47l-6 3 1-7-5-5 7-1 3-7 3 7 7 1-5 5 1 7z" fill="#000" fill-opacity=".25"/></g><g fill="#000" fill-opacity=".25"><path d="M1610 17l-6 3 1-7-5-5 7-1 3-7 3 7 7 1-5 5 1 7zM1645 17l-6 3 1-7-5-5 7-1 3-7 3 7 7 1-5 5 1 7zM1680 17l-6 3 1-7-5-5 7-1 3-7 3 7 7 1-5 5 1 7zM1715 17l-6 3 1-7-5-5 7-1 3-7 3 7 7 1-5 5 1 7zM1750 17l-6 3 1-7-5-5 7-1 3-7 3 7 7 1-5 5 1 7z"/></g></g></svg>
