<svg width="24" height="24" viewBox="0 0 24 24" fill="none" xmlns="http://www.w3.org/2000/svg">
<mask id="mask0_5771_1061" style="mask-type:alpha" maskUnits="userSpaceOnUse" x="0" y="0" width="24" height="24">
<rect width="24" height="24" fill="#D9D9D9"/>
</mask>
<g mask="url(#mask0_5771_1061)">
<path d="M5 21C4.45 21 3.97917 20.8042 3.5875 20.4125C3.19583 20.0208 3 19.55 3 19C3 18.45 3.19583 17.9792 3.5875 17.5875C3.97917 17.1958 4.45 17 5 17C5.55 17 6.02083 17.1958 6.4125 17.5875C6.80417 17.9792 7 18.45 7 19C7 19.55 6.80417 20.0208 6.4125 20.4125C6.02083 20.8042 5.55 21 5 21ZM18.5 21C18.0667 21 17.7042 20.8417 17.4125 20.525C17.1208 20.2083 16.95 19.8333 16.9 19.4C16.7167 17.7833 16.2792 16.2708 15.5875 14.8625C14.8958 13.4542 14 12.2 12.9 11.1C11.8 9.99999 10.5458 9.10415 9.1375 8.41249C7.72917 7.72082 6.21667 7.28332 4.6 7.09999C4.16667 7.04999 3.79167 6.87915 3.475 6.58749C3.15833 6.29582 3 5.93332 3 5.49999C3 5.06665 3.15 4.71249 3.45 4.43749C3.75 4.16249 4.10833 4.04165 4.525 4.07499C6.575 4.25832 8.49583 4.77915 10.2875 5.63749C12.0792 6.49582 13.6583 7.60832 15.025 8.97499C16.3917 10.3417 17.5042 11.9208 18.3625 13.7125C19.2208 15.5042 19.7417 17.425 19.925 19.475C19.9583 19.8917 19.8375 20.25 19.5625 20.55C19.2875 20.85 18.9333 21 18.5 21ZM12.5 21C12.0833 21 11.725 20.8542 11.425 20.5625C11.125 20.2708 10.9333 19.9167 10.85 19.5C10.7 18.6833 10.4375 17.9292 10.0625 17.2375C9.6875 16.5458 9.21667 15.9167 8.65 15.35C8.08333 14.7833 7.45417 14.3125 6.7625 13.9375C6.07083 13.5625 5.31667 13.3 4.5 13.15C4.08333 13.0667 3.72917 12.875 3.4375 12.575C3.14583 12.275 3 11.9167 3 11.5C3 11.0667 3.15 10.7083 3.45 10.425C3.75 10.1417 4.10833 10.0333 4.525 10.1C5.74167 10.2667 6.87917 10.6208 7.9375 11.1625C8.99583 11.7042 9.94167 12.3917 10.775 13.225C11.6083 14.0583 12.2958 15.0042 12.8375 16.0625C13.3792 17.1208 13.7333 18.2583 13.9 19.475C13.9667 19.8917 13.8583 20.25 13.575 20.55C13.2917 20.85 12.9333 21 12.5 21Z" fill="#1034BF"/>
</g>
</svg>
