<svg xmlns="http://www.w3.org/2000/svg" width="100" height="100" viewBox="0 0 100 100"><rect width="9.73" height="9.73" x="25.54" y="42.53" rx="4.86" ry="4.86" fill="#fff"/><path d="M11.1 18.9h78.94v56.4H11.1z" fill="none"/><path d="M5.45 14.58v65.8h5.66v5h21.27v-5h36.4v5H90v-5h4.5v-65.8H5.46zM90 75.3H11.1V18.9H90v56.4zM14 22.1v50.6h73.56V22.1H14zm16.4 34.56A9.55 9.55 0 1 1 40 47.1a9.58 9.58 0 0 1-9.6 9.56zm32.66 2.6h-5.2V54h5.2v5.22zm0-9.53h-5.2V44.5h5.2v5.22zm0-9h-5.2v-5.2h5.2v5.23zm8.05 18.5h-5.2V54h5.22v5.22zm0-9.53h-5.2v-5.2h5.22v5.22zm0-9h-5.2v-5.16h5.22v5.22zm8.8 18.5h-5.2V54h5.2v5.22zm0-9.53h-5.2V44.5h5.2v5.22zm0-9h-5.2v-5.13h5.2v5.22z" fill="#fff"/></svg>
