<svg xmlns="http://www.w3.org/2000/svg" width="49" height="33" fill="none">
  <path fill="#FEFEFE" stroke="#E1E2E0" stroke-width="2" d="M48 15.5V32H1V15.5h47Z"/>
  <path fill="#E11414" d="M0 0h49v16.48L0 16.5V0Z"/>
  <path fill="#F1F2F2" d="M4 8.245c0-4.05 3.93-6.86 7.6-6.13-.98.37-1.85.981-2.45 1.721-.98 1.22-1.72 2.58-1.72 4.28l.01-.01c0 1.84.74 3.44 1.84 4.54.6.6 1.34 1.22 2.2 1.6-3.31.72-7.48-1.97-7.48-6Zm8.95 2.21 1.34-.02-1.1.741.37 1.1-.98-.73-.98.73.37-1.1-.98-.72h1.22l.37-1.1.37 1.1Zm4.65 0 1.24-.02-.98.741.36 1.1-1.1-.73-.98.73.37-1.1-.97-.72h1.2l.36-1.1.5 1.1Zm-6-3.93h1.22l-1 .601.37 1.12-.98-.62-.98.63.4-1.13-1-.6h1.23l.37-1.1.37 1.1Zm7.35 0 1.22-.01-.98.6.36 1.12-.98-.62-.98.63.37-1.119-1.1-.6h1.36l.36-1.1.37 1.1Zm-3.67-2.7h1.22l-.97.73.36 1.121-.98-.73-.98.72.37-1.1-.97-.74h1.21l.37-1.1.37 1.1Z"/>
</svg>
