<svg width="180" height="20" xmlns="http://www.w3.org/2000/svg" xmlns:xlink="http://www.w3.org/1999/xlink"><defs><path id="a" d="M0 0h20v20H0z"/><path id="c" d="M0 0h20v20H0z"/><path id="e" d="M0 0h20v20H0z"/></defs><g fill="none" fill-rule="evenodd"><mask id="b" fill="#fff"><use xlink:href="#a"/></mask><g mask="url(#b)" fill="#004FB6" fill-rule="nonzero"><path d="M19.689 2v16.346H0L.013 2H19.69zM17.72 7.449V5.405L9.845 9.151 1.97 5.405V7.45l7.875 3.746L17.72 7.45z"/></g><g transform="translate(80)"><mask id="d" fill="#fff"><use xlink:href="#c"/></mask><g mask="url(#d)" fill="#FFF" fill-rule="nonzero"><path d="M19.802 2.45v15.384H1.052l.012-15.385h18.738zm-1.875 5.128V5.654l-7.5 3.526-7.5-3.526v1.924l7.5 3.525 7.5-3.525z"/></g></g><g transform="translate(160)"><mask id="f" fill="#fff"><use xlink:href="#e"/></mask><g mask="url(#f)" fill="#1DA1F2" fill-rule="nonzero"><path xmlns="http://www.w3.org/2000/svg" d="M19.689 2v16.346H0L.013 2H19.69zM17.72 7.449V5.405L9.845 9.151 1.97 5.405V7.45l7.875 3.746L17.72 7.45z"/></g></g></g></svg>