<svg width="32" height="33" viewBox="0 0 32 33" fill="none" xmlns="http://www.w3.org/2000/svg">
<path fill-rule="evenodd" clip-rule="evenodd" d="M29.3646 16.1789C30.5797 15.7968 31.7598 15.9706 31.9681 16.6301C32.1764 17.2547 31.3435 18.088 30.059 18.5046C29.8853 18.5741 29.7464 18.6089 29.5729 18.6435C30.5793 20.7609 31.3432 22.8784 31.3432 24.4752V31.1056C31.3432 31.5913 30.9265 32.0079 30.4059 32.0079H27.3512C26.8305 32.0079 26.4139 31.6262 26.4139 31.1056V29.0681H5.41237V31.1056C5.41237 31.5913 4.99573 32.0079 4.47509 32.0079H1.42038C0.899742 32.0079 0.483103 31.6262 0.483103 31.1056V24.4752C0.483103 22.8784 1.24694 20.6915 2.28822 18.5741C2.18422 18.5395 2.04534 18.5046 1.90646 18.4701C0.656862 18.0883 -0.176416 17.255 0.0319031 16.5955C0.240223 15.936 1.38582 15.7626 2.63542 16.1443C2.91318 16.2138 3.15637 16.3178 3.39925 16.4566L3.91989 15.5542C5.44725 12.9853 7.00916 10.9719 7.49524 10.729C8.39373 10.3396 10.2745 10.1052 13.7172 10.026C13.3872 10.4085 13.1535 10.8764 13.0538 11.3922C11.117 11.4594 9.03882 11.603 8.18965 11.9514C7.77301 12.2986 6.28053 14.2077 4.75317 16.8807H15.6184H16.4863H27.3515C25.8242 14.2077 24.3314 12.2637 23.915 11.9514C23.0357 11.5906 20.8386 11.4348 18.8547 11.37C18.7528 10.8635 18.5215 10.404 18.1967 10.0272C21.6134 10.1075 23.5012 10.3416 24.3656 10.729C24.8862 10.9373 26.4485 12.9856 27.9758 15.5542L28.5313 16.5261C28.7745 16.3872 29.0523 16.2829 29.3646 16.1789ZM12 25H20V27H12V25ZM4.30192 20.5598C3.88529 20.5598 3.53809 20.9416 3.53809 21.3582V22.1221C3.53809 22.5733 3.88529 22.9553 4.30192 23.0245L9.30063 23.684C9.71727 23.7534 9.92559 23.4411 9.71727 23.0939C8.43279 20.907 5.65552 20.5947 4.30192 20.5598ZM22.3525 23.0593C23.637 20.9416 26.4139 20.5944 27.7678 20.5598C28.1845 20.5253 28.5317 20.907 28.5317 21.3236V22.0875C28.5317 22.5387 28.1845 22.9204 27.7678 22.9899L22.7691 23.6494C22.3525 23.7188 22.1442 23.4411 22.3525 23.0593Z" fill="#004FB6"/>
<path d="M15.9564 13.9129C17.037 13.9129 17.9129 13.037 17.9129 11.9564C17.9129 10.8759 17.037 10 15.9564 10C14.8759 10 14 10.8759 14 11.9564C14 13.037 14.8759 13.9129 15.9564 13.9129Z" fill="#004FB6"/>
<path fill-rule="evenodd" clip-rule="evenodd" d="M25 4.10666C22.8478 1.59795 19.6164 0 16 0C12.3836 0 9.15222 1.59795 7 4.10666L8.2036 5.0871C10.0698 2.91272 12.8714 1.52545 16 1.52545C19.1286 1.52545 21.9298 2.91232 23.7964 5.0871L25 4.10666ZM22.5541 6.1329L21.3598 7.14114C20.0769 5.59112 18.151 4.60263 15.9996 4.60263C13.8482 4.60263 11.9228 5.59112 10.6394 7.14114L9.44507 6.1329C11.0124 4.23889 13.3656 3.03247 15.9992 3.03247C18.6328 3.03247 20.9872 4.23889 22.5541 6.1329ZM18.9208 9.29328L20.1087 8.29431C19.1262 7.11206 17.6507 6.3584 16 6.3584C14.3493 6.3584 12.8738 7.11165 11.8914 8.29431L13.0792 9.29328C13.7813 8.44858 14.823 7.89915 16 7.89915C17.177 7.89915 18.2187 8.44858 18.9208 9.29328ZM17.9129 11.9564C17.9129 13.037 17.037 13.9129 15.9564 13.9129C14.8759 13.9129 14 13.037 14 11.9564C14 10.8759 14.8759 10 15.9564 10C17.037 10 17.9129 10.8759 17.9129 11.9564Z" fill="#004FB6"/>
</svg>
