<svg xmlns="http://www.w3.org/2000/svg" width="49" height="33" fill="none">
  <path fill="#DC0D15" d="M0 33h49V0H0v33Z"/>
  <path fill="#FEFEFE" d="M16.703 7.6c3.405 0 6.377 1.776 7.969 4.412-1.346-1.608-3.412-2.635-5.73-2.635-4.06 0-7.353 3.156-7.353 7.051 0 3.897 3.293 7.052 7.353 7.052 2.318 0 4.384-1.027 5.73-2.636-1.59 2.639-4.564 4.411-7.969 4.411-5.083 0-9.203-3.952-9.203-8.827 0-4.877 4.12-8.828 9.203-8.828Zm12.501 7.16 3.099-.922-1.929 2.505 1.87 2.54-3.076-.984-1.941 2.49.025-3.11-3.07-1.004 3.092-.935.045-3.111 1.885 2.531Z"/>
</svg>
