<svg width="127" height="31" xmlns="http://www.w3.org/2000/svg"><g fill="none"><path d="M33.173 10.987h12.781v2.385h-5.026v13.405h-2.763V13.372h-5.003v-2.385h.01zm12.235 4.357h2.362v2.206h.045c.078-.312.223-.613.434-.902.212-.29.468-.569.77-.803.3-.245.634-.434 1.002-.59a3.067 3.067 0 011.126-.223c.29 0 .501.011.612.022.112.011.223.034.346.045v2.429a8.063 8.063 0 00-.546-.078 4.627 4.627 0 00-.546-.033c-.423 0-.825.089-1.203.256-.38.167-.703.423-.981.746a3.792 3.792 0 00-.669 1.226c-.167.49-.245 1.048-.245 1.683v5.438h-2.518V15.344h.011zm18.275 11.433h-2.474v-1.594h-.045c-.312.58-.769 1.037-1.381 1.382-.613.345-1.237.524-1.872.524-1.505 0-2.597-.368-3.265-1.115-.669-.746-1.003-1.872-1.003-3.376v-7.254h2.518v7.009c0 1.003.19 1.716.58 2.128.378.413.925.624 1.615.624.535 0 .97-.078 1.326-.245.357-.167.646-.379.858-.657a2.52 2.52 0 00.48-.98c.1-.38.144-.792.144-1.238v-6.63h2.519v11.422zm4.29-3.666c.078.735.356 1.248.835 1.549.49.29 1.07.445 1.75.445.234 0 .501-.022.802-.055.3-.034.59-.112.847-.212.267-.1.48-.256.657-.457.167-.2.245-.457.235-.78a1.078 1.078 0 00-.357-.791c-.223-.212-.501-.368-.847-.502a8.523 8.523 0 00-1.181-.323c-.446-.089-.892-.19-1.348-.29-.469-.1-.925-.233-1.36-.378a4.161 4.161 0 01-1.17-.602 2.645 2.645 0 01-.824-.958c-.212-.39-.312-.87-.312-1.449 0-.624.155-1.137.456-1.56a3.466 3.466 0 011.148-1.014c.468-.256.98-.435 1.55-.546a9.422 9.422 0 011.626-.156c.59 0 1.159.067 1.694.19a4.36 4.36 0 011.46.612 3.61 3.61 0 011.08 1.092c.29.446.468.992.546 1.627h-2.63c-.122-.602-.39-1.014-.824-1.214-.435-.212-.936-.312-1.493-.312a4.6 4.6 0 00-.636.044 3.47 3.47 0 00-.69.167c-.212.078-.39.2-.546.357a.862.862 0 00-.223.613.95.95 0 00.323.746c.211.19.49.346.836.48.345.122.735.234 1.18.323.447.089.904.19 1.372.29.456.1.902.233 1.347.378.447.145.837.346 1.182.602s.624.568.836.947c.212.379.323.858.323 1.415 0 .68-.156 1.248-.468 1.727a3.709 3.709 0 01-1.203 1.148 5.64 5.64 0 01-1.65.646 8.257 8.257 0 01-1.794.201 7.606 7.606 0 01-2.005-.245c-.613-.167-1.148-.412-1.594-.736a3.64 3.64 0 01-1.058-1.236c-.257-.49-.39-1.081-.413-1.761h2.54v-.022zm8.312-7.767h1.906v-3.432h2.518v3.432h2.273v1.883H80.71v6.107c0 .267.011.49.034.69.022.19.077.357.156.49.078.134.2.235.367.302.167.066.38.1.669.1.178 0 .357 0 .535-.011a2.99 2.99 0 00.535-.078v1.95c-.279.033-.558.055-.814.089a6.523 6.523 0 01-.813.044c-.67 0-1.204-.066-1.605-.189s-.724-.312-.947-.557c-.234-.245-.38-.546-.468-.914a6.874 6.874 0 01-.145-1.259v-6.742h-1.905v-1.905h-.023zm8.48 0h2.385v1.549h.044c.357-.669.847-1.137 1.482-1.426a4.884 4.884 0 012.062-.435c.903 0 1.683.156 2.351.48a4.593 4.593 0 011.671 1.303c.446.557.77 1.203.992 1.939a8.12 8.12 0 01.335 2.362c0 .769-.1 1.516-.301 2.229-.2.724-.502 1.36-.903 1.916a4.43 4.43 0 01-1.538 1.326c-.624.335-1.348.502-2.195.502-.367 0-.735-.034-1.103-.1a4.848 4.848 0 01-1.058-.324 3.82 3.82 0 01-.937-.568 3.537 3.537 0 01-.724-.802h-.044V31h-2.519V15.344zm8.803 5.728c0-.513-.067-1.014-.2-1.505a4.06 4.06 0 00-.602-1.292 3.069 3.069 0 00-.992-.903 2.78 2.78 0 00-1.37-.345c-1.06 0-1.861.367-2.396 1.103-.535.735-.802 1.716-.802 2.942 0 .579.066 1.114.211 1.604s.346.914.635 1.27a3 3 0 001.003.836c.39.212.847.312 1.36.312.58 0 1.058-.122 1.46-.356.4-.234.724-.546.98-.914a3.79 3.79 0 00.557-1.282c.1-.479.156-.97.156-1.47zm4.447-10.085h2.517v2.385h-2.517v-2.385zm0 4.357h2.517v11.433h-2.517V15.344zm4.769-4.357h2.518v15.79h-2.518v-15.79zm10.24 16.102c-.914 0-1.727-.156-2.44-.457a5.392 5.392 0 01-1.816-1.248 5.43 5.43 0 01-1.126-1.906 7.352 7.352 0 01-.39-2.429c0-.869.134-1.671.39-2.407a5.43 5.43 0 011.126-1.905c.49-.535 1.103-.947 1.816-1.248.713-.301 1.526-.457 2.44-.457.914 0 1.727.156 2.44.457.713.3 1.315.724 1.817 1.248.49.535.869 1.17 1.125 1.905a7.28 7.28 0 01.39 2.407c0 .88-.134 1.694-.39 2.43a5.43 5.43 0 01-1.125 1.905c-.49.535-1.104.947-1.817 1.248-.713.3-1.526.457-2.44.457zm0-1.995c.557 0 1.048-.122 1.46-.356a3.107 3.107 0 001.014-.925 4.16 4.16 0 00.59-1.293c.123-.479.19-.97.19-1.47 0-.491-.067-.97-.19-1.46a3.82 3.82 0 00-.59-1.293 3.075 3.075 0 00-1.014-.914c-.412-.234-.903-.356-1.46-.356-.557 0-1.047.122-1.46.356a3.2 3.2 0 00-1.014.914 4.04 4.04 0 00-.59 1.293 5.94 5.94 0 00-.19 1.46c0 .5.067.991.19 1.47.122.48.323.914.59 1.293.268.379.602.69 1.014.925.413.245.903.356 1.46.356zm6.508-9.75h1.905v-3.432h2.519v3.432h2.272v1.883h-2.272v6.107c0 .267.01.49.033.69.022.19.078.357.156.49.078.134.2.235.368.302.167.066.378.1.668.1.178 0 .357 0 .535-.011a2.99 2.99 0 00.535-.078v1.95c-.279.033-.558.055-.813.089a6.523 6.523 0 01-.814.044c-.668 0-1.203-.066-1.605-.189-.401-.123-.724-.312-.947-.557-.234-.245-.379-.546-.468-.914a6.874 6.874 0 01-.145-1.259v-6.742h-1.905v-1.905h-.022z" fill="#FFF"/><path fill="#00B67A" d="M30.231 10.987H18.687L15.12 0l-3.577 10.987L0 10.976l9.349 6.797L5.772 28.75l9.35-6.786 9.337 6.786-3.566-10.976z"/><path fill="#005128" d="M21.695 20.258l-.802-2.485-5.772 4.19z"/></g></svg>