<svg xmlns="http://www.w3.org/2000/svg" width="100" height="451"><path d="M3.574 390.29H20.93v17.343H3.574zm18.801 0H39.73v17.343H22.375zm18.8 0h17.356v17.343H41.176zm18.805 0h17.356v17.343H59.98zm0 0" fill="#00b67a"/><path d="M87.46 390.29h8.677v17.343H87.46zm0 0" fill="#dcdce6"/><path d="M78.781 390.29h8.68v17.343h-8.68zm0 0" fill="#00b67a"/><path d="M13.68 397.59h4.644l-3.742 2.71-2.312 1.66-3.762 2.712 1.43-4.371-3.762-2.711h4.648l1.426-4.375zm1.21 3.719l-2.64.671 3.742 2.727zm17.59-3.72h4.649l-3.742 2.712-2.317 1.66-3.758 2.71 1.426-4.37-3.758-2.711h4.645l1.43-4.375zm1.211 3.72l-2.636.671 3.742 2.727-1.102-3.398zm17.594-3.72h4.645l-3.742 2.712-2.313 1.66-3.762 2.71 1.43-4.37-3.762-2.711h4.645l1.43-4.375zm1.211 3.72l-2.64.671 3.742 2.727zm17.59-3.72h4.644l-3.742 2.712-2.312 1.66-3.762 2.71 1.43-4.37-3.762-2.711h4.648l1.426-4.375zm1.21 3.72l-2.64.671 3.742 2.727zm17.59-3.72h4.65l-3.743 2.712-2.316 1.66-3.758 2.71 1.426-4.37-3.758-2.711h4.644l1.43-4.375zm1.212 3.72l-2.637.671 3.742 2.727-1.101-3.398zm0 0" fill-rule="evenodd" fill="#fff"/><path d="M3.574 433.652H20.93V451H3.574zm18.801 0H39.73V451H22.375zm18.8 0h17.356V451H41.176zm18.805 0h17.356V451H59.98zm18.801 0h17.356V451H78.78zm0 0" fill="#00b67a"/><path d="M13.68 440.953h4.644l-3.742 2.711-2.312 1.66-3.762 2.711 1.43-4.37-3.762-2.712h4.648l1.426-4.371zm1.21 3.723l-2.64.668 3.742 2.73zm17.59-3.723h4.649l-3.742 2.711-2.317 1.66-3.758 2.711 1.426-4.37-3.758-2.712h4.645l1.43-4.371zm1.211 3.723l-2.636.668 3.742 2.73-1.102-3.398zm17.594-3.723h4.645l-3.742 2.711-2.313 1.66-3.762 2.711 1.43-4.37-3.762-2.712h4.645l1.43-4.371zm1.211 3.723l-2.64.668 3.742 2.73zm17.59-3.723h4.644l-3.742 2.711-2.312 1.66-3.762 2.711 1.43-4.37-3.762-2.712h4.648l1.426-4.371zm1.21 3.723l-2.64.668 3.742 2.73zm17.59-3.723h4.65l-3.743 2.711-2.316 1.66-3.758 2.711 1.426-4.37-3.758-2.712h4.644l1.43-4.371zm1.212 3.723l-2.637.668 3.742 2.73-1.101-3.398zm0 0" fill-rule="evenodd" fill="#fff"/><path d="M3.574 346.922H20.93v17.348H3.574zm18.801 0H39.73v17.348H22.375zm18.8 0h17.356v17.348H41.176zm18.805 0h17.356v17.348H59.98zm0 0" fill="#73cf11"/><path d="M78.781 346.922h17.356v17.348H78.78zm0 0" fill="#dcdce6"/><path d="M13.68 354.223h4.644l-3.742 2.71-2.312 1.66-3.762 2.712 1.43-4.371-3.762-2.711h4.648l1.426-4.371zm1.21 3.722l-2.64.668 3.742 2.73zm17.59-3.722h4.649l-3.742 2.71-2.317 1.66-3.758 2.712 1.426-4.371-3.758-2.711h4.645l1.43-4.371zm1.211 3.722l-2.636.668 3.742 2.73-1.102-3.398zm17.594-3.722h4.645l-3.742 2.71-2.313 1.66-3.762 2.712 1.43-4.371-3.762-2.711h4.645l1.43-4.371zm1.211 3.722l-2.64.668 3.742 2.73zm17.59-3.722h4.644l-3.742 2.71-2.312 1.66-3.762 2.712 1.43-4.371-3.762-2.711h4.648l1.426-4.371zm1.21 3.722l-2.64.668 3.742 2.73zm17.59-3.722h4.65l-3.743 2.71-2.316 1.66-3.758 2.712 1.426-4.371-3.758-2.711h4.644l1.43-4.371zm1.212 3.722l-2.637.668 3.742 2.73-1.101-3.398zm0 0" fill-rule="evenodd" fill="#fff"/><path d="M3.574 303.559H20.93v17.343H3.574zm18.801 0H39.73v17.343H22.375zm18.8 0h17.356v17.343H41.176zm0 0" fill="#ffce00"/><path d="M59.98 303.559h17.356v17.343H59.98zm0 0" fill="#dcdce6"/><path d="M59.98 303.559h8.676v17.343H59.98zm0 0" fill="#ffce00"/><path d="M78.781 303.559h17.356v17.343H78.78zm0 0" fill="#dcdce6"/><path d="M13.68 310.86h4.644l-3.742 2.706-2.312 1.664-3.762 2.711 1.43-4.375-3.762-2.707h4.648l1.426-4.375zm1.21 3.718l-2.64.672 3.742 2.727zm17.59-3.719h4.649l-3.742 2.707-2.317 1.664-3.758 2.711 1.426-4.375-3.758-2.707h4.645l1.43-4.375zm1.211 3.72l-2.636.671 3.742 2.727-1.102-3.399zm17.594-3.72h4.645l-3.742 2.707-2.313 1.664-3.762 2.711 1.43-4.375-3.762-2.707h4.645l1.43-4.375zm1.211 3.72l-2.64.671 3.742 2.727zm17.59-3.72h4.644l-3.742 2.707-2.312 1.664-3.762 2.711 1.43-4.375-3.762-2.707h4.648l1.426-4.375zm1.21 3.72l-2.64.671 3.742 2.727zm17.59-3.72h4.65l-3.743 2.707-2.316 1.664-3.758 2.711 1.426-4.375-3.758-2.707h4.644l1.43-4.375zm1.212 3.72l-2.637.671 3.742 2.727-1.101-3.399zm0 0" fill-rule="evenodd" fill="#fff"/><path d="M3.574 260.191H20.93v17.348H3.574zm18.801 0H39.73v17.348H22.375zm18.8 0h17.356v17.348H41.176zm0 0" fill="#ffce00"/><path d="M59.98 260.191h17.356v17.348H59.98zm18.801 0h17.356v17.348H78.78zm0 0" fill="#dcdce6"/><path d="M13.68 267.492h4.644l-3.742 2.711-2.312 1.66-3.762 2.711 1.43-4.37-3.762-2.712h4.648l1.426-4.37zm1.21 3.723l-2.64.668 3.742 2.726zm17.59-3.723h4.649l-3.742 2.711-2.317 1.66-3.758 2.711 1.426-4.37-3.758-2.712h4.645l1.43-4.37zm1.211 3.723l-2.636.668 3.742 2.726-1.102-3.394zm17.594-3.723h4.645l-3.742 2.711-2.313 1.66-3.762 2.711 1.43-4.37-3.762-2.712h4.645l1.43-4.37zm1.211 3.723l-2.64.668 3.742 2.726zm17.59-3.723h4.644l-3.742 2.711-2.312 1.66-3.762 2.711 1.43-4.37-3.762-2.712h4.648l1.426-4.37zm1.21 3.723l-2.64.668 3.742 2.726zm17.59-3.723h4.65l-3.743 2.711-2.316 1.66-3.758 2.711 1.426-4.37-3.758-2.712h4.644l1.43-4.37zm1.212 3.723l-2.637.668 3.742 2.726-1.101-3.394zm0 0" fill-rule="evenodd" fill="#fff"/><path d="M3.574 216.828H20.93v17.344H3.574zm18.801 0H39.73v17.344H22.375zm0 0" fill="#ff8622"/><path d="M41.176 216.828H58.53v17.344H41.176zm0 0" fill="#dcdce6"/><path d="M41.176 216.828h8.68v17.344h-8.68zm0 0" fill="#ff8622"/><path d="M59.98 216.828h17.356v17.344H59.98zm18.801 0h17.356v17.344H78.78zm0 0" fill="#dcdce6"/><path d="M13.68 224.129h4.644l-3.742 2.707-2.312 1.664-3.762 2.71 1.43-4.374-3.762-2.707h4.648l1.426-4.375zm1.21 3.719l-2.64.668 3.742 2.73zm17.59-3.72h4.649l-3.742 2.708-2.317 1.664-3.758 2.71 1.426-4.374-3.758-2.707h4.645l1.43-4.375zm1.211 3.72l-2.636.668 3.742 2.73-1.102-3.398zm17.594-3.72h4.645l-3.742 2.708-2.313 1.664-3.762 2.71 1.43-4.374-3.762-2.707h4.645l1.43-4.375zm1.211 3.72l-2.64.668 3.742 2.73zm17.59-3.72h4.644l-3.742 2.708-2.312 1.664-3.762 2.71 1.43-4.374-3.762-2.707h4.648l1.426-4.375zm1.21 3.72l-2.64.668 3.742 2.73zm17.59-3.72h4.65l-3.743 2.708-2.316 1.664-3.758 2.71 1.426-4.374-3.758-2.707h4.644l1.43-4.375zm1.212 3.72l-2.637.668 3.742 2.73-1.101-3.398zm0 0" fill-rule="evenodd" fill="#fff"/><path d="M3.574 173.46H20.93v17.349H3.574zm18.801 0H39.73v17.349H22.375zm0 0" fill="#ff8622"/><path d="M41.176 173.46H58.53v17.349H41.176zm18.804 0h17.356v17.349H59.98zm18.801 0h17.356v17.349H78.78zm0 0" fill="#dcdce6"/><path d="M13.68 180.762h4.644l-3.742 2.71-2.312 1.66-3.762 2.712 1.43-4.371-3.762-2.711h4.648l1.426-4.371zm1.21 3.722l-2.64.668 3.742 2.727zm17.59-3.722h4.649l-3.742 2.71-2.317 1.66-3.758 2.712 1.426-4.371-3.758-2.711h4.645l1.43-4.371zm1.211 3.722l-2.636.668 3.742 2.727-1.102-3.395zm17.594-3.722h4.645l-3.742 2.71-2.313 1.66-3.762 2.712 1.43-4.371-3.762-2.711h4.645l1.43-4.371zm1.211 3.722l-2.64.668 3.742 2.727zm17.59-3.722h4.644l-3.742 2.71-2.312 1.66-3.762 2.712 1.43-4.371-3.762-2.711h4.648l1.426-4.371zm1.21 3.722l-2.64.668 3.742 2.727zm17.59-3.722h4.65l-3.743 2.71-2.316 1.66-3.758 2.712 1.426-4.371-3.758-2.711h4.644l1.43-4.371zm1.212 3.722l-2.637.668 3.742 2.727-1.101-3.395zm0 0" fill-rule="evenodd" fill="#fff"/><path d="M3.574 130.098H20.93v17.343H3.574zm0 0" fill="#ff3722"/><path d="M22.375 130.098H39.73v17.343H22.375zm0 0" fill="#dcdce6"/><path d="M22.375 130.098h8.68v17.343h-8.68zm0 0" fill="#ff3722"/><path d="M41.176 130.098H58.53v17.343H41.176zm18.804 0h17.356v17.343H59.98zm18.801 0h17.356v17.343H78.78zm0 0" fill="#dcdce6"/><path d="M13.68 137.395h4.644l-3.742 2.71-2.312 1.665-3.762 2.71 1.43-4.375-3.762-2.71h4.648l1.426-4.372zm1.21 3.722l-2.64.668 3.742 2.73zm17.59-3.722h4.649l-3.742 2.71-2.317 1.665-3.758 2.71 1.426-4.375-3.758-2.71h4.645l1.43-4.372zm1.211 3.722l-2.636.668 3.742 2.73-1.102-3.398zm17.594-3.722h4.645l-3.742 2.71-2.313 1.665-3.762 2.71 1.43-4.375-3.762-2.71h4.645l1.43-4.372zm1.211 3.722l-2.64.668 3.742 2.73zm17.59-3.722h4.644l-3.742 2.71-2.312 1.665-3.762 2.71 1.43-4.375-3.762-2.71h4.648l1.426-4.372zm1.21 3.722l-2.64.668 3.742 2.73zm17.59-3.722h4.65l-3.743 2.71-2.316 1.665-3.758 2.71 1.426-4.375-3.758-2.71h4.644l1.43-4.372zm1.212 3.722l-2.637.668 3.742 2.73-1.101-3.398zm0 0" fill-rule="evenodd" fill="#fff"/><path d="M3.574 86.73H20.93v17.348H3.574zm0 0" fill="#ff3722"/><path d="M22.375 86.73H39.73v17.348H22.375zm18.8 0h17.356v17.348H41.176zm18.805 0h17.356v17.348H59.98zm18.801 0h17.356v17.348H78.78zm0 0" fill="#dcdce6"/><path d="M13.68 94.031h4.644l-3.742 2.711-2.312 1.66-3.762 2.711 1.43-4.37-3.762-2.712h4.648l1.426-4.375zm1.21 3.723l-2.64.668 3.742 2.726zm17.59-3.723h4.649l-3.742 2.711-2.317 1.66-3.758 2.711 1.426-4.37-3.758-2.712h4.645l1.43-4.375zm1.211 3.723l-2.636.668 3.742 2.726-1.102-3.394zm17.594-3.723h4.645l-3.742 2.711-2.313 1.66-3.762 2.711 1.43-4.37-3.762-2.712h4.645l1.43-4.375zm1.211 3.723l-2.64.668 3.742 2.726zm17.59-3.723h4.644l-3.742 2.711-2.312 1.66-3.762 2.711 1.43-4.37-3.762-2.712h4.648l1.426-4.375zm1.21 3.723l-2.64.668 3.742 2.726zm17.59-3.723h4.65l-3.743 2.711-2.316 1.66-3.758 2.711 1.426-4.37-3.758-2.712h4.644l1.43-4.375zm1.212 3.723l-2.637.668 3.742 2.726-1.101-3.394zm0 0" fill-rule="evenodd" fill="#fff"/><path d="M3.574 0H20.93v17.348H3.574zm18.801 0H39.73v17.348H22.375zm18.8 0h17.356v17.348H41.176zM59.98 0h17.356v17.348H59.98zm18.801 0h17.356v17.348H78.78zm0 0" fill="#dcdce6"/><path d="M13.68 7.3h4.644l-3.742 2.712-2.312 1.66-3.762 2.71 1.43-4.37L6.175 7.3h4.648l1.426-4.375zm1.21 3.723l-2.64.668 3.742 2.727zm17.59-3.722h4.649l-3.742 2.71-2.317 1.66-3.758 2.712 1.426-4.371L24.98 7.3h4.645l1.43-4.375zm1.211 3.722l-2.636.668 3.742 2.727-1.102-3.395zm17.594-3.722h4.645l-3.742 2.71-2.313 1.66-3.762 2.712 1.43-4.371L43.781 7.3h4.645l1.43-4.375zm1.211 3.722l-2.64.668 3.742 2.727zm17.59-3.722h4.644l-3.742 2.71-2.312 1.66-3.762 2.712 1.43-4.371L62.582 7.3h4.648l1.426-4.375zm1.21 3.722l-2.64.668 3.742 2.727zm17.59-3.722h4.65l-3.743 2.71-2.316 1.66-3.758 2.712 1.426-4.371L81.387 7.3h4.644l1.43-4.375zm1.212 3.722l-2.637.668 3.742 2.727-1.101-3.395zm0 0" fill-rule="evenodd" fill="#fff"/></svg>