<svg xmlns="http://www.w3.org/2000/svg" width="180" height="20" viewBox="0 0 180 20"><path d="M14.26 10.15 23.18 0h-2.12l-7.74 8.81L7.13 0H0l9.35 13.33L0 23.97h2.11l8.18-9.3 6.53 9.3h7.13zm-2.9 3.3-.95-1.33L2.87 1.56h3.25l6.09 8.52.94 1.33 7.91 11.08h-3.24zm0 0" style="fill:#004fb6;fill-opacity:1" transform="matrix(.82267 0 0 .82267 3.7 .38)"/><path d="M14.26 10.15 23.18 0h-2.12l-7.74 8.81L7.13 0H0l9.35 13.33L0 23.97h2.11l8.18-9.3 6.53 9.3h7.13zm-2.9 3.3-.95-1.33L2.87 1.56h3.25l6.09 8.52.94 1.33 7.91 11.08h-3.24zm0 0" style="fill:#002185;fill-opacity:1" transform="matrix(.82267 0 0 .82267 158.64 .38)"/><path d="M14.26 10.15 23.18 0h-2.12l-7.74 8.81L7.13 0H0l9.35 13.33L0 23.97h2.11l8.18-9.3 6.53 9.3h7.13zm-2.9 3.3-.95-1.33L2.87 1.56h3.25l6.09 8.52.94 1.33 7.91 11.08h-3.24zm0 0" style="fill:#fff;fill-opacity:1" transform="matrix(.82267 0 0 .82267 80.72 .38)"/></svg>
