<svg width="73" height="1748" viewBox="0 0 73 1748" xmlns="http://www.w3.org/2000/svg" xmlns:xlink="http://www.w3.org/1999/xlink"><defs><path d="M21.384 5.21c0 2.412 1.753 4.214 4.092 4.214 2.282 0 4.083-1.826 4.083-4.167 0-2.325-1.79-4.152-4.083-4.152a4.099 4.099 0 0 0-4.092 4.105z" id="a"/><filter x="-18.3%" y="-18%" width="136.7%" height="136.1%" filterUnits="objectBoundingBox" id="b"><feGaussianBlur stdDeviation="1" in="SourceAlpha" result="shadowBlurInner1"/><feOffset dx="1" dy="1" in="shadowBlurInner1" result="shadowOffsetInner1"/><feComposite in="shadowOffsetInner1" in2="SourceAlpha" operator="arithmetic" k2="-1" k3="1" result="shadowInnerInner1"/><feColorMatrix values="0 0 0 0 0 0 0 0 0 0 0 0 0 0 0 0 0 0 0.5 0" in="shadowInnerInner1"/></filter><path id="c" d="M.034.117h11.578v5.985H.034z"/><path d="M.16.095C.747 3.25 3.54 5.64 6.902 5.64h7.505c.061-.299.094-.607.094-.924 0-2.552-2.094-4.62-4.676-4.62H.16z" id="e"/><linearGradient x1="0%" y1="50%" y2="50%" id="f"><stop stop-color="#00A3E1" offset="0%"/><stop stop-color="#0075CF" offset="100%"/></linearGradient></defs><g fill="none" fill-rule="evenodd"><rect fill="#2E77BC" width="73" height="48" rx="5"/><path d="M73 28.54h-3.76c-.375 0-.624.013-.834.154-.218.14-.302.346-.302.619a.65.65 0 0 0 .451.64c.218.076.452.098.795.098l1.118.03c1.128.027 1.882.22 2.34.692.084.065.134.139.192.212V28.54zm0 5.667c-.501.73-1.477 1.099-2.8 1.099h-3.983v-1.843h3.967c.394 0 .67-.052.835-.213a.754.754 0 0 0 .244-.56c0-.251-.1-.45-.252-.57-.15-.13-.367-.19-.727-.19-1.936-.065-4.353.06-4.353-2.66 0-1.247.795-2.56 2.96-2.56H73V25h-3.818c-1.152 0-1.989.275-2.581.702V25h-5.647c-.903 0-1.963.223-2.464.702V25H48.406v.702c-.802-.576-2.156-.702-2.78-.702h-6.652v.702C38.34 25.09 36.928 25 36.067 25h-7.444l-1.703 1.836L25.325 25h-11.12v11.994h10.91l1.755-1.864 1.654 1.864 6.725.006v-2.821h.661c.892.013 1.944-.023 2.873-.422v3.237h5.547v-3.126h.268c.34 0 .375.014.375.354v2.772h16.85c1.07 0 2.188-.273 2.807-.768v.768h5.345c1.112 0 2.199-.156 3.025-.553v-2.234zm-8.228-3.434c.401.413.617.936.617 1.82 0 1.85-1.16 2.713-3.24 2.713H58.13v-1.843h4.001c.391 0 .669-.052.843-.213a.76.76 0 0 0 .243-.56c0-.251-.11-.45-.251-.57-.158-.13-.376-.19-.735-.19-1.93-.065-4.345.06-4.345-2.66 0-1.247.787-2.56 2.95-2.56h4.135v1.83h-3.784c-.375 0-.62.014-.827.155-.225.14-.31.346-.31.618a.66.66 0 0 0 .452.641c.218.075.451.097.803.097l1.11.03c1.12.027 1.888.22 2.356.692zm-18.613-.532c-.276.163-.617.178-1.019.178h-2.506v-1.93h2.54c.368 0 .735.007.985.154.267.14.427.406.427.773 0 .368-.16.664-.427.825zm1.246 1.07c.458.17.834.471 1.01.722.291.42.333.811.342 1.57v1.703h-2.071V34.23c0-.516.05-1.282-.334-1.682-.3-.308-.76-.382-1.513-.382h-2.204v3.14h-2.073V26.71h4.762c1.044 0 1.805.046 2.482.406.651.391 1.06.928 1.06 1.908 0 1.372-.918 2.073-1.461 2.287zm2.605-4.601h6.885v1.778h-4.83v1.563h4.712v1.753h-4.713v1.71l4.83.008v1.784H50.01V26.71zm-13.917 3.967h-2.666v-2.189h2.69c.745 0 1.262.302 1.262 1.054 0 .743-.493 1.135-1.286 1.135zm-4.72 3.847l-3.167-3.501 3.167-3.39v6.891zm-8.179-1.01h-5.071v-1.71h4.528v-1.753h-4.528v-1.563h5.171l2.257 2.505-2.357 2.521zm16.4-3.972c0 2.388-1.79 2.88-3.593 2.88h-2.574v2.884h-4.009l-2.54-2.845-2.64 2.845h-8.17V26.71h8.296l2.538 2.818 2.624-2.818h6.591c1.637 0 3.476.451 3.476 2.832zM6.626 16.594l-1.41-3.428-1.404 3.428h2.814zm31.09-1.365c-.282.171-.618.177-1.02.177h-2.504v-1.91h2.539c.36 0 .734.016.978.155.267.126.433.392.433.76 0 .376-.158.679-.425.818zm17.87 1.365l-1.427-3.428-1.419 3.428h2.846zm-33.31 3.71h-2.113l-.008-6.734-2.99 6.735h-1.81l-2.998-6.741v6.74H8.163l-.792-1.917H3.078l-.8 1.918H.038l3.693-8.6h3.063l3.507 8.142v-8.142h3.365l2.698 5.834 2.48-5.834h3.432v8.6zm8.425 0h-6.888v-8.599h6.888v1.79h-4.826v1.551h4.71v1.763h-4.71v1.717h4.826v1.779zm9.712-6.283c0 1.372-.918 2.08-1.453 2.292.451.172.837.474 1.02.725.291.427.341.81.341 1.577v1.69h-2.08l-.007-1.085c0-.517.05-1.261-.326-1.675-.3-.303-.76-.368-1.502-.368h-2.214v3.128H32.13v-8.6h4.743c1.054 0 1.83.028 2.497.412.652.384 1.043.945 1.043 1.904zm1.196-2.316h2.104v8.6h-2.104v-8.6zm26.512 8.6h-2.922L61.29 13.85v6.455h-4.199l-.802-1.918h-4.283l-.779 1.918h-2.413c-1.002 0-2.27-.221-2.99-.951-.724-.73-1.101-1.72-1.101-3.283 0-1.276.225-2.442 1.112-3.363.666-.686 1.71-1.003 3.13-1.003h1.997v1.843h-1.954c-.753 0-1.178.111-1.587.51-.352.361-.593 1.046-.593 1.947 0 .922.184 1.586.567 2.02.318.34.894.443 1.437.443h.926l2.907-6.763h3.09l3.49 8.134v-8.134h3.14l3.624 5.99v-5.99h2.112v8.6zM.014 21.994h3.523l.794-1.91H6.11l.792 1.91h6.932v-1.46L14.453 22h3.598l.619-1.488v1.482h17.227l-.009-3.136h.334c.233.008.301.03.301.414v2.722h8.91v-.73c.719.384 1.837.73 3.307.73h3.748l.803-1.91h1.778l.785 1.91h7.223v-1.815l1.094 1.815h5.788V10H64.23v1.416L63.428 10H57.55v1.416L56.814 10h-7.94c-1.33 0-2.497.185-3.44.7V10h-5.48v.7c-.6-.53-1.42-.7-2.329-.7H17.608l-1.343 3.098L14.885 10H8.58v1.416L7.888 10H2.51L.014 15.702v6.292z" fill="#FFF"/><g transform="translate(0 100)"><rect stroke="#CCC" fill="#FFF" x=".5" y=".5" width="72" height="47" rx="5"/><path d="M18.876 15.092c.63-.787 1.057-1.845.944-2.925-.92.046-2.045.608-2.696 1.396-.585.675-1.102 1.776-.967 2.811 1.034.09 2.068-.517 2.72-1.282m.932 1.484c-1.503-.089-2.78.853-3.497.853-.718 0-1.817-.807-3.005-.786-1.546.023-2.98.897-3.765 2.288-1.615 2.782-.427 6.908 1.143 9.174.762 1.121 1.68 2.355 2.891 2.311 1.144-.045 1.592-.74 2.982-.74 1.39 0 1.794.74 3.004.718 1.255-.023 2.04-1.122 2.803-2.244.874-1.278 1.232-2.512 1.254-2.58-.022-.022-2.42-.942-2.443-3.7-.022-2.31 1.884-3.41 1.973-3.478-1.076-1.591-2.757-1.77-3.34-1.816m11.281 5.76h2.996c2.274 0 3.568-1.224 3.568-3.347 0-2.122-1.294-3.335-3.556-3.335h-3.009v6.682zm3.696-8.886c3.265 0 5.539 2.25 5.539 5.528 0 3.288-2.32 5.55-5.62 5.55h-3.616v5.748h-2.611V13.45h6.308zm14.115 12.256v-.945l-2.903.187c-1.632.105-2.483.711-2.483 1.772 0 1.026.886 1.691 2.273 1.691 1.772 0 3.113-1.131 3.113-2.705m-7.929 1.084c0-2.157 1.644-3.393 4.676-3.58l3.253-.198v-.933c0-1.364-.897-2.11-2.495-2.11-1.318 0-2.274.676-2.472 1.714H41.58c.07-2.18 2.122-3.766 4.897-3.766 2.985 0 4.933 1.562 4.933 3.987v8.372h-2.414V28.26h-.059c-.687 1.318-2.203 2.146-3.848 2.146-2.425 0-4.116-1.446-4.116-3.615m12.655 7.987V32.76c.163.024.56.047.77.047 1.153 0 1.807-.49 2.203-1.75l.233-.746-4.42-12.243h2.73l3.078 9.934h.058l3.079-9.934h2.658L59.434 30.93c-1.05 2.95-2.25 3.919-4.792 3.919-.198 0-.84-.024-1.014-.07" fill="#000"/></g><g transform="translate(0 200)"><rect fill="#AAA" width="73" height="48" rx="5"/><path fill="#CCC" d="M8 16h13v11H8zm0 15h12v2H8zm15 0h12v2H23zm15 0h12v2H38zm15 0h12v2H53z"/></g><g transform="translate(0 300)"><rect fill="#D8232A" width="73" height="48" rx="5"/><path fill="#FFF" d="M0 13.684h73v22.504H0z"/><path d="M60.58 6.385c2.836.25 6.13-.542 8.465.96 2.335 1.333 3.96 3.794 3.836 6.628l-16.803.042c-.282.115-.459.542-.792.792-2.335 2.877-4.67 5.796-7.088 8.59.292-3.086.427-6.265.844-9.35l-13.894-.032a274.549 274.549 0 0 1-.418 8.13c-.625-3.001-3.085-6.295-6.212-7.17-1.46-.46-2.835-.793-4.378-.876l-24.016.083c0 .042-.083.042-.083 0-.042-2.669 1.25-5.087 3.585-6.546 1.001-.584 2.085-1.117 3.294-1.2l53.66-.05" fill="#D8232A"/><path d="M72.88 35.32c0 .042-.04.042 0 .084-3.376-3.668-6.42-7.713-9.38-11.674l.041-.167c3.044-3.168 5.88-6.463 9.256-9.298l.084.042v21.014M21.93 24.189c.042 1-.626 1.793-1.376 2.418-1.918 1.46-4.732.761-7.213.875l.459-5.67c2.491.188 7.286-.855 8.13 2.377" fill="#E21F28"/><path d="M55.37 34.946c.27.917 1.052.708 1.792.708h15.677c.125 2.92-1.668 5.838-4.42 7.005-1.042.459-2.21.667-3.418.667H38.69l-31.854.084C4.21 43.201 1.583 41.2.583 38.699a8.438 8.438 0 0 1-.542-2.92l23.515-.125c3.544-.416 6.963-1.959 9.048-5.253.75-1.209 1.334-2.46 1.834-3.752-.25 3.002-.375 6.087-.708 9.13 4.461-.041 13.8 0 13.8 0 .084-3.752.292-7.671.542-11.382l7.297 10.549" fill="#D8232A"/></g><g transform="translate(0 1400)"><rect fill="#5c596d" width="73" height="48" rx="5"/><path d="M34.2 29.756c-.933-6.49 5.822-9.023 5.822-13.023 0-2.133-1.333-3.555-3.6-3.555-1.822 0-3.289.889-4.578 2.31L29 12.868C30.956 10.6 33.711 9 37.044 9 41.667 9 45 11.533 45 16.378c0 5.644-6.933 7.644-6.311 13.378H34.2zm2.267 10.088c-1.867 0-3.29-1.466-3.29-3.466s1.423-3.467 3.29-3.467c1.866 0 3.333 1.467 3.333 3.467s-1.467 3.466-3.333 3.466z" fill="#FFF"/></g><g transform="translate(0 400)"><rect fill="#084D95" width="73" height="48" rx="5"/><path d="M40.72 39.342c8.2.04 15.684-6.684 15.684-14.868 0-8.947-7.484-15.132-15.685-15.127h-7.06c-8.293-.005-15.125 6.181-15.125 15.127 0 8.184 6.832 14.908 15.126 14.868h7.06z" fill="#FFF"/><path d="M33.694 10.585c-7.581.003-13.727 6.148-13.729 13.734.002 7.582 6.148 13.725 13.73 13.729 7.585-.004 13.728-6.147 13.73-13.73-.002-7.585-6.145-13.73-13.73-13.733m-8.702 13.734a8.717 8.717 0 0 1 5.586-8.124v16.244a8.714 8.714 0 0 1-5.586-8.12M36.81 32.44V16.195a8.707 8.707 0 0 1 5.588 8.124 8.709 8.709 0 0 1-5.588 8.122" fill="#084D95"/></g><g transform="translate(0 500)"><rect fill="#000" width="73" height="48" rx="5"/><path d="M35.808 22.698h.926s1.911-.145 1.911-1.592c0-1.507-2.025-1.623-2.025-1.623h-.812v3.215zm0 6.023h.926s1.911-.115 1.911-1.593c0-1.477-2.025-1.622-2.025-1.622h-.812v3.215zm-1.419-3.88h2.897s2.867-.058 2.838 2.549c-.03 1.94-2.782 2.229-2.782 2.229H34.39V24.84zm6.486-1.217h1.39v-4.836h-1.39v4.836zm15.466 6.025h1.42v-3.678h-1.42v3.678zm0-4.229h1.42v-.984h-1.42v.984zm-5.648-3.707h2.318v-.897h-2.318v-1.103h2.52v-.925h-3.939v4.836h3.968v-.868h-2.549v-1.043zm-5.82-.752h.753s1.042-.06 1.1-.695c.028-.61-1.014-.696-1.014-.696h-.839v1.39zm.896-2.173s2.378-.116 2.378 1.274c0 1.187-1.362 1.275-1.362 1.275s.376.058.548.318c.145.232 1.1 1.969 1.1 1.969h-1.447s-.232-.29-.347-.49a7.828 7.828 0 0 0-.348-.638s-.202-.725-.897-.725l-.52-.018v1.871h-1.392v-4.836h2.287zm12.802 1.014l.173-.84s-.723-.319-1.997-.319c-1.246 0-3.245.696-3.245 2.578 0 1.853 2.114 2.49 3.418 2.49 1.302 0 1.738-.202 1.738-.202l-.147-.927s-.577.174-1.562.174c-.956-.03-1.942-.782-1.942-1.623.03-.751.9-1.592 2.03-1.592.87 0 1.534.26 1.534.26zm.58-.203h1.678v4.025h1.42v-4.025h1.708v-.84H59.15v.84zm4.4 9.21l.03.81s-.665.145-1.1.145c-.434 0-1.565-.26-1.565-1.36v-1.681H59.73v-.753h1.186v-.898h1.448v.898h1.188v.753h-1.188v1.449s0 .725.58.725c.579 0 .608-.089.608-.089zm-12.249.144c.84-.029 1.217-.754 1.217-1.1 0-.349-.204-1.07-1.275-1.07-.832 0-1.085.627-1.158.933v.38c.072.312.328.857 1.216.857zm-1.216-2.413c.322-.349.86-.628 1.766-.628 1.795 0 2.086 1.507 2.057 1.912-.03.404-.174 1.94-2.26 1.94-.787 0-1.269-.267-1.563-.603v.488h-1.42v-5.213h1.42v2.104zm-7.03.908h2.222s0-.84-1.071-.84c-.807 0-1.07.434-1.15.84zm-.004.724c.082.379.356.796 1.27.838 1.217.03 1.912-.433 1.912-.433v.896s-1.332.32-1.97.32c-.665 0-2.636-.144-2.636-1.97 0-1.476 1.622-1.94 2.55-1.94 1.621.058 2.403.638 2.374 2.289 0 .024-2.668.006-3.5 0zm-8.663-9.355h2.897s2.867-.058 2.838 2.549c-.03 1.94-2.782 2.229-2.782 2.229H34.39v-4.778zm-13.002 2.699c-3.378-.244-11.036 1.339-11.036 4.802 0 2.26 4.055 5.56 10.658 5.647.262 0 7.76-.289 7.645-8.34-.096-6.762-5.157-7.947-6.776-8.153v-.413c6.452.41 11.527 4.292 11.527 9 0 4.981-5.677 9.036-12.655 9.036-6.98 0-12.627-4.055-12.627-9.037 0-4.98 5.646-9.034 12.627-9.034.213 0 .425.003.637.01v6.482zm0 .181v9.688s-5.62-1.013-5.62-4.864c0-3.072 4.16-4.426 5.62-4.824z" fill="#FFF"/></g><g transform="translate(0 600)"><rect stroke="#CCC" fill="#FFF" x=".5" y=".5" width="72" height="47" rx="5"/><path d="M73 28v14.993C73 45.758 70.753 48 68.006 48H17c23.811-4.783 41.008-11.304 56-20z" fill="#F58220"/><path d="M60.55 20.85c0-.14-.09-.218-.255-.218h-.218v.705h.16v-.274l.19.274h.201l-.226-.291a.192.192 0 0 0 .148-.197zm-.282.095h-.03v-.182h.032c.079 0 .12.03.12.089 0 .061-.043.093-.122.093z" fill="#231F20"/><path d="M60.327 20.368a.6.6 0 0 0-.589.615c0 .34.263.615.59.615.32 0 .583-.277.583-.615 0-.337-.263-.615-.584-.615zm0 1.12c-.262 0-.473-.224-.473-.503 0-.282.21-.505.473-.505.255 0 .465.227.465.505 0 .276-.21.502-.465.502zm-.833 1.124c0-1.497-.989-2.358-2.716-2.358h-2.222v7.99h1.498v-3.21h.196l2.07 3.21h1.842l-2.418-3.366c1.13-.24 1.75-1.042 1.75-2.266zm-3.005 1.319h-.435v-2.42h.46c.933 0 1.44.408 1.44 1.185 0 .803-.507 1.235-1.465 1.235zm-7.167 4.313h4.246v-1.353h-2.75v-2.158h2.646v-1.352h-2.646v-1.774h2.75v-1.353h-4.246v7.99m-4.376-2.623l-2.05-5.367h-1.633l3.258 8.195h.805l3.316-8.195h-1.623l-2.073 5.367" fill="#231F20"/><g transform="translate(12 19)"><use fill="#F48027" xlink:href="#a"/><use fill="#000" filter="url(#b)" xlink:href="#a"/></g><path d="M26.887 24.253c0 2.35 1.774 4.171 4.052 4.171.645 0 1.197-.131 1.877-.467v-1.833c-.6.623-1.129.873-1.808.873-1.508 0-2.579-1.138-2.579-2.756 0-1.532 1.105-2.743 2.51-2.743.713 0 1.254.265 1.877.899v-1.834c-.655-.347-1.198-.49-1.842-.49-2.268 0-4.087 1.859-4.087 4.18m-2.68-.935c-.9-.345-1.163-.574-1.163-1.005 0-.502.47-.886 1.116-.886.449 0 .817.192 1.21.646l.781-1.064a3.277 3.277 0 0 0-2.256-.888c-1.357 0-2.393.982-2.393 2.288 0 1.103.483 1.666 1.887 2.193.587.215.886.358 1.036.455.3.205.45.49.45.826 0 .649-.496 1.126-1.164 1.126-.715 0-1.29-.37-1.635-1.065l-.965.972c.69 1.053 1.518 1.52 2.658 1.52 1.554 0 2.647-1.079 2.647-2.623 0-1.27-.505-1.846-2.21-2.495m-5.156-3.064h1.496v7.99H19.05zm-4.811 0h-2.2v7.99h2.19c1.16 0 2-.287 2.738-.92a4.094 4.094 0 0 0 1.392-3.071c0-2.359-1.693-4-4.12-4zm1.75 6.001c-.473.445-1.082.636-2.05.636h-.402v-5.284h.403c.967 0 1.553.18 2.05.646.518.48.826 1.222.826 1.988 0 .768-.308 1.537-.826 2.014z" fill="#231F20"/></g><g transform="translate(0 700)"><rect stroke="#CCC" fill="#FFF" x=".5" y=".5" width="72" height="47" rx="5"/><path d="M35.22 23.812v5.218h-1.657V16.148h4.395c1.117 0 2.063.372 2.844 1.115.794.744 1.19 1.65 1.19 2.717 0 1.091-.396 2.003-1.19 2.734-.768.732-1.717 1.097-2.844 1.097H35.22v.001zm0-6.08v4.497h2.774c.66 0 1.207-.222 1.639-.666a2.16 2.16 0 0 0 .666-1.583c0-.6-.222-1.122-.666-1.566-.432-.456-.979-.684-1.64-.684H35.22v.001zm10.59 2.194c1.225 0 2.19.327 2.9.98.709.655 1.062 1.55 1.062 2.69v5.433h-1.585v-1.223h-.072c-.684 1.007-1.596 1.51-2.737 1.51-.972 0-1.788-.287-2.44-.862-.655-.577-.983-1.295-.983-2.16 0-.911.345-1.636 1.035-2.176.69-.54 1.613-.81 2.765-.81.984 0 1.795.18 2.43.54v-.378c0-.576-.227-1.064-.683-1.466a2.346 2.346 0 0 0-1.603-.602c-.925 0-1.657.39-2.197 1.17l-1.46-.919c.806-1.151 1.994-1.727 3.568-1.727m-2.144 6.404c0 .433.183.792.55 1.08.366.288.794.432 1.287.432.697 0 1.317-.258 1.863-.774.547-.516.82-1.12.82-1.815-.516-.41-1.237-.612-2.161-.612-.673 0-1.234.162-1.684.486-.45.324-.675.724-.675 1.203m15.201-6.116l-5.53 12.7h-1.71l2.053-4.443-3.639-8.257h1.802l2.63 6.333h.035l2.557-6.333z" fill="#5F6368"/><path d="M28.525 22.688c0-.522-.044-1.024-.128-1.506H21.41v2.85h4.002a3.425 3.425 0 0 1-1.48 2.25v1.851h2.389c1.398-1.288 2.204-3.193 2.204-5.445" fill="#4285F4"/><path d="M21.41 29.921c2 0 3.683-.656 4.91-1.788l-2.388-1.85c-.665.447-1.521.708-2.523.708-1.932 0-3.572-1.302-4.16-3.055h-2.46v1.906a7.41 7.41 0 0 0 6.62 4.08" fill="#34A853"/><path d="M17.25 23.935a4.448 4.448 0 0 1 0-2.833v-1.907h-2.461A7.36 7.36 0 0 0 14 22.52c0 1.195.285 2.325.789 3.323l2.46-1.907z" fill="#FABB05"/><g transform="translate(14.755 15)"><mask id="d" fill="#fff"><use xlink:href="#c"/></mask><path d="M6.654 3.047c1.092 0 2.071.375 2.843 1.11v.001l2.115-2.112C10.327.85 8.652.117 6.654.117a7.41 7.41 0 0 0-6.62 4.078l2.46 1.907c.587-1.754 2.228-3.055 4.16-3.055" fill="#E94235" mask="url(#d)"/></g></g><g transform="translate(0 800)"><rect stroke="#CCC" fill="#FFF" x=".5" y=".5" width="72" height="47" rx="5"/><path d="M51.688 26.043c.105 3.146.21 6.399.053 9.6-.105 1.258-.892 2.465-2.046 3.2-.892.576-1.994.629-3.148.681l-4.17-.052-.026-26.702c.21-1.783 1.521-3.304 3.2-3.776 2.046-.263 3.935-.158 6.085-.21l.105 1.364v15.16l-.053.053v.682z" fill="#00A551"/><path d="M21.474 25.047V12.456c.262-1.417 1.416-2.727 2.78-3.252 2.045-.63 4.407-.261 6.504-.316.104 2.048 0 4.617.053 6.401l.105 16.418c-.263 2.519.682 5.928-2.467 7.345-1.992.995-4.668.367-6.924.577l-.051-.367V25.047z" fill="#0071BB"/><path d="M21.474 25.57c.838 1.102 1.993 1.94 3.409 1.993 1.731.159 3.987.315 5.14-1.31.788-.84.316-1.993.474-3.095l-.053-1.994c-.997-.21-1.89 0-3.043-.053-.577 2.151.944 4.564-1.521 5.666-.578.157-1.417.053-1.994-.315-.944-.21-.419-1.731-1.678-1.311l-.734-.104v.523z" fill="#FFF"/><path d="M41.249 10.62l.053 25.547c-.367 1.206-1.312 2.518-2.623 2.99-1.993.68-4.459.367-6.661.367l-.106-26.91c.106-1.26.944-2.36 2.046-3.043.787-.525 1.732-.684 2.728-.735h4.459l.104 1.785z" fill="#EC1C24"/><path d="M40.83 21.164c.105.315 0 .577.052.944-1.573-.42-3.514-.892-4.93.263-.524.628-.84 1.259-.788 2.097.158.945.735 1.837 1.627 2.204 1.364.42 2.78.053 4.039-.264.052.264.105.63 0 .84h-6.033c-1.048-.21-1.888-.786-2.36-1.835-.42-.997-.21-2.36.525-3.2.629-.734 1.521-1.154 2.517-1.102l5.35.053zm7.397 3.462c-.997-.158-1.994-.105-2.938-.053-.053.787 0 1.417.104 2.152 1.05 0 2.204.155 3.147-.316.264-.262.42-.681.317-1.049-.053-.313-.317-.577-.63-.734zm-2.834-2.885c-.157.576-.157 1.364-.052 1.993 1.102-.051 2.518.367 3.252-.472.264-.316.106-.839-.053-1.102-.839-.734-2.097-.262-3.147-.419zm6.295 4.302c-.157.63-.68 1.205-1.311 1.31h-7.344l-.261-.105c0-2.097-.054-4.09.051-6.137h4.669c1.468.158 3.094-.472 3.777.892.21.473.157 1.102-.21 1.47-.21.365-.682.42-.787.68.578.158 1.207.63 1.416 1.207v.683z" fill="#FFF"/></g><g fill-rule="nonzero" transform="translate(0 900)"><rect fill="#354A5D" width="73" height="48" rx="5"/><path d="M26.465 42.81v-2.322a1.334 1.334 0 0 0-.416-1.061c-.293-.28-.7-.429-1.116-.405a1.538 1.538 0 0 0-1.372.658 1.455 1.455 0 0 0-1.29-.658 1.314 1.314 0 0 0-1.144.55v-.457h-.85v3.695h.858v-2.058a.834.834 0 0 1 .232-.707.937.937 0 0 1 .724-.276c.564 0 .85.348.85.975v2.055h.857v-2.047a.842.842 0 0 1 .235-.704.945.945 0 0 1 .72-.28c.58 0 .858.349.858.976v2.055l.854.011zm4.778-1.846v-1.846h-.858v.45a1.512 1.512 0 0 0-1.225-.542c-1.128 0-2.042.866-2.042 1.935 0 1.068.914 1.935 2.042 1.935.477.017.933-.185 1.225-.542v.449h.85l.008-1.839zm-3.157 0c.038-.607.58-1.074 1.222-1.051.642.022 1.147.527 1.136 1.135-.01.609-.532 1.097-1.174 1.1a1.201 1.201 0 0 1-.872-.342 1.073 1.073 0 0 1-.32-.842h.008zm21.305-1.935c.28 0 .557.05.817.147.253.094.483.235.678.415.189.175.339.384.44.615a1.952 1.952 0 0 1 0 1.548 1.86 1.86 0 0 1-.44.615 2.057 2.057 0 0 1-.666.41 2.43 2.43 0 0 1-1.674 0 2.031 2.031 0 0 1-.662-.41 1.886 1.886 0 0 1-.437-.615 1.955 1.955 0 0 1 0-1.548c.102-.23.25-.44.437-.615.19-.177.415-.317.662-.41.265-.105.55-.159.837-.16l.008.008zm0 .774a1.328 1.328 0 0 0-.486.086 1.154 1.154 0 0 0-.388.243c-.112.111-.2.243-.257.387-.125.31-.125.651 0 .96.057.144.145.276.257.387.11.106.243.189.388.244.311.115.657.115.968 0a1.18 1.18 0 0 0 .408-.244c.113-.11.201-.242.258-.387.124-.309.124-.65 0-.96a1.116 1.116 0 0 0-.258-.387 1.179 1.179 0 0 0-.408-.243 1.324 1.324 0 0 0-.49-.109l.008.023zm-13.534 1.161c0-1.16-.76-1.935-1.85-1.935-1.127.015-2.029.894-2.013 1.962.016 1.07.943 1.923 2.07 1.908a2.453 2.453 0 0 0 1.597-.518l-.408-.596a1.922 1.922 0 0 1-1.135.387c-.584.047-1.102-.354-1.168-.906h2.895c.012-.093.012-.193.012-.302zm-2.903-.325c.03-.516.491-.915 1.037-.898a.998.998 0 0 1 .69.255c.186.169.293.4.298.643h-2.025zm6.477-.58a2.618 2.618 0 0 0-1.225-.318c-.466 0-.744.163-.744.434 0 .27.294.317.662.364l.408.054c.85.116 1.364.457 1.364 1.107 0 .65-.653 1.207-1.776 1.207a2.925 2.925 0 0 1-1.687-.48l.409-.627c.374.264.832.4 1.298.387.58 0 .89-.162.89-.449 0-.209-.22-.325-.686-.387l-.408-.054c-.874-.116-1.348-.487-1.348-1.091 0-.735.638-1.184 1.634-1.184a3.042 3.042 0 0 1 1.589.387l-.38.65zm4.084-.21H42.13v1.677c0 .387.139.619.564.619.265-.009.523-.08.751-.21l.245.69a2.075 2.075 0 0 1-1.062.286c-1.004 0-1.355-.51-1.355-1.37v-1.683h-.793v-.736h.793V38h.857v1.122h1.385v.728zm2.936-.827c.206 0 .41.034.604.1l-.261.774a1.448 1.448 0 0 0-.531-.093c-.555 0-.817.341-.817.952v2.07h-.85V39.13h.842v.449a1.167 1.167 0 0 1 1.03-.542l-.017-.015zm5.872 3.247a.412.412 0 0 1 .282.104.343.343 0 0 1 0 .519.412.412 0 0 1-.126.077.41.41 0 0 1-.523-.193.346.346 0 0 1 .086-.403.412.412 0 0 1 .126-.077.429.429 0 0 1 .135-.024l.02-.003zm0 .654a.304.304 0 0 0 .213-.086.277.277 0 0 0 .082-.255.29.29 0 0 0-.176-.209.308.308 0 0 0-.237 0 .3.3 0 0 0-.098.062.275.275 0 0 0 0 .387.31.31 0 0 0 .216.085v.016zm.025-.46a.17.17 0 0 1 .106.03c.025.02.04.05.037.081a.09.09 0 0 1-.029.07.147.147 0 0 1-.086.035l.119.128H52.4l-.11-.128h-.037v.128h-.078v-.341l.172-.004zm-.09.065v.093h.09a.09.09 0 0 0 .049 0 .037.037 0 0 0 0-.035.037.037 0 0 0 0-.035.09.09 0 0 0-.05 0l-.089-.023z" fill="#FFF"/><path fill="#7673C0" d="M30.07 9.274h12.993v22.767H30.07z"/><path d="M30.895 20.655c-.004-4.442 2.088-8.639 5.671-11.381-6.088-4.666-14.83-3.986-20.082 1.56a14.215 14.215 0 0 0 0 19.646c5.252 5.546 13.994 6.226 20.082 1.56-3.584-2.743-5.676-6.941-5.67-11.385z" fill="#EB001B"/><path d="M59.171 29.628v-.467h.194v-.096h-.49v.096h.193v.467h.103zm.953 0v-.563h-.149l-.173.402-.173-.402h-.148v.563h.107v-.423l.16.366h.112l.16-.366v.427l.104-.004zm.466-8.973c0 5.544-3.246 10.6-8.36 13.023-5.112 2.422-11.195 1.785-15.664-1.641 3.582-2.745 5.673-6.942 5.673-11.384s-2.091-8.638-5.673-11.383c4.469-3.426 10.552-4.064 15.665-1.641 5.113 2.422 8.359 7.479 8.359 13.022v.004z" fill="#00A1DF"/></g><g fill-rule="nonzero" transform="translate(0 1000)"><rect fill="#354A5D" width="73" height="48" rx="5"/><path d="M21.14 42.7v-2.274a1.285 1.285 0 0 0-.424-1.043c-.3-.276-.714-.42-1.139-.398-.56-.034-1.095.213-1.397.644-.275-.418-.779-.665-1.313-.644a1.356 1.356 0 0 0-1.164.538v-.447h-.865V42.7h.873v-1.994a.802.802 0 0 1 .238-.69.978.978 0 0 1 .735-.273c.574 0 .865.341.865.956v2.017h.873v-2.01a.806.806 0 0 1 .239-.689.982.982 0 0 1 .733-.274c.59 0 .873.341.873.956v2.017l.873-.016zm12.916-3.624h-1.422v-1.1h-.873v1.1h-.79v.72h.807v1.668c0 .842.357 1.343 1.38 1.343a2.18 2.18 0 0 0 1.08-.281l-.249-.675a1.711 1.711 0 0 1-.765.205c-.415 0-.573-.243-.573-.607v-1.653h1.413l-.008-.72zm7.374-.091a1.2 1.2 0 0 0-1.047.53v-.44h-.857V42.7h.865v-2.032c0-.599.283-.932.831-.932a1.53 1.53 0 0 1 .54.09l.267-.758a2.01 2.01 0 0 0-.616-.098l.017.015zm-11.149.379a3.198 3.198 0 0 0-1.621-.38c-1.006 0-1.663.44-1.663 1.161 0 .592.482.955 1.372 1.07l.416.052c.474.061.698.175.698.38 0 .28-.316.44-.906.44a2.258 2.258 0 0 1-1.322-.38l-.416.614a3.063 3.063 0 0 0 1.721.47c1.148 0 1.813-.492 1.813-1.182s-.524-.971-1.389-1.085l-.415-.053c-.375-.045-.674-.114-.674-.356 0-.243.283-.425.757-.425a2.76 2.76 0 0 1 1.247.311l.382-.637zm23.158-.38a1.2 1.2 0 0 0-1.047.532v-.44h-.856V42.7h.864v-2.032c0-.599.283-.932.832-.932a1.53 1.53 0 0 1 .54.09l.266-.758a2.01 2.01 0 0 0-.615-.098l.016.015zM42.3 40.882a1.75 1.75 0 0 0 .6 1.375c.404.36.956.55 1.52.52.519.024 1.03-.13 1.43-.432l-.416-.637a1.857 1.857 0 0 1-1.039.326c-.663-.049-1.173-.554-1.173-1.16 0-.606.51-1.111 1.173-1.16.376.004.74.118 1.04.326l.415-.637a2.212 2.212 0 0 0-1.43-.432 2.12 2.12 0 0 0-1.52.52 1.75 1.75 0 0 0-.6 1.375v.016zm8.098 0v-1.805h-.865v.44a1.57 1.57 0 0 0-1.247-.531c-1.148 0-2.079.849-2.079 1.896s.93 1.895 2.079 1.895a1.57 1.57 0 0 0 1.247-.53v.44h.865V40.88zm-3.218 0c.039-.595.591-1.053 1.244-1.03.653.021 1.167.516 1.157 1.112-.011.596-.542 1.075-1.195 1.078a1.252 1.252 0 0 1-.881-.34 1.033 1.033 0 0 1-.325-.82zm-10.434-1.896c-1.148.015-2.065.875-2.05 1.922.017 1.047.96 1.884 2.108 1.87a2.571 2.571 0 0 0 1.65-.494l-.415-.583a2.01 2.01 0 0 1-1.156.379c-.594.046-1.12-.347-1.188-.888h2.95v-.303c0-1.137-.772-1.896-1.886-1.896l-.013-.007zm0 .705a1.04 1.04 0 0 1 .703.25.864.864 0 0 1 .303.63h-2.078c.031-.507.5-.897 1.056-.88h.016zm21.662 1.198V37.62h-.831v1.896a1.57 1.57 0 0 0-1.248-.531c-1.147 0-2.078.849-2.078 1.896s.93 1.895 2.078 1.895a1.57 1.57 0 0 0 1.248-.53v.44h.83v-1.798zm1.442 1.285a.422.422 0 0 1 .287.102.381.381 0 0 1 .088.115.324.324 0 0 1 0 .28.381.381 0 0 1-.217.19.423.423 0 0 1-.158.03.42.42 0 0 1-.374-.22.328.328 0 0 1 .088-.394.422.422 0 0 1 .299-.103h-.013zm0 .641a.32.32 0 0 0 .217-.083.263.263 0 0 0 0-.38.31.31 0 0 0-.217-.083.338.338 0 0 0-.22.084.263.263 0 0 0 .1.44.334.334 0 0 0 .133.022h-.013zm.025-.451a.178.178 0 0 1 .108.03c.026.02.04.05.038.08a.087.087 0 0 1-.03.068.153.153 0 0 1-.087.034l.121.125h-.096l-.112-.125h-.037v.125h-.08v-.333l.175-.004zm-.091.064v.091h.091a.095.095 0 0 0 .05 0 .035.035 0 0 0 0-.034.035.035 0 0 0 0-.034.095.095 0 0 0-.05 0l-.091-.023zm-4.573-1.539c.039-.595.592-1.053 1.245-1.03.653.022 1.166.516 1.156 1.112-.01.596-.542 1.075-1.195 1.078a1.252 1.252 0 0 1-.881-.34 1.033 1.033 0 0 1-.325-.82zm-29.194 0v-1.812h-.864v.44a1.57 1.57 0 0 0-1.247-.531c-1.148 0-2.079.849-2.079 1.896s.93 1.895 2.079 1.895a1.57 1.57 0 0 0 1.247-.53v.44h.864v-1.798zm-3.217 0c.038-.595.591-1.053 1.244-1.03.653.022 1.167.516 1.156 1.112-.01.596-.541 1.075-1.195 1.078a1.253 1.253 0 0 1-.886-.336c-.231-.22-.35-.52-.328-.824h.009z" fill="#FFF"/><path fill="#FF5F00" d="M29.697 9.117h12.947v22.477H29.697z"/><path d="M30.518 20.358c-.004-4.387 2.08-8.533 5.652-11.241-6.067-4.606-14.779-3.935-20.013 1.541-5.235 5.476-5.235 13.919 0 19.395 5.234 5.476 13.946 6.147 20.013 1.541-3.571-2.708-5.655-6.851-5.652-11.236z" fill="#EB001B"/><path d="M60.112 20.358c0 5.472-3.235 10.465-8.331 12.856-5.096 2.392-11.157 1.763-15.611-1.62 3.57-2.71 5.654-6.853 5.654-11.238 0-4.386-2.085-8.53-5.654-11.24 4.454-3.382 10.515-4.01 15.611-1.62 5.096 2.392 8.33 7.385 8.33 12.858v.004zm-1.414 8.952v-.542h.193v-.112h-.49v.112h.21v.542h.087zm.95 0v-.654h-.149l-.172.467-.173-.467h-.132v.654h.107v-.49l.16.425h.112l.16-.426v.496l.086-.005z" fill="#F79E1B"/></g><g transform="translate(0 1100)"><rect stroke="#CCC" fill="#FFF" x=".5" y=".5" width="72" height="47" rx="5"/><path d="M39.17 18.54l-3.072 6.577h-.312v-8.01h-4.364v13.554h3.704c.973 0 1.856-.558 2.264-1.431l3.072-6.578h.312v8.01h4.365V17.106h-3.704c-.973 0-1.857.56-2.265 1.432m-16.374.351l-1.818 6.228h-.312l-1.818-6.228a2.49 2.49 0 0 0-2.397-1.781h-4.358v13.554h4.364v-8.01h.312l2.494 8.01h3.118l2.494-8.01h.311v8.01h4.365V17.108h-4.359a2.49 2.49 0 0 0-2.396 1.78m24.214 4.38v7.394h4.355v-4.313h4.685a4.67 4.67 0 0 0 4.405-3.08H47.009z" fill="#319B42"/><g transform="translate(46.226 17.012)"><mask id="g" fill="#fff"><use xlink:href="#e"/></mask><path d="M.16.095C.747 3.25 3.54 5.64 6.902 5.64h7.505c.061-.299.094-.607.094-.924 0-2.552-2.094-4.62-4.676-4.62H.16z" fill="url(#f)" mask="url(#g)"/></g></g><g transform="translate(0 1200)"><rect fill="#1C3663" width="73" height="48" rx="5"/><path d="M23.332 19.475a1.87 1.87 0 0 0-.687-.736 3.154 3.154 0 0 0-1.087-.402 9.114 9.114 0 0 0-1.48-.117l-2.615.002a.652.652 0 0 0-.6.477l-1.762 7.667c-.062.262.109.479.378.479h1.253a.64.64 0 0 0 .6-.48l.433-1.86a.64.64 0 0 1 .596-.476h.359c1.531-.002 2.72-.315 3.574-.942.853-.625 1.28-1.455 1.277-2.482.002-.452-.075-.829-.239-1.13m-2.705 2.505c-.378.276-.901.415-1.58.415h-.307c-.271 0-.443-.215-.383-.478l.378-1.626a.638.638 0 0 1 .597-.476l.41-.003c.48 0 .843.082 1.09.245.242.159.363.409.36.746.007.508-.185.9-.565 1.177m6.528 3.296c-.156.099-.32.182-.492.254a1.769 1.769 0 0 1-.654.141c-.311 0-.551-.044-.713-.137-.162-.09-.247-.245-.245-.468 0-.256.06-.455.183-.612.124-.15.307-.27.533-.36.227-.078.506-.14.827-.186.286-.036.851-.1.923-.102.073 0 .12-.04.088.152-.013.084-.177.754-.252 1.058a.6.6 0 0 1-.198.26m2.215-4.705c-.475-.266-1.218-.4-2.236-.4-.504 0-1.01.04-1.518.119-.374.057-.41.067-.644.117-.475.104-.55.581-.55.581l-.152.628c-.086.404.144.387.245.355.208-.062.32-.124.745-.22.405-.093.834-.162 1.175-.16.502 0 .883.055 1.137.161.254.112.378.3.378.57a.412.412 0 0 1-.02.176c-.02.05-.06.098-.181.113-.714.043-1.227.109-1.847.199-.61.086-1.144.233-1.59.437-.477.211-.834.493-1.077.852-.24.359-.36.795-.361 1.307 0 .485.174.88.512 1.187.34.303.784.453 1.32.453a3.53 3.53 0 0 0 .787-.073c.186-.047.39-.114.603-.207a3.18 3.18 0 0 0 .517-.285c.183-.122.31-.209.473-.315l.004.01-.046.2-.002.007.002.003c-.053.243.093.445.333.468l.004.005h.02l.002.003.964-.003h.178c.012 0 .015-.004.018-.007.246-.03.48-.23.537-.47l.915-3.949c.02-.092.036-.2.047-.323.012-.125.025-.228.021-.301.003-.56-.238-.973-.713-1.238M36.38 20.264c-.266 0-.619.217-.786.48 0 0-1.795 3.078-1.97 3.385-.098.166-.194.061-.21 0l-.556-3.365c-.06-.264-.339-.491-.684-.49l-1.12.002c-.27 0-.437.215-.377.477 0 0 .855 4.85 1.022 5.99.083.63-.009.743-.009.743l-1.109 1.935c-.163.26-.074.477.195.477l1.297-.001c.269 0 .624-.214.785-.477l4.99-8.441s.477-.72.038-.715c-.3.005-1.505 0-1.505 0m13.523 5.018c-.155.098-.32.182-.49.254a1.775 1.775 0 0 1-.655.142c-.31 0-.552-.045-.712-.139-.162-.09-.248-.244-.244-.466 0-.257.059-.456.182-.612.123-.15.306-.272.534-.362.226-.077.504-.14.825-.184.286-.036.85-.102.923-.102.072 0 .12-.04.088.151-.015.084-.178.754-.252 1.058a.593.593 0 0 1-.199.26m2.216-4.705c-.475-.265-1.219-.4-2.237-.4-.504 0-1.009.04-1.517.12-.373.056-.412.066-.642.115-.478.105-.55.582-.55.582l-.154.63c-.085.401.143.384.245.354.209-.063.321-.126.746-.222.405-.091.834-.161 1.175-.158.502 0 .882.055 1.136.16.255.112.38.3.38.569 0 .064.001.124-.02.178-.022.049-.062.097-.181.113-.716.042-1.23.107-1.85.198-.61.086-1.143.233-1.59.437-.475.21-.83.493-1.077.851-.239.36-.358.795-.36 1.308 0 .485.175.88.513 1.188.34.303.783.453 1.32.453.335-.003.598-.027.786-.074a3.94 3.94 0 0 0 .604-.207c.16-.067.333-.163.516-.285.182-.122.31-.21.472-.316l.006.01-.046.203-.002.004v.004c-.051.243.095.445.335.47l.004.003h.02v.002c.161 0 .709 0 .965-.002h.18c.011 0 .012-.003.016-.007a.651.651 0 0 0 .538-.47l.914-3.948c.022-.093.038-.2.048-.324.011-.125.025-.227.021-.302.002-.558-.238-.971-.714-1.237m-6.042-1.074a1.924 1.924 0 0 0-.69-.738 3.09 3.09 0 0 0-1.09-.4 8.625 8.625 0 0 0-1.473-.116h-2.62a.653.653 0 0 0-.598.479l-1.761 7.668a.37.37 0 0 0 .373.477l1.26-.002a.653.653 0 0 0 .6-.475l.426-1.86a.644.644 0 0 1 .602-.476h.358c1.532 0 2.723-.315 3.574-.943.85-.631 1.277-1.457 1.277-2.486-.002-.449-.078-.828-.238-1.128m-2.705 2.508c-.376.273-.902.41-1.58.41h-.31c-.27.003-.445-.215-.38-.476l.374-1.627a.642.642 0 0 1 .597-.475l.411-.002c.482.002.842.083 1.089.242.243.163.363.413.365.748 0 .509-.188.9-.566 1.18m13.068-3.699h-1.123a.644.644 0 0 0-.582.435c-.005.014-.015.027-.019.042l-.062.281-1.547 7.016a9.73 9.73 0 0 1-.07.302l.003.004c-.051.242.094.437.331.463l.007.01h1.162a.646.646 0 0 0 .584-.438c.004-.014.014-.026.018-.04l1.679-7.599-.004-.001c.058-.26-.11-.475-.377-.475m1.702 1.547c-.039.01-.081.018-.127.024a.792.792 0 0 1-.122.011c-.124 0-.219-.034-.284-.1-.064-.067-.097-.175-.097-.322v-.649h-.138v-.173h.138v-.35h.205v.35h.425v.173h-.425v.556c0 .064.003.114.005.15a.25.25 0 0 0 .03.101.15.15 0 0 0 .066.064.402.402 0 0 0 .235.005.532.532 0 0 0 .077-.025h.012v.185zm2.027.011h-.205v-.695a1.57 1.57 0 0 0-.007-.151.341.341 0 0 0-.03-.117.172.172 0 0 0-.073-.07.376.376 0 0 0-.308.02.996.996 0 0 0-.173.108.643.643 0 0 1 .009.124v.781h-.205v-.695a1.49 1.49 0 0 0-.008-.153.335.335 0 0 0-.03-.115.173.173 0 0 0-.072-.072.323.323 0 0 0-.136-.023.371.371 0 0 0-.168.042.99.99 0 0 0-.17.105v.911h-.204v-1.22h.205v.135a.94.94 0 0 1 .192-.123.47.47 0 0 1 .415.007c.057.035.1.083.13.146a1 1 0 0 1 .226-.152.534.534 0 0 1 .22-.046c.133 0 .232.04.296.122a.537.537 0 0 1 .096.34v.791z" fill="#FFF"/></g><g transform="translate(0 1300)"><rect stroke="#CCC" fill="#FFF" x=".5" y=".5" width="72" height="47" rx="5"/><path fill="#007732" d="M60.861 17.737L64 23.997l-6.6 6.266z"/><path fill="#EB6608" d="M59.396 17.737l3.137 6.26-6.6 6.266z"/><path d="M9 28.053L12.12 17h4.992c1.558 0 2.603.243 3.13.741.528.496.629 1.31.31 2.443-.19.672-.48 1.233-.882 1.676-.399.448-.92.8-1.567 1.06.546.13.895.386 1.05.77.159.385.14.947-.05 1.683l-.38 1.543v.04c-.111.436-.076.669.1.687l-.115.41h-3.375c.01-.261.031-.494.055-.69.024-.201.056-.352.084-.462l.315-1.103c.16-.572.169-.974.023-1.205-.149-.235-.484-.352-1.008-.352h-1.42l-1.08 3.812H9zm5.084-6.302h1.52c.535 0 .924-.078 1.168-.231.246-.153.425-.418.533-.8.11-.387.083-.658-.077-.812-.157-.153-.533-.23-1.123-.23H14.67l-.587 2.073zm15.449-1.804l-2.207 7.893h-2.679l.327-1.158c-.472.46-.954.808-1.44 1.034a3.585 3.585 0 0 1-1.528.337c-.446 0-.824-.08-1.132-.238a1.562 1.562 0 0 1-.697-.716c-.136-.276-.194-.62-.173-1.026.025-.403.166-1.08.434-2.034l1.142-4.092h2.932l-1.14 4.074c-.17.601-.207 1.018-.125 1.246.085.23.311.348.677.348.366 0 .678-.134.937-.401.259-.27.459-.671.61-1.206l1.134-4.06h2.928zm-.733 8.106L31.956 17h4.339c.957 0 1.702.056 2.229.177.528.115.94.302 1.248.564.384.346.622.773.718 1.287.092.513.037 1.113-.16 1.815-.357 1.234-.976 2.183-1.859 2.842-.886.656-1.981.984-3.292.984H33.15l-.966 3.384H28.8zm5.123-6.084h1.088c.706 0 1.202-.085 1.49-.25.283-.163.485-.46.608-.876.119-.424.089-.722-.094-.885-.18-.166-.633-.25-1.357-.25h-1.09l-.645 2.261zm9.53 6.52l.029-.788c-.485.37-.977.644-1.472.821a4.606 4.606 0 0 1-1.577.267c-.857 0-1.45-.234-1.794-.687-.341-.457-.397-1.108-.167-1.939.223-.817.621-1.42 1.19-1.81.564-.39 1.511-.67 2.837-.85.17-.025.395-.05.677-.083.981-.11 1.533-.38 1.651-.808.064-.234.025-.41-.122-.517-.14-.11-.399-.163-.779-.163-.312 0-.566.064-.77.2-.208.137-.362.342-.467.62h-2.938c.268-.928.81-1.628 1.622-2.099.812-.475 1.88-.706 3.203-.706.625 0 1.18.06 1.674.186.494.123.855.298 1.09.51.286.26.457.561.507.892.055.331-.006.804-.177 1.423l-1.262 4.6a.869.869 0 0 0-.027.409.475.475 0 0 0 .165.288l-.066.234h-3.027zm.732-3.683c-.32.128-.735.253-1.253.389-.81.22-1.269.51-1.365.876-.07.231-.045.412.069.547.113.13.305.196.58.196.501 0 .903-.128 1.2-.379.298-.255.524-.656.681-1.207.026-.12.052-.205.066-.267l.022-.155zm2.948 6.134l.692-2.337h.888c.301 0 .534-.053.698-.154.168-.102.284-.278.353-.514.03-.103.05-.215.063-.337.012-.13.012-.27 0-.43l-.473-7.22h3.149l-.05 4.781 2.752-4.782h2.928l-4.86 7.844c-.552.881-.953 1.482-1.208 1.811a3.978 3.978 0 0 1-.72.746 2.81 2.81 0 0 1-1 .503c-.36.1-.912.149-1.654.149-.215 0-.46-.004-.724-.015a26.853 26.853 0 0 1-.834-.045" fill="#2E247A"/></g><g transform="translate(0 1500)"><rect stroke="#CCC" fill="#FFF" x=".5" y=".5" width="72" height="47" rx="5"/><path d="M22.737 10.19H33.82c1.548 0 2.51 1.257 2.148 2.806l-5.16 22.113c-.364 1.549-1.912 2.805-3.46 2.805H16.265c-1.549 0-2.51-1.256-2.147-2.805l5.16-22.113c.362-1.55 1.91-2.806 3.459-2.806" fill="#EB2026"/><path d="M32.9 10.19h11.084c1.55 0 2.511 1.257 2.148 2.806L40.97 35.11c-.363 1.549-1.911 2.805-3.461 2.805H26.428c-1.55 0-2.51-1.256-2.147-2.805l5.159-22.113c.363-1.55 1.912-2.806 3.46-2.806" fill="#00579E"/><path d="M45.143 10.19h11.082c1.548 0 2.51 1.257 2.148 2.806l-5.16 22.113c-.363 1.549-1.912 2.805-3.462 2.805H38.667c-1.548 0-2.51-1.256-2.146-2.805l5.159-22.113c.363-1.55 1.912-2.806 3.463-2.806" fill="#00888D"/><path d="M46.793 26.515l-1.046 4.46h.362l-.22.927h-.361l-.066.282h-1.285l.067-.282h-2.612l.204-.854.266-.004 1.063-4.529.21-.915h1.313l-.103.464s.33-.253.654-.338c.326-.085 2.225-.119 2.225-.119l-.22.908h-.45zm-2.311 0l-.268 1.142s.377-.177.586-.233c.211-.056.532-.078.532-.078l.193-.83h-1.043zm-.402 1.71l-.277 1.183s.382-.203.594-.26c.209-.057.531-.092.531-.092l.198-.83H44.08zm-.647 2.765h1.045l.235-1.005h-1.045l-.235 1.005zm4.103-5.381h1.399l.016.52c-.009.084.066.126.23.128h.235l-.211.86h-.755c-.656.048-.905-.234-.888-.549l-.026-.959" fill="#FFF"/><path d="M47.773 29.686h-1.335l.179-.767h1.523l.17-.7h-1.505l.203-.86h4.188l-.205.86h-1.407l-.17.7h1.409l-.182.767h-1.52l-.252.323h.619l.219.964c.017.095.027.158.06.197.032.035.22.051.327.051h.187l-.22.942h-.477a3.93 3.93 0 0 1-.332-.017c-.144-.01-.252-.094-.352-.14a.506.506 0 0 1-.272-.328l-.213-.96-.626.949c-.202.295-.485.523-.986.523h-.974l.197-.834h.373a.58.58 0 0 0 .267-.078.407.407 0 0 0 .196-.17l.911-1.422M33.026 27.59h3.53l-.203.843h-1.418l-.172.716h1.441l-.209.872h-1.442l-.279 1.16c-.033.131.353.149.492.149l.717-.095-.231.957h-1.63a1.43 1.43 0 0 1-.372-.05.417.417 0 0 1-.271-.19c-.064-.091-.16-.17-.11-.372l.37-1.545h-.802l.212-.886h.805l.171-.716h-.801l.202-.843m2.284-1.51h1.45l-.21.877h-1.98l-.205.189c-.083.087-.12.05-.233.113a1.37 1.37 0 0 1-.645.168h-.633l.203-.845h.19c.162 0 .273-.015.326-.051.059-.036.124-.128.196-.272l.323-.661h1.442l-.223.482m2.039-.476h1.236l-.142.622s.371-.311.64-.416c.265-.106.874-.194.874-.194l1.995-.013-.538 2.263c-.093.387-.209.638-.284.754a.826.826 0 0 1-.32.31 1.253 1.253 0 0 1-.454.151 9.518 9.518 0 0 1-.614.019H37.82l-.43 1.791c-.044.178-.063.261-.027.308a.245.245 0 0 0 .192.093l.842-.081-.229.981h-.952c-.3 0-.522-.004-.674-.018-.147-.012-.3 0-.406-.082-.096-.075-.235-.175-.238-.28.003-.098.032-.26.08-.48l1.373-5.728zm2.764 2.29h-2.022l-.099.406h1.752c.206-.021.25.005.266-.003l.103-.403zm-1.935-.368s.372-.361 1.044-.48c.152-.026 1.117-.019 1.117-.019l.115-.484h-2.04l-.236.983zM24.049 17.25c-.042.198-.813 3.738-.815 3.74-.165.714-.285 1.23-.692 1.56-.238.19-.505.282-.82.282-.504 0-.799-.252-.85-.727l-.01-.161.155-.965s.81-3.228.953-3.657l.012-.05c-1.571.02-1.852.005-1.871-.023l-.05.235-.825 3.64-.072.308-.134 1.007c0 .3.058.546.177.75.375.657 1.447.756 2.051.756.78 0 1.513-.17 2.009-.467.856-.51 1.083-1.304 1.284-2.005l.092-.361s.833-3.355.976-3.791l.01-.05c-1.137.017-1.474.004-1.58-.021m4.599 6.658a18.98 18.98 0 0 0-1.404.022l-.026-.043c.056-.251.12-.494.176-.745l.078-.336c.122-.53.24-1.138.254-1.325.012-.113.048-.393-.272-.393-.136 0-.278.064-.421.129-.078.279-.237 1.067-.311 1.424-.16.759-.173.845-.244 1.216l-.047.05a20.266 20.266 0 0 0-1.434.023l-.03-.05c.11-.452.22-.903.324-1.353.28-1.217.344-1.683.42-2.297l.052-.044c.646-.086.8-.107 1.5-.25l.057.064-.106.393c.118-.071.232-.143.354-.207a2.23 2.23 0 0 1 .894-.207c.305 0 .64.085.78.437.134.314.046.7-.13 1.466l-.089.387c-.18.852-.21 1.009-.307 1.588l-.068.05m2.267.001a19.688 19.688 0 0 0-1.492.023l-.017-.027-.02-.024c.085-.324.13-.437.174-.55.042-.114.083-.23.158-.555.096-.424.156-.725.2-.983.044-.256.071-.47.103-.717l.025-.022.027-.022a28.736 28.736 0 0 0 1.55-.251l.01.029.013.03c-.065.264-.13.53-.193.795-.064.264-.125.53-.187.796-.127.56-.175.772-.204.916-.03.144-.038.222-.086.511l-.032.026-.03.025m5.006-1.916c.196-.857.047-1.257-.146-1.5-.291-.371-.802-.493-1.335-.493-.32 0-1.08.036-1.676.586-.424.392-.626.928-.744 1.443-.12.522-.26 1.472.606 1.814.272.116.655.151.904.151.638 0 1.29-.178 1.78-.7.38-.414.552-1.043.61-1.3m-1.455-.065c-.032.144-.157.686-.33.914-.116.165-.26.266-.416.266-.043 0-.32 0-.326-.408-.003-.2.038-.407.09-.636.147-.643.32-1.186.762-1.186.349 0 .37.4.22 1.05m13.746.982c-.116.162-.386.262-.542.262-.044 0-.32 0-.326-.404-.003-.2.037-.405.089-.632.147-.638.321-1.176.762-1.176.287 0 .427.28.388.737l-.07.318c-.047.2-.102.395-.15.593a1.334 1.334 0 0 1-.151.301m2.205-2.866c-.697.127-.88.156-1.549.248l-.052.042-.022.163a.949.949 0 0 0-.485-.41c-.299-.114-1 .036-1.595.582-.425.39-.626.922-.744 1.433-.12.518-.26 1.462.606 1.802.273.113.525.147.773.134.266-.013.509-.153.738-.344l-.062.243.039.051c.625-.03.816-.03 1.49-.022l.06-.05c.097-.574.192-1.135.448-2.24.122-.526.25-1.051.378-1.575l-.023-.057m-10.687 3.865c-.559-.007-.75-.007-1.404.022l-.026-.043c.058-.251.12-.494.179-.745l.076-.336c.121-.53.24-1.138.255-1.325.01-.113.046-.393-.274-.393-.134 0-.277.064-.42.129-.077.279-.236 1.067-.312 1.424-.159.759-.172.845-.244 1.216l-.047.05a20.248 20.248 0 0 0-1.432.023l-.03-.05c.11-.452.22-.903.324-1.353.279-1.217.342-1.683.42-2.297l.052-.044c.644-.086.8-.107 1.499-.25L38.4 20l-.104.393a6.75 6.75 0 0 1 .352-.207c.328-.158.695-.207.894-.207.305 0 .64.085.782.437.133.314.043.7-.132 1.466l-.088.387a29.06 29.06 0 0 0-.308 1.588l-.068.05m5.435-4.583c-.1.442-.384.814-.755.998-.309.152-.68.165-1.066.165h-.252l.023-.1.456-1.987.013-.102.01-.08.181.018.97.09c.374.142.531.514.42.998m-.603-2.082l-.464.01c-1.205.012-1.688.009-1.888-.016l-.05.245-.43 1.999-1.082 4.446c1.051-.014 1.485-.015 1.664.006.043-.201.287-1.385.29-1.386l.222-.9s.063-.092.13-.128h.095c.906 0 1.933 0 2.736-.591.545-.401.92-.997 1.087-1.723.042-.179.075-.391.075-.605 0-.273-.056-.552-.218-.77-.41-.57-1.223-.577-2.167-.587m-13.034 3.251c.368-.253.415-.609.101-.793-.312-.183-.864-.125-1.234.128-.37.256-.415.611-.103.795.312.183.866.126 1.236-.13m23.533-.456l-.055-.064c-.687.142-.811.164-1.442.248l-.05.043-.006.032-.003-.008c-.473 1.086-.457.851-.84 1.703l-.005-.104-.095-1.85-.058-.064c-.722.142-.74.164-1.406.248l-.054.043-.009.076.007.006c.08.427.063.334.146 1.002.037.327.09.66.126.986.068.539.104.813.184 1.635-.45.744-.556 1.025-.985 1.677v.002l-.307.484c-.034.052-.066.084-.109.1a.522.522 0 0 1-.202.03h-.234l-.194.87.87-.012c.504-.004.823-.253.997-.567l.532-.927 3.192-5.59" fill="#FFF"/></g><g transform="translate(0 1600)"><rect fill="#0656A3" fill-rule="nonzero" width="73" height="48" rx="5"/><path d="M53.464 26.305c.34-.903 1.634-4.391 1.634-4.391-.024.042.338-.91.545-1.498l.277 1.355s.787 3.749.95 4.534h-3.406zm5.061-10.122h-3.17c-.984 0-1.72.278-2.152 1.302L47.11 31.879h4.31s.703-1.936.863-2.361l5.256.008c.122.548.5 2.353.5 2.353h3.808l-3.322-15.696zM48 16.552a10.298 10.298 0 0 0-3.677-.658c-4.058 0-6.913 2.13-6.937 5.182-.025 2.258 2.038 3.518 3.594 4.268 1.6.77 2.136 1.262 2.13 1.949-.01 1.052-1.276 1.534-2.456 1.534-1.643 0-2.517-.237-3.865-.824l-.528-.25-.574 3.516c.957.437 2.731.817 4.571.837 4.312 0 7.114-2.106 7.146-5.365.015-1.79-1.078-3.147-3.446-4.267-1.434-.73-2.315-1.211-2.305-1.948.001-.653.745-1.352 2.352-1.352a7.275 7.275 0 0 1 3.07.604l.369.179.555-3.405M29.012 31.873l2.567-15.706h4.103l-2.566 15.706zM25.57 16.18l-4.017 10.708-.43-2.177c-.748-2.508-3.078-5.225-5.684-6.588l3.675 13.737 4.342-.003 6.462-15.677H25.57" fill="#FEFEFE"/><path d="M17.825 16.169H11.21l-.055.325c5.148 1.302 8.555 4.443 9.97 8.217l-1.44-7.217c-.247-.995-.968-1.29-1.859-1.325" fill="#F49A06"/></g><g transform="translate(0 1700)"><rect fill="#0656A3" fill-rule="nonzero" width="73" height="48" rx="5"/><path d="M56.344 31.871h2.21v.688c.508-.488 1.282-.914 2.07-.914 1.358 0 2.094.74 2.094 2.468 0 1.29-.012 2.68-.025 4.07h-2.21c.014-1.214.026-2.442.026-3.745 0-.513-.139-.914-.8-.914-.355 0-.863.301-1.155.576l-.012 4.083h-2.249l.051-6.312zm-4.782 4.884c1.054 0 1.373-.901 1.373-1.728s-.319-1.728-1.373-1.728-1.372.9-1.372 1.728c0 .827.318 1.728 1.372 1.728m0-5.11c2.362 0 3.58 1.478 3.58 3.382 0 1.904-1.218 3.38-3.58 3.38s-3.581-1.476-3.581-3.38 1.22-3.381 3.58-3.381m-8.586.225h2.21v.89h.025c.33-.539.762-1.066 1.626-1.066.242 0 .495.026.723.075l-.292 2.155a2.628 2.628 0 0 0-.787-.125c-.737 0-1.307.613-1.307.738l-.039 3.645h-2.21l.051-6.312zm-6.019 0h.998l-.007-2.142h2.133l-.05 2.142h1.815l-.038 1.578H39.99c0 .877-.063 1.804-.063 2.342 0 .551.14.814.635.814.304 0 .559-.15.812-.3l.483 1.477a4.348 4.348 0 0 1-2.184.626c-1.79 0-1.88-1.114-1.88-2.567 0-.777.064-1.553.064-2.392h-.952l.05-1.578zm-.816 5.887c-.61.375-1.614.65-2.35.65-2.031 0-3.492-1.151-3.492-3.23 0-2.13 1.447-3.532 3.631-3.532.763 0 1.677.238 2.172.55l-.71 1.428c-.33-.137-.686-.25-1.043-.25-1.103 0-1.84.652-1.84 1.69 0 .903.71 1.617 1.65 1.617.42 0 .839-.19 1.195-.363l.787 1.44zm-8.687-3.52c0-.65-.316-1.24-1.053-1.24-.699 0-1.232.613-1.372 1.24h2.425zm1.626 3.231c-.75.626-1.892.94-2.908.94-2.324 0-3.378-1.629-3.378-3.244 0-1.904 1.448-3.52 3.441-3.52 2.439 0 3.2 1.703 3.2 3.87h-4.431c0 .49.317 1.315 1.537 1.315.773 0 1.205-.225 1.802-.626l.737 1.265zm-9.81-8.679h2.21l.007 9.393h-2.209zm-7.594.727h6.069v1.804h-3.771l-.025 1.665h3.758v1.728h-3.772l.015 1.666h3.72v1.803h-5.992z" fill="#FEFEFE"/><path d="M23.303 27.315c6.44-2.724 15.479-5.19 27.447-2.72l.125-2.994c-12.628-1.36-21.689 2.607-27.572 5.418v.296z" fill="#F49A06"/><path d="M47.82 13.514c-.027-.671-.05-1.581-.005-2.133h-.036c-.152.45-.802 1.804-1.09 2.47l-.926 1.989h2.184l-.127-2.326zm.285 5.354l-.068-1.35-3.11-.001-.635 1.35h-2.704l4.902-9.06h3.32l.829 9.06h-2.534zm-10.358.259c-1.757 0-2.925-.55-3.758-1.041l1.185-1.787c.749.413 1.336.889 2.687.889.435 0 .853-.112 1.09-.518.347-.59-.079-.908-1.051-1.451l-.48-.309c-1.444-.971-2.067-1.894-1.388-3.507.434-1.03 1.58-1.811 3.47-1.811 1.304 0 2.527.556 3.239 1.098l-1.364 1.579c-.695-.555-1.272-.835-1.931-.835-.525 0-.925.2-1.063.469-.26.508.084.853.842 1.318l.572.358c1.75 1.089 2.167 2.231 1.73 3.299-.757 1.838-2.234 2.249-3.78 2.249m-7.897-.259l2.792-9.077h2.49l-2.792 9.077zm-1.114-9.075l-2.24 3.848c-.57 1.008-.905 1.518-1.065 2.154h-.033c.04-.808-.074-1.798-.085-2.358l-.248-3.644h-4.193l-.044.245c1.078 0 1.718.533 1.893 1.625l.817 7.205h2.58l5.218-9.075h-2.6z" fill="#FEFEFE"/></g></g></svg>
