<svg xmlns="http://www.w3.org/2000/svg" width="49" height="33" fill="none">
  <path fill="#F5F5F5" d="M0 0h49v33H0V0Z"/>
  <path fill="#BD3D44" d="M49 33H0v-2.53h49V33Zm0-5.068H0v-2.54h49v2.54Zm0-5.069H0v-2.539h49v2.54Zm0-5.078H0v-2.539h49v2.54Zm0-5.078H0v-2.55h49v2.55Zm0-5.08H0V5.09h49v2.539Zm0-5.057H0V0h49v2.57Z"/>
  <path fill="#192F5D" d="M0 0h24.8v17.79H0V0Z"/>
  <path fill="#fff" d="m2.04 14.58.22.68h.7l-.56.42.2.7-.57-.43-.58.42.22-.7-.58-.4h.72l.2-.7.03.01Zm4.06 0 .22.68h.72l-.58.42.22.7-.58-.43-.58.42.22-.7-.58-.4h.72l.22-.7v.01Zm4.06 0 .23.68h.7l-.56.42.22.7-.6-.43-.56.42.22-.7-.6-.4h.73l.2-.7.02.01Zm4.29.68h.73l-.6.42.24.7-.6-.43-.57.42.23-.7-.6-.4h.73l.222-.679.218.669Zm3.85-.68.22.68h.72l-.58.42.22.7-.58-.43-.58.42.22-.7-.58-.4h.72l.22-.7v.01Zm4.07 0 .22.68h.7l-.58.42.23.7-.58-.43-.6.42.24-.7-.57-.4h.72l.22-.7v.01Zm-18.3-1.73.22.7H5l-.57.4.22.7-.58-.43-.58.42.2-.7-.57-.4h.7l.24-.7.01.01Zm4.06 0 .23.7h.7l-.57.4.22.7-.6-.43-.57.42.23-.7-.6-.4h.73l.23-.7v.01Zm4.07 0 .22.7h.72l-.58.4.22.7-.58-.43-.58.42.22-.7-.58-.4h.72l.22-.7v.01Zm4.07 0 .22.7h.7l-.57.4.22.7-.58-.43-.58.42.2-.7-.57-.4h.72l.2-.7.04.01Zm4.07 0 .22.7h.72l-.6.4.23.7-.56-.43-.6.42.23-.7-.57-.4h.7l.23-.7v.01Zm-6.108 1.741-.002-.01.01-.011-.008.021ZM2.04 11.121l.22.699h.7l-.56.4.2.7-.57-.43-.58.4.22-.68-.58-.42h.72l.2-.68.03.01Zm4.06 0 .22.699h.72l-.58.4.22.7-.58-.43-.58.4.22-.68-.58-.42h.72l.22-.68v.01Zm4.06 0 .23.699h.7l-.58.4.22.7-.58-.43-.58.4.22-.68-.58-.42h.72l.22-.68.01.01Zm4.29.699h.73l-.6.4.24.7-.6-.43-.57.4.23-.68-.6-.42h.73l.222-.659.218.689Zm3.85-.7.22.7h.72l-.58.4.22.7-.58-.43-.58.4.22-.68-.58-.42h.72l.22-.68v.01Zm4.07 0 .22.7h.7l-.58.4.23.7-.58-.43-.6.4.24-.68-.57-.42h.72l.22-.68v.01ZM4.07 9.4l.22.68H5l-.57.42.22.68-.58-.42-.58.42.2-.7-.57-.4h.7l.24-.7.01.02Zm4.06 0 .23.68h.7l-.57.42.22.68-.6-.42-.57.42.23-.7-.6-.4h.73l.23-.7v.02Zm4.07 0 .22.68h.72l-.58.42.22.68-.58-.42-.58.42.22-.7-.58-.4h.72l.22-.7v.02Zm4.07 0 .22.68h.7l-.57.42.22.68-.58-.42-.58.42.2-.7-.57-.4h.72l.2-.7.04.02Zm4.07 0 .22.68h.72l-.6.42.23.68-.56-.42-.6.42.23-.7-.57-.4h.7l.23-.7v.02Zm-6.108 1.731-.002-.01.01-.011-.008.021ZM2.04 7.661l.22.699h.7l-.56.4.2.7-.57-.43-.58.42.22-.68-.58-.42h.72l.2-.7.03.01Zm4.06 0 .22.699h.72l-.58.4.22.7-.58-.43-.58.42.22-.68-.58-.42h.71l.23-.7v.01Zm4.06 0 .23.699h.7l-.58.4.22.7-.58-.43-.58.42.22-.68-.58-.42h.72l.22-.7.01.01Zm4.29.699h.73l-.6.4.24.7-.6-.43-.57.42.23-.68-.6-.42h.73l.222-.679.218.689Zm3.85-.7.22.7h.72l-.58.4.22.7-.58-.43-.58.42.22-.68-.58-.42h.72l.22-.7v.01Zm4.07 0 .22.7h.7l-.58.4.23.7-.58-.43-.6.42.24-.68-.57-.42h.72l.22-.7v.01ZM4.07 5.93l.22.7H5l-.57.4.22.7-.58-.43-.58.42.2-.68-.57-.42h.7l.24-.7.01.01Zm4.06 0 .23.7h.7l-.57.4.22.7-.6-.43-.57.42.23-.68-.6-.42h.73l.23-.7v.01Zm4.07 0 .22.7h.72l-.58.4.22.7-.58-.43-.58.42.22-.68-.58-.42h.72l.22-.7v.01Zm4.07 0 .22.7h.7l-.57.4.22.7-.58-.43-.58.42.2-.68-.57-.42h.72l.2-.7.04.01Zm4.07 0 .22.7h.72l-.6.4.23.7-.56-.43-.6.42.23-.68-.57-.42h.7l.23-.7v.01Zm-6.108 1.74-.002-.01.01-.011-.008.021ZM2.26 4.9h.7l-.56.42.2.68-.57-.42-.58.42.22-.7-.58-.4h.72l.2-.7h.03l.22.7Zm4.06 0h.72l-.58.4.22.7-.58-.43-.58.43.22-.7-.58-.4h.71l.23-.7.22.7Zm4.07 0h.7l-.58.4.22.7-.58-.43-.58.43.22-.7-.58-.4h.72l.22-.7h.01l.23.7Zm4.06 0h.73l-.6.4.24.7-.6-.43-.57.43.23-.7-.6-.4h.73l.224-.683.216.683Zm4.07 0h.72l-.58.4.22.7-.58-.43-.58.43.22-.7-.58-.4h.72l.22-.7.22.7Zm4.07 0h.7l-.58.4.23.7-.58-.43-.6.43.24-.7-.57-.4h.72l.22-.7.22.7ZM4.07 2.48l.22.68H5l-.57.42.2.7-.55-.43-.6.42.22-.7-.56-.4h.7l.23-.7v.01Zm4.06 0 .23.68h.7l-.57.42.22.7-.6-.43-.57.42.23-.7-.6-.4h.73l.23-.7v.01Zm4.29.68h.72l-.58.42.22.7-.58-.43-.58.4.22-.67-.58-.42h.72l.22-.68.22.68Zm4.07 0h.7l-.58.42.23.7-.58-.43-.58.4.2-.67-.57-.42h.72l.2-.68h.04l.22.68Zm4.07 0h.72l-.6.42.23.7-.56-.43-.6.4.23-.67-.57-.42h.7l.23-.68.22.68Zm-6.326 1.057L14.23 4.2h.011l-.006.017ZM2.03.75l.23.68h.7l-.56.42.2.7-.56-.45-.58.42.22-.7-.58-.4h.72l.2-.7.01.03Zm4.07 0 .22.68h.72l-.58.42.22.7-.58-.45-.58.42.22-.7-.58-.4h.71l.23-.7v.03Zm4.29.68h.7l-.58.42.22.7-.58-.44-.58.44.22-.7-.58-.4h.72l.22-.7h.01l.23.68Zm4.06 0h.73l-.6.42.24.7-.6-.44-.57.43.23-.68-.6-.42h.73l.226-.67.214.66ZM18.3.75l.22.68h.72l-.58.42.22.7-.58-.45-.58.44.22-.7-.58-.4h.72l.22-.7v.01Zm4.29.68h.7l-.58.42.23.7-.58-.44-.6.43.24-.68-.57-.42h.72l.22-.68V.75l.22.68ZM14.24.76l-.004.01-.007-.02.011.01Z"/>
</svg>
