<svg width="32" height="32" viewBox="0 0 32 32" fill="none" xmlns="http://www.w3.org/2000/svg">
<path fill-rule="evenodd" clip-rule="evenodd" d="M29.3277 11.6733L29.5535 7.47999H32V12.0543H30.1938L28.4626 12.893C28.7259 15.485 28.8766 18.1533 28.9895 20.86C29.0645 22.804 29.1023 24.71 29.1398 26.616C29.1773 26.921 29.0645 27.188 28.9141 27.4547V30.6187C28.9141 30.8093 28.7634 31 28.5377 31H24.3764C24.1882 31 24 30.8473 24 30.6187V28H8V30.6187C8 30.8477 7.81178 31 7.62356 31H3.46234C3.23627 31 3.0859 30.8093 3.0859 30.6187V27.4547C2.93552 27.1877 2.82265 26.921 2.86016 26.616C2.89767 24.71 2.93519 22.804 3.01054 20.86C3.12341 18.1537 3.27412 15.485 3.53736 12.893L1.80619 12.0543H0V7.47999H2.44588L2.67161 11.6733L3.57487 12.1307C3.87596 8.69999 4.28991 5.38367 4.77922 2.21966C4.78535 2.20097 4.79149 2.17412 4.7991 2.14078L4.7991 2.14077C4.83806 1.97022 4.9158 1.62991 5.23068 1.343C5.49426 1.15233 5.79501 1 6.17146 1H6.67383H25.3255H25.8279C26.2043 1 26.5051 1.15233 26.7687 1.343C27.0833 1.62997 27.1612 1.97036 27.2002 2.14088C27.2078 2.17417 27.214 2.20099 27.2201 2.21966C27.7094 5.38333 28.1234 8.69999 28.4245 12.1307L29.3277 11.6733ZM6.02882 2.5L5 12.5H27L25.9712 2.5H6.02882ZM21 22H11L10 18H22L21 22ZM5 21H8L7.60008 18.5335C7.43335 17.6334 6.76671 17 5.96658 17H5V21ZM24 21H27V17H26.0334C25.2333 17 24.5667 17.6334 24.3999 18.5335L24 21ZM12 24H20V26H12V24Z" fill="#004FB6"/>
</svg>
