<svg xmlns="http://www.w3.org/2000/svg" width="180.01" height="20" viewBox="0 0 180 20"><path fill="#004fb6" d="M28.785 4.3s-.28-1.94-1.13-2.8c-1.1-1.15-2.3-1.16-2.85-1.2-3.98-.3-9.98-.3-9.98-.3s-5.96 0-9.94.3c-.54.04-1.76.05-2.84 1.2-.85.84-1.12 2.8-1.12 2.8s-.3 2.33-.3 4.63v2.15c0 2.3.28 4.6.28 4.6s.28 1.971 1.13 2.83c1.1 1.141 2.53 1.1 3.16 1.23 2.28.22 9.67.279 9.67.279s5.97 0 9.96-.3c.54-.05 1.75-.06 2.84-1.2.85-.85 1.13-2.8 1.13-2.8s.28-2.3.28-4.6V8.9c0-2.3-.28-4.6-.28-4.6h-.01zm-16.88 9.4v-8l7.7 4-7.7 4z"/><path fill="#002185" d="M179.729 4.33s-.27-1.97-1.14-2.84c-1.09-1.15-2.29-1.16-2.87-1.23C171.78 0 165.8 0 165.8 0s-5.96 0-9.949.28c-.551.07-1.75.07-2.851 1.2-.84.9-1.12 2.85-1.12 2.85s-.3 2.3-.3 4.6v2.16c0 2.301.3 4.6.3 4.6s.28 1.951 1.12 2.801c1.101 1.13 2.521 1.1 3.149 1.199 2.261.221 9.65.301 9.65.301s5.98 0 9.971-.301c.539-.06 1.75-.06 2.84-1.199.869-.85 1.14-2.801 1.14-2.801s.28-2.299.28-4.6V8.92c0-2.3-.271-4.6-.271-4.6h-.021l-.009.01zm-16.859 9.359v-8l7.68 4-7.68 3.98v.02z"/><path fill="#FFF" d="M103.94 4.32s-.271-1.96-1.131-2.83c-1.06-1.15-2.27-1.15-2.83-1.19C95.97 0 90 0 90 0s-5.97 0-9.95.3c-.56.06-1.77.06-2.85 1.2-.85.86-1.13 2.82-1.13 2.82s-.28 2.3-.28 4.6v2.16c0 2.3.26 4.6.26 4.6s.28 1.961 1.13 2.82c1.07 1.141 2.5 1.1 3.13 1.22C82.6 19.939 90 20 90 20s5.979 0 9.96-.3c.561-.06 1.77-.07 2.85-1.2.881-.859 1.15-2.82 1.15-2.82s.3-2.3.3-4.6V8.9c-.02-2.3-.3-4.6-.3-4.6v.02h-.02zM87.07 13.7v-8l7.68 4-7.68 4zm-75.205 0v-8l7.7 4-7.7 4zm150.986 0v-8l7.699 4-7.699 4z"/></svg>
